<svg width="56" height="56" viewBox="0 0 56 56" xmlns="http://www.w3.org/2000/svg" xmlns:xlink="http://www.w3.org/1999/xlink">
    <defs>
        <path id="a3lq68giec" d="M0 84.32h115.124V0H0z"/>
        <path id="fajlhvg5he" d="M0 84.914h115.935V0H0z"/>
        <circle id="41c6v30j4a" cx="28" cy="28" r="28"/>
    </defs>
    <g fill="none" fill-rule="evenodd">
        <mask id="6z31kfolzb" fill="#fff">
            <use xlink:href="#41c6v30j4a"/>
        </mask>
        <use fill="#FFF" xlink:href="#41c6v30j4a"/>
        <g mask="url(#6z31kfolzb)">
            <g transform="translate(-36 -23)">
                <path d="M92.043 32.078s6.553-.767 12.822 4.735c6.27 5.501 10.237 12.376 9.853 20.775-.384 8.398-7.165 12.422-8.317 11.881 0 0-4.788 9.057-14.358-1.18l-4.472-33.945 4.472-2.266z" fill="#F9C4D3"/>
                <path d="M92.043 32.078s6.553-.767 12.822 4.735c6.27 5.501 10.237 12.376 9.853 20.775-.384 8.398-7.165 12.422-8.317 11.881 0 0-4.788 9.057-14.358-1.18l-4.472-33.945 4.472-2.266z" stroke="#A92768" stroke-width=".76"/>
                <path d="M91.174 34.344s8.573-.688 16.89 10.295c8.318 10.983 3.455 20.068-3.582 22.627 0 0-3.38 7.166-12.44 1.024l-3.927-31.977 3.059-1.97z" fill="#DC73A5"/>
                <path d="M98.261 4.986c-2.317-.115-24.431 4.13-23.542 20.332l13.396 10.995s4.903-.747 8.557-5.923c3.654-5.175 2.5-11.329 2.404-12.867-.096-1.539-1.62-6.635.247-8.558 1.868-1.923 2.066-3.824-1.062-3.979" fill="#F5BCF4"/>
                <path d="M97.03 15.404c-.26-2.162-.52-5.189 0-6.658.395-1.12 2.071-2.715 2.849-3.413-.386-.19-.918-.312-1.618-.347-2.317-.115-24.431 4.13-23.542 20.332l12.303 10.098C99.59 27.25 97.28 17.49 97.03 15.404" fill="#BD6ED2"/>
                <path d="M90.991 13.496c-2.958 1.1-13.093 5.498-10.978 13.497l4.39 5.703s13.252-.317 7.63-18.685a.8.8 0 0 0-1.042-.515z" stroke="#6F2F80" stroke-width=".76"/>
                <path fill="#76B1B0" d="m83.409 30.349-1.618-1.13 3.607-5.167 1.617 1.129z"/>
                <path stroke="#6F2F80" stroke-width=".76" d="m83.409 30.349-1.618-1.13 3.607-5.167 1.617 1.129z"/>
                <path d="M98.261 4.986c-2.317-.115-24.431 4.13-23.542 20.332l13.396 10.995s4.903-.747 8.557-5.923c3.654-5.175 2.5-11.329 2.404-12.867-.096-1.539-1.62-6.635.247-8.558 1.868-1.923 2.066-3.824-1.062-3.979z" stroke="#6F2F80" stroke-width=".76"/>
                <path d="M33.377 57.618s-6.292-6.865-2.288-18.535 19.45-16.017 25.399-16.818c5.949-.8 22.767-1.716 33.521 14.873 10.755 16.59 3.433 35.81-2.402 37.984 0 0 .572-2.06.572-3.66 0 0-4.005 5.948-11.784 2.974 0 0 3.203-3.09 2.402-5.263l-29.403-9.496-16.017-2.06z" fill="#F9C4D3"/>
                <path d="M33.377 57.618s-6.292-6.865-2.288-18.535 19.45-16.017 25.399-16.818c5.949-.8 22.767-1.716 33.521 14.873 10.755 16.59 3.433 35.81-2.402 37.984 0 0 .572-2.06.572-3.66 0 0-4.005 5.948-11.784 2.974 0 0 3.203-3.09 2.402-5.263l-29.403-9.496-16.017-2.06z" stroke="#A92768" stroke-width=".76"/>
                <path d="M42.397 49.636c1.291-8.333 10.01-16.94 10.01-16.94-1.517.128-5.187 2.74-5.187 2.74 1.043-11.077 13.517-11.553 13.517-11.553s-10.362-2.038-21.84 7.918c-11.478 9.957-5.003 25.883-5.003 25.883l7.574.974c.048-2.851.455-5.962.93-9.022M88.179 71.461c0 .563-.07 1.181-.162 1.747 5.672-6.823 4.726-18.81 1.014-28.57-3.856-10.14-12.873-14.1-12.873-14.1l3.173 31.896-1.567 6.405 1.033.334c.801 2.174-2.402 5.263-2.402 5.263 7.78 2.974 11.784-2.975 11.784-2.975" fill="#DC73A5"/>
                <path d="M79.629 26.752c3.19 3.482 16.248 18.785 15.332 35.16 1.31-7.211.52-16.332-4.952-24.774-3.093-4.77-6.687-8.091-10.38-10.386" fill="#FAF2B2"/>
                <path d="M33.377 57.618s-6.292-6.865-2.288-18.535 19.45-16.017 25.399-16.818c5.949-.8 22.767-1.716 33.521 14.873 10.755 16.59 3.433 35.81-2.402 37.984 0 0 .572-2.06.572-3.66 0 0-4.005 5.948-11.784 2.974 0 0 3.203-3.09 2.402-5.263l-29.403-9.496-16.017-2.06z" stroke="#A92768" stroke-width=".76"/>
                <path d="M84.403 45.324s2.632 7.832 0 16.984c0 0 4.233 2.289-.457 7.094-4.691 4.805-24.484 5.606-31.463 1.03l-5.263-9.039 4.691-23.683 9.267-6.406 11.441 8.923 11.784 5.097z" fill="#F9E6D8"/>
                <path d="M84.403 45.324s2.632 7.832 0 16.984c0 0 4.233 2.289-.457 7.094-4.691 4.805-24.484 5.606-31.463 1.03l-5.263-9.039 4.691-23.683 9.267-6.406 11.441 8.923 11.784 5.097z" stroke="#622219" stroke-width=".76"/>
                <path d="M84.403 45.324 72.62 40.227l-2.997-2.337-13.253-2.496-7.382 25.441 1.402 6 2.094 3.596c1.175.77 2.714 1.388 4.482 1.86-1.423-1.555-3.934-5.905-2.773-16.67 0 0 7.5-.414 9.166-.94 1.667-.526 5.372 1.715 8.077.594 2.705-1.12 3.852-1.155 5.075-.2 0 0 4.724-1.752 6.125-.086 1.401 1.666 1.51 2.972 1.768 7.32 2.632-9.153 0-16.985 0-16.985" fill="#F7978A"/>
                <path d="M84.403 45.324s2.632 7.832 0 16.984c0 0 4.233 2.289-.457 7.094-4.691 4.805-24.484 5.606-31.463 1.03l-5.263-9.039 4.691-23.683 9.267-6.406 11.441 8.923 11.784 5.097z" stroke="#622219" stroke-width=".76"/>
                <path d="M51.11 33.249s-9.839 6.979-13.042 18.648c-3.204 11.67 0 21.404 10.64 21.571 0 0 4.69 3.714 6.979 2.34 0 0-10.734-14.41 3.705-39.495" stroke="#39A44A" stroke-width=".594"/>
                <path d="M51.11 33.249s-9.839 6.979-13.042 18.648c-3.204 11.67 0 21.404 10.64 21.571 0 0 4.69 3.714 6.979 2.34 0 0-10.734-14.41 3.705-39.495" fill="#F9C4D3"/>
                <path d="M51.11 33.249s-9.839 6.979-13.042 18.648c-3.204 11.67 0 21.404 10.64 21.571 0 0 4.69 3.714 6.979 2.34 0 0-10.734-14.41 3.705-39.495" stroke="#A92768" stroke-width=".76"/>
                <path d="M57.822 66.717c-.09.554-1.435.8-3.006.547-1.57-.253-2.771-.908-2.682-1.462.089-.555 1.435-.8 3.005-.547 1.571.253 2.772.907 2.683 1.462M82.066 64.582c.232.4-.5 1.256-1.634 1.91-1.135.655-2.242.861-2.473.46-.231-.4.5-1.255 1.635-1.91 1.134-.655 2.241-.861 2.472-.46" fill="#FBABB0"/>
                <path d="M38.01 52.112s-1.507-1.39-3.12.37c-1.611 1.758-3.182 7.615 2.238 10.79l.882-6.614v-4.546z" fill="#F7978A"/>
                <path d="M38.01 52.112s-1.507-1.39-3.12.37c-1.611 1.758-3.182 7.615 2.238 10.79l.882-6.614v-4.546z" stroke="#A92768" stroke-width=".76"/>
                <path d="M59.675 67.628a.863.863 0 0 0-.169.834c.4 1.23 1.777 3.29 3.895 3.694 2.452.467 4.787.175 6.13-2.101 1.342-2.277-2.686-3.327-4.495-3.444-1.534-.099-3.592.255-4.637.555-.28.08-.53.239-.721.459l-.003.003z" fill="#D7868E"/>
                <path d="M59.675 67.628a.863.863 0 0 0-.169.834c.4 1.23 1.777 3.29 3.895 3.694 2.452.467 4.787.175 6.13-2.101 1.342-2.277-2.686-3.327-4.495-3.444-1.534-.099-3.592.255-4.637.555-.28.08-.53.239-.721.459l-.003.003z" stroke="#622219" stroke-width=".594"/>
                <path d="m51.675 33.458-.565-.21s-9.839 6.98-13.042 18.65c-3.204 11.669 0 21.403 10.64 21.57 0 0 4.69 3.713 6.979 2.34 0 0-5.336-7.165-3.422-20.184v-.003c-3.118 7.637.142 17.847.142 17.847-2.449-.966-5.813-5.487-5.813-5.487 0 .894-.646 1.488-.646 1.488-5.649-2.782-4.842-11.5-3.55-19.833 1.062-6.857 7.153-13.9 9.277-16.178" fill="#DC73A5"/>
                <path d="M48.109 40.956c-.95 1.33-1.327 2.69-.842 3.036.485.346 1.648-.451 2.598-1.781.95-1.33 1.328-2.69.843-3.036-.485-.347-1.649.45-2.6 1.78M54.643 38.249a1.55 1.55 0 0 0-.778.45c-.854.878-3.604 3.812-4.443 5.94-.996 2.53.79 1.83 1.351 1.265.562-.567 2.487-3.052 2.912-3.932.424-.88 1.387-1.56 1.755-2.38.315-.705.126-1.54-.797-1.343" fill="#FAF2B2"/>
                <path d="M75.418 54c.346-.4 3.135-2.964 6.185-2.196 3.05.768.64 3.775.64 3.775s-.675-1.344-2.96-1.323c-2.287.022-3.524 1.11-4.036 1.685-.511.576-.874-.064 0-1.002 0 0-.49-.17.171-.938" fill="#7D0802"/>
                <path d="M81.193 51.896s.824-.189 1.442-1.253c.618-1.065.326 1.134-.824 1.743l-.618-.49zM82.635 52.6s1.305-1.236 1.356-2.42c.052-1.185.721-.258.343 1.115-.377 1.373-1.7 1.923-1.7 1.923V52.6z" fill="#7D0802"/>
                <path d="M76.51 55.075s-1.9 1.45-1.675 4.832c.226 3.382 1.482 5.444 3.64 4.703 2.158-.741 4.396-4.929 1.538-10.501h-2.279l-1.224.966z" fill="#AB2820"/>
                <path d="M77.894 60.249c-1.197.022-2.11 1.738-2.483 2.573.6 1.538 1.634 2.279 3.064 1.788.8-.275 1.609-1.022 2.167-2.137-1.713-3.2-2.748-2.224-2.748-2.224" fill="#F6C55D"/>
                <path d="M76.76 58.843c1.015-.438 3.296-3.385 1.176-4.734h-.202l-1.224.966s-1.155.882-1.557 2.873c.36.46 1.088 1.206 1.808.895" fill="#FFF"/>
                <path d="M79.331 59.09c0 .964-.413 1.745-.924 1.745-.51 0-.923-.78-.923-1.744s.413-1.745.923-1.745.924.781.924 1.745" fill="#7D0802"/>
                <path d="M76.51 55.075s-1.9 1.45-1.675 4.832c.226 3.382 1.482 5.444 3.64 4.703 2.158-.741 4.396-4.929 1.538-10.501h-2.279l-1.224.966z" stroke="#7D0802" stroke-width=".594"/>
                <path d="M51.11 33.249s-9.839 6.979-13.042 18.648c-3.204 11.67 0 21.404 10.64 21.571 0 0 4.69 3.714 6.979 2.34 0 0-10.734-14.41 3.705-39.495" stroke="#A92768" stroke-width=".76"/>
                <path d="M49.59 54.423s5.908-2.713 10.318 0c4.41 2.714 2.374 0 2.148-.226 0 0 .165-.788-1.319-1.634-1.484-.847-3.84-2.409-9.085-1.478-5.245.931-3.166 2.125-3.166 2.125s-1.31 1.103-.406 1.351c.903.248 1.51-.138 1.51-.138" fill="#7D0802"/>
                <path d="M51.661 49.511c.17.437.534 1.287.897 1.622l-.708.262s-.522-.912-.36-1.867c.016-.088.139-.1.171-.017M49.438 48.4c-.261.592-.6 1.897.521 3.363l.814-.184s-.991-.92-1.138-3.143c-.008-.107-.153-.136-.197-.037" fill="#7D0802"/>
                <path d="M58.356 53.184s3.043 1.146 2.25 7.716c-.795 6.57-6.812 3.652-7.762 1.058-.95-2.593-.485-7.408.486-8.995l5.026.22z" fill="#AB2820"/>
                <path d="m56.891 53.12-3.561-.157c-.44.72-.776 2.105-.923 3.645a3.444 3.444 0 0 0 2.173.974c1.961.138 5.397-2.493 2.311-4.463" fill="#FFF"/>
                <path d="M57.683 60.004s1.07-1.173-.785-1.073c-1.384.076-3.425 1.234-4.372 1.817.08.436.185.846.318 1.21.854 2.33 5.796 4.921 7.368.66-1.73-2.943-2.53-2.614-2.53-2.614" fill="#F6C55D"/>
                <path d="M58.353 58.686c0 1.077-.408 1.95-.911 1.95-.503 0-.911-.873-.911-1.95s.408-1.95.91-1.95c.504 0 .912.873.912 1.95" fill="#7D0802"/>
                <path d="M58.356 53.184s3.043 1.146 2.25 7.716c-.795 6.57-6.812 3.652-7.762 1.058-.95-2.593-.485-7.408.486-8.995l5.026.22z" stroke="#7D0802" stroke-width=".594"/>
                <path d="M54.978 30.538c-.572.866-1.391 6.694 0 5.775 1.391-.919 6.578 1.906 6.578 1.906l6.098-8.697-9.528-1.37-3.148 2.386z" fill="#F9C4D3"/>
                <path d="M75.48 30.045s5.949 3.557 8.923 15.279c0 0-3.432 6.802-9.724 5.887 0 0-5.378 2.8-9.382.085 0 0-2.975 1.86-6.407-.314s-1.487-13.918 2.975-18.286" fill="#F9C4D3"/>
                <path d="M75.48 30.045s5.949 3.557 8.923 15.279c0 0-3.432 6.802-9.724 5.887 0 0-5.378 2.8-9.382.085 0 0-2.975 1.86-6.407-.314s-1.487-13.918 2.975-18.286" stroke="#A92768" stroke-width=".76"/>
                <path d="M64.997 37.013c-.831.357-1.587 1.27-2.046 2.752-.459 1.481-1.552 5.679-1.376 6.067.177.388.953.776 2.258-.318 1.305-1.093 2.01-3.13 2.081-3.893.07-.763.282-2.972.564-3.401.283-.43.247-1.947-1.481-1.207M69.768 35.753c.133.187.22.401.274.624.299 1.214 1.35 6.056-.248 8.262-1.834 2.533-2.328.818-2.081 0 .247-.818.635-4.91.635-6.814 0-1.746.682-3.107 1.42-2.072M73.385 39.505s.326 1.514-.885 2.376c-1.211.862-1.072-.909-1.048-1.444.023-.536 1.001-1.491 1.374-1.491.373 0 .559.559.559.559" fill="#FAF2B2"/>
                <path d="M83.542 46.698c-6.22 4.18-8.323 2.757-8.323 2.757-4.014 2.028-8.608 1.343-8.608 1.343l-.24-1.343c-1.467.906-6.16.596-6.16.596-2.298-7.24.61-14.682 1.883-17.4l-.23.045c-4.461 4.368-6.406 16.112-2.974 18.286 3.432 2.174 6.407.313 6.407.313 4.004 2.716 9.382-.084 9.382-.084 4.458.648 7.48-2.577 8.863-4.513z" fill="#DC73A5"/>
                <path d="M75.48 30.045s5.949 3.557 8.923 15.279c0 0-3.432 6.802-9.724 5.887 0 0-5.378 2.8-9.382.085 0 0-2.975 1.86-6.407-.314s-1.487-13.918 2.975-18.286" stroke="#A92768" stroke-width=".76"/>
                <path d="M40.886.652a7.118 7.118 0 0 0-2.484 1.47c-3.068 2.749-10.609 10.81-11.59 18.12-1.087 8.089-1.087 18.018 7.484 21.021 8.572 3.004 15.332-4.128 16.72-10.404 1.39-6.275-.273-17.225-6.036-23.326 0 0 .567-4.616-.926-6.425-.793-.961-2.108-.81-3.168-.456" fill="#F5BCF4"/>
                <path d="M45.18 35.182c5.254-7.562-.637-19.98-2.467-23.004-1.831-3.025-1.66-6.785-1.513-8.693.087-1.12-.536-1.996-1.065-2.528-.63.301-1.211.697-1.733 1.165-3.068 2.748-10.609 10.81-11.59 18.12-1.087 8.089-1.087 18.017 7.484 21.021 3.327 1.166 6.38.804 8.953-.44-.434-2.284 1.931-5.641 1.931-5.641" fill="#BD6ED2"/>
                <path d="M39.608 12.083a1.193 1.193 0 0 0-1.81-.357c-2.137 1.757-6.664 6.323-6.853 13.592-.248 9.53 4.058 10.995 5.937 10.995 1.879 0 7.71-.924 6.47-10.995-.874-7.088-2.724-11.338-3.744-13.235z" stroke="#6F2F80" stroke-width=".76"/>
                <mask id="x3k2uu2byd" fill="#fff">
                    <use xlink:href="#a3lq68giec"/>
                </mask>
                <path fill="#76B1B0" mask="url(#x3k2uu2byd)" d="M36.033 34.344h1.977v-7.907h-1.977z"/>
                <path stroke="#6F2F80" stroke-width=".76" mask="url(#x3k2uu2byd)" d="M36.033 34.344h1.977v-7.907h-1.977z"/>
                <path d="M40.886.652a7.118 7.118 0 0 0-2.484 1.47c-3.068 2.749-10.609 10.81-11.59 18.12-1.087 8.089-1.087 18.018 7.484 21.021 8.572 3.004 15.332-4.128 16.72-10.404 1.39-6.275-.273-17.225-6.036-23.326 0 0 .567-4.616-.926-6.425-.793-.961-2.108-.81-3.168-.456z" stroke="#6F2F80" stroke-width=".76" mask="url(#x3k2uu2byd)"/>
                <path d="M58.63 79.478c-.259.594-.805 2.129-.375 3.717a.83.83 0 0 0 .997.592 8.665 8.665 0 0 0 5.725-4.568l-2.297-5.507s-1.816-1.112-4.677-.402c-2.797.694-2.825 2.945.516 5.72.131.108.179.29.11.448" fill="#71020C" mask="url(#x3k2uu2byd)"/>
                <path d="M59.61 79.21c-.216.476-.568 1.579-.317 3.367a.24.24 0 0 0 .325.194c.854-.337 3.436-1.544 4.457-4.134l-1.59-4.346s-2.102-1.416-4.97-.094a.43.43 0 0 0-.244.337c-.076.605-.029 2.268 2.232 4.192.14.119.184.316.108.484" fill="#99242F" mask="url(#x3k2uu2byd)"/>
                <path d="M61.025 77.533c.066 0 .102.078.056.126-.286.3-.965 1.12-1.137 2.283-.219 1.484-.122 2.239 1.728.876 1.81-1.334 2.035-3.225.218-3.386-.049-.004-.077-.058-.047-.098.095-.127.248-.373.234-.626-.019-.366.217-1.496-1.413-1.615-1.631-.12-2.537.114-2.498.46.038.346.154 1.174.77 1.598.587.404.928.385 2.09.382" fill="#F67D85" mask="url(#x3k2uu2byd)"/>
                <path d="M73.95 77.638a.264.264 0 0 1 .108-.313c.5-.304 1.858-1.365 2.186-4.045.403-3.301-7.477 1.18-7.477 1.18l-1.41 4.928s1.365 2 3.836 2.682c2.436.673 4.478.436 2.757-4.432" fill="#71020C" mask="url(#x3k2uu2byd)"/>
                <path d="M73.02 76.933a.323.323 0 0 0-.061.247c.067.4.25 1.682.211 3.667-.047 2.424-5.202-2.052-5.202-2.052l2.518-4.633s1.743-1.176 3.296-1.388c1.54-.21 2.618-.337-.761 4.159" fill="#99242F" mask="url(#x3k2uu2byd)"/>
                <path d="M71.87 77.074a.046.046 0 0 0 .018.077c.24.072.946.339 1.087 1.06.171.87.316 1.61-.484 2.072-.8.464-1.348-.168-2.148-.968-.78-.78-1.105-1.746.053-2.084a.133.133 0 0 0 .097-.118c.027-.41.16-2.058.566-2.39.463-.378 2.085-.422 2.506-.263.42.158 0 1.093-.4 1.447-.34.3-1.076.968-1.295 1.167" fill="#F67D85" mask="url(#x3k2uu2byd)"/>
                <path d="M66.77 73.605s-2.34-2.162-3.918-.356c-1.577 1.806.56 6.258 3.332 6.309 2.773.05 3.867-2.824 4.07-3.79.204-.967.636-2.56-.686-3.238-1.323-.68-2.798 1.075-2.798 1.075" fill="#7B3404" mask="url(#x3k2uu2byd)"/>
                <path d="M65.955 74.267c-.406-.382-2.041-1.255-2.798-.687-.756.568.153 3.867 1.857 4.986 1.705 1.119 3.969-.467 4.427-2.586.457-2.12.076-2.705-.764-2.858-.84-.153-1.093.433-1.526 1.069-.432.635-1.196.076-1.196.076" fill="#B67C0F" mask="url(#x3k2uu2byd)"/>
                <path d="M66.113 74.596c-.449-.418-1.037-1.005-1.75-.294-.711.712-.024 2.194 1.161 3.39 1.186 1.195 2.23-.48 2.91-1.726.681-1.246.196-2.213-.371-2.252-.568-.038-.99.495-1.177.867-.185.371-.453.315-.773.015" fill="#F27EDE" mask="url(#x3k2uu2byd)"/>
                <path d="M66.218 75.393c-.296-.276-.684-.664-1.153-.194-.47.469-.017 1.446.765 2.234s1.47-.316 1.918-1.138c.449-.82.13-1.459-.245-1.484-.374-.025-.653.327-.775.571-.123.245-.299.208-.51.01" fill="#BF34C0" mask="url(#x3k2uu2byd)"/>
                <path d="M65.06 74.55c-.263.186-.356.665 0 1.052s.681-.207.573-.792c-.108-.585-.573-.26-.573-.26" fill="#FFF" mask="url(#x3k2uu2byd)"/>
                <path d="M63.695 75.127a.215.215 0 0 0-.302.141c-.045.18-.075.505.066.989.234.802.953 1.95 1.415 1.126.463-.825-.783-1.275-.906-1.83-.056-.256-.168-.373-.273-.426M69.408 76.112c-.046-.055-.123-.079-.253-.036-.291.097-.775.535-.905.751-.131.217-.456.683-1.113 1.127-.656.443-.422.84-.084.84 1.078-.367 2.034-1.42 2.355-2.682" fill="#F9D56D" mask="url(#x3k2uu2byd)"/>
                <path d="M67.429 76.06c-.225.235-.317.644-.286.827.03.184.705.45 1.042-.776.337-1.226-.756-.051-.756-.051" fill="#FFF" mask="url(#x3k2uu2byd)"/>
            </g>
        </g>
        <g mask="url(#6z31kfolzb)">
            <g transform="translate(-36 -23)">
                <path d="M92.691 32.304s6.6-.772 12.913 4.768c6.314 5.54 10.309 12.463 9.922 20.921-.386 8.458-7.216 12.51-8.376 11.966 0 0-4.821 9.12-14.459-1.188l-4.503-34.185 4.503-2.282z" fill="#E1E1E1"/>
                <path d="M92.691 32.304s6.6-.772 12.913 4.768c6.314 5.54 10.309 12.463 9.922 20.921-.386 8.458-7.216 12.51-8.376 11.966 0 0-4.821 9.12-14.459-1.188l-4.503-34.185 4.503-2.282z" stroke="#888" stroke-width=".766"/>
                <path d="M91.816 34.586s8.634-.693 17.01 10.367c8.376 11.06 3.479 20.21-3.608 22.787 0 0-3.405 7.216-12.527 1.03L88.735 36.57l3.081-1.983z" fill="#BBB"/>
                <path d="M98.954 5.021C96.62 4.905 74.35 9.18 75.245 25.496l13.49 11.073s4.939-.753 8.618-5.965c3.68-5.212 2.518-11.409 2.42-12.958-.096-1.549-1.63-6.68.25-8.617 1.881-1.937 2.08-3.852-1.07-4.008" fill="#E1E1E1"/>
                <path d="M98.954 5.021C96.62 4.905 74.35 9.18 75.245 25.496l13.49 11.073s4.939-.753 8.618-5.965c3.68-5.212 2.518-11.409 2.42-12.958-.096-1.549-1.63-6.68.25-8.617 1.881-1.937 2.08-3.852-1.07-4.008z" stroke="#A92768" stroke-width=".766"/>
                <path d="M97.713 15.512c-.261-2.177-.522-5.225 0-6.705.398-1.127 2.086-2.734 2.87-3.436-.389-.191-.925-.315-1.63-.35C96.62 4.905 74.35 9.18 75.246 25.496l12.39 10.17c12.656-8.224 10.33-18.054 10.078-20.154" fill="#BBB"/>
                <path d="M91.632 13.59c-2.98 1.108-13.185 5.538-11.056 13.593l4.422 5.744s13.345-.32 7.684-18.817a.805.805 0 0 0-1.05-.52z" stroke="#888" stroke-width=".766"/>
                <path fill="#FFF" d="m83.997 30.562-1.63-1.137L86 24.221l1.63 1.137z"/>
                <path stroke="#888" stroke-width=".766" d="m83.997 30.562-1.63-1.137L86 24.221l1.63 1.137z"/>
                <path d="M98.954 5.021C96.62 4.905 74.35 9.18 75.245 25.496l13.49 11.073s4.939-.753 8.618-5.965c3.68-5.212 2.518-11.409 2.42-12.958-.096-1.549-1.63-6.68.25-8.617 1.881-1.937 2.08-3.852-1.07-4.008z" stroke="#888" stroke-width=".766"/>
                <path d="M33.612 58.024s-6.337-6.913-2.304-18.665c4.032-11.752 19.586-16.13 25.577-16.937 5.992-.806 22.928-1.728 33.758 14.978 10.83 16.706 3.457 36.062-2.42 38.251 0 0 .577-2.074.577-3.686 0 0-4.033 5.99-11.867 2.995 0 0 3.226-3.11 2.42-5.3l-29.61-9.563-16.13-2.073z" fill="#E1E1E1"/>
                <path d="M33.612 58.024s-6.337-6.913-2.304-18.665c4.032-11.752 19.586-16.13 25.577-16.937 5.992-.806 22.928-1.728 33.758 14.978 10.83 16.706 3.457 36.062-2.42 38.251 0 0 .577-2.074.577-3.686 0 0-4.033 5.99-11.867 2.995 0 0 3.226-3.11 2.42-5.3l-29.61-9.563-16.13-2.073z" stroke="#A92768" stroke-width=".766"/>
                <path d="M42.696 49.986c1.3-8.392 10.08-17.06 10.08-17.06-1.527.13-5.223 2.759-5.223 2.759C48.603 24.53 61.165 24.05 61.165 24.05S50.73 22 39.171 32.025c-11.559 10.027-5.038 26.066-5.038 26.066l7.627.98c.048-2.87.458-6.004.936-9.085M88.8 71.965c0 .566-.071 1.189-.163 1.76 5.712-6.873 4.76-18.943 1.022-28.772-3.884-10.212-12.965-14.2-12.965-14.2l3.196 32.121-1.578 6.45 1.04.336c.807 2.19-2.419 5.3-2.419 5.3 7.835 2.996 11.867-2.995 11.867-2.995" fill="#BBB"/>
                <path d="M80.19 26.94c3.213 3.507 16.362 18.918 15.44 35.408 1.32-7.262.524-16.447-4.986-24.948-3.115-4.804-6.735-8.149-10.454-10.46" fill="#FFF"/>
                <path d="M33.612 58.024s-6.337-6.913-2.304-18.665c4.032-11.752 19.586-16.13 25.577-16.937 5.992-.806 22.928-1.728 33.758 14.978 10.83 16.706 3.457 36.062-2.42 38.251 0 0 .577-2.074.577-3.686 0 0-4.033 5.99-11.867 2.995 0 0 3.226-3.11 2.42-5.3l-29.61-9.563-16.13-2.073z" stroke="#888" stroke-width=".766"/>
                <path d="M84.998 45.643s2.65 7.887 0 17.104c0 0 4.263 2.305-.461 7.144s-24.656 5.645-31.684 1.037l-5.3-9.102 4.724-23.85 9.332-6.452 11.522 8.987 11.867 5.132z" fill="#E1E1E1"/>
                <path d="M84.998 45.643s2.65 7.887 0 17.104c0 0 4.263 2.305-.461 7.144s-24.656 5.645-31.684 1.037l-5.3-9.102 4.724-23.85 9.332-6.452 11.522 8.987 11.867 5.132z" stroke="#622219" stroke-width=".766"/>
                <path d="M84.998 45.643 73.13 40.511l-3.019-2.354-13.346-2.514-7.434 25.62 1.412 6.042 2.11 3.623c1.182.775 2.732 1.397 4.513 1.873-1.434-1.567-3.962-5.948-2.793-16.788 0 0 7.552-.418 9.23-.947 1.679-.53 5.41 1.727 8.134.599 2.724-1.128 3.88-1.164 5.111-.202 0 0 4.757-1.764 6.168-.086 1.411 1.677 1.521 2.993 1.78 7.37 2.65-9.217 0-17.104 0-17.104" fill="#BBB"/>
                <path d="M84.998 45.643s2.65 7.887 0 17.104c0 0 4.263 2.305-.461 7.144s-24.656 5.645-31.684 1.037l-5.3-9.102 4.724-23.85 9.332-6.452 11.522 8.987 11.867 5.132z" stroke="#888" stroke-width=".766"/>
                <path d="M51.47 33.483s-9.908 7.028-13.134 18.78c-3.226 11.752 0 21.555 10.715 21.723 0 0 4.724 3.74 7.028 2.357 0 0-10.81-14.513 3.731-39.774" stroke="#39A44A" stroke-width=".5"/>
                <path d="M51.47 33.483s-9.908 7.028-13.134 18.78c-3.226 11.752 0 21.555 10.715 21.723 0 0 4.724 3.74 7.028 2.357 0 0-10.81-14.513 3.731-39.774" fill="#E1E1E1"/>
                <path d="M58.23 67.187c-.09.558-1.446.805-3.028.55-1.581-.254-2.79-.913-2.7-1.472.089-.559 1.444-.805 3.026-.55 1.582.254 2.791.913 2.701 1.472M82.645 65.036c.233.404-.505 1.266-1.647 1.925-1.142.66-2.257.867-2.49.464-.233-.404.505-1.265 1.647-1.925 1.142-.66 2.257-.867 2.49-.464" fill="#FFF"/>
                <path d="M38.277 52.48s-1.517-1.4-3.14.37c-1.624 1.772-3.205 7.67 2.253 10.867l.887-6.66V52.48z" fill="#E1E1E1"/>
                <path d="M38.277 52.48s-1.517-1.4-3.14.37c-1.624 1.772-3.205 7.67 2.253 10.867l.887-6.66V52.48z" stroke="#888" stroke-width=".766"/>
                <path d="M60.095 68.104a.87.87 0 0 0-.17.84c.402 1.24 1.79 3.314 3.923 3.72 2.469.47 4.82.177 6.172-2.116 1.352-2.292-2.704-3.35-4.526-3.468-1.545-.1-3.617.257-4.67.56-.281.08-.533.24-.726.461l-.003.003z" fill="#BBB"/>
                <path d="M60.095 68.104a.87.87 0 0 0-.17.84c.402 1.24 1.79 3.314 3.923 3.72 2.469.47 4.82.177 6.172-2.116 1.352-2.292-2.704-3.35-4.526-3.468-1.545-.1-3.617.257-4.67.56-.281.08-.533.24-.726.461l-.003.003z" stroke="#888" stroke-width=".574"/>
                <path d="m52.04 33.693-.57-.21s-9.908 7.028-13.134 18.78c-3.226 11.752 0 21.555 10.715 21.723 0 0 4.724 3.74 7.028 2.357 0 0-5.373-7.216-3.445-20.327v-.003c-3.14 7.69.142 17.973.142 17.973-2.466-.973-5.854-5.526-5.854-5.526 0 .9-.65 1.499-.65 1.499-5.689-2.802-4.876-11.582-3.576-19.973 1.07-6.906 7.204-13.997 9.344-16.293" fill="#BBB"/>
                <path d="M48.448 41.244c-.957 1.34-1.337 2.709-.848 3.058.488.349 1.66-.455 2.617-1.794.957-1.34 1.336-2.708.848-3.057-.489-.35-1.66.454-2.617 1.793M55.028 38.518a1.56 1.56 0 0 0-.784.453c-.86.885-3.63 3.84-4.473 5.982-1.004 2.548.794 1.844 1.36 1.274.566-.57 2.504-3.073 2.932-3.96.427-.886 1.397-1.57 1.767-2.397.318-.709.127-1.55-.802-1.352" fill="#FFF"/>
                <path d="M77.05 55.463s-1.914 1.46-1.687 4.866c.227 3.406 1.492 5.482 3.665 4.736 2.173-.746 4.427-4.963 1.548-10.575h-2.294l-1.233.973z" fill="#BBB"/>
                <path d="M78.443 60.673c-1.206.023-2.124 1.75-2.5 2.591.604 1.55 1.645 2.295 3.085 1.8.805-.275 1.62-1.028 2.182-2.15-1.725-3.223-2.767-2.24-2.767-2.24M77.302 59.258c1.02-.441 3.318-3.41 1.183-4.768h-.203l-1.233.973s-1.163.888-1.568 2.894c.363.462 1.095 1.214 1.82.9" fill="#E1E1E1"/>
                <path d="M79.89 59.507c0 .97-.416 1.757-.93 1.757s-.93-.787-.93-1.757c0-.97.416-1.757.93-1.757s.93.787.93 1.757" fill="#FFF"/>
                <path d="M77.05 55.463s-1.914 1.46-1.687 4.866c.227 3.406 1.492 5.482 3.665 4.736 2.173-.746 4.427-4.963 1.548-10.575h-2.294l-1.233.973z" stroke="#888" stroke-width=".5"/>
                <path d="M51.47 33.483s-9.908 7.028-13.134 18.78c-3.226 11.752 0 21.555 10.715 21.723 0 0 4.724 3.74 7.028 2.357 0 0-10.81-14.513 3.731-39.774" stroke="#888" stroke-width=".766"/>
                <path d="M58.767 53.558s3.064 1.155 2.265 7.771c-.8 6.617-6.859 3.678-7.815 1.066-.957-2.612-.489-7.46.488-9.059l5.062.222z" fill="#BBB"/>
                <path d="m57.292 53.494-3.587-.158c-.443.725-.78 2.12-.93 3.67a3.468 3.468 0 0 0 2.19.982c1.975.139 5.435-2.51 2.327-4.494M58.09 60.427s1.077-1.182-.791-1.08c-1.394.075-3.45 1.242-4.403 1.829.081.44.186.852.32 1.219.86 2.347 5.838 4.955 7.42.663-1.741-2.963-2.547-2.63-2.547-2.63" fill="#E1E1E1"/>
                <path d="M58.764 59.1c0 1.084-.41 1.963-.917 1.963-.507 0-.918-.88-.918-1.963 0-1.085.41-1.964.918-1.964.506 0 .917.88.917 1.964" fill="#FFF"/>
                <path d="M58.767 53.558s3.064 1.155 2.265 7.771c-.8 6.617-6.859 3.678-7.815 1.066-.957-2.612-.489-7.46.488-9.059l5.062.222z" stroke="#888" stroke-width=".5"/>
                <path d="M55.365 30.753c-.575.873-1.4 6.741 0 5.816 1.401-.926 6.625 1.92 6.625 1.92l6.14-8.76-9.595-1.378-3.17 2.402z" fill="#E1E1E1"/>
                <path d="M76.011 30.257s5.991 3.582 8.987 15.386c0 0-3.457 6.85-9.793 5.929 0 0-5.415 2.82-9.448.085 0 0-2.995 1.873-6.452-.316-3.456-2.189-1.498-14.016 2.996-18.414" fill="#E1E1E1"/>
                <path d="M65.455 37.274c-.837.359-1.599 1.28-2.06 2.771-.462 1.492-1.563 5.719-1.386 6.11.178.39.96.781 2.274-.32s2.024-3.152 2.095-3.92c.071-.769.284-2.993.569-3.426.284-.433.248-1.96-1.492-1.215M70.26 36.005c.134.188.22.404.276.628.3 1.223 1.358 6.099-.25 8.32-1.847 2.552-2.345.824-2.096 0 .249-.823.64-4.944.64-6.862 0-1.758.686-3.128 1.43-2.086M73.902 39.783s.328 1.525-.891 2.393c-1.22.868-1.08-.915-1.056-1.454.024-.54 1.009-1.502 1.384-1.502s.563.563.563.563" fill="#FFF"/>
                <path d="M84.13 47.027c-6.263 4.21-8.38 2.776-8.38 2.776-4.043 2.043-8.67 1.353-8.67 1.353l-.24-1.353c-1.478.913-6.204.6-6.204.6-2.315-7.29.614-14.784 1.895-17.521l-.23.045c-4.494 4.398-6.452 16.225-2.996 18.414 3.456 2.19 6.452.316 6.452.316 4.033 2.735 9.448-.086 9.448-.086 4.49.654 7.533-2.594 8.926-4.544z" fill="#BBB"/>
                <path d="M76.011 30.257s5.991 3.582 8.987 15.386c0 0-3.457 6.85-9.793 5.929 0 0-5.415 2.82-9.448.085 0 0-2.995 1.873-6.452-.316-3.456-2.189-1.498-14.016 2.996-18.414" stroke="#888" stroke-width=".766"/>
                <path d="M41.174.656a7.168 7.168 0 0 0-2.502 1.481C35.583 4.905 27.99 13.023 27 20.385c-1.094 8.145-1.094 18.144 7.538 21.169 8.632 3.025 15.44-4.157 16.838-10.477 1.398-6.32-.275-17.347-6.08-23.491 0 0 .571-4.649-.931-6.47-.799-.968-2.124-.815-3.19-.46" fill="#E1E1E1"/>
                <path d="M41.174.656a7.168 7.168 0 0 0-2.502 1.481C35.583 4.905 27.99 13.023 27 20.385c-1.094 8.145-1.094 18.144 7.538 21.169 8.632 3.025 15.44-4.157 16.838-10.477 1.398-6.32-.275-17.347-6.08-23.491 0 0 .571-4.649-.931-6.47-.799-.968-2.124-.815-3.19-.46z" stroke="#A92768" stroke-width=".766"/>
                <path d="M45.498 35.43c5.29-7.615-.64-20.12-2.485-23.166-1.843-3.046-1.67-6.833-1.522-8.754.087-1.13-.54-2.01-1.073-2.546a7.417 7.417 0 0 0-1.746 1.173C35.583 4.905 27.99 13.024 27 20.385c-1.094 8.145-1.094 18.144 7.538 21.169 3.35 1.174 6.424.81 9.015-.444-.436-2.3 1.945-5.68 1.945-5.68" fill="#BBB"/>
                <path d="M39.887 12.169a1.2 1.2 0 0 0-1.822-.36c-2.153 1.77-6.711 6.367-6.902 13.687-.25 9.597 4.087 11.073 5.979 11.073 1.892 0 7.764-.93 6.515-11.073-.88-7.138-2.743-11.418-3.77-13.327z" stroke="#888" stroke-width=".766"/>
                <mask id="b7nyelvfef" fill="#fff">
                    <use xlink:href="#fajlhvg5he"/>
                </mask>
                <path fill="#FFF" mask="url(#b7nyelvfef)" d="M36.287 34.586h1.99v-7.963h-1.99z"/>
                <path stroke="#888" stroke-width=".766" mask="url(#b7nyelvfef)" d="M36.287 34.586h1.99v-7.963h-1.99z"/>
                <path d="M41.174.656a7.168 7.168 0 0 0-2.502 1.481C35.583 4.905 27.99 13.023 27 20.385c-1.094 8.145-1.094 18.144 7.538 21.169 8.632 3.025 15.44-4.157 16.838-10.477 1.398-6.32-.275-17.347-6.08-23.491 0 0 .571-4.649-.931-6.47-.799-.968-2.124-.815-3.19-.46z" stroke="#888" stroke-width=".766" mask="url(#b7nyelvfef)"/>
                <path d="M59.043 80.038c-.26.598-.81 2.144-.377 3.743a.837.837 0 0 0 1.004.596 8.726 8.726 0 0 0 5.764-4.6l-2.312-5.545s-1.83-1.12-4.71-.405c-2.817.699-2.845 2.966.52 5.76.132.109.18.293.11.45" fill="#888" mask="url(#b7nyelvfef)"/>
                <path d="M60.03 79.768c-.217.48-.572 1.59-.319 3.391.022.156.181.253.327.195.86-.34 3.46-1.555 4.488-4.163l-1.602-4.377s-2.115-1.425-5.003-.094a.433.433 0 0 0-.246.34c-.077.609-.03 2.283 2.247 4.22.141.12.185.32.108.488" fill="#BBB" mask="url(#b7nyelvfef)"/>
                <path d="M61.455 78.079c.067 0 .102.079.056.127-.288.303-.972 1.128-1.145 2.299-.22 1.495-.122 2.255 1.74.882 1.823-1.343 2.05-3.247.22-3.41-.05-.004-.077-.058-.047-.098.096-.128.25-.376.236-.63-.02-.37.218-1.507-1.424-1.627-1.642-.12-2.555.115-2.516.463.04.348.156 1.183.777 1.61.59.406.934.387 2.103.384" fill="#E1E1E1" mask="url(#b7nyelvfef)"/>
                <path d="M74.471 78.185a.266.266 0 0 1 .109-.316c.502-.306 1.87-1.373 2.2-4.073.407-3.324-7.529 1.189-7.529 1.189l-1.42 4.963s1.375 2.013 3.864 2.7c2.453.678 4.51.439 2.776-4.463" fill="#888" mask="url(#b7nyelvfef)"/>
                <path d="M73.535 77.475a.325.325 0 0 0-.062.249c.068.402.251 1.693.213 3.692-.048 2.441-5.24-2.066-5.24-2.066l2.536-4.666s1.755-1.184 3.32-1.397c1.551-.212 2.636-.34-.767 4.188" fill="#BBB" mask="url(#b7nyelvfef)"/>
                <path d="M72.377 77.617a.046.046 0 0 0 .018.078c.241.072.952.34 1.094 1.066.173.878.318 1.622-.488 2.088-.806.467-1.357-.17-2.163-.975-.786-.786-1.112-1.758.053-2.099a.134.134 0 0 0 .099-.118c.027-.414.162-2.073.57-2.407.466-.381 2.099-.425 2.523-.265.424.16 0 1.1-.403 1.457-.341.302-1.083.975-1.303 1.175" fill="#E1E1E1" mask="url(#b7nyelvfef)"/>
                <path d="M67.24 74.124s-2.357-2.177-3.945-.359c-1.588 1.82.563 6.302 3.356 6.353 2.792.052 3.894-2.843 4.099-3.817.204-.973.64-2.576-.692-3.26-1.332-.685-2.818 1.083-2.818 1.083" fill="#666" mask="url(#b7nyelvfef)"/>
                <path d="M66.42 74.79c-.41-.384-2.056-1.263-2.818-.692-.762.572.154 3.894 1.87 5.021 1.717 1.127 3.997-.47 4.458-2.604.46-2.135.077-2.724-.769-2.878-.845-.153-1.101.436-1.537 1.076-.435.64-1.204.077-1.204.077" fill="#888" mask="url(#b7nyelvfef)"/>
                <path d="M66.578 75.122c-.451-.421-1.044-1.013-1.76-.296-.718.717-.026 2.209 1.168 3.413 1.194 1.204 2.244-.483 2.93-1.738.686-1.254.198-2.229-.374-2.267-.571-.04-.997.498-1.184.872-.187.374-.457.317-.78.016" fill="#A2A2A2" mask="url(#b7nyelvfef)"/>
                <path d="M66.684 75.924c-.297-.278-.688-.668-1.16-.196-.474.473-.018 1.457.77 2.25.787.794 1.48-.318 1.931-1.145.452-.827.13-1.47-.246-1.495-.377-.025-.658.329-.781.575-.123.247-.301.21-.514.01" fill="#BBB" mask="url(#b7nyelvfef)"/>
                <path d="M65.519 75.075c-.265.187-.359.67 0 1.06.358.39.685-.21.576-.798-.109-.59-.576-.262-.576-.262" fill="#FFF" mask="url(#b7nyelvfef)"/>
                <path d="M64.144 75.656a.216.216 0 0 0-.304.143c-.046.181-.076.507.067.995.235.807.959 1.964 1.424 1.134.466-.83-.788-1.283-.912-1.843-.057-.257-.17-.376-.275-.429M69.897 76.648c-.046-.055-.124-.08-.255-.036-.293.098-.78.539-.912.757-.131.217-.458.687-1.12 1.134-.66.447-.425.845-.085.847 1.086-.37 2.049-1.43 2.372-2.702" fill="#E1E1E1" mask="url(#b7nyelvfef)"/>
                <path d="M67.904 76.596c-.226.236-.319.648-.288.833.03.185.71.453 1.05-.782.339-1.234-.762-.051-.762-.051" fill="#FFF" mask="url(#b7nyelvfef)"/>
                <path d="M75.95 54.381c.348-.404 3.156-2.985 6.228-2.212 3.07.773.644 3.801.644 3.801s-.68-1.353-2.981-1.331c-2.302.021-3.548 1.117-4.064 1.696-.515.58-.88-.064 0-1.009 0 0-.493-.172.172-.945" fill="#888" mask="url(#b7nyelvfef)"/>
                <path d="M81.765 52.262s.83-.19 1.452-1.262c.623-1.072.329 1.142-.83 1.755l-.622-.493zM83.217 52.97s1.314-1.244 1.366-2.437c.052-1.193.726-.26.346 1.123s-1.712 1.937-1.712 1.937v-.623zM49.94 54.807s5.95-2.733 10.39 0c4.44 2.732 2.391 0 2.163-.228 0 0 .167-.793-1.328-1.646-1.494-.853-3.867-2.426-9.149-1.488-5.282.938-3.188 2.14-3.188 2.14s-1.32 1.11-.41 1.36c.91.25 1.522-.138 1.522-.138" fill="#888" mask="url(#b7nyelvfef)"/>
                <path d="M52.025 49.86c.172.44.538 1.296.904 1.633l-.714.264s-.525-.918-.361-1.88c.015-.088.139-.1.171-.017M49.786 48.74c-.263.597-.604 1.912.525 3.387l.82-.185s-.999-.927-1.147-3.164c-.007-.109-.154-.137-.198-.038" fill="#888" mask="url(#b7nyelvfef)"/>
            </g>
        </g>
    </g>
</svg>
