<svg width="350" height="34" viewBox="0 0 350 34" xmlns="http://www.w3.org/2000/svg">
    <g fill="none" fill-rule="evenodd">
        <g transform="translate(59 2)">
            <rect stroke="#2D0075" stroke-width="3" fill="#FA719A" width="232" height="30" rx="7"/>
            <g fill="#FFF" fill-rule="nonzero">
                <path d="M22.025 23.855c1.055-.052 1.862-.208 2.422-.468.469-.235.795-.56.977-.977.182-.417.273-1.009.273-1.777v-3.067c0-.026.013-.042.04-.048.025-.007.045.003.058.029 1.172 1.9 2.637 3.398 4.394 4.492.26.156.534.234.82.234.144 0 .294-.026.45-.078a2.07 2.07 0 0 0 1.113-.742c.183-.234.274-.495.274-.781a1.241 1.241 0 0 0-.664-1.152 12.075 12.075 0 0 1-3.711-3.145c-.078-.104-.065-.195.039-.273.963-.651 2.038-1.465 3.222-2.442a1.24 1.24 0 0 0 .47-.996 1.3 1.3 0 0 0-.548-1.094 1.751 1.751 0 0 0-1.035-.332h-.215a1.856 1.856 0 0 0-1.191.606 28.953 28.953 0 0 1-2.129 1.992c-.091.078-.17.059-.234-.059a18.105 18.105 0 0 1-1.094-2.734 1.166 1.166 0 0 1-.059-.371v-.918c0-.065.026-.085.078-.059.13.065.26.098.391.098a.737.737 0 0 0 .234-.04.79.79 0 0 0 .489-.35l.37-.665a1.37 1.37 0 0 0 .216-.722 1.25 1.25 0 0 0-.079-.43 1.292 1.292 0 0 0-.761-.84 38.884 38.884 0 0 0-4.59-1.445 1.978 1.978 0 0 0-1.191.078 1.98 1.98 0 0 0-.899.8.992.992 0 0 0-.078.919c.117.325.345.54.684.644a35.36 35.36 0 0 1 3.242 1.113c.013 0 .02.01.02.03 0 .02-.014.03-.04.03h-4.59c-.39 0-.719.136-.986.41-.267.273-.4.601-.4.986 0 .384.133.712.4.986.267.273.596.41.986.41h3.145c.13 0 .195.065.195.195v8.672c0 .156-.032.267-.097.332-.066.065-.19.104-.372.117-.377 0-.716-.006-1.015-.02h-.02a.92.92 0 0 0-.8.43 1.05 1.05 0 0 0-.196.587c0 .117.02.24.059.37.156.443.41.801.762 1.075.325.26.69.39 1.093.39h.078zm-5.058-1.757c.39 0 .735-.137 1.035-.41 1.719-1.693 2.982-4.024 3.789-6.993.026-.104.04-.208.04-.312 0-.182-.046-.365-.138-.547a1.233 1.233 0 0 0-.644-.586l-.547-.234a1.424 1.424 0 0 0-.566-.118c-.105 0-.209.013-.313.04h-3.32c-.378 0-.7.133-.967.4s-.4.59-.4.967.133.7.4.966c.267.267.59.4.967.4h1.836c.052 0 .09.02.117.06.026.039.026.084 0 .136-.625 1.485-1.478 2.722-2.559 3.711a1.296 1.296 0 0 0-.468 1.016c0 .377.143.696.43.957.338.325.728.508 1.171.547h.137zm20.469 1.27c.286 0 .572-.072.859-.216 2.539-1.406 4.7-3.359 6.484-5.859a.103.103 0 0 1 .108-.049.15.15 0 0 1 .107.069c1.354 2.434 3.047 4.329 5.078 5.683.274.17.567.254.88.254.13 0 .266-.02.41-.059.455-.117.84-.364 1.152-.742.195-.26.293-.54.293-.84a1.311 1.311 0 0 0-.664-1.172 12.758 12.758 0 0 1-3.155-2.646 14.392 14.392 0 0 1-2.236-3.486.375.375 0 0 1 .02-.352 26.97 26.97 0 0 0 1.582-4.18c.039-.13.058-.253.058-.37 0-.196-.045-.385-.137-.567a1.346 1.346 0 0 0-.683-.684l-.625-.273a1.424 1.424 0 0 0-.567-.117c-.117 0-.24.013-.37.039a.369.369 0 0 1-.118.02h-3.281c-.04 0-.075-.02-.108-.06-.032-.038-.035-.077-.01-.116.053-.157.105-.306.157-.45.065-.169.098-.338.098-.508 0-.234-.066-.462-.196-.683a1.425 1.425 0 0 0-.976-.742 1.815 1.815 0 0 0-1.27.195c-.39.234-.664.573-.82 1.016-.95 2.656-2.26 4.81-3.926 6.465-.3.286-.45.638-.45 1.054 0 .443.17.807.509 1.094h.02c.364.312.787.469 1.269.469.482 0 .879-.17 1.191-.508 1.042-1.159 1.999-2.533 2.871-4.121a.323.323 0 0 1 .293-.156h3.242c.052 0 .092.016.118.048.026.033.032.075.02.127-.808 2.2-1.948 4.112-3.419 5.733a17.405 17.405 0 0 1-5.195 3.916c-.352.169-.56.449-.625.84-.013.078-.02.156-.02.234 0 .3.104.566.313.8a.128.128 0 0 0 .058.06c.326.39.717.644 1.172.761.17.052.332.078.489.078zm33.76-11.798c.41 0 .758-.143 1.044-.43.287-.286.43-.637.43-1.054V7.957c0-.469-.166-.87-.498-1.201a1.637 1.637 0 0 0-1.201-.498h-5.352c-.091 0-.137-.046-.137-.137 0-.312-.114-.58-.341-.8a1.124 1.124 0 0 0-.81-.333h-.821c-.326 0-.6.111-.82.332a1.091 1.091 0 0 0-.333.801c0 .091-.045.137-.136.137h-5.332c-.47 0-.87.166-1.202.498a1.637 1.637 0 0 0-.498 1.201v2.207c0 .39.14.723.42.996.28.274.616.41 1.006.41s.726-.136 1.006-.41c.28-.273.42-.605.42-.996v-.996c0-.13.065-.195.195-.195h11.27c.13 0 .195.065.195.195v.918c0 .417.147.768.44 1.055.293.286.644.43 1.054.43zM60.696 23.855a.64.64 0 0 0 .469-.195.64.64 0 0 0 .195-.469c0-.052.026-.078.078-.078h6.133c.04 0 .059.026.059.078 0 .157.058.293.176.41.117.118.26.176.43.176h.859c.403 0 .748-.143 1.035-.43.286-.286.43-.63.43-1.035v-3.73c0-.469-.166-.87-.499-1.201a1.637 1.637 0 0 0-1.2-.498h-7.305c-.13 0-.196-.065-.196-.195v-.547c0-.13.065-.196.196-.196h6.074c.469 0 .869-.166 1.201-.498.332-.332.498-.732.498-1.2v-2.54c0-.469-.166-.87-.498-1.201a1.637 1.637 0 0 0-1.201-.498H60.17c-.469 0-.87.166-1.201.498a1.637 1.637 0 0 0-.498 1.201V22.43c0 .39.143.726.43 1.006.286.28.624.42 1.015.42h.781zm5.528-10.37h-4.668c-.13 0-.196-.066-.196-.196v-.625c0-.13.065-.195.196-.195h4.668c.13 0 .195.065.195.195v.625c0 .13-.065.195-.195.195zm1.21 7.109h-5.878c-.13 0-.196-.065-.196-.196v-.8c0-.13.065-.196.196-.196h5.879c.13 0 .195.065.195.196v.8c0 .13-.065.196-.195.196zm9.336 2.812c.378 0 .704-.136.977-.41.273-.273.41-.599.41-.976v-1.641c0-.04.02-.068.059-.088.039-.02.071-.016.097.01.13.078.248.156.352.234.313.235.651.352 1.016.352h.234a1.27 1.27 0 0 0 1.016-.664c.547-.99.99-2.142 1.328-3.457 0-.026.013-.043.039-.05.026-.006.045.004.058.03a.74.74 0 0 0 .606.293h.02a.725.725 0 0 0 .585-.332l.176-.234c.221-.3.332-.632.332-.996 0-.443-.15-.814-.449-1.114a16.973 16.973 0 0 0-.684-.644.392.392 0 0 1-.117-.332c.013-.078.026-.19.04-.332.012-.144.025-.26.038-.352 0-.039.02-.068.059-.088a.11.11 0 0 1 .117.01c.69.495 1.335.996 1.934 1.504a.33.33 0 0 1 .117.332c-.313 1.836-.84 3.327-1.582 4.473-.17.247-.254.507-.254.78 0 .079.006.15.02.216.052.364.22.657.507.879.26.208.547.312.86.312h.156c.377-.039.664-.215.86-.527.702-1.133 1.236-2.487 1.6-4.063.014-.039.037-.062.07-.068a.093.093 0 0 1 .087.03c.234.273.534.41.899.41h.019c.378-.014.67-.17.879-.47l.508-.722c.026-.026.052-.033.078-.02.026.013.039.033.039.059v4.434c0 .3-.15.449-.45.449h-.937a.884.884 0 0 0-.781.41.962.962 0 0 0-.137.918c.157.417.404.762.742 1.035.3.247.645.371 1.036.371h.097c.287-.013.534-.032.742-.058.547-.066 1.016-.209 1.407-.43a1.92 1.92 0 0 0 .85-.957c.162-.404.243-.97.243-1.7V7.216c0-.469-.166-.87-.498-1.201a1.637 1.637 0 0 0-1.2-.498H77.083c-.469 0-.87.166-1.201.498a1.637 1.637 0 0 0-.498 1.2V22.02c0 .377.136.703.41.976.273.274.599.41.976.41zm13.057-8.193c-.032.006-.055-.003-.068-.03a17.546 17.546 0 0 0-1.778-1.796.392.392 0 0 1-.117-.332c.143-1.433.235-2.97.274-4.61 0-.13.065-.195.195-.195h1.348c.13 0 .195.065.195.195v6.7c0 .039-.016.061-.049.068zm-6.822-2.855-.024-.006c-.026-.013-.039-.033-.039-.059.092-1.042.157-2.324.196-3.848 0-.13.065-.195.195-.195h2.031c.13 0 .196.065.196.195 0 1.068-.026 1.999-.079 2.793 0 .04-.013.065-.039.078a.083.083 0 0 1-.078 0 1.227 1.227 0 0 0-.722-.234c-.092 0-.176.007-.254.02-.352.078-.638.26-.86.546l-.488.684c-.013.026-.033.033-.059.02l.024.006zm-4.785-.208-.024-.004c-.026-.006-.039-.022-.039-.048V8.445c0-.13.065-.195.196-.195h2.03c.131 0 .196.065.196.195 0 1.094-.032 2.136-.098 3.125-.013.04-.032.065-.058.078-.026.013-.059.007-.098-.02a1.378 1.378 0 0 0-.781-.233 1.388 1.388 0 0 0-1.191.605l-.098.137c-.013.013-.033.016-.059.01l.024.003zm.015 7.259-.029-.007c-.033-.013-.049-.032-.049-.058V13.19c0-.039.02-.068.059-.087.039-.02.071-.017.097.01.56.403 1.114.84 1.66 1.308a.33.33 0 0 1 .118.332c-.339 1.927-.944 3.47-1.817 4.629-.013.026-.035.032-.068.02l.03.006zm23.262 2.864c.612 0 1.204-.14 1.777-.42a4.926 4.926 0 0 0 1.534-1.181c.449-.508.807-1.159 1.074-1.953.267-.795.4-1.667.4-2.617 0-1.745-.403-3.142-1.21-4.19-.808-1.048-1.895-1.572-3.262-1.572-.99 0-1.921.364-2.793 1.094-.026.026-.056.029-.088.01a.096.096 0 0 1-.05-.089l.079-1.503v-2.13c0-.468-.166-.868-.498-1.2a1.637 1.637 0 0 0-1.201-.499h-.137c-.469 0-.87.166-1.201.498a1.637 1.637 0 0 0-.498 1.202v12.89c0 .378.133.703.4.977.267.273.596.41.987.41h.273c.326 0 .615-.1.87-.303.253-.202.419-.465.497-.79l.02-.079c0-.026.013-.039.039-.039.026 0 .052.007.078.02.885.976 1.855 1.464 2.91 1.464zm-.84-2.91a2.405 2.405 0 0 1-1.543-.547.371.371 0 0 1-.156-.312v-4.102c0-.143.046-.26.137-.351.547-.547 1.106-.82 1.68-.82.624 0 1.087.24 1.386.722.3.482.45 1.224.45 2.227 0 1.08-.18 1.881-.538 2.402-.358.52-.83.781-1.416.781zm13.985 2.91c.612 0 1.204-.14 1.777-.42a4.926 4.926 0 0 0 1.533-1.181c.45-.508.807-1.159 1.074-1.953.267-.795.4-1.667.4-2.617 0-1.745-.403-3.142-1.21-4.19-.807-1.048-1.895-1.572-3.262-1.572-.99 0-1.92.364-2.793 1.094-.026.026-.055.029-.088.01a.096.096 0 0 1-.049-.089l.079-1.503v-2.13c0-.468-.166-.868-.499-1.2a1.637 1.637 0 0 0-1.2-.499h-.137c-.47 0-.87.166-1.202.498a1.637 1.637 0 0 0-.498 1.202v12.89c0 .378.134.703.4.977.268.273.596.41.987.41h.274c.325 0 .615-.1.869-.303.254-.202.42-.465.498-.79l.02-.079c0-.026.012-.039.038-.039s.052.007.078.02c.886.976 1.856 1.464 2.91 1.464zm-.84-2.91a2.405 2.405 0 0 1-1.543-.547.371.371 0 0 1-.156-.312v-4.102c0-.143.045-.26.136-.351.547-.547 1.107-.82 1.68-.82.625 0 1.087.24 1.387.722.3.482.449 1.224.449 2.227 0 1.08-.18 1.881-.537 2.402-.358.52-.83.781-1.416.781zm10.586 2.91c1.106 0 2.187-.462 3.242-1.386.013-.013.032-.02.058-.02.026 0 .046.013.059.04l.02.077c.065.3.218.544.459.733.24.189.51.283.81.283h.41c.39 0 .73-.14 1.016-.42.286-.28.43-.622.43-1.025v-5.02c0-3.463-1.537-5.195-4.61-5.195-1.224 0-2.467.293-3.73.879a1.18 1.18 0 0 0-.645.761c-.039.13-.058.26-.058.391 0 .221.052.436.156.645.17.312.43.52.781.625.156.052.306.078.45.078.195 0 .39-.046.585-.137.651-.273 1.25-.41 1.797-.41.99 0 1.55.423 1.68 1.27.026.13-.026.201-.156.214-2.136.248-3.692.707-4.668 1.377-.977.67-1.465 1.599-1.465 2.783 0 .977.309 1.797.927 2.461.619.664 1.436.996 2.452.996zm1.23-2.753c-.39 0-.693-.082-.908-.245-.215-.162-.322-.407-.322-.732 0-.872.918-1.445 2.754-1.719h.02a.21.21 0 0 1 .116.04c.04.038.059.084.059.136v1.426c0 .13-.046.24-.137.332-.508.508-1.035.762-1.582.762zm13.027 2.753a5.93 5.93 0 0 0 2.618-.585c.338-.17.547-.45.625-.84a1.346 1.346 0 0 0-.195-1.074c-.17-.3-.437-.495-.801-.587a2.397 2.397 0 0 0-.43-.039c-.208 0-.417.04-.625.118-.26.09-.527.136-.8.136-.704 0-1.283-.283-1.74-.85-.455-.566-.683-1.311-.683-2.236 0-.95.231-1.705.694-2.265.462-.56 1.077-.84 1.845-.84.117 0 .228.013.332.039.235.04.45.059.645.059.586 0 1.002-.176 1.25-.528l.078-.078a1.423 1.423 0 0 0 .254-1.074 1.03 1.03 0 0 0-.606-.84 5.08 5.08 0 0 0-2.148-.45 6.35 6.35 0 0 0-2.95.694c-.898.462-1.627 1.156-2.187 2.08-.56.925-.84 1.992-.84 3.203 0 1.836.531 3.288 1.592 4.356s2.419 1.601 4.072 1.601zm9.59 4.57c1.953 0 3.513-.38 4.678-1.142 1.165-.762 1.748-1.748 1.748-2.959 0-1.953-1.458-2.93-4.375-2.93h-1.797c-.599 0-1.028-.058-1.289-.175-.26-.117-.39-.313-.39-.586 0-.274.071-.495.214-.664a.311.311 0 0 1 .332-.078c.404.104.788.156 1.153.156 1.34 0 2.431-.322 3.271-.967.84-.644 1.26-1.598 1.26-2.861 0-.443-.078-.847-.234-1.211a.148.148 0 0 1 .01-.117c.019-.04.048-.059.087-.059h.293c.352 0 .655-.124.908-.371.254-.247.381-.55.381-.908s-.127-.664-.38-.918a1.24 1.24 0 0 0-.909-.381h-2.695c-.117 0-.24-.02-.371-.059a5.812 5.812 0 0 0-1.621-.215c-.847 0-1.621.147-2.324.44a4.028 4.028 0 0 0-1.749 1.406c-.462.645-.693 1.41-.693 2.295 0 .612.143 1.172.43 1.68.286.508.644.918 1.074 1.23.026.013.04.033.04.059 0 .026-.014.052-.04.078-.365.26-.658.576-.879.947a2.204 2.204 0 0 0-.332 1.143c0 .833.332 1.478.996 1.933.026.013.04.036.04.069a.121.121 0 0 1-.04.088c-1.054.547-1.582 1.282-1.582 2.207 0 .65.222 1.198.664 1.64.443.443 1.013.759 1.71.948.696.188 1.5.283 2.411.283zm.274-10.527c-.43 0-.778-.153-1.045-.459-.267-.306-.4-.745-.4-1.318 0-.56.133-.993.4-1.299.267-.306.615-.459 1.045-.459.43 0 .778.15 1.045.45.267.299.4.735.4 1.308 0 .573-.133 1.012-.4 1.318-.267.306-.616.46-1.045.46zm.273 8.301c-.742 0-1.331-.1-1.767-.303-.437-.201-.655-.504-.655-.908 0-.312.137-.605.41-.879a.32.32 0 0 1 .235-.097c.026 0 .058.006.098.02.312.051.787.077 1.425.077h1.075c.572 0 .992.059 1.26.176.266.117.4.332.4.645 0 .364-.231.667-.694.908-.462.24-1.058.361-1.787.361zM158.295 22c.469 0 .87-.166 1.201-.498.332-.332.498-.732.498-1.201v-5.703c0-.13.046-.241.137-.332.338-.313.641-.537.908-.674s.576-.205.928-.205c.469 0 .807.146 1.015.44.209.292.313.816.313 1.571v4.903c0 .469.166.869.498 1.201.332.332.732.498 1.201.498h.156c.47 0 .87-.166 1.202-.498.332-.332.498-.732.498-1.201v-5.332c0-1.472-.29-2.61-.87-3.418-.579-.808-1.468-1.211-2.666-1.211-1.263 0-2.467.56-3.613 1.68-.013.013-.036.02-.068.02-.033 0-.049-.014-.049-.04l-.02-.098a1.527 1.527 0 0 0-.517-.927 1.464 1.464 0 0 0-.986-.362h-.157c-.403 0-.745.144-1.025.43-.28.286-.42.631-.42 1.035v8.223c0 .469.166.869.498 1.201.332.332.732.498 1.201.498h.137zm13.379.273c.612 0 1.12-.211 1.523-.634.404-.424.606-.948.606-1.573s-.202-1.149-.606-1.572c-.403-.423-.911-.635-1.523-.635-.612 0-1.117.212-1.514.635-.397.423-.596.947-.596 1.572 0 .625.199 1.15.596 1.573.397.423.902.634 1.514.634zm9.96 0a5.93 5.93 0 0 0 2.618-.585c.338-.17.547-.45.625-.84a1.346 1.346 0 0 0-.195-1.074c-.17-.3-.437-.495-.801-.587a2.397 2.397 0 0 0-.43-.039c-.208 0-.416.04-.625.118-.26.09-.527.136-.8.136-.704 0-1.283-.283-1.739-.85-.456-.566-.683-1.311-.683-2.236 0-.95.23-1.705.693-2.265.462-.56 1.077-.84 1.846-.84.117 0 .227.013.332.039.234.04.449.059.644.059.586 0 1.003-.176 1.25-.528l.078-.078a1.423 1.423 0 0 0 .254-1.074 1.03 1.03 0 0 0-.605-.84 5.08 5.08 0 0 0-2.149-.45 6.35 6.35 0 0 0-2.949.694c-.898.462-1.628 1.156-2.187 2.08-.56.925-.84 1.992-.84 3.203 0 1.836.53 3.288 1.591 4.356 1.062 1.068 2.42 1.601 4.073 1.601zm10.04 0c.716 0 1.406-.136 2.07-.41a5.722 5.722 0 0 0 1.777-1.152c.521-.495.935-1.123 1.24-1.885.307-.762.46-1.598.46-2.51 0-.911-.153-1.75-.46-2.52-.305-.767-.719-1.399-1.24-1.894a5.722 5.722 0 0 0-1.777-1.152 5.509 5.509 0 0 0-4.17 0 5.691 5.691 0 0 0-1.787 1.152c-.52.495-.934 1.127-1.24 1.895-.306.768-.46 1.608-.46 2.52 0 .91.154 1.747.46 2.51.306.76.72 1.39 1.24 1.884.52.495 1.117.879 1.787 1.152.67.274 1.37.41 2.1.41zm0-2.87c-.651 0-1.14-.27-1.465-.811-.326-.54-.488-1.299-.488-2.276 0-.976.162-1.738.488-2.285.326-.547.814-.82 1.465-.82.638 0 1.116.273 1.435.82.32.547.479 1.309.479 2.285 0 .977-.16 1.735-.479 2.276-.319.54-.797.81-1.435.81zM201.303 22c.468 0 .869-.166 1.2-.498.333-.332.499-.732.499-1.201v-5.703c0-.13.046-.241.137-.332.612-.586 1.172-.88 1.68-.88.468 0 .803.147 1.005.44.202.293.303.817.303 1.572v4.903c0 .469.166.869.498 1.201.332.332.732.498 1.201.498h.176c.469 0 .87-.166 1.201-.498.332-.332.498-.732.498-1.201v-5.703c0-.13.046-.241.137-.332.612-.586 1.172-.88 1.68-.88.468 0 .804.147 1.005.44.202.293.303.817.303 1.572v4.903c0 .469.166.869.498 1.201.332.332.733.498 1.201.498h.157c.468 0 .869-.166 1.2-.498.333-.332.499-.732.499-1.201v-5.332c0-1.472-.293-2.61-.879-3.418-.586-.808-1.478-1.211-2.676-1.211-.664 0-1.263.153-1.797.459-.534.306-1.074.732-1.62 1.28-.04.038-.082.054-.128.048-.045-.007-.081-.036-.107-.088-.6-1.133-1.608-1.7-3.028-1.7-.703 0-1.315.147-1.835.44-.521.293-1.055.713-1.602 1.26-.013.013-.036.02-.068.02-.033 0-.05-.013-.05-.04l-.019-.117a1.54 1.54 0 0 0-.527-.918 1.478 1.478 0 0 0-.996-.37h-.137c-.404 0-.745.143-1.025.429-.28.286-.42.631-.42 1.035v8.223c0 .469.166.869.498 1.201.332.332.732.498 1.201.498h.137z" stroke="#2D0075" stroke-width="5"/>
                <path d="M22.025 23.855c1.055-.052 1.862-.208 2.422-.468.469-.235.795-.56.977-.977.182-.417.273-1.009.273-1.777v-3.067c0-.026.013-.042.04-.048.025-.007.045.003.058.029 1.172 1.9 2.637 3.398 4.394 4.492.26.156.534.234.82.234.144 0 .294-.026.45-.078a2.07 2.07 0 0 0 1.113-.742c.183-.234.274-.495.274-.781a1.241 1.241 0 0 0-.664-1.152 12.075 12.075 0 0 1-3.711-3.145c-.078-.104-.065-.195.039-.273.963-.651 2.038-1.465 3.222-2.442a1.24 1.24 0 0 0 .47-.996 1.3 1.3 0 0 0-.548-1.094 1.751 1.751 0 0 0-1.035-.332h-.215a1.856 1.856 0 0 0-1.191.606 28.953 28.953 0 0 1-2.129 1.992c-.091.078-.17.059-.234-.059a18.105 18.105 0 0 1-1.094-2.734 1.166 1.166 0 0 1-.059-.371v-.918c0-.065.026-.085.078-.059.13.065.26.098.391.098a.737.737 0 0 0 .234-.04.79.79 0 0 0 .489-.35l.37-.665a1.37 1.37 0 0 0 .216-.722 1.25 1.25 0 0 0-.079-.43 1.292 1.292 0 0 0-.761-.84 38.884 38.884 0 0 0-4.59-1.445 1.978 1.978 0 0 0-1.191.078 1.98 1.98 0 0 0-.899.8.992.992 0 0 0-.078.919c.117.325.345.54.684.644a35.36 35.36 0 0 1 3.242 1.113c.013 0 .02.01.02.03 0 .02-.014.03-.04.03h-4.59c-.39 0-.719.136-.986.41-.267.273-.4.601-.4.986 0 .384.133.712.4.986.267.273.596.41.986.41h3.145c.13 0 .195.065.195.195v8.672c0 .156-.032.267-.097.332-.066.065-.19.104-.372.117-.377 0-.716-.006-1.015-.02h-.02a.92.92 0 0 0-.8.43 1.05 1.05 0 0 0-.196.587c0 .117.02.24.059.37.156.443.41.801.762 1.075.325.26.69.39 1.093.39h.078zm-5.058-1.757c.39 0 .735-.137 1.035-.41 1.719-1.693 2.982-4.024 3.789-6.993.026-.104.04-.208.04-.312 0-.182-.046-.365-.138-.547a1.233 1.233 0 0 0-.644-.586l-.547-.234a1.424 1.424 0 0 0-.566-.118c-.105 0-.209.013-.313.04h-3.32c-.378 0-.7.133-.967.4s-.4.59-.4.967.133.7.4.966c.267.267.59.4.967.4h1.836c.052 0 .09.02.117.06.026.039.026.084 0 .136-.625 1.485-1.478 2.722-2.559 3.711a1.296 1.296 0 0 0-.468 1.016c0 .377.143.696.43.957.338.325.728.508 1.171.547h.137zm20.469 1.27c.286 0 .572-.072.859-.216 2.539-1.406 4.7-3.359 6.484-5.859a.103.103 0 0 1 .108-.049.15.15 0 0 1 .107.069c1.354 2.434 3.047 4.329 5.078 5.683.274.17.567.254.88.254.13 0 .266-.02.41-.059.455-.117.84-.364 1.152-.742.195-.26.293-.54.293-.84a1.311 1.311 0 0 0-.664-1.172 12.758 12.758 0 0 1-3.155-2.646 14.392 14.392 0 0 1-2.236-3.486.375.375 0 0 1 .02-.352 26.97 26.97 0 0 0 1.582-4.18c.039-.13.058-.253.058-.37 0-.196-.045-.385-.137-.567a1.346 1.346 0 0 0-.683-.684l-.625-.273a1.424 1.424 0 0 0-.567-.117c-.117 0-.24.013-.37.039a.369.369 0 0 1-.118.02h-3.281c-.04 0-.075-.02-.108-.06-.032-.038-.035-.077-.01-.116.053-.157.105-.306.157-.45.065-.169.098-.338.098-.508 0-.234-.066-.462-.196-.683a1.425 1.425 0 0 0-.976-.742 1.815 1.815 0 0 0-1.27.195c-.39.234-.664.573-.82 1.016-.95 2.656-2.26 4.81-3.926 6.465-.3.286-.45.638-.45 1.054 0 .443.17.807.509 1.094h.02c.364.312.787.469 1.269.469.482 0 .879-.17 1.191-.508 1.042-1.159 1.999-2.533 2.871-4.121a.323.323 0 0 1 .293-.156h3.242c.052 0 .092.016.118.048.026.033.032.075.02.127-.808 2.2-1.948 4.112-3.419 5.733a17.405 17.405 0 0 1-5.195 3.916c-.352.169-.56.449-.625.84-.013.078-.02.156-.02.234 0 .3.104.566.313.8a.128.128 0 0 0 .058.06c.326.39.717.644 1.172.761.17.052.332.078.489.078zm33.76-11.798c.41 0 .758-.143 1.044-.43.287-.286.43-.637.43-1.054V7.957c0-.469-.166-.87-.498-1.201a1.637 1.637 0 0 0-1.201-.498h-5.352c-.091 0-.137-.046-.137-.137 0-.312-.114-.58-.341-.8a1.124 1.124 0 0 0-.81-.333h-.821c-.326 0-.6.111-.82.332a1.091 1.091 0 0 0-.333.801c0 .091-.045.137-.136.137h-5.332c-.47 0-.87.166-1.202.498a1.637 1.637 0 0 0-.498 1.201v2.207c0 .39.14.723.42.996.28.274.616.41 1.006.41s.726-.136 1.006-.41c.28-.273.42-.605.42-.996v-.996c0-.13.065-.195.195-.195h11.27c.13 0 .195.065.195.195v.918c0 .417.147.768.44 1.055.293.286.644.43 1.054.43zM60.696 23.855a.64.64 0 0 0 .469-.195.64.64 0 0 0 .195-.469c0-.052.026-.078.078-.078h6.133c.04 0 .059.026.059.078 0 .157.058.293.176.41.117.118.26.176.43.176h.859c.403 0 .748-.143 1.035-.43.286-.286.43-.63.43-1.035v-3.73c0-.469-.166-.87-.499-1.201a1.637 1.637 0 0 0-1.2-.498h-7.305c-.13 0-.196-.065-.196-.195v-.547c0-.13.065-.196.196-.196h6.074c.469 0 .869-.166 1.201-.498.332-.332.498-.732.498-1.2v-2.54c0-.469-.166-.87-.498-1.201a1.637 1.637 0 0 0-1.201-.498H60.17c-.469 0-.87.166-1.201.498a1.637 1.637 0 0 0-.498 1.201V22.43c0 .39.143.726.43 1.006.286.28.624.42 1.015.42h.781zm5.528-10.37h-4.668c-.13 0-.196-.066-.196-.196v-.625c0-.13.065-.195.196-.195h4.668c.13 0 .195.065.195.195v.625c0 .13-.065.195-.195.195zm1.21 7.109h-5.878c-.13 0-.196-.065-.196-.196v-.8c0-.13.065-.196.196-.196h5.879c.13 0 .195.065.195.196v.8c0 .13-.065.196-.195.196zm9.336 2.812c.378 0 .704-.136.977-.41.273-.273.41-.599.41-.976v-1.641c0-.04.02-.068.059-.088.039-.02.071-.016.097.01.13.078.248.156.352.234.313.235.651.352 1.016.352h.234a1.27 1.27 0 0 0 1.016-.664c.547-.99.99-2.142 1.328-3.457 0-.026.013-.043.039-.05.026-.006.045.004.058.03a.74.74 0 0 0 .606.293h.02a.725.725 0 0 0 .585-.332l.176-.234c.221-.3.332-.632.332-.996 0-.443-.15-.814-.449-1.114a16.973 16.973 0 0 0-.684-.644.392.392 0 0 1-.117-.332c.013-.078.026-.19.04-.332.012-.144.025-.26.038-.352 0-.039.02-.068.059-.088a.11.11 0 0 1 .117.01c.69.495 1.335.996 1.934 1.504a.33.33 0 0 1 .117.332c-.313 1.836-.84 3.327-1.582 4.473-.17.247-.254.507-.254.78 0 .079.006.15.02.216.052.364.22.657.507.879.26.208.547.312.86.312h.156c.377-.039.664-.215.86-.527.702-1.133 1.236-2.487 1.6-4.063.014-.039.037-.062.07-.068a.093.093 0 0 1 .087.03c.234.273.534.41.899.41h.019c.378-.014.67-.17.879-.47l.508-.722c.026-.026.052-.033.078-.02.026.013.039.033.039.059v4.434c0 .3-.15.449-.45.449h-.937a.884.884 0 0 0-.781.41.962.962 0 0 0-.137.918c.157.417.404.762.742 1.035.3.247.645.371 1.036.371h.097c.287-.013.534-.032.742-.058.547-.066 1.016-.209 1.407-.43a1.92 1.92 0 0 0 .85-.957c.162-.404.243-.97.243-1.7V7.216c0-.469-.166-.87-.498-1.201a1.637 1.637 0 0 0-1.2-.498H77.083c-.469 0-.87.166-1.201.498a1.637 1.637 0 0 0-.498 1.2V22.02c0 .377.136.703.41.976.273.274.599.41.976.41zm13.057-8.193c-.032.006-.055-.003-.068-.03a17.546 17.546 0 0 0-1.778-1.796.392.392 0 0 1-.117-.332c.143-1.433.235-2.97.274-4.61 0-.13.065-.195.195-.195h1.348c.13 0 .195.065.195.195v6.7c0 .039-.016.061-.049.068zm-6.822-2.855-.024-.006c-.026-.013-.039-.033-.039-.059.092-1.042.157-2.324.196-3.848 0-.13.065-.195.195-.195h2.031c.13 0 .196.065.196.195 0 1.068-.026 1.999-.079 2.793 0 .04-.013.065-.039.078a.083.083 0 0 1-.078 0 1.227 1.227 0 0 0-.722-.234c-.092 0-.176.007-.254.02-.352.078-.638.26-.86.546l-.488.684c-.013.026-.033.033-.059.02l.024.006zm-4.785-.208-.024-.004c-.026-.006-.039-.022-.039-.048V8.445c0-.13.065-.195.196-.195h2.03c.131 0 .196.065.196.195 0 1.094-.032 2.136-.098 3.125-.013.04-.032.065-.058.078-.026.013-.059.007-.098-.02a1.378 1.378 0 0 0-.781-.233 1.388 1.388 0 0 0-1.191.605l-.098.137c-.013.013-.033.016-.059.01l.024.003zm.015 7.259-.029-.007c-.033-.013-.049-.032-.049-.058V13.19c0-.039.02-.068.059-.087.039-.02.071-.017.097.01.56.403 1.114.84 1.66 1.308a.33.33 0 0 1 .118.332c-.339 1.927-.944 3.47-1.817 4.629-.013.026-.035.032-.068.02l.03.006zm23.262 2.864c.612 0 1.204-.14 1.777-.42a4.926 4.926 0 0 0 1.534-1.181c.449-.508.807-1.159 1.074-1.953.267-.795.4-1.667.4-2.617 0-1.745-.403-3.142-1.21-4.19-.808-1.048-1.895-1.572-3.262-1.572-.99 0-1.921.364-2.793 1.094-.026.026-.056.029-.088.01a.096.096 0 0 1-.05-.089l.079-1.503v-2.13c0-.468-.166-.868-.498-1.2a1.637 1.637 0 0 0-1.201-.499h-.137c-.469 0-.87.166-1.201.498a1.637 1.637 0 0 0-.498 1.202v12.89c0 .378.133.703.4.977.267.273.596.41.987.41h.273c.326 0 .615-.1.87-.303.253-.202.419-.465.497-.79l.02-.079c0-.026.013-.039.039-.039.026 0 .052.007.078.02.885.976 1.855 1.464 2.91 1.464zm-.84-2.91a2.405 2.405 0 0 1-1.543-.547.371.371 0 0 1-.156-.312v-4.102c0-.143.046-.26.137-.351.547-.547 1.106-.82 1.68-.82.624 0 1.087.24 1.386.722.3.482.45 1.224.45 2.227 0 1.08-.18 1.881-.538 2.402-.358.52-.83.781-1.416.781zm13.985 2.91c.612 0 1.204-.14 1.777-.42a4.926 4.926 0 0 0 1.533-1.181c.45-.508.807-1.159 1.074-1.953.267-.795.4-1.667.4-2.617 0-1.745-.403-3.142-1.21-4.19-.807-1.048-1.895-1.572-3.262-1.572-.99 0-1.92.364-2.793 1.094-.026.026-.055.029-.088.01a.096.096 0 0 1-.049-.089l.079-1.503v-2.13c0-.468-.166-.868-.499-1.2a1.637 1.637 0 0 0-1.2-.499h-.137c-.47 0-.87.166-1.202.498a1.637 1.637 0 0 0-.498 1.202v12.89c0 .378.134.703.4.977.268.273.596.41.987.41h.274c.325 0 .615-.1.869-.303.254-.202.42-.465.498-.79l.02-.079c0-.026.012-.039.038-.039s.052.007.078.02c.886.976 1.856 1.464 2.91 1.464zm-.84-2.91a2.405 2.405 0 0 1-1.543-.547.371.371 0 0 1-.156-.312v-4.102c0-.143.045-.26.136-.351.547-.547 1.107-.82 1.68-.82.625 0 1.087.24 1.387.722.3.482.449 1.224.449 2.227 0 1.08-.18 1.881-.537 2.402-.358.52-.83.781-1.416.781zm10.586 2.91c1.106 0 2.187-.462 3.242-1.386.013-.013.032-.02.058-.02.026 0 .046.013.059.04l.02.077c.065.3.218.544.459.733.24.189.51.283.81.283h.41c.39 0 .73-.14 1.016-.42.286-.28.43-.622.43-1.025v-5.02c0-3.463-1.537-5.195-4.61-5.195-1.224 0-2.467.293-3.73.879a1.18 1.18 0 0 0-.645.761c-.039.13-.058.26-.058.391 0 .221.052.436.156.645.17.312.43.52.781.625.156.052.306.078.45.078.195 0 .39-.046.585-.137.651-.273 1.25-.41 1.797-.41.99 0 1.55.423 1.68 1.27.026.13-.026.201-.156.214-2.136.248-3.692.707-4.668 1.377-.977.67-1.465 1.599-1.465 2.783 0 .977.309 1.797.927 2.461.619.664 1.436.996 2.452.996zm1.23-2.753c-.39 0-.693-.082-.908-.245-.215-.162-.322-.407-.322-.732 0-.872.918-1.445 2.754-1.719h.02a.21.21 0 0 1 .116.04c.04.038.059.084.059.136v1.426c0 .13-.046.24-.137.332-.508.508-1.035.762-1.582.762zm13.027 2.753a5.93 5.93 0 0 0 2.618-.585c.338-.17.547-.45.625-.84a1.346 1.346 0 0 0-.195-1.074c-.17-.3-.437-.495-.801-.587a2.397 2.397 0 0 0-.43-.039c-.208 0-.417.04-.625.118-.26.09-.527.136-.8.136-.704 0-1.283-.283-1.74-.85-.455-.566-.683-1.311-.683-2.236 0-.95.231-1.705.694-2.265.462-.56 1.077-.84 1.845-.84.117 0 .228.013.332.039.235.04.45.059.645.059.586 0 1.002-.176 1.25-.528l.078-.078a1.423 1.423 0 0 0 .254-1.074 1.03 1.03 0 0 0-.606-.84 5.08 5.08 0 0 0-2.148-.45 6.35 6.35 0 0 0-2.95.694c-.898.462-1.627 1.156-2.187 2.08-.56.925-.84 1.992-.84 3.203 0 1.836.531 3.288 1.592 4.356s2.419 1.601 4.072 1.601zm9.59 4.57c1.953 0 3.513-.38 4.678-1.142 1.165-.762 1.748-1.748 1.748-2.959 0-1.953-1.458-2.93-4.375-2.93h-1.797c-.599 0-1.028-.058-1.289-.175-.26-.117-.39-.313-.39-.586 0-.274.071-.495.214-.664a.311.311 0 0 1 .332-.078c.404.104.788.156 1.153.156 1.34 0 2.431-.322 3.271-.967.84-.644 1.26-1.598 1.26-2.861 0-.443-.078-.847-.234-1.211a.148.148 0 0 1 .01-.117c.019-.04.048-.059.087-.059h.293c.352 0 .655-.124.908-.371.254-.247.381-.55.381-.908s-.127-.664-.38-.918a1.24 1.24 0 0 0-.909-.381h-2.695c-.117 0-.24-.02-.371-.059a5.812 5.812 0 0 0-1.621-.215c-.847 0-1.621.147-2.324.44a4.028 4.028 0 0 0-1.749 1.406c-.462.645-.693 1.41-.693 2.295 0 .612.143 1.172.43 1.68.286.508.644.918 1.074 1.23.026.013.04.033.04.059 0 .026-.014.052-.04.078-.365.26-.658.576-.879.947a2.204 2.204 0 0 0-.332 1.143c0 .833.332 1.478.996 1.933.026.013.04.036.04.069a.121.121 0 0 1-.04.088c-1.054.547-1.582 1.282-1.582 2.207 0 .65.222 1.198.664 1.64.443.443 1.013.759 1.71.948.696.188 1.5.283 2.411.283zm.274-10.527c-.43 0-.778-.153-1.045-.459-.267-.306-.4-.745-.4-1.318 0-.56.133-.993.4-1.299.267-.306.615-.459 1.045-.459.43 0 .778.15 1.045.45.267.299.4.735.4 1.308 0 .573-.133 1.012-.4 1.318-.267.306-.616.46-1.045.46zm.273 8.301c-.742 0-1.331-.1-1.767-.303-.437-.201-.655-.504-.655-.908 0-.312.137-.605.41-.879a.32.32 0 0 1 .235-.097c.026 0 .058.006.098.02.312.051.787.077 1.425.077h1.075c.572 0 .992.059 1.26.176.266.117.4.332.4.645 0 .364-.231.667-.694.908-.462.24-1.058.361-1.787.361zM158.295 22c.469 0 .87-.166 1.201-.498.332-.332.498-.732.498-1.201v-5.703c0-.13.046-.241.137-.332.338-.313.641-.537.908-.674s.576-.205.928-.205c.469 0 .807.146 1.015.44.209.292.313.816.313 1.571v4.903c0 .469.166.869.498 1.201.332.332.732.498 1.201.498h.156c.47 0 .87-.166 1.202-.498.332-.332.498-.732.498-1.201v-5.332c0-1.472-.29-2.61-.87-3.418-.579-.808-1.468-1.211-2.666-1.211-1.263 0-2.467.56-3.613 1.68-.013.013-.036.02-.068.02-.033 0-.049-.014-.049-.04l-.02-.098a1.527 1.527 0 0 0-.517-.927 1.464 1.464 0 0 0-.986-.362h-.157c-.403 0-.745.144-1.025.43-.28.286-.42.631-.42 1.035v8.223c0 .469.166.869.498 1.201.332.332.732.498 1.201.498h.137zm13.379.273c.612 0 1.12-.211 1.523-.634.404-.424.606-.948.606-1.573s-.202-1.149-.606-1.572c-.403-.423-.911-.635-1.523-.635-.612 0-1.117.212-1.514.635-.397.423-.596.947-.596 1.572 0 .625.199 1.15.596 1.573.397.423.902.634 1.514.634zm9.96 0a5.93 5.93 0 0 0 2.618-.585c.338-.17.547-.45.625-.84a1.346 1.346 0 0 0-.195-1.074c-.17-.3-.437-.495-.801-.587a2.397 2.397 0 0 0-.43-.039c-.208 0-.416.04-.625.118-.26.09-.527.136-.8.136-.704 0-1.283-.283-1.739-.85-.456-.566-.683-1.311-.683-2.236 0-.95.23-1.705.693-2.265.462-.56 1.077-.84 1.846-.84.117 0 .227.013.332.039.234.04.449.059.644.059.586 0 1.003-.176 1.25-.528l.078-.078a1.423 1.423 0 0 0 .254-1.074 1.03 1.03 0 0 0-.605-.84 5.08 5.08 0 0 0-2.149-.45 6.35 6.35 0 0 0-2.949.694c-.898.462-1.628 1.156-2.187 2.08-.56.925-.84 1.992-.84 3.203 0 1.836.53 3.288 1.591 4.356 1.062 1.068 2.42 1.601 4.073 1.601zm10.04 0c.716 0 1.406-.136 2.07-.41a5.722 5.722 0 0 0 1.777-1.152c.521-.495.935-1.123 1.24-1.885.307-.762.46-1.598.46-2.51 0-.911-.153-1.75-.46-2.52-.305-.767-.719-1.399-1.24-1.894a5.722 5.722 0 0 0-1.777-1.152 5.509 5.509 0 0 0-4.17 0 5.691 5.691 0 0 0-1.787 1.152c-.52.495-.934 1.127-1.24 1.895-.306.768-.46 1.608-.46 2.52 0 .91.154 1.747.46 2.51.306.76.72 1.39 1.24 1.884.52.495 1.117.879 1.787 1.152.67.274 1.37.41 2.1.41zm0-2.87c-.651 0-1.14-.27-1.465-.811-.326-.54-.488-1.299-.488-2.276 0-.976.162-1.738.488-2.285.326-.547.814-.82 1.465-.82.638 0 1.116.273 1.435.82.32.547.479 1.309.479 2.285 0 .977-.16 1.735-.479 2.276-.319.54-.797.81-1.435.81zM201.303 22c.468 0 .869-.166 1.2-.498.333-.332.499-.732.499-1.201v-5.703c0-.13.046-.241.137-.332.612-.586 1.172-.88 1.68-.88.468 0 .803.147 1.005.44.202.293.303.817.303 1.572v4.903c0 .469.166.869.498 1.201.332.332.732.498 1.201.498h.176c.469 0 .87-.166 1.201-.498.332-.332.498-.732.498-1.201v-5.703c0-.13.046-.241.137-.332.612-.586 1.172-.88 1.68-.88.468 0 .804.147 1.005.44.202.293.303.817.303 1.572v4.903c0 .469.166.869.498 1.201.332.332.733.498 1.201.498h.157c.468 0 .869-.166 1.2-.498.333-.332.499-.732.499-1.201v-5.332c0-1.472-.293-2.61-.879-3.418-.586-.808-1.478-1.211-2.676-1.211-.664 0-1.263.153-1.797.459-.534.306-1.074.732-1.62 1.28-.04.038-.082.054-.128.048-.045-.007-.081-.036-.107-.088-.6-1.133-1.608-1.7-3.028-1.7-.703 0-1.315.147-1.835.44-.521.293-1.055.713-1.602 1.26-.013.013-.036.02-.068.02-.033 0-.05-.013-.05-.04l-.019-.117a1.54 1.54 0 0 0-.527-.918 1.478 1.478 0 0 0-.996-.37h-.137c-.404 0-.745.143-1.025.429-.28.286-.42.631-.42 1.035v8.223c0 .469.166.869.498 1.201.332.332.732.498 1.201.498h.137z"/>
            </g>
        </g>
        <rect fill="#2D0075" y="15" width="59" height="4" rx="2"/>
        <rect fill="#2D0075" x="291" y="15" width="59" height="4" rx="2"/>
    </g>
</svg>
