<svg xmlns="http://www.w3.org/2000/svg" xmlns:xlink="http://www.w3.org/1999/xlink" width="323" height="83" viewBox="0 0 323 83">
    <defs>
        <filter id="sv315o1w0a" width="120.8%" height="228.9%" x="-10.6%" y="-64.9%" filterUnits="objectBoundingBox">
            <feMorphology in="SourceAlpha" operator="dilate" radius="1" result="shadowSpreadOuter1"/>
            <feOffset in="shadowSpreadOuter1" result="shadowOffsetOuter1"/>
            <feGaussianBlur in="shadowOffsetOuter1" result="shadowBlurOuter1" stdDeviation="9"/>
            <feComposite in="shadowBlurOuter1" in2="SourceAlpha" operator="out" result="shadowBlurOuter1"/>
            <feColorMatrix in="shadowBlurOuter1" values="0 0 0 0 0.949019608 0 0 0 0 0.298039216 0 0 0 0 0.48627451 0 0 0 1 0"/>
        </filter>
        <path id="5ujdp98xrb" d="M40.096 48.76c.688 0 1.376-.12 2.064-.36.688-.24 1.12-.496 1.296-.768.176-.272.264-.84.264-1.704V24.376c.32-.16.576-.368.768-.624h10.128v23.472c0 .352.128.672.384.96.256.288.728.432 1.416.432s1.384-.112 2.088-.336c.704-.224 1.208-.448 1.512-.672.304-.224.456-.48.456-.768l-.048-1.632c-.027-.494-.043-1.328-.047-2.504l-.001-17.224c1.28-.544 1.92-1.04 1.92-1.488 0-.448-1.016-1.376-3.048-2.784s-3.24-2.112-3.624-2.112c-.224 0-.456.168-.696.504-.24.336-.696 1.192-1.368 2.568h-9.6c-1.664-.832-3.536-1.552-5.616-2.16.128 1.696.192 4.064.192 7.104V41.32c0 1.728-.032 3.248-.096 4.56-.064 1.312-.096 2.04-.096 2.184 0 .144.12.296.36.456.24.16.704.24 1.392.24zm-20.424 8.928c.384 0 1.888-1.144 4.512-3.432 2.624-2.288 4.656-4.68 6.096-7.176.576 1.792.88 3.44.912 4.944.096 2.368 1.024 3.552 2.784 3.552.992 0 1.84-.416 2.544-1.248.704-.832 1.056-1.808 1.056-2.928 0-1.12-.44-2.496-1.32-4.128-.88-1.632-2.104-3.392-3.672-5.28.928-2.624 1.824-6.256 2.688-10.896.288-1.504.808-2.328 1.56-2.472.752-.144 1.128-.392 1.128-.744s-.384-.824-1.152-1.416c-.768-.592-1.864-1.296-3.288-2.112-1.424-.816-2.296-1.224-2.616-1.224-.512 0-1.088.864-1.728 2.592H21.4c-.832 0-1.632-.048-2.4-.144l1.296 2.256c.512-.352 1.088-.528 1.728-.528h7.632c-.192 3.776-.528 7.216-1.008 10.32-1.184-1.216-2.504-2.44-3.96-3.672-1.456-1.232-2.472-2.04-3.048-2.424-.576-.384-.912-.576-1.008-.576-.192 0-.288.08-.288.24 0 .16.08.336.24.528 3.136 3.488 5.552 6.768 7.248 9.84-1.312 5.408-3.936 10.464-7.872 15.168-.288.352-.432.6-.432.744 0 .144.048.216.144.216zm9.528 5.76c.368 0 1.888-.48 4.56-1.44 2.672-.96 5.272-2.296 7.8-4.008 2.528-1.712 4.544-3.672 6.048-5.88v4.8c0 1.408.24 2.512.72 3.312.48.8 1.216 1.352 2.208 1.656.992.304 2.56.456 4.704.456 3.872 0 6.4-.496 7.584-1.488 1.184-.992 1.776-1.736 1.776-2.232 0-.496-.4-.936-1.2-1.32-1.216-.608-1.824-2.208-1.824-4.8 0-.896.08-1.888.24-2.976.064-.384-.008-.576-.216-.576s-.36.144-.456.432c-.768 2.528-1.368 4.296-1.8 5.304-.432 1.008-.92 1.68-1.464 2.016-.544.336-1.32.504-2.328.504-1.008 0-1.68-.128-2.016-.384-.336-.256-.504-.8-.504-1.632V44.968c.832-.48 1.248-.896 1.248-1.248s-.28-.584-.84-.696c-.56-.112-1.352-.328-2.376-.648.288-1.6.608-5.248.96-10.944.064-1.184.224-1.824.48-1.92.416-.16.624-.368.624-.624s-.112-.48-.336-.672c-.224-.192-.864-.408-1.92-.648-1.056-.24-2.576-.44-4.56-.6.064 2.464.096 4.672.096 6.624 0 6.176-.408 10.688-1.224 13.536-.816 2.848-2.56 5.656-5.232 8.424s-6.248 5.128-10.728 7.08c-.384.16-.576.336-.576.528s.184.288.552.288zm41.256-23.856c.512-.352 1.04-.528 1.584-.528h25.776c.672 0 1.008-.184 1.008-.552 0-.368-1.104-1.432-3.312-3.192 4.384-2.368 8.736-5.424 13.056-9.168.448-.384.8-.648 1.056-.792.256-.144.672-.224 1.248-.24.576-.016.864-.2.864-.552 0-.192-.112-.416-.336-.672-.224-.256-.984-.832-2.28-1.728-1.296-.896-2.6-1.76-3.912-2.592-2.272 5.856-5.664 10.976-10.176 15.36-.48-.384-.856-.576-1.128-.576-.272 0-.584.256-.936.768l-1.536 2.352h-5.808c.96-.48 1.44-1.224 1.44-2.232 0-1.008-.608-1.768-1.824-2.28h3.792c0 .576.048.944.144 1.104.096.16.272.24.528.24.864 0 1.608-.056 2.232-.168.624-.112 1.176-.28 1.656-.504.48-.224.76-.4.84-.528.08-.128.12-.32.12-.576l-.096-3.408v-4.56c1.056-.32 1.584-.624 1.584-.912 0-.48-.88-1.272-2.64-2.376-1.76-1.104-2.96-1.656-3.6-1.656-.192 0-.344.056-.456.168-.112.112-.536.84-1.272 2.184h-8.496c-1.728-.736-3.744-1.392-6.048-1.968.096 1.376.144 2.768.144 4.176v6c0 .8-.032 1.68-.096 2.64l-.096 2.112c0 .256.176.384.528.384 1.056 0 1.96-.08 2.712-.24.752-.16 1.288-.344 1.608-.552.32-.208.48-.456.48-.744v-.816h2.304c.48.544.72 1.256.72 2.136 0 .88.024 1.44.072 1.68.048.24.168.472.36.696H71.608c-.832 0-1.632-.048-2.4-.144l1.248 2.256zM89.032 26.68H78.808v-2.688c.288-.096.512-.24.672-.432h9.552v3.12zm0 4.704H78.808v-3.12h10.224v3.12zm-8.4 31.728c1.248 0 2.568-.264 3.96-.792s2.088-1.576 2.088-3.144V49.048c.192-.064.336-.128.432-.192h1.92v.576c0 .288.04.48.12.576.08.096.376.144.888.144s1.344-.112 2.496-.336c1.152-.224 1.728-.56 1.728-1.008l-.096-.912c5.088-1.728 10.096-4.896 15.024-9.504.576-.544.976-.888 1.2-1.032.224-.144.592-.248 1.104-.312.512-.064.768-.24.768-.528 0-.192-.128-.416-.384-.672-.256-.256-.856-.744-1.8-1.464-.944-.72-2.232-1.576-3.864-2.568-3.264 7.072-7.296 12.208-12.096 15.408v-2.928c.928-.448 1.392-.864 1.392-1.248s-.856-1.08-2.568-2.088c-1.712-1.008-2.728-1.512-3.048-1.512-.192 0-.408.152-.648.456-.24.304-.584.824-1.032 1.56h-9.024c-1.568-.544-3.408-1.088-5.52-1.632.096 1.152.144 2.112.144 2.88v3.312c0 1.632-.032 2.816-.096 3.552-.032.32.064.48.288.48.48 0 .8-.016.96-.048-.864 2.272-1.72 4.128-2.568 5.568-.848 1.44-1.816 2.744-2.904 3.912-1.088 1.168-1.632 1.8-1.632 1.896 0 .032.016.048.048.048.224 0 1.352-.64 3.384-1.92 2.032-1.28 4.152-2.864 6.36-4.752 1.088-.96 1.936-1.456 2.544-1.488.608-.032.912-.192.912-.48s-.32-.576-.96-.864c-.64-.288-2.224-.944-4.752-1.968.704-.064 1.304-.16 1.8-.288.496-.128.896-.256 1.2-.384.304-.128.456-.272.456-.432h2.64v5.568c0 1.152-.096 1.976-.288 2.472-.192.496-.584.832-1.176 1.008-.592.176-1.48.264-2.664.264-1.184 0-1.776.048-1.776.144 0 .096.464.312 1.392.648.928.336 1.592.712 1.992 1.128.4.416.624.952.672 1.608.048.656.136 1.056.264 1.2.128.144.368.216.72.216zm8.4-15.84H78.904v-3.648c.352-.128.656-.32.912-.576h9.216v4.224zm-3.024 16.752c.896 0 2.936-.4 6.12-1.2 3.184-.8 6.36-2.216 9.528-4.248s6.16-4.872 8.976-8.52c.448-.576.792-.96 1.032-1.152.24-.192.624-.352 1.152-.48.528-.128.792-.336.792-.624 0-.576-2.08-2.16-6.24-4.752-3.904 10.432-10.512 17.136-19.824 20.112-1.216.384-1.824.64-1.824.768 0 .064.096.096.288.096zm7.44-5.088c.736 0 1.432-.336 2.088-1.008.656-.672.984-1.44.984-2.304 0-1.216-.664-2.24-1.992-3.072-1.328-.832-3.384-1.248-6.168-1.248-.8 0-1.2.056-1.2.168 0 .112.24.312.72.6 1.76 1.12 2.784 2.672 3.072 4.656.096.672.352 1.208.768 1.608.416.4.992.6 1.728.6zm34.656-14.928c.32 0 1.648-1.248 3.984-3.744 2.336-2.496 4.624-5.808 6.864-9.936h11.472c-.32 1.92-.816 3.952-1.488 6.096-.064.256-.096.472-.096.648 0 .176.072.264.216.264.144 0 .376-.208.696-.624 1.152-1.472 2.2-2.52 3.144-3.144.944-.624 2.152-.936 3.624-.936l1.728.048c.96 0 1.44-.328 1.44-.984 0-.656-1.112-1.856-3.336-3.6-2.224-1.744-3.576-2.616-4.056-2.616-.288 0-.656.312-1.104.936-.448.624-.896 1.4-1.344 2.328h-10.08c.576-1.056 1.096-2.104 1.56-3.144.464-1.04.848-1.728 1.152-2.064.304-.336.744-.552 1.32-.648.576-.096.864-.336.864-.72 0-.224-.112-.416-.336-.576-.224-.16-1.16-.496-2.808-1.008s-3.608-1.04-5.88-1.584c-.288 4.352-1.072 8.64-2.352 12.864-1.28 4.224-2.88 7.904-4.8 11.04-.32.512-.48.848-.48 1.008 0 .064.032.096.096.096zm-3.984-11.184c.864 0 1.68-.392 2.448-1.176.768-.784 1.152-1.672 1.152-2.664 0-3.616-2.976-5.424-8.928-5.424-1.056 0-1.584.048-1.584.144 0 .096.176.24.528.432 1.184.608 2.064 1.392 2.64 2.352.576.96.904 2.016.984 3.168.08 1.152.344 1.968.792 2.448.448.48 1.104.72 1.968.72zm-2.352 28.272c2.784 0 4.176-1.392 4.176-4.176 0-.576-.064-1.216-.192-1.92-.544-2.944-.816-5.256-.816-6.936 0-1.68.368-3.512 1.104-5.496l5.76-15.552c.096-.288.144-.52.144-.696 0-.176-.056-.264-.168-.264-.112 0-.296.224-.552.672L124.12 40.36c-1.12 2.112-2.2 3.528-3.24 4.248-1.04.72-2.36 1.08-3.96 1.08l-1.248-.048c-.288 0-.432.072-.432.216 0 .144.128.248.384.312 1.824.416 3.024.88 3.6 1.392.576.512.864 1.264.864 2.256 0 .992-.464 2.928-1.392 5.808-.224.736-.336 1.536-.336 2.4 0 .864.296 1.592.888 2.184.592.592 1.432.888 2.52.888zm.864 2.688c.544 0 2.248-.448 5.112-1.344 2.864-.896 5.496-2.216 7.896-3.96 2.4-1.744 4.344-3.88 5.832-6.408 1.488-2.528 2.536-5.472 3.144-8.832.096 3.776.568 7.008 1.416 9.696.848 2.688 2.216 5.104 4.104 7.248s3.168 3.216 3.84 3.216c.352 0 .624-.208.816-.624.352-.736 1.008-1.488 1.968-2.256.96-.768 2.032-1.36 3.216-1.776.48-.16.72-.304.72-.432s-.224-.288-.672-.48c-4.608-1.92-8.056-4.584-10.344-7.992-2.288-3.408-3.688-7.784-4.2-13.128.256-.8.68-1.288 1.272-1.464.592-.176.888-.472.888-.888 0-.416-.368-.64-1.104-.672-1.696-.064-4.144-.256-7.344-.576.064 1.248.096 2.448.096 3.6 0 6.752-1.152 12.088-3.456 16.008-2.304 3.92-6.448 7.368-12.432 10.344-.672.32-1.008.544-1.008.672 0 .032.08.048.24.048zm57.648.48c.544 0 2.4-.752 5.568-2.256 3.168-1.504 6.096-3.568 8.784-6.192.64.896 1.384 1.808 2.232 2.736.848.928 1.816 1.88 2.904 2.856 1.088.976 1.736 1.528 1.944 1.656.208.128.424.192.648.192.224 0 .432-.144.624-.432.608-.896 1.496-1.824 2.664-2.784 1.168-.96 2.024-1.488 2.568-1.584.544-.096.816-.224.816-.384s-.192-.304-.576-.432c-4.608-1.568-8.096-3.44-10.464-5.616.96-1.44 1.912-3.4 2.856-5.88s1.616-4.648 2.016-6.504c.4-1.856.704-3.064.912-3.624.208-.56.496-.928.864-1.104.368-.176.552-.408.552-.696 0-.512-.864-.944-2.592-1.296h5.28c.608 0 .912-.256.912-.768 0-.384-.272-.84-.816-1.368-.544-.528-1.36-1.248-2.448-2.16-1.088-.912-1.848-1.368-2.28-1.368-.432 0-1.352 1.36-2.76 4.08H194.2c.864-2.048 1.544-3.808 2.04-5.28.496-1.472.856-2.448 1.08-2.928.224-.48.52-.808.888-.984.368-.176.552-.408.552-.696 0-.224-.136-.416-.408-.576-.272-.16-1.096-.408-2.472-.744s-3.056-.632-5.04-.888c-.32 10.944-2.4 19.488-6.24 25.632-1.92-1.12-2.992-1.68-3.216-1.68-.224 0-.456.16-.696.48-.24.32-.648 1.008-1.224 2.064h-2.784c.704-1.12 1.248-1.728 1.632-1.824.48-.096.72-.304.72-.624 0-.096-.048-.216-.144-.36-.096-.144-.56-.408-1.392-.792.864-.416 1.368-.68 1.512-.792.144-.112.216-.296.216-.552l-.048-1.632c-.064-1.184-.096-2.304-.096-3.36v-1.296c1.152 1.184 1.904 2.656 2.256 4.416.192.832.456 1.408.792 1.728.336.32.816.48 1.44.48s1.216-.312 1.776-.936c.56-.624.84-1.384.84-2.28 0-.896-.608-1.768-1.824-2.616-1.216-.848-2.976-1.48-5.28-1.896v-1.152h8.448c.832 0 1.248-.216 1.248-.648 0-.432-.592-1.2-1.776-2.304-1.184-1.104-1.92-1.656-2.208-1.656-.384 0-1.152 1.008-2.304 3.024h-3.408v-.672c3.136-2.112 5.112-3.384 5.928-3.816.816-.432 1.552-.68 2.208-.744.656-.064.984-.264.984-.6 0-.336-.608-.872-1.824-1.608-1.216-.736-2.448-1.344-3.696-1.824-1.216 2.976-2.416 5.28-3.6 6.912v-6.768c.64-.256.96-.504.96-.744s-.096-.432-.288-.576c-.192-.144-.792-.312-1.8-.504s-2.376-.368-4.104-.528c.064 1.248.096 2.672.096 4.272v7.2h-7.152c-.928 0-1.728-.08-2.4-.24l.816 2.064c.544-.16 1.232-.24 2.064-.24h4.08c-1.696 4.832-4.048 8.656-7.056 11.472-.416.416-.624.688-.624.816 0 .064.032.096.096.096.416 0 1.816-.848 4.2-2.544 2.384-1.696 4.376-3.712 5.976-6.048v4.848l-.528-.144c-.992 2.368-1.728 4.032-2.208 4.992h-4.56c-.832 0-1.632-.048-2.4-.144l1.296 2.256c.512-.352 1.088-.528 1.728-.528h3.168c-.832 1.664-1.808 3.456-2.928 5.376 3.552.832 6.24 1.712 8.064 2.64-2.784 3.232-6.608 5.792-11.472 7.68-.352.128-.528.248-.528.36 0 .112.112.168.336.168.576 0 2.624-.568 6.144-1.704 3.52-1.136 6.416-2.616 8.688-4.44.672.544 1.44 1.248 2.304 2.112.864.864 1.64 1.296 2.328 1.296s1.328-.28 1.92-.84c.592-.56.888-1.136.888-1.728 0-.592-.128-1.2-.384-1.824-.256-.624-.784-1.176-1.584-1.656s-1.472-.816-2.016-1.008c.864-1.216 1.56-2.376 2.088-3.48s.88-1.744 1.056-1.92c.176-.176.512-.352 1.008-.528.496-.176.744-.472.744-.888 0-.416-.576-.928-1.728-1.536 1.76-1.952 3.28-3.936 4.56-5.952.16 5.6 1.136 10.112 2.928 13.536-2.368 3.808-6.448 7.328-12.24 10.56-.384.224-.576.4-.576.528s.08.192.24.192zm-9.648-34.56c.704 0 1.288-.296 1.752-.888.464-.592.696-1.368.696-2.328 0-.96-.728-1.84-2.184-2.64-1.456-.8-3.144-1.2-5.064-1.2-.256 0-.384.04-.384.12 0 .08.112.2.336.36 1.632 1.12 2.544 2.64 2.736 4.56.064.736.256 1.256.576 1.56.32.304.832.456 1.536.456zm24.384 18.816c-1.984-2.976-3.264-6.688-3.84-11.136.992-1.696 1.76-3.184 2.304-4.464h4.512c-.32 6.304-1.312 11.504-2.976 15.6zm-17.328 3.888c-1.472-.32-2.96-.544-4.464-.672l2.544-4.416h3.936c-.416 1.76-1.088 3.456-2.016 5.088zm34.896 11.376c.416 0 1.944-1.088 4.584-3.264 2.64-2.176 4.56-4.384 5.76-6.624 1.2-2.24 1.96-5.104 2.28-8.592h7.392v7.824c0 1.184-.016 2.448-.048 3.792l-.096 2.016c0 .864.504 1.296 1.512 1.296s1.92-.128 2.736-.384c.816-.256 1.328-.512 1.536-.768.208-.256.312-.592.312-1.008l-.048-4.944v-7.824h7.68v10.272c0 .64-.512 1.056-1.536 1.248-1.024.192-2.168.296-3.432.312-1.264.016-1.896.088-1.896.216s.288.256.864.384c1.472.288 2.56.72 3.264 1.296.704.576 1.104 1.536 1.2 2.88.064.832.448 1.248 1.152 1.248.512 0 1.464-.248 2.856-.744s2.32-1.112 2.784-1.848c.464-.736.696-2.128.696-4.176V26.584c1.248-.416 1.872-.832 1.872-1.248 0-.48-.968-1.464-2.904-2.952s-3.064-2.232-3.384-2.232c-.448 0-1.216 1.04-2.304 3.12h-19.248c-1.824-.864-3.92-1.632-6.288-2.304.128 5.632.192 10.672.192 15.12 0 4.448-.152 8.24-.456 11.376-.304 3.136-.96 5.968-1.968 8.496-1.008 2.528-2.584 4.864-4.728 7.008-.32.32-.48.536-.48.648 0 .112.048.168.144.168zM232.6 33.352h-6.864v-6.336c0-1.28.16-2 .48-2.16h6.384v8.496zm13.584 0h-7.68v-7.344c.64-.448.928-.832.864-1.152h6.816v8.496zM232.6 43.72h-7.248c.192-2.144.304-5.072.336-8.784h6.912v8.784zm13.584 0h-7.68v-8.784h7.68v8.784zm13.728 12.864c.32 0 1.688-.92 4.104-2.76 2.416-1.84 4.4-4.104 5.952-6.792 1.552-2.688 2.44-6 2.664-9.936l.144-3.072h11.376c.608 3.616 1.68 6.592 3.216 8.928 1.536 2.336 3.696 4.416 6.48 6.24 2.784 1.824 4.496 2.736 5.136 2.736.384 0 .688-.224.912-.672.64-1.152 1.392-2.184 2.256-3.096.864-.912 1.6-1.496 2.208-1.752.608-.256.912-.44.912-.552 0-.112-.224-.2-.672-.264-4.864-.544-9.064-1.832-12.6-3.864-3.536-2.032-5.784-4.6-6.744-7.704h6.096V35.8c0 .576.56.864 1.68.864 1.12 0 2.136-.176 3.048-.528.912-.352 1.368-.768 1.368-1.248l-.048-2.544v-7.248c1.056-.384 1.584-.8 1.584-1.248 0-.448-1.008-1.264-3.024-2.448s-3.2-1.776-3.552-1.776c-.192 0-.344.056-.456.168-.112.112-.344.44-.696.984s-.768 1.248-1.248 2.112h-16.08c-1.696-.8-3.968-1.712-6.816-2.736.192 5.184.288 10.384.288 15.6 0 5.216-.488 9.216-1.464 12-.976 2.784-2.808 5.472-5.496 8.064-.416.384-.624.624-.624.72 0 .032.032.048.096.048zm31.44-24.144h-18.48c.032-.896.064-2.384.096-4.464.032-2.08.096-3.248.192-3.504h18.192v7.968zm-9.12 17.712c.864 0 1.656-.36 2.376-1.08.72-.72 1.08-1.568 1.08-2.544s-.448-1.976-1.344-3c-.896-1.024-2.168-1.752-3.816-2.184-1.648-.432-3.032-.648-4.152-.648-.224 0-.336.032-.336.096s.112.16.336.288c1.344.736 2.192 1.424 2.544 2.064.352.64.528 1.568.528 2.784l-.048 1.68c0 .8.256 1.424.768 1.872.512.448 1.2.672 2.064.672zm6.24 13.104c.832 0 1.552-.328 2.16-.984.608-.656.912-1.464.912-2.424 0-1.6-1.048-3.072-3.144-4.416-2.096-1.344-5.608-2.016-10.536-2.016-1.376 0-2.976.048-4.8.144-1.824.096-2.84.168-3.048.216-.208.048-.312.128-.312.24 0 .112.24.184.72.216 3.328.256 6.376 1.048 9.144 2.376 2.768 1.328 4.744 2.92 5.928 4.776.8 1.248 1.792 1.872 2.976 1.872z"/>
    </defs>
    <g fill="none">
        <use fill="#000" filter="url(#sv315o1w0a)" xlink:href="#5ujdp98xrb"/>
        <use fill="#FFF" stroke="#FFF" xlink:href="#5ujdp98xrb"/>
    </g>
</svg>
