<svg width="52" height="52" viewBox="0 0 52 52" xmlns="http://www.w3.org/2000/svg">
    <g fill="none" fill-rule="evenodd">
        <circle fill="#FFF" cx="26" cy="26" r="26"/>
        <path d="m26 37.692-8.035 3.677a1.576 1.576 0 0 1-2.225-1.576l.814-8.919-5.849-6.79a1.576 1.576 0 0 1 .841-2.564l8.616-1.978 4.476-7.699a1.576 1.576 0 0 1 2.724 0l4.476 7.699 8.616 1.978a1.576 1.576 0 0 1 .84 2.564l-5.848 6.79.814 8.919a1.576 1.576 0 0 1-2.225 1.576L26 37.692z" stroke="#646464" stroke-width="3.152"/>
    </g>
</svg>
