<svg xmlns="http://www.w3.org/2000/svg" xmlns:xlink="http://www.w3.org/1999/xlink" width="32" height="32" viewBox="0 0 32 32">
    <defs>
        <path id="xid9hi2d6a" d="M0 0.774L31.226 0.774 31.226 31.999 0 31.999z"/>
        <path id="3jwecbaezc" d="M0.682 0.168L27.226 0.168 27.226 29 0.682 29z"/>
        <path id="xyo3lr53xe" d="M0.001 0.774L25.926 0.774 25.926 29.524 0.001 29.524z"/>
    </defs>
    <g fill="none" fill-rule="evenodd">
        <g>
            <g>
                <g>
                    <g transform="translate(-386 -1356) translate(0 378) translate(386 978)">
                        <mask id="3fguozqsgb" fill="#fff">
                            <use xlink:href="#xid9hi2d6a"/>
                        </mask>
                        <path fill="#FD0" d="M31.226 16.387C31.226 25.01 24.236 32 15.613 32S0 25.01 0 16.387C0 7.764 6.99.774 15.613.774c8.623 0 15.613 6.99 15.613 15.613" mask="url(#3fguozqsgb)"/>
                    </g>
                    <g transform="translate(-386 -1356) translate(0 378) translate(386 978) translate(4 3)">
                        <mask id="4der43qn0d" fill="#fff">
                            <use xlink:href="#3jwecbaezc"/>
                        </mask>
                        <path fill="#FAC500" d="M19.894.168C22.781 3 24.577 6.94 24.577 11.308c0 8.622-6.99 15.613-15.614 15.613-3.046 0-5.879-.887-8.28-2.395C3.497 27.29 7.354 29 11.612 29c8.623 0 15.613-6.99 15.613-15.614 0-5.576-2.934-10.457-7.332-13.218" mask="url(#4der43qn0d)"/>
                    </g>
                    <g transform="translate(-386 -1356) translate(0 378) translate(386 978)">
                        <mask id="23pr1th79f" fill="#fff">
                            <use xlink:href="#xyo3lr53xe"/>
                        </mask>
                        <path fill="#FFF1A1" d="M1.897 17.823C1.897 9.2 8.887 2.21 17.51 2.21c3.103 0 5.986.916 8.416 2.475C23.174 2.259 19.571.774 15.613.774 6.991.774.001 7.764.001 16.386c0 5.522 2.872 10.362 7.197 13.138-3.244-2.861-5.3-7.036-5.3-11.701" mask="url(#23pr1th79f)"/>
                    </g>
                    <path fill="#FFF" d="M21.704 10.47c.626.055 1.203-.405 1.266-1.044.06-.638-.407-1.204-1.044-1.266C11.554 7.162 8.8 10.122 8.519 10.463c-.405.497-.345 1.243.15 1.65.22.178.483.267.744.267.327 0 .649-.14.875-.416.016-.015 1.012-1.002 4.168-1.459v1.772h-.89c-2.616 0-4.737 2.12-4.737 4.736v3.083c0 .64.52 1.16 1.16 1.16.64 0 1.16-.52 1.16-1.16v-3.082c0-1.335 1.082-2.417 2.418-2.417h.889v9.061c0 .64.519 1.16 1.16 1.16.64 0 1.16-.52 1.16-1.16v-9.06h.934c1.308 0 2.373 1.063 2.373 2.37l.023 1.926c0 .023-.018.041-.042.043-.681.023-1.214.637-1.102 1.346.105.675.818 1.05 1.494.947 1.102-.17 1.947-1.122 1.947-2.27v-1.946c0-2.616-2.121-4.737-4.738-4.737h-.89v-1.974c1.368-.054 2.986-.02 4.929.167" transform="translate(-386 -1356) translate(0 378) translate(386 978)"/>
                </g>
            </g>
        </g>
    </g>
</svg>
