<svg width="32" height="32" viewBox="0 0 32 32" xmlns="http://www.w3.org/2000/svg">
    <g fill="none" fill-rule="evenodd">
        <path d="M0 0h32v32H0z"/>
        <path d="M2 3h28v26H2z"/>
        <g stroke="#FFF" stroke-width="2">
            <path d="M11.749 13.022c1.264 1.264 3.626.798 4.996-.951 2.751-3.51 3.836-6.401 4.222-7.706.112-.384-.177-.673-.56-.56-1.306.385-4.197 1.47-7.707 4.22-1.749 1.372-2.214 3.734-.951 4.997zM20.275 19.135c1.264 1.264.798 3.626-.951 4.996-3.51 2.751-6.401 3.836-7.706 4.222-.384.113-.673-.176-.56-.56.385-1.306 1.47-4.196 4.221-7.707 1.37-1.749 3.732-2.214 4.996-.951zM12.956 20.342c1.264-1.263.797-3.626-.952-4.997-3.51-2.75-6.4-3.836-7.706-4.221-.383-.113-.672.177-.56.56.385 1.305 1.47 4.196 4.221 7.706 1.37 1.75 3.733 2.216 4.997.952zM19.068 11.816c1.264-1.264 3.627-.798 4.997.95 2.751 3.511 3.836 6.402 4.221 7.708.113.383-.176.672-.56.559-1.305-.385-4.196-1.47-7.706-4.22-1.75-1.372-2.215-3.734-.952-4.997z"/>
        </g>
    </g>
</svg>
