<svg width="42" height="42" viewBox="0 0 42 42" xmlns="http://www.w3.org/2000/svg" xmlns:xlink="http://www.w3.org/1999/xlink">
    <defs>
        <path id="w0xky939ha" d="M.622.325H31.96v25.28H.622z"/>
        <path id="jfnddo5pac" d="M0 .264h11.967V12.23H0z"/>
    </defs>
    <g fill="none" fill-rule="evenodd">
        <path d="M0 0h42v42H0z"/>
        <g transform="translate(7.346 9.225)">
            <mask id="01gxpvocub" fill="#fff">
                <use xlink:href="#w0xky939ha"/>
            </mask>
            <path d="M27.017.325H5.568A4.946 4.946 0 0 0 .622 5.272v10.417a6.776 6.776 0 0 1 1.423.04V5.271a3.526 3.526 0 0 1 3.523-3.524h21.449c1.94 0 3.52 1.58 3.52 3.524v15.227a4.922 4.922 0 0 1-3.52 1.477H7.927a6.772 6.772 0 0 1-.76 3.629h19.85a4.945 4.945 0 0 0 4.944-4.944V5.272A4.946 4.946 0 0 0 27.017.325" fill="#646464" mask="url(#01gxpvocub)"/>
        </g>
        <g transform="translate(2.5 25.456)">
            <mask id="ch8xfygpnd" fill="#fff">
                <use xlink:href="#jfnddo5pac"/>
            </mask>
            <path d="m7.31 9.088.275.993-.993.276-.276-.993-1.987.552-.276-.993L6.04 8.37l-.276-.99-1.987.551-.276-.993 1.987-.552-.276-.994-.994.277-.276-.994-.993.276-.552-1.986.993-.276.552 1.986.994-.276.276.993.993-.278-.276-.99.99-.277-.552-1.987.993-.276.553 1.987-.994.276.276.993-.99.274.273.993 1.987-.55.276.991-1.984.552.276.993 1.987-.552.276.994-1.987.552zm4.436-4.443A5.981 5.981 0 0 0 4.381.484 5.983 5.983 0 1 0 7.588 12.01a5.982 5.982 0 0 0 4.158-7.366z" fill="#646464" mask="url(#ch8xfygpnd)"/>
        </g>
        <path d="M25.212 3.712a14.387 14.387 0 0 0 1.77 3.108c2.624-.089 5.288-.134 8-.134l.416 4.235c-5.143 0-10.309.188-15.5.555-.453.825-.749 1.597-.888 2.314 0 .893.635 1.343 1.901 1.343 1.01 0 2.38-.16 4.119-.472a65.201 65.201 0 0 0 4.09-.871 50.91 50.91 0 0 1-.444-1.13l4.067-1.634a22.874 22.874 0 0 0 3.566 6.37l-3.96 1.947a15.36 15.36 0 0 1-1.197-1.66c-.851.21-1.668.399-2.448.555l2.109.498a25.7 25.7 0 0 0-1.33 3.476c0 .418.209.631.627.631.817 0 2.334-.244 4.557-.737l.834 4.235c-2.85.456-4.81.692-5.886.712H28.31c-.936 0-1.693-.316-2.265-.948-.487-.632-.732-1.375-.732-2.237.02-1.437.384-3.156 1.096-5.154-.47.068-.92.136-1.355.207-1.286.177-2.37.3-3.256.37-1.007 2.474-1.807 5.13-2.396 7.972l-4.35-1.027a41.257 41.257 0 0 1 2.081-7.286 4.811 4.811 0 0 1-1.377-.843c-.888-.631-1.33-1.633-1.33-3 0-1.053.226-2.14.675-3.264-.381.034-.743.071-1.093.108l-.39-4.212c2.71-.282 5.485-.51 8.334-.683-.31-.56-.58-1.124-.806-1.685l4.065-1.66z" fill="#FA719A"/>
        <path d="M25.212 3.712a14.387 14.387 0 0 0 1.77 3.108c2.624-.089 5.288-.134 8-.134l.416 4.235c-5.143 0-10.309.188-15.5.555-.453.825-.749 1.597-.888 2.314 0 .893.635 1.343 1.901 1.343 1.01 0 2.38-.16 4.119-.472a65.201 65.201 0 0 0 4.09-.871 50.91 50.91 0 0 1-.444-1.13l4.067-1.634a22.874 22.874 0 0 0 3.566 6.37l-3.96 1.947a15.36 15.36 0 0 1-1.197-1.66c-.851.21-1.668.399-2.448.555l2.109.498a25.7 25.7 0 0 0-1.33 3.476c0 .418.209.631.627.631.817 0 2.334-.244 4.557-.737l.834 4.235c-2.85.456-4.81.692-5.886.712H28.31c-.936 0-1.693-.316-2.265-.948-.487-.632-.732-1.375-.732-2.237.02-1.437.384-3.156 1.096-5.154-.47.068-.92.136-1.355.207-1.286.177-2.37.3-3.256.37-1.007 2.474-1.807 5.13-2.396 7.972l-4.35-1.027a41.257 41.257 0 0 1 2.081-7.286 4.811 4.811 0 0 1-1.377-.843c-.888-.631-1.33-1.633-1.33-3 0-1.053.226-2.14.675-3.264-.381.034-.743.071-1.093.108l-.39-4.212c2.71-.282 5.485-.51 8.334-.683-.31-.56-.58-1.124-.806-1.685l4.065-1.66z" stroke="#FFF" stroke-width="1.5" stroke-linecap="round" stroke-linejoin="round"/>
    </g>
</svg>
