<svg width="42" height="42" viewBox="0 0 42 42" xmlns="http://www.w3.org/2000/svg">
    <g fill="none" fill-rule="evenodd">
        <path d="M0 0h42v42H0z"/>
        <g stroke="#FFF" stroke-linecap="round" stroke-linejoin="round" stroke-width="2">
            <path d="M26.63 24.597c0 3.148-2.564 5.701-5.726 5.701s-5.725-2.553-5.725-5.701"/>
            <path d="M31.611 23.68c0 5.913-4.794 10.707-10.707 10.707-5.913 0-10.707-4.794-10.707-10.707 0-5.913 4.794-10.707 10.707-10.707 5.913 0 10.707 4.794 10.707 10.707z"/>
            <path d="M10.197 23.68c0-1.887.492-3.656 1.349-5.196l-.06-.003a5.625 5.625 0 1 0 .567 11.222 10.656 10.656 0 0 1-1.856-6.023zM31.611 23.68c0-1.887-.492-3.656-1.348-5.196.02 0 .04-.003.059-.003a5.625 5.625 0 1 1-.566 11.222 10.656 10.656 0 0 0 1.855-6.023z"/>
            <path d="M7.928 19.748C8.966 13.003 14.38 7.861 20.904 7.861c6.523 0 11.938 5.142 12.976 11.888"/>
        </g>
    </g>
</svg>
