<svg width="32" height="32" viewBox="0 0 32 32" xmlns="http://www.w3.org/2000/svg" xmlns:xlink="http://www.w3.org/1999/xlink">
    <defs>
        <path id="8nbsiwwr9a" d="M0 0h21.532v15.42H0z"/>
    </defs>
    <g fill="none" fill-rule="evenodd">
        <g>
            <circle stroke="#F24C7C" stroke-width="1.6" cx="16" cy="16" r="15.2"/>
            <g transform="translate(5.053 8.21)">
                <mask id="d6ahj56dbb" fill="#fff">
                    <use xlink:href="#8nbsiwwr9a"/>
                </mask>
                <path d="M20.252 2.655a.42.42 0 0 1-.418.423H18.18a.42.42 0 0 1-.418-.423v-1.02a.42.42 0 0 1 .418-.423h1.654c.23 0 .418.19.418.424v1.019zm0 11.288a.42.42 0 0 1-.418.423H18.18a.42.42 0 0 1-.418-.423v-1.02a.42.42 0 0 1 .418-.422h1.654a.42.42 0 0 1 .418.423v1.02zM16.066 2.655a.42.42 0 0 1-.418.423h-1.655a.42.42 0 0 1-.417-.423v-1.02a.42.42 0 0 1 .417-.423h1.655c.23 0 .418.19.418.424v1.019zm0 11.288a.42.42 0 0 1-.418.423h-1.655a.42.42 0 0 1-.417-.423v-1.02a.42.42 0 0 1 .417-.422h1.655a.42.42 0 0 1 .418.423v1.02zm-4.187 0a.42.42 0 0 1-.418.423H9.807a.42.42 0 0 1-.417-.423v-1.02a.42.42 0 0 1 .417-.422h1.654a.42.42 0 0 1 .418.423v1.02zm-4.186 0a.42.42 0 0 1-.418.423H5.62a.42.42 0 0 1-.418-.423v-1.02a.42.42 0 0 1 .418-.422h1.654a.42.42 0 0 1 .418.423v1.02zM3.506 2.655a.42.42 0 0 1-.418.423H1.434a.42.42 0 0 1-.417-.423v-1.02a.42.42 0 0 1 .417-.423h1.654c.231 0 .418.19.418.424v1.019zm0 11.288a.42.42 0 0 1-.418.423H1.434a.42.42 0 0 1-.417-.423v-1.02a.42.42 0 0 1 .417-.422h1.654a.42.42 0 0 1 .418.423v1.02zM5.203 1.636a.42.42 0 0 1 .418-.424h1.654c.23 0 .418.19.418.424v1.019a.42.42 0 0 1-.418.423H5.62a.42.42 0 0 1-.418-.423v-1.02zm4.187 0a.42.42 0 0 1 .417-.424h1.654a.42.42 0 0 1 .418.424v1.019a.42.42 0 0 1-.418.423H9.807a.42.42 0 0 1-.417-.423v-1.02zM20.682 0H.792A.797.797 0 0 0 0 .8v13.976c0 .443.354.802.791.802h19.891c.437 0 .792-.36.792-.802V.8A.797.797 0 0 0 20.682 0z" fill="#F24C7C" mask="url(#d6ahj56dbb)"/>
            </g>
        </g>
        <path fill="#FFF" d="M16.262 12 11 17.383h5.494L15.738 20 21 14.617h-5.494z"/>
    </g>
</svg>
