<svg width="30" height="32" viewBox="0 0 30 32" xmlns="http://www.w3.org/2000/svg">
    <g fill="#F24C7C" fill-rule="evenodd">
        <path d="M11.247 17.14a.35.35 0 0 1-.354-.348v-2.073a.35.35 0 0 1 .354-.348h2.942a8.34 8.34 0 0 1-.71 2.768h-2.232zm8.582-2.42v2.072a.35.35 0 0 1-.353.347h-3.721c.292-.814.475-1.73.504-2.768h3.217a.35.35 0 0 1 .353.348zm-1.747 7.414a.452.452 0 0 1-.456-.45v-3.666h3.133c.56 0 1.012-.446 1.012-.996v-2.533c0-.551-.452-.997-1.012-.997h-1.45c.952-1.04 1.328-1.97 1.47-2.557a.529.529 0 0 0-.526-.646h-7.655c.236-.467.413-.948.463-1.4h-2.168S10.58 10.842 8 12.924h2.68s.961-.991 1.665-2.18h5.71c.297 0 .526.27.455.553-.224.88-.887 1.794-1.206 2.195H9.963c-.559 0-1.011.446-1.011.997v2.533c0 .55.452.996 1.01.996h3.035c-.83 1.317-2.223 2.584-4.6 3.107v1.986s4.893-.954 6.964-5.044v3.911c0 .518.426.937.953.937h5.908v-.781h-4.14z"/>
        <path d="M15 32a4.25 4.25 0 0 1-2.06-.535L2.18 25.52A4.213 4.213 0 0 1 0 21.838V10.162c0-1.528.835-2.94 2.179-3.683L12.939.534a4.24 4.24 0 0 1 4.12 0l9.058 5.004c.441.244.6.797.354 1.237a.917.917 0 0 1-1.243.352L16.17 2.123a2.408 2.408 0 0 0-2.341 0L3.069 8.068a2.394 2.394 0 0 0-1.24 2.094v11.676c0 .868.475 1.67 1.24 2.093l10.76 5.945a2.406 2.406 0 0 0 2.342 0l10.76-5.945a2.396 2.396 0 0 0 1.24-2.093v-9.72c0-.502.41-.908.914-.908.506 0 .915.406.915.909v9.719c0 1.528-.835 2.94-2.179 3.682l-10.76 5.945A4.26 4.26 0 0 1 15 32"/>
    </g>
</svg>
