<?xml version="1.0" encoding="UTF-8"?>
<svg width="56px" height="56px" viewBox="0 0 56 56" version="1.1" xmlns="http://www.w3.org/2000/svg" xmlns:xlink="http://www.w3.org/1999/xlink">
    <!-- Generator: sketchtool 64 (101010) - https://sketch.com -->
    <title>1B919509-559B-44D8-ABF7-FE2C4074D1FA</title>
    <desc>Created with sketchtool.</desc>
    <defs>
        <circle id="path-1" cx="28" cy="28" r="28"></circle>
        <polygon id="path-3" points="0 84.3196781 115.123853 84.3196781 115.123853 0 0 0"></polygon>
    </defs>
    <g id="首頁" stroke="none" stroke-width="1" fill="none" fill-rule="evenodd">
        <g id="PC_a1-1-2-footer" transform="translate(-1476.000000, -954.000000)">
            <g id="Group-39" transform="translate(1476.000000, 954.000000)">
                <mask id="mask-2" fill="white">
                    <use xlink:href="#path-1"></use>
                </mask>
                <use id="Oval-Copy-2" fill="#FFFFFF" xlink:href="#path-1"></use>
                <g id="Group-147" mask="url(#mask-2)">
                    <g transform="translate(-36.000000, -23.000000)">
                        <path d="M92.0429516,32.0777107 C92.0429516,32.0777107 98.5955795,31.3113082 104.865368,36.8127936 C111.135347,42.314279 115.101937,49.1887123 114.718165,57.5875872 C114.334203,65.986272 107.552529,70.0096954 106.400834,69.469488 C106.400834,69.469488 101.612909,78.5262298 92.0429516,68.2896614 L87.5707494,34.3438445 L92.0429516,32.0777107 Z" id="Fill-1" stroke="none" fill="#F9C4D3" fill-rule="evenodd"></path>
                        <path d="M92.0429516,32.0777107 C92.0429516,32.0777107 98.5955795,31.3113082 104.865368,36.8127936 C111.135347,42.314279 115.101937,49.1887123 114.718165,57.5875872 C114.334203,65.986272 107.552529,70.0096954 106.400834,69.469488 C106.400834,69.469488 101.612909,78.5262298 92.0429516,68.2896614 L87.5707494,34.3438445 L92.0429516,32.0777107 Z" id="Stroke-3" stroke="#A92768" stroke-width="0.76032" fill="none"></path>
                        <path d="M91.1740009,34.3438825 C91.1740009,34.3438825 99.7471791,33.655983 108.06432,44.6388054 C116.38165,55.6218179 111.519214,64.7066915 104.481502,67.2659286 C104.481502,67.2659286 101.101119,74.4315644 92.0428566,68.2895094 L88.1146633,36.3129212 L91.1740009,34.3438825 Z" id="Fill-5" stroke="none" fill="#DC73A5" fill-rule="evenodd"></path>
                        <path d="M98.2614378,4.98612154 C95.9441725,4.87112314 73.8298852,9.11560954 74.7190794,25.3178387 L88.1145873,36.3130163 C88.1145873,36.3130163 93.0182711,35.5658118 96.6719889,30.3903135 C100.325707,25.2148153 99.171921,19.0611654 99.0757405,17.5228479 C98.9795601,15.9843404 97.4558788,10.8884857 99.3234148,8.96544634 C101.191141,7.04240698 101.389394,5.14122682 98.2614378,4.98612154" id="Fill-7" stroke="none" fill="#F5BCF4" fill-rule="evenodd"></path>
                        <path d="M97.0293963,15.403703 C96.7699371,13.2419232 96.510668,10.2154694 97.0293963,8.7455808 C97.4245726,7.6260096 99.1010782,6.03085824 99.8785054,5.33345472 C99.4930232,5.14337472 98.9609892,5.02077312 98.2614948,4.98617856 C95.9440395,4.87118016 73.8297521,9.11566656 74.7189464,25.3178957 L87.0222545,35.4162758 C99.5893937,27.250249 97.2795416,17.4886906 97.0293963,15.403703" id="Fill-9" stroke="none" fill="#BD6ED2" fill-rule="evenodd"></path>
                        <path d="M90.991353,13.4955089 C88.0325677,14.5953118 77.8978823,18.9943332 80.0127124,26.9928996 L84.4033703,32.6964401 C84.4033703,32.6964401 97.6546074,32.3790065 92.0333716,14.0110059 C91.898985,13.571731 91.4220743,13.3354616 90.991353,13.4955089 Z" id="Stroke-11" stroke="#6F2F80" stroke-width="0.76032" fill="none"></path>
                        <polygon id="Fill-13" stroke="none" fill="#76B1B0" fill-rule="evenodd" points="83.4088908 30.34861 81.7911199 29.2195348 85.3976978 24.0516397 87.0154687 25.1807149"></polygon>
                        <polygon id="Stroke-15" stroke="#6F2F80" stroke-width="0.76032" fill="none" points="83.4088908 30.34861 81.7911199 29.2195348 85.3976978 24.0516397 87.0154687 25.1807149"></polygon>
                        <path d="M98.2614378,4.98612154 C95.9441725,4.87112314 73.8298852,9.11560954 74.7190794,25.3178387 L88.1145873,36.3130163 C88.1145873,36.3130163 93.0182711,35.5658118 96.6719889,30.3903135 C100.325707,25.2148153 99.171921,19.0611654 99.0757405,17.5228479 C98.9795601,15.9843404 97.4558788,10.8884857 99.3234148,8.96544634 C101.191141,7.04240698 101.389394,5.14122682 98.2614378,4.98612154 Z" id="Stroke-17" stroke="#6F2F80" stroke-width="0.76032" fill="none"></path>
                        <path d="M33.3770216,57.6176198 C33.3770216,57.6176198 27.0846132,50.7530707 31.0888385,39.0834893 C35.0930638,27.4137178 50.5383944,23.066208 56.4875182,22.265401 C62.4368321,21.4644038 79.2549204,20.5491686 90.0092667,37.1384006 C100.763613,53.7276326 93.4415412,72.9483322 87.6066555,75.122087 C87.6066555,75.122087 88.1787963,73.0627603 88.1787963,71.4611462 C88.1787963,71.4611462 84.1743809,77.4102701 76.3945966,74.4357082 C76.3945966,74.4357082 79.5982049,71.3467181 78.7972078,69.1729632 L49.3943028,59.6769466 L33.3770216,57.6176198 Z" id="Fill-27" stroke="none" fill="#F9C4D3" fill-rule="evenodd"></path>
                        <path d="M33.3770216,57.6176198 C33.3770216,57.6176198 27.0846132,50.7530707 31.0888385,39.0834893 C35.0930638,27.4137178 50.5383944,23.066208 56.4875182,22.265401 C62.4368321,21.4644038 79.2549204,20.5491686 90.0092667,37.1384006 C100.763613,53.7276326 93.4415412,72.9483322 87.6066555,75.122087 C87.6066555,75.122087 88.1787963,73.0627603 88.1787963,71.4611462 C88.1787963,71.4611462 84.1743809,77.4102701 76.3945966,74.4357082 C76.3945966,74.4357082 79.5982049,71.3467181 78.7972078,69.1729632 L49.3943028,59.6769466 L33.3770216,57.6176198 Z" id="Stroke-29" stroke="#A92768" stroke-width="0.76032" fill="none"></path>
                        <path d="M42.3971919,49.6361606 C43.6882153,41.3034336 52.4068047,32.6964211 52.4068047,32.6964211 C50.8901564,32.824345 47.2204719,35.4350938 47.2204719,35.4350938 C48.2634409,24.3591322 60.7370607,23.8831718 60.7370607,23.8831718 C60.7370607,23.8831718 50.3754198,21.8447539 38.8972489,31.8013344 C27.4192681,41.7579149 33.8941532,57.6841478 33.8941532,57.6841478 L41.4678908,58.6579277 C41.5156009,55.8069178 41.9231324,52.6960685 42.3971919,49.6361606" id="Fill-31" stroke="none" fill="#DC73A5" fill-rule="evenodd"></path>
                        <path d="M88.1787773,71.4610702 C88.1787773,72.0235169 88.1080675,72.6422273 88.016639,73.2084756 C93.6890064,66.3847937 92.7427882,54.398539 89.0314762,44.6388814 C85.1753232,34.4983035 76.1577379,30.5376065 76.1577379,30.5376065 L79.3309334,62.4343611 L77.7639139,68.8391067 L78.7971888,69.1728872 C79.5981859,71.346642 76.3947677,74.4356321 76.3947677,74.4356321 C84.174552,77.4103841 88.1787773,71.4610702 88.1787773,71.4610702" id="Fill-33" stroke="none" fill="#DC73A5" fill-rule="evenodd"></path>
                        <path d="M79.6289219,26.7522964 C82.8197948,30.2338017 95.8769603,45.5371425 94.9611548,61.9119642 C96.2719465,54.7007092 95.4815939,45.5795303 90.0093807,37.1384577 C86.916399,32.3676397 83.3219862,29.0467521 79.6289219,26.7522964" id="Fill-35" stroke="none" fill="#FAF2B2" fill-rule="evenodd"></path>
                        <path d="M33.3770216,57.6176198 C33.3770216,57.6176198 27.0846132,50.7530707 31.0888385,39.0834893 C35.0930638,27.4137178 50.5383944,23.066208 56.4875182,22.265401 C62.4368321,21.4644038 79.2549204,20.5491686 90.0092667,37.1384006 C100.763613,53.7276326 93.4415412,72.9483322 87.6066555,75.122087 C87.6066555,75.122087 88.1787963,73.0627603 88.1787963,71.4611462 C88.1787963,71.4611462 84.1743809,77.4102701 76.3945966,74.4357082 C76.3945966,74.4357082 79.5982049,71.3467181 78.7972078,69.1729632 L49.3943028,59.6769466 L33.3770216,57.6176198 Z" id="Stroke-37" stroke="#A92768" stroke-width="0.76032" fill="none"></path>
                        <path d="M84.4032753,45.3239107 C84.4032753,45.3239107 87.0347428,53.1555869 84.4032753,62.308319 C84.4032753,62.308319 88.6363569,64.5965021 83.9455626,69.4017245 C79.2549585,74.2069469 59.4621181,75.0077539 52.4833309,70.4313878 L47.2203959,61.3930838 L51.9111901,37.7104464 L61.1783505,31.3036099 L72.6192657,40.2274858 L84.4032753,45.3239107 Z" id="Fill-39" stroke="none" fill="#F9E6D8" fill-rule="evenodd"></path>
                        <path d="M84.4032753,45.3239107 C84.4032753,45.3239107 87.0347428,53.1555869 84.4032753,62.308319 C84.4032753,62.308319 88.6363569,64.5965021 83.9455626,69.4017245 C79.2549585,74.2069469 59.4621181,75.0077539 52.4833309,70.4313878 L47.2203959,61.3930838 L51.9111901,37.7104464 L61.1783505,31.3036099 L72.6192657,40.2274858 L84.4032753,45.3239107 Z" id="Stroke-41" stroke="#622219" stroke-width="0.76032" fill="none"></path>
                        <path d="M84.4032753,45.3239107 L72.6192657,40.2274858 L69.6218941,37.8896918 L56.3689463,35.3941315 L48.9871895,60.835199 L50.3886493,66.8341238 L52.4833309,70.4313878 C53.6582154,71.2017821 55.1972932,71.8191619 56.9652273,72.2913206 C55.5415281,70.7357059 53.0309514,66.3857251 54.1919601,55.6209245 C54.1919601,55.6209245 61.6911863,55.2065501 63.3579978,54.6809789 C65.0248093,54.1550275 68.7302289,56.3955005 71.4350673,55.275359 C74.1397156,54.1550275 75.2870385,54.1196726 76.5103933,55.0750147 C76.5103933,55.0750147 81.2338813,53.3232374 82.634961,54.9892886 C84.0360407,56.6551498 84.1455268,57.9611894 84.4032753,62.308319 C87.0347428,53.155777 84.4032753,45.3239107 84.4032753,45.3239107" id="Fill-43" stroke="none" fill="#F7978A" fill-rule="evenodd"></path>
                        <path d="M84.4032753,45.3239107 C84.4032753,45.3239107 87.0347428,53.1555869 84.4032753,62.308319 C84.4032753,62.308319 88.6363569,64.5965021 83.9455626,69.4017245 C79.2549585,74.2069469 59.4621181,75.0077539 52.4833309,70.4313878 L47.2203959,61.3930838 L51.9111901,37.7104464 L61.1783505,31.3036099 L72.6192657,40.2274858 L84.4032753,45.3239107 Z" id="Stroke-45" stroke="#622219" stroke-width="0.76032" fill="none"></path>
                        <path d="M51.1103641,33.2485845 C51.1103641,33.2485845 41.2712531,40.2275618 38.0678348,51.8971432 C34.8644166,63.5669148 38.0678348,73.3011016 48.7077529,73.4679919 C48.7077529,73.4679919 53.3985471,77.1815848 55.6867302,75.808637 C55.6867302,75.808637 44.9527225,61.3975317 59.3917695,36.3128642" id="Stroke-47" stroke="#39A44A" stroke-width="0.594" fill="none"></path>
                        <g id="Group-52" stroke="none" stroke-width="1" fill="none" fill-rule="evenodd" transform="translate(36.875520, 33.188158)">
                            <path d="M14.2348441,0.060426432 C14.2348441,0.060426432 4.39573306,7.03940371 1.19231482,18.7089852 C-2.01110342,30.3787567 1.19231482,40.1129436 11.8322329,40.2798338 C11.8322329,40.2798338 16.5230271,43.9934268 18.8112102,42.6204789 C18.8112102,42.6204789 8.0772025,28.2093736 22.5162495,3.12470611" id="Fill-49" fill="#F9C4D3"></path>
                            <path d="M14.2348441,0.060426432 C14.2348441,0.060426432 4.39573306,7.03940371 1.19231482,18.7089852 C-2.01110342,30.3787567 1.19231482,40.1129436 11.8322329,40.2798338 C11.8322329,40.2798338 16.5230271,43.9934268 18.8112102,42.6204789 C18.8112102,42.6204789 8.0772025,28.2093736 22.5162495,3.12470611" id="Stroke-51" stroke="#A92768" stroke-width="0.76032"></path>
                        </g>
                        <path d="M57.8218228,66.7168445 C57.7324852,67.2714979 56.3869089,67.516321 54.8162778,67.2637046 C53.2454567,67.0108982 52.0445313,66.3562627 52.1338689,65.8016093 C52.2230164,65.2467658 53.5687828,65.0021328 55.1394138,65.2547491 C56.7100449,65.5075555 57.9111604,66.162191 57.8218228,66.7168445" id="Fill-53" stroke="none" fill="#FBABB0" fill-rule="evenodd"></path>
                        <path d="M82.0664317,64.5815048 C82.2977591,64.9820033 81.565761,65.8377435 80.4315537,66.4925691 C79.2973463,67.1473947 78.1903204,67.3534414 77.958993,66.9529428 C77.7278557,66.5522542 78.4598538,65.6967041 79.5940612,65.0418785 C80.7282685,64.3870529 81.8351044,64.1810062 82.0664317,64.5815048" id="Fill-55" stroke="none" fill="#FBABB0" fill-rule="evenodd"></path>
                        <path d="M38.0095373,52.1123328 C38.0095373,52.1123328 36.5029632,50.7220877 34.8907046,52.481088 C33.2786362,54.2398982 31.7081952,60.0970234 37.1281363,63.2713594 L38.0095373,56.658096 L38.0095373,52.1123328 Z" id="Fill-57" stroke="none" fill="#F7978A" fill-rule="evenodd"></path>
                        <path d="M38.0095373,52.1123328 C38.0095373,52.1123328 36.5029632,50.7220877 34.8907046,52.481088 C33.2786362,54.2398982 31.7081952,60.0970234 37.1281363,63.2713594 L38.0095373,56.658096 L38.0095373,52.1123328 Z" id="Stroke-59" stroke="#A92768" stroke-width="0.76032" fill="none"></path>
                        <path d="M59.6747796,67.628012 C59.4755758,67.8572484 59.4126593,68.1731614 59.5063688,68.462083 C59.9051566,69.6920907 61.2826664,71.7525579 63.4014881,72.1560977 C65.8529499,72.6231243 68.1877025,72.3311614 69.5302376,70.0547633 C70.8727726,67.7783652 66.8451675,66.7277931 65.035796,66.611084 C63.5020404,66.5120523 61.4442344,66.8663614 60.3991745,67.1664977 C60.1191867,67.2467115 59.8688513,67.404858 59.6778209,67.6245905 L59.6747796,67.628012 Z" id="Fill-61" stroke="none" fill="#D7868E" fill-rule="evenodd"></path>
                        <path d="M59.6747796,67.628012 C59.4755758,67.8572484 59.4126593,68.1731614 59.5063688,68.462083 C59.9051566,69.6920907 61.2826664,71.7525579 63.4014881,72.1560977 C65.8529499,72.6231243 68.1877025,72.3311614 69.5302376,70.0547633 C70.8727726,67.7783652 66.8451675,66.7277931 65.035796,66.611084 C63.5020404,66.5120523 61.4442344,66.8663614 60.3991745,67.1664977 C60.1191867,67.2467115 59.8688513,67.404858 59.6778209,67.6245905 L59.6747796,67.628012 Z" id="Stroke-63" stroke="#622219" stroke-width="0.594" fill="none"></path>
                        <path d="M51.6754909,33.4576915 L51.1103831,33.2486035 C51.1103831,33.2486035 41.2712721,40.2275808 38.0678538,51.8971622 C34.8644356,63.5669338 38.0678538,73.3011206 48.7077719,73.4680109 C48.7077719,73.4680109 53.3985661,77.1814138 55.6867492,75.808656 C55.6867492,75.808656 50.3513937,68.6430202 52.2654993,55.6238707 L52.264929,55.6210195 C49.1470468,63.2582438 52.4067287,73.4680109 52.4067287,73.4680109 C49.9581181,72.5024045 46.5935121,67.9807814 46.5935121,67.9807814 C46.5935121,68.8749178 45.9478103,69.469488 45.9478103,69.469488 C40.2992029,66.687287 41.1060925,57.9688877 42.3971159,49.6361606 C43.4596631,42.7788346 49.5513469,35.7367507 51.6754909,33.4576915" id="Fill-65" stroke="none" fill="#DC73A5" fill-rule="evenodd"></path>
                        <path d="M48.1089249,40.9558153 C47.1587149,42.2859951 46.7815962,43.6452572 47.2666804,43.9917731 C47.7515745,44.3382889 48.9152442,43.5407132 49.8654541,42.2105334 C50.8156641,40.8803535 51.1927828,39.5210915 50.7076986,39.1745756 C50.2226145,38.8282499 49.0591348,39.6256355 48.1089249,40.9558153" id="Fill-67" stroke="none" fill="#FAF2B2" fill-rule="evenodd"></path>
                        <path d="M54.6430199,38.248905 C54.3440241,38.312962 54.0775319,38.4789018 53.8646423,38.6982541 C53.0111831,39.5773741 50.2605354,42.5110689 49.4224727,44.6388244 C48.4262634,47.1689793 50.2114948,46.4696749 50.7733713,45.9036167 C51.3350577,45.3373684 53.2599978,42.8518823 53.6846365,41.9716218 C54.1092753,41.0913613 55.0716503,40.4118253 55.4396452,39.5910599 C55.755178,38.8873837 55.5656682,38.0512218 54.6430199,38.248905" id="Fill-69" stroke="none" fill="#FAF2B2" fill-rule="evenodd"></path>
                        <path d="M75.4180416,54.0006445 C75.7637971,53.5991956 78.553031,51.0363469 81.6026746,51.8040801 C84.6523181,52.5718132 82.2424838,55.5788788 82.2424838,55.5788788 C82.2424838,55.5788788 81.5682701,54.2352033 79.2821779,54.2564922 C76.9962758,54.2779713 75.7592352,55.365609 75.2473498,55.9413613 C74.7356544,56.5171137 74.3729818,55.8773044 75.2473498,54.9390695 C75.2473498,54.9390695 74.7569434,54.7683777 75.4180416,54.0006445" id="Fill-71" stroke="none" fill="#7D0802" fill-rule="evenodd"></path>
                        <path d="M81.1929001,51.8959647 C81.1929001,51.8959647 82.0168969,51.7072153 82.6350371,50.6427673 C83.2529871,49.5783193 82.9612143,51.7769747 81.8108502,52.3858009 L81.1929001,51.8959647 Z" id="Fill-73" stroke="none" fill="#7D0802" fill-rule="evenodd"></path>
                        <path d="M82.634942,52.599812 C82.634942,52.599812 83.9396511,51.3637217 83.9911628,50.1791432 C84.0426745,48.9947547 84.7121363,49.9217748 84.3344473,51.2951028 C83.9567583,52.6684308 82.634942,53.217762 82.634942,53.217762 L82.634942,52.599812 Z" id="Fill-75" stroke="none" fill="#7D0802" fill-rule="evenodd"></path>
                        <path d="M76.5103173,55.0749767 C76.5103173,55.0749767 74.6098975,56.5245268 74.8353324,59.9068103 C75.0607672,63.2889037 76.317006,65.3505114 78.4751743,64.6095796 C80.6333426,63.8688378 82.8709644,59.6811853 80.0127314,54.10861 L77.7344325,54.10861 L76.5103173,55.0749767 Z" id="Fill-77" stroke="none" fill="#AB2820" fill-rule="evenodd"></path>
                        <path d="M77.8943088,60.2488022 C76.6966147,60.2710416 75.7846109,61.9868938 75.4112938,62.8217251 C76.0117565,64.3604227 77.0454115,65.1005942 78.4751933,64.6096176 C79.2742896,64.3353322 80.0836502,63.5875574 80.6417251,62.4729283 C78.9285341,59.2731216 77.8943088,60.2488022 77.8943088,60.2488022" id="Fill-79" stroke="none" fill="#F6C55D" fill-rule="evenodd"></path>
                        <path d="M76.7607477,58.8430276 C77.7746344,58.4052733 80.0559746,55.4577028 77.9360124,54.108705 L77.7343375,54.108705 L76.5104124,55.0750717 C76.5104124,55.0750717 75.354916,55.9566628 74.9528968,57.948321 C75.3136687,58.4073642 76.0405346,59.1539985 76.7607477,58.8430276" id="Fill-81" stroke="none" fill="#FFFFFF" fill-rule="evenodd"></path>
                        <path d="M79.3310095,59.0906448 C79.3310095,60.0541603 78.9175855,60.835199 78.4074108,60.835199 C77.8974261,60.835199 77.483812,60.0541603 77.483812,59.0906448 C77.483812,58.1271293 77.8974261,57.3460906 78.4074108,57.3460906 C78.9175855,57.3460906 79.3310095,58.1271293 79.3310095,59.0906448" id="Fill-83" stroke="none" fill="#7D0802" fill-rule="evenodd"></path>
                        <path d="M76.5103173,55.0749767 C76.5103173,55.0749767 74.6098975,56.5245268 74.8353324,59.9068103 C75.0607672,63.2889037 76.317006,65.3505114 78.4751743,64.6095796 C80.6333426,63.8688378 82.8709644,59.6811853 80.0127314,54.10861 L77.7344325,54.10861 L76.5103173,55.0749767 Z" id="Stroke-85" stroke="#7D0802" stroke-width="0.594" fill="none"></path>
                        <path d="M51.1103641,33.2485845 C51.1103641,33.2485845 41.2712531,40.2275618 38.0678348,51.8971432 C34.8644166,63.5669148 38.0678348,73.3011016 48.7077529,73.4679919 C48.7077529,73.4679919 53.3985471,77.1815848 55.6867302,75.808637 C55.6867302,75.808637 44.9527225,61.3975317 59.3917695,36.3128642" id="Stroke-87" stroke="#A92768" stroke-width="0.76032" fill="none"></path>
                        <path d="M49.5903894,54.4231544 C49.5903894,54.4231544 55.4982659,51.7095723 59.9079318,54.4231544 C64.3175977,57.1367364 62.2822211,54.4231544 62.0562159,54.1969592 C62.0562159,54.1969592 62.2212054,53.4092676 60.7370607,52.5626513 C59.2531062,51.716035 56.8974447,50.1539576 51.6521871,51.0849694 C46.4069295,52.0161713 48.4864047,53.2096836 48.4864047,53.2096836 C48.4864047,53.2096836 47.1765635,54.312908 48.0798236,54.5611524 C48.9830838,54.8093969 49.5903894,54.4231544 49.5903894,54.4231544" id="Fill-89" stroke="none" fill="#7D0802" fill-rule="evenodd"></path>
                        <path d="M51.6611589,49.511145 C51.8316607,49.9481389 52.1950936,50.7983668 52.5583365,51.1327175 L51.8495282,51.395218 C51.8495282,51.395218 51.3283288,50.4830241 51.4908472,49.5280621 C51.5058636,49.4402452 51.6288453,49.4282701 51.6611589,49.511145" id="Fill-91" stroke="none" fill="#7D0802" fill-rule="evenodd"></path>
                        <path d="M49.4380593,48.399101 C49.1766993,48.9919605 48.8375965,50.29743 49.9594487,51.7627567 L50.7733713,51.5789493 C50.7733713,51.5789493 49.7817239,50.6582018 49.634602,48.4363567 C49.6273789,48.3285813 49.4815876,48.3002594 49.4380593,48.399101" id="Fill-93" stroke="none" fill="#7D0802" fill-rule="evenodd"></path>
                        <path d="M58.3562327,53.1835857 C58.3562327,53.1835857 61.3986532,54.3299581 60.6050692,60.9000733 C59.8112951,67.4701885 53.7943127,64.5520804 52.8444829,61.9584388 C51.8946532,59.3646071 52.3593988,54.5504509 53.3295671,52.9630929 L58.3562327,53.1835857 Z" id="Fill-95" stroke="none" fill="#AB2820" fill-rule="evenodd"></path>
                        <path d="M56.891039,53.1193196 L53.3295101,52.9630739 C52.8894749,53.683287 52.5539837,55.0682099 52.4066717,56.6078579 C52.880351,57.0606284 53.5899197,57.5128287 54.5798563,57.5822079 C56.5412918,57.7200159 59.9769878,55.0894988 56.891039,53.1193196" id="Fill-97" stroke="none" fill="#FFFFFF" fill-rule="evenodd"></path>
                        <path d="M57.6826842,60.0044734 C57.6826842,60.0044734 58.7526445,58.8305393 56.898034,58.9314718 C55.5138714,59.0067435 53.4727924,60.1649009 52.5263841,60.7476862 C52.6064077,61.18449 52.7109517,61.5939224 52.8443879,61.9583057 C53.6978471,64.2886865 58.6404973,66.8790968 60.2115085,62.617123 C58.4827309,59.6746846 57.6826842,60.0044734 57.6826842,60.0044734" id="Fill-99" stroke="none" fill="#F6C55D" fill-rule="evenodd"></path>
                        <path d="M58.3528683,58.6860595 C58.3528683,59.7626726 57.9449566,60.63552 57.4418148,60.63552 C56.9386731,60.63552 56.5307614,59.7626726 56.5307614,58.6860595 C56.5307614,57.6094464 56.9386731,56.736599 57.4418148,56.736599 C57.9449566,56.736599 58.3528683,57.6094464 58.3528683,58.6860595" id="Fill-101" stroke="none" fill="#7D0802" fill-rule="evenodd"></path>
                        <path d="M58.3562327,53.1835857 C58.3562327,53.1835857 61.3986532,54.3299581 60.6050692,60.9000733 C59.8112951,67.4701885 53.7943127,64.5520804 52.8444829,61.9584388 C51.8946532,59.3646071 52.3593988,54.5504509 53.3295671,52.9630929 L58.3562327,53.1835857 Z" id="Stroke-103" stroke="#7D0802" stroke-width="0.594" fill="none"></path>
                        <path d="M54.9778078,30.5375305 C54.4062372,31.4042953 53.5866123,37.2317679 54.9778078,36.3129212 C56.3690033,35.3940745 61.5562865,38.2194236 61.5562865,38.2194236 L67.6538628,29.521743 L58.1255326,28.1525967 L54.9778078,30.5375305 Z" id="Fill-105" stroke="none" fill="#F9C4D3" fill-rule="evenodd"></path>
                        <g id="Group-110" stroke="none" stroke-width="1" fill="none" fill-rule="evenodd" transform="translate(57.024000, 29.956798)">
                            <path d="M18.4553994,0.088349184 C18.4553994,0.088349184 24.4047133,3.6455063 27.3792753,15.3671697 C27.3792753,15.3671697 23.9470007,22.1691825 17.6545924,21.2539473 C17.6545924,21.2539473 12.2774193,24.0547761 8.2730039,21.3387229 C8.2730039,21.3387229 5.29844198,23.1988458 1.86616742,21.0250909 C-1.56610714,18.8513361 0.378791424,7.10705318 4.84072934,2.73958502" id="Fill-107" fill="#F9C4D3"></path>
                            <path d="M18.4553994,0.088349184 C18.4553994,0.088349184 24.4047133,3.6455063 27.3792753,15.3671697 C27.3792753,15.3671697 23.9470007,22.1691825 17.6545924,21.2539473 C17.6545924,21.2539473 12.2774193,24.0547761 8.2730039,21.3387229 C8.2730039,21.3387229 5.29844198,23.1988458 1.86616742,21.0250909 C-1.56610714,18.8513361 0.378791424,7.10705318 4.84072934,2.73958502" id="Stroke-109" stroke="#A92768" stroke-width="0.76032"></path>
                        </g>
                        <path d="M64.9969056,37.0134611 C64.1658758,37.369671 63.4095475,38.2833855 62.9510746,39.7648691 C62.4924115,41.2463526 61.3990714,45.4438892 61.5752755,45.8318425 C61.7516698,46.2199859 62.5277664,46.6079391 63.8328557,45.5144089 C65.137945,44.4208787 65.8435219,42.3841715 65.9140416,41.6211903 C65.9845613,40.8582092 66.1961203,38.6494796 66.4783891,38.2195187 C66.7606579,37.7895577 66.725303,36.2727193 64.9969056,37.0134611" id="Fill-111" stroke="none" fill="#FAF2B2" fill-rule="evenodd"></path>
                        <path d="M69.7681417,35.7531166 C69.9011977,35.9397752 69.9876841,36.1543755 70.0424271,36.3769592 C70.3406627,37.5913803 71.3912348,42.432908 69.7941827,44.6389764 C67.9599107,47.1723627 67.4660828,45.4565105 67.7129967,44.6389764 C67.9599107,43.8212523 68.3478639,39.7295902 68.3478639,37.8247985 C68.3478639,36.0787236 69.0296809,34.7179409 69.7681417,35.7531166" id="Fill-113" stroke="none" fill="#FAF2B2" fill-rule="evenodd"></path>
                        <path d="M73.3849459,39.5049347 C73.3849459,39.5049347 73.7111232,41.0189219 72.4999334,41.8807446 C71.2885536,42.7425673 71.4284525,40.9723523 71.4516422,40.4367068 C71.4750221,39.9008713 72.4531738,38.9459094 72.8259206,38.9459094 C73.1986675,38.9459094 73.3849459,39.5049347 73.3849459,39.5049347" id="Fill-115" stroke="none" fill="#FAF2B2" fill-rule="evenodd"></path>
                        <path d="M83.5421939,46.6983412 C77.322206,50.8782004 75.2191609,49.4550714 75.2191609,49.4550714 C71.2054316,51.4830349 66.6106278,50.7981767 66.6106278,50.7981767 L66.3716972,49.4550714 C64.9042796,50.3608026 60.2115846,50.0505921 60.2115846,50.0505921 C57.9131372,42.8104449 60.8213612,35.3693831 62.0937567,32.6518093 L61.8647103,32.6964781 C57.4027724,37.0637562 55.4578739,48.8082292 58.8901484,50.9819841 C62.322423,53.1557389 65.2969849,51.295426 65.2969849,51.295426 C69.3014003,54.0114791 74.6785734,51.2106503 74.6785734,51.2106503 C79.1370899,51.8592033 82.1589817,48.6339258 83.5421939,46.6983412 Z" id="Fill-117" stroke="none" fill="#DC73A5" fill-rule="evenodd"></path>
                        <path d="M75.4793994,30.0451473 C75.4793994,30.0451473 81.4287133,33.6023044 84.4032753,45.3239677 C84.4032753,45.3239677 80.9710007,52.1259805 74.6785924,51.2107453 C74.6785924,51.2107453 69.3014193,54.0115741 65.2970039,51.295521 C65.2970039,51.295521 62.322442,53.1556439 58.8901674,50.981889 C55.4578929,48.8081341 57.4027914,37.0638513 61.8647293,32.6963831" id="Stroke-119" stroke="#A92768" stroke-width="0.76032" fill="none"></path>
                        <path d="M40.8863411,0.65168928 C39.9640729,0.95923872 39.1258201,1.47340512 38.4016153,2.12214816 C35.3341043,4.87051488 27.7932505,12.9323779 26.8112972,20.2420944 C25.7247999,28.3307587 25.7247999,38.2595875 34.2964575,41.2630416 C42.8679251,44.2666858 49.6283103,37.1350742 51.0166547,30.859393 C52.4051891,24.5835216 50.7433196,13.6337731 44.9799039,7.53296544 C44.9799039,7.53296544 45.5465324,2.91687264 44.0542143,1.10788128 C43.2613907,0.14702688 41.9456569,0.29852064 40.8863411,0.65168928" id="Fill-121" stroke="none" fill="#F5BCF4" fill-rule="evenodd"></path>
                        <path d="M45.1801532,35.1818692 C50.4335843,27.6201066 44.5433852,15.2029405 42.7125347,12.1781975 C40.8818742,9.15345446 41.0537065,5.39272166 41.2004483,3.48507878 C41.2867446,2.36417702 40.6638524,1.4890487 40.1352399,0.957394944 C39.5058851,1.25829158 38.92367,1.6544183 38.4017103,2.12220518 C35.3341993,4.87038182 27.7933455,12.9324349 26.8113923,20.2421514 C25.724895,28.3308157 25.724895,38.2594545 34.2963625,41.2630986 C37.6227625,42.4286692 40.6758275,42.0673271 43.2485603,40.8226833 C42.8151779,38.5388721 45.1801532,35.1818692 45.1801532,35.1818692" id="Fill-123" stroke="none" fill="#BD6ED2" fill-rule="evenodd"></path>
                        <path d="M39.6084332,12.0834616 C39.251463,11.4197023 38.3808966,11.2472997 37.7986815,11.7259212 C35.6612319,13.4834008 31.1342867,18.0491224 30.9451571,25.3179717 C30.6969126,34.8478226 35.0033651,36.3129592 36.8821158,36.3129592 C38.7608665,36.3129592 44.5917606,35.3893605 43.3511084,25.3179717 C42.478071,18.2298885 40.6278323,13.9796997 39.6084332,12.0834616 Z" id="Stroke-125" stroke="#6F2F80" stroke-width="0.76032" fill="none"></path>
                        <mask id="mask-4" fill="white">
                            <use xlink:href="#path-3"></use>
                        </mask>
                        <g id="Clip-128" stroke="none" fill="none"></g>
                        <polygon id="Fill-127" stroke="none" fill="#76B1B0" fill-rule="evenodd" mask="url(#mask-4)" points="36.0334656 34.3438445 38.0095373 34.3438445 38.0095373 26.4367066 36.0334656 26.4367066"></polygon>
                        <polygon id="Stroke-129" stroke="#6F2F80" stroke-width="0.76032" fill="none" mask="url(#mask-4)" points="36.0334656 34.3438445 38.0095373 34.3438445 38.0095373 26.4367066 36.0334656 26.4367066"></polygon>
                        <path d="M40.8863411,0.65168928 C39.9640729,0.95923872 39.1258201,1.47340512 38.4016153,2.12214816 C35.3341043,4.87051488 27.7932505,12.9323779 26.8112972,20.2420944 C25.7247999,28.3307587 25.7247999,38.2595875 34.2964575,41.2630416 C42.8679251,44.2666858 49.6283103,37.1350742 51.0166547,30.859393 C52.4051891,24.5835216 50.7433196,13.6337731 44.9799039,7.53296544 C44.9799039,7.53296544 45.5465324,2.91687264 44.0542143,1.10788128 C43.2613907,0.14702688 41.9456569,0.29852064 40.8863411,0.65168928 Z" id="Stroke-130" stroke="#6F2F80" stroke-width="0.76032" fill="none" mask="url(#mask-4)"></path>
                        <path d="M58.6297198,79.4775992 C58.3710209,80.0717892 57.8249211,81.6068753 58.2552622,83.1951838 C58.3731118,83.6302769 58.8139073,83.8922072 59.2522318,83.7869028 C60.564354,83.4721304 63.3391419,82.4439876 64.9766811,79.2190904 L62.6803246,73.7122827 C62.6803246,73.7122827 60.86373,72.6003147 58.0032161,73.3100734 C55.2061889,74.0042456 55.1780571,76.255363 58.5189032,79.0293905 C58.6504385,79.1384964 58.6979585,79.3207832 58.6297198,79.4775992" id="Fill-133" stroke="none" fill="#71020C" fill-rule="evenodd" mask="url(#mask-4)"></path>
                        <path d="M59.6105136,79.2096624 C59.3943926,79.6858128 59.0419843,80.7890371 59.2934602,82.5774998 C59.3151293,82.7320349 59.4730858,82.8285955 59.6183069,82.7711914 C60.4719562,82.4339894 63.0540029,81.2269814 64.0749226,78.6367613 L62.484143,74.2907722 C62.484143,74.2907722 60.3831888,72.8752464 57.5154518,74.1968726 C57.3810653,74.2588387 57.2898269,74.3875229 57.271199,74.5342646 C57.1945968,75.1392893 57.242497,76.8021091 59.5029283,78.7255286 C59.6430173,78.8447088 59.6865456,79.0422019 59.6105136,79.2096624" id="Fill-134" stroke="none" fill="#99242F" fill-rule="evenodd" mask="url(#mask-4)"></path>
                        <path d="M61.025279,77.5327196 C61.0914269,77.5325295 61.1267818,77.6112227 61.0809725,77.6591228 C60.794712,77.9598294 60.1155562,78.7790742 59.944104,79.9416035 C59.7251318,81.4261283 59.8224528,82.1805558 61.6719312,80.8176822 C63.4822531,79.4838908 63.7071178,77.5933551 61.890143,77.4323574 C61.8411024,77.4279855 61.8133507,77.3738127 61.8430032,77.334086 C61.9384234,77.2067324 62.0906774,76.9611491 62.0773718,76.7079625 C62.0581738,76.3418684 62.2942531,75.2120329 60.6635568,75.0928527 C59.0326704,74.9736726 58.1269392,75.2067107 58.1655254,75.5526563 C58.2041117,75.8986019 58.3196803,76.7271606 58.9362998,77.1512291 C59.5230768,77.5545788 59.8642704,77.5355708 61.025279,77.5327196" id="Fill-135" stroke="none" fill="#F67D85" fill-rule="evenodd" mask="url(#mask-4)"></path>
                        <path d="M73.9504719,77.6383281 C73.9090345,77.5212388 73.9521827,77.3889431 74.0582473,77.324506 C74.5572073,77.0207581 75.9160892,75.9604919 76.2437871,73.2796036 C76.6471369,69.9788644 68.7669903,74.4600004 68.7669903,74.4600004 L67.357167,79.3882045 C67.357167,79.3882045 68.7219414,81.3878461 71.1929814,82.0704234 C73.6290467,82.7431165 75.6712662,82.5055165 73.9504719,77.6383281" id="Fill-136" stroke="none" fill="#71020C" fill-rule="evenodd" mask="url(#mask-4)"></path>
                        <path d="M73.0206196,76.93258 C72.9673972,77.0034799 72.9440173,77.0926274 72.9588436,77.1800642 C73.0261319,77.5794223 73.2086087,78.8615119 73.1700225,80.8465173 C73.1228826,83.2706076 67.9675329,78.7947938 67.9675329,78.7947938 L70.4859028,74.161974 C70.4859028,74.161974 72.2285562,72.9857589 73.78189,72.7740098 C75.3222983,72.5639714 76.3998618,72.436998 73.0206196,76.93258" id="Fill-137" stroke="none" fill="#99242F" fill-rule="evenodd" mask="url(#mask-4)"></path>
                        <path d="M71.8701794,77.0737334 C71.8435682,77.0978736 71.8536424,77.1412118 71.888237,77.1514762 C72.128308,77.2225661 72.8335048,77.4898186 72.9749244,78.2104118 C73.1461864,79.0819286 73.2908373,79.8201994 72.4906005,80.2834243 C71.6903637,80.7468394 71.1429333,80.1150134 70.3425064,79.3147766 C69.5624181,78.5344982 69.2379516,77.5694621 70.3955388,77.2311197 C70.4493314,77.2155331 70.4896284,77.1693437 70.4932399,77.1134602 C70.5204213,76.7023171 70.6538575,75.0548938 71.0585378,74.7237744 C71.5219528,74.3447549 73.1435253,74.3012266 73.5647426,74.4599434 C73.9857698,74.6184701 73.5647426,75.5532835 73.1646242,75.9072125 C72.8259016,76.2067786 72.0887714,76.8752899 71.8701794,77.0737334" id="Fill-138" stroke="none" fill="#F67D85" fill-rule="evenodd" mask="url(#mask-4)"></path>
                        <path d="M66.7695156,73.6054007 C66.7695156,73.6054007 64.4292507,71.4432407 62.8519668,73.2491908 C61.2748731,75.0553309 63.4117524,79.5070045 66.1844494,79.557946 C68.9571464,79.6088874 70.0510568,76.7343076 70.2546324,75.7675607 C70.458018,74.8010039 70.89045,73.2088938 69.5676833,72.5295479 C68.2449166,71.850202 66.7695156,73.6054007 66.7695156,73.6054007" id="Fill-139" stroke="none" fill="#7B3404" fill-rule="evenodd" mask="url(#mask-4)"></path>
                        <path d="M65.955498,74.2667841 C65.5485368,73.8852935 63.9136587,73.0122561 63.1573304,73.580025 C62.400812,74.1476039 63.3099646,77.4466324 65.0142219,78.5658234 C66.7186692,79.6850145 68.9827121,78.0993671 69.4406148,75.9795949 C69.8983275,73.8598228 69.5168369,73.2747565 68.6774436,73.1221223 C67.8378603,72.9694881 67.5835332,73.5545543 67.1511012,74.190562 C66.7186692,74.8263796 65.955498,74.2667841 65.955498,74.2667841" id="Fill-140" stroke="none" fill="#B67C0F" fill-rule="evenodd" mask="url(#mask-4)"></path>
                        <path d="M66.1125612,74.5964208 C65.6643525,74.1784349 65.0756748,73.5905174 64.3636351,74.302367 C63.6517855,75.0142166 64.3385445,76.4958902 65.5244536,77.6916835 C66.7103628,78.8874768 67.7531416,77.2115414 68.4340082,75.9659472 C69.1150648,74.7201629 68.6301708,73.7526557 68.0625919,73.7142595 C67.495013,73.6758634 67.072085,74.2094179 66.8863768,74.5810243 C66.7006687,74.9524406 66.4332261,74.8956067 66.1125612,74.5964208" id="Fill-141" stroke="none" fill="#F27EDE" fill-rule="evenodd" mask="url(#mask-4)"></path>
                        <path d="M66.2176564,75.3925899 C65.9222721,75.1169739 65.5341287,74.7294008 65.0648212,75.1987083 C64.5953236,75.6680158 65.0480941,76.6448369 65.8298932,77.4330987 C66.6118823,78.2213604 67.2992116,77.1166155 67.7479905,76.2954699 C68.1969594,75.4741342 67.8774349,74.8362257 67.5031674,74.8109451 C67.12909,74.7856644 66.8502426,75.1375025 66.7278311,75.3823256 C66.6054196,75.6273387 66.4290253,75.5898929 66.2176564,75.3925899" id="Fill-142" stroke="none" fill="#BF34C0" fill-rule="evenodd" mask="url(#mask-4)"></path>
                        <path d="M65.0601452,74.5499843 C64.7970745,74.7356924 64.7041254,75.2154543 65.0601452,75.6024572 C65.4161651,75.98927 65.7412019,75.3945097 65.6328563,74.8098236 C65.5245107,74.2249475 65.0601452,74.5499843 65.0601452,74.5499843" id="Fill-143" stroke="none" fill="#FFFFFF" fill-rule="evenodd" mask="url(#mask-4)"></path>
                        <path d="M63.6953518,75.1269341 C63.5737006,75.0655382 63.4261985,75.136248 63.3929345,75.2683536 C63.3475054,75.4489296 63.3182331,75.7726358 63.4594625,76.2567696 C63.693451,77.058527 64.4121435,78.2071805 64.874418,77.3828035 C65.3365025,76.5582365 64.0910984,76.1083171 63.9683067,75.5527133 C63.9118529,75.2974358 63.7998958,75.1795862 63.6953518,75.1269341" id="Fill-144" stroke="none" fill="#F9D56D" fill-rule="evenodd" mask="url(#mask-4)"></path>
                        <path d="M69.4080922,76.1122138 C69.362473,76.0572806 69.2851104,76.0329504 69.1545254,76.0764787 C68.8638931,76.1734195 68.3799494,76.6111738 68.2495546,76.8274848 C68.1189696,77.0436058 67.7939328,77.5100621 67.1372064,77.9538989 C66.4808602,78.3973555 66.7150387,78.7932922 67.0526208,78.7948128 C68.1305645,78.4268179 69.0872371,77.374535 69.4080922,76.1122138" id="Fill-145" stroke="none" fill="#F9D56D" fill-rule="evenodd" mask="url(#mask-4)"></path>
                        <path d="M67.4290172,76.0599988 C67.2043427,76.2949377 67.1123439,76.7036097 67.1429468,76.887417 C67.1735497,77.0714145 67.8477635,77.3369562 68.1849654,76.1111303 C68.5221673,74.8851143 67.4290172,76.0599988 67.4290172,76.0599988" id="Fill-146" stroke="none" fill="#FFFFFF" fill-rule="evenodd" mask="url(#mask-4)"></path>
                    </g>
                </g>
            </g>
        </g>
    </g>
</svg>