<svg width="32" height="32" viewBox="0 0 32 32" xmlns="http://www.w3.org/2000/svg">
    <g fill="none" fill-rule="evenodd">
        <rect transform="rotate(180 16 16)" width="32" height="32" rx="4" fill="#FFBD2B"/>
        <g transform="translate(6 8)" fill="#FFF">
            <rect x="9" width="2" height="7" rx=".943"/>
            <path d="M1.864 16c-.619 0-1.103-.197-1.453-.592-.35-.395-.477-.94-.379-1.637l1.173-7.776c.13-.82.533-1.525 1.209-2.113C3.09 3.294 3.86 3 4.723 3h10.579c.863 0 1.632.294 2.308.882.676.588 1.08 1.292 1.21 2.113l1.148 7.776c.098.697-.028 1.242-.379 1.637-.35.395-.834.592-1.453.592-.375 0-.693-.058-.953-.174-.26-.116-.48-.26-.66-.43l-2.54-2.414H6.017l-2.541 2.414c-.18.17-.4.314-.66.43-.26.116-.578.174-.953.174zm13.51-5.571c.262 0 .49-.093.685-.279a.87.87 0 0 0 .293-.65.87.87 0 0 0-.293-.65.962.962 0 0 0-.684-.279.962.962 0 0 0-.684.279.87.87 0 0 0-.293.65.87.87 0 0 0 .293.65.962.962 0 0 0 .684.279zM13.299 7.41c.26 0 .489-.093.684-.279a.87.87 0 0 0 .293-.65.87.87 0 0 0-.293-.65.962.962 0 0 0-.684-.278.962.962 0 0 0-.684.278.87.87 0 0 0-.293.65.87.87 0 0 0 .293.65.962.962 0 0 0 .684.279zm-7.696 2.902h1.222V8.57h1.832v-1.16H6.824V5.67H5.602v1.74H3.77v1.161h1.832v1.742z" fill-rule="nonzero"/>
        </g>
    </g>
</svg>
