<svg width="32" height="32" viewBox="0 0 32 32" xmlns="http://www.w3.org/2000/svg">
    <g fill="none" fill-rule="evenodd">
        <path d="M0 0h32v32H0z"/>
        <path d="M24.052 27.378a2.358 2.358 0 0 0 1.52-2.206v-7.274a2.32 2.32 0 0 0-.107-.67h2.757a.653.653 0 0 0 .446-1.13l-12.22-11.45a.653.653 0 0 0-.894 0L3.332 16.098a.654.654 0 0 0 .448 1.13h2.756a2.32 2.32 0 0 0-.11.67v7.274a2.358 2.358 0 0 0 2.359 2.357h9.307a2.148 2.148 0 0 0 2.148-2.148v-4.66a2.148 2.148 0 0 0-2.148-2.149h-4.183a2.149 2.149 0 0 0-2.148 2.15v3.335" stroke="#FFF" stroke-width="2" stroke-linecap="round" stroke-linejoin="round"/>
        <path d="M2 29h28V3H2z"/>
    </g>
</svg>
