<svg width="42" height="42" viewBox="0 0 42 42" xmlns="http://www.w3.org/2000/svg">
    <g fill="none" fill-rule="evenodd">
        <path d="M0 0h42v42H0z"/>
        <g stroke="#FFF" stroke-linecap="round" stroke-linejoin="round" stroke-width="2">
            <path d="M31.367 24.147v-3.764c0-5.656-4.346-10.522-9.995-10.788-6.032-.284-11.01 4.522-11.01 10.49v4.062c0 .636-.379 1.204-.956 1.47a3.261 3.261 0 0 0-1.89 3.29c.163 1.711 1.71 2.962 3.43 2.962h19.837c1.719 0 3.266-1.25 3.43-2.962a3.263 3.263 0 0 0-1.89-3.29 1.623 1.623 0 0 1-.956-1.47zM24.84 31.87a3.975 3.975 0 1 1-7.952 0M19.641 6.398h2.446"/>
        </g>
    </g>
</svg>
