<svg width="32" height="32" viewBox="0 0 32 32" xmlns="http://www.w3.org/2000/svg" xmlns:xlink="http://www.w3.org/1999/xlink">
    <defs>
        <path id="yt5zdmwa3a" d="M.035.135H13.45v8.064H.035z"/>
        <path id="ci7vrknmzc" d="M.096.066h21.26V13.28H.096z"/>
    </defs>
    <g fill="none" fill-rule="evenodd">
        <rect fill="#FF5610" transform="rotate(180 16 16)" width="32" height="32" rx="4"/>
        <g transform="translate(15.78 7.025)">
            <mask id="ywz7tfagpb" fill="#fff">
                <use xlink:href="#yt5zdmwa3a"/>
            </mask>
            <path d="M13.45 7.918c-.114.236-.296.299-.554.277-3.086-.253-6.172-.499-9.258-.743-.204-.016-.342-.1-.427-.286L.05.223C.042.208.043.19.035.135c.348.06.684.114 1.02.174 3.146.568 6.292 1.138 9.44 1.7a.638.638 0 0 1 .52.405c.77 1.7 1.548 3.396 2.324 5.093.032.07.074.135.11.203v.208z" fill="#FFF" mask="url(#ywz7tfagpb)"/>
        </g>
        <g transform="translate(5.06 12.465)">
            <mask id="egbcbbb7id" fill="#fff">
                <use xlink:href="#ci7vrknmzc"/>
            </mask>
            <path d="m10.754 11.424 8.772-1.662V4.61c0-.512.148-.636.657-.554l.823.135c.233.04.35.178.35.413v6.156c0 .27-.165.378-.402.429-1.13.241-2.26.486-3.39.728-1.987.426-3.978.841-5.962 1.282-.785.174-1.534.037-2.295-.125-2.88-.613-5.764-1.215-8.646-1.823-.31-.066-.4-.174-.408-.476C.2 8.767.147 6.76.097 4.752c-.012-.483.079-.567.562-.61 2.08-.18 4.158-.367 6.238-.55.476-.043.952-.093 1.43-.119.276-.015.445-.121.55-.386.353-.887.724-1.767 1.089-2.65.033-.08.054-.187.117-.227.113-.074.267-.165.378-.14.112.027.213.176.28.293.041.073.013.187.013.282v10.779z" fill="#FFF" mask="url(#egbcbbb7id)"/>
        </g>
        <path d="m15.775 7.16-1.107 2.49c-.627 1.411-1.258 2.821-1.876 4.237-.112.256-.271.362-.55.39-2.673.263-5.345.54-8.017.811-.424.043-.848.09-1.273.118-.366.024-.551-.246-.398-.576.817-1.755 1.64-3.506 2.46-5.26a.549.549 0 0 1 .435-.327c2.658-.484 5.315-.973 7.972-1.46l2.102-.388c.067-.012.135-.019.252-.035M19.726 21.394l-.968.129c-.093.012-.17-.032-.17-.1v-3.459c0-.173-.199-.33-.45-.35l-.19-.015c-.1-.008-.184-.071-.184-.142v-.777c0-.07.083-.116.185-.103l.884.118c.59.079 1.042.477 1.042.893v3.673c0 .062-.067.122-.15.133M22.465 20.333c-.361.03-.67-.215-.67-.55 0-.334.309-.608.67-.61.345-.001.613.246.613.553 0 .305-.268.577-.613.607m0-2.57c.187.018.335.168.335.335s-.148.296-.335.287c-.191-.01-.35-.16-.35-.336 0-.175.159-.303.35-.285m.822.911a.854.854 0 0 0 .182-.529c0-.502-.431-.97-1.004-1.05-.621-.086-1.166.312-1.166.895 0 .233.09.451.24.63-.443.255-.747.7-.747 1.207 0 .837.795 1.405 1.673 1.283.783-.109 1.358-.74 1.358-1.42 0-.411-.207-.779-.536-1.016" fill="#FFF"/>
    </g>
</svg>
