<svg width="32" height="32" viewBox="0 0 32 32" xmlns="http://www.w3.org/2000/svg">
    <g fill="none" fill-rule="evenodd">
        <path d="M0 0h32v32H0z"/>
        <path stroke="#FFF" stroke-width="2" stroke-linecap="round" stroke-linejoin="round" d="m5.269 7.034 2.921 2.92"/>
        <path stroke="#FFF" stroke-width="2" stroke-linejoin="round" d="m15.999 8.149-9.424 9.424"/>
        <path d="M27.975 15.176a6.788 6.788 0 0 0 1.018-2.908 6.79 6.79 0 0 0-1.952-5.544v-.001a6.8 6.8 0 0 0-9.616 0L16 8.149l-1.424-1.426a6.801 6.801 0 0 0-9.617 0v.001a6.8 6.8 0 0 0 0 9.616l1.61 1.607c.004.006.002.015.008.021l9.22 9.222a.28.28 0 0 0 .203.08.281.281 0 0 0 .205-.08l2.495-2.496" stroke="#FFF" stroke-width="2" stroke-linecap="round" stroke-linejoin="round"/>
        <path d="M27.462 14.55a4.054 4.054 0 0 0-5.733 0l-.85.85-.85-.85a4.054 4.054 0 0 0-5.733 5.733l.95.953c.003.002.002.008.005.011l5.514 5.513a.155.155 0 0 0 .113.044.157.157 0 0 0 .114-.044l5.514-5.513c.003-.003.002-.009.005-.011l.95-.953a4.054 4.054 0 0 0 0-5.733z" stroke="#FFF" stroke-width="2" stroke-linecap="round" stroke-linejoin="round"/>
        <path d="M2 29h28V3H2z"/>
    </g>
</svg>
