<svg width="32" height="32" viewBox="0 0 32 32" xmlns="http://www.w3.org/2000/svg">
    <g fill="none" fill-rule="evenodd">
        <rect fill="red" transform="rotate(180 16 16)" width="32" height="32" rx="4"/>
        <path d="M24.061 21.375c-1.221.575-2.671.187-3.43-.853a2.596 2.596 0 0 1-.227-.363l-.575-1.14-2.455-4.862c-.62-1.227-.162-2.696 1.014-3.401l.003-.002c.07-.042.141-.08.215-.115.054-.026.108-.052.165-.075l.027-.01a3.155 3.155 0 0 1 .339-.11l.081-.02a2.86 2.86 0 0 1 .489-.065l.04-.001a3.1 3.1 0 0 1 .183.002 3.015 3.015 0 0 1 .303.027l.027.002c.155.025.31.061.462.112a2.69 2.69 0 0 1 1.568 1.34l1.357 2.688 1.673 3.313c.661 1.31.096 2.894-1.259 3.533zm-12.465-1.216c-.066.13-.143.25-.227.363-.759 1.04-2.209 1.428-3.43.853-1.355-.639-1.92-2.223-1.26-3.533l1.67-3.308a4.027 4.027 0 0 0 2.194 2.15l.024.01.147.057.066.024.103.033.105.033.065.017c.046.013.093.025.14.036l.034.008a4.596 4.596 0 0 0 .365.067h.008c.062.009.125.016.188.022l.02.001c.058.005.116.01.175.012l.047.001.147.003c.028 0 .056 0 .085-.002.036 0 .072 0 .109-.003.04-.001.079-.004.118-.007l.077-.006.137-.016.059-.007a5.486 5.486 0 0 0 .329-.06l.07-.015.109-.028.094-.026a6.188 6.188 0 0 0 .209-.067l.045-.016c.056-.02.111-.041.167-.064l.007-.003c.063-.026.127-.054.19-.084l.09-.044.073-.037a4.05 4.05 0 0 0 .337-.197 3.997 3.997 0 0 0 1.412-1.562l.106-.21.002-.003 1.661 3.291c.66 1.31.096 2.894-1.259 3.533-.131.062-.266.11-.403.15a2.803 2.803 0 0 1-1.686-.027 2.704 2.704 0 0 1-1.568-1.34l-.575-1.14-.576 1.14zm-.628-9.53.013-.007a2.329 2.329 0 0 1 .25-.102 2.344 2.344 0 0 1 .238-.072v2.741c0 .354.268.67.633.704.418.039.77-.278.77-.674v-2.772a2.71 2.71 0 0 1 1.761 1.394l.322.637c.168.333.168.721 0 1.054l-.322.637a2.711 2.711 0 0 1-1.766 1.396l-.042.01c-.07.016-.14.03-.21.041l-.048.009c-.077.01-.154.018-.232.022l-.046.002a5.336 5.336 0 0 1-.225.001h-.023a2.809 2.809 0 0 1-.495-.068l-.048-.012a2.984 2.984 0 0 1-.517-.182l-.013-.007c-.53-.249-.98-.662-1.258-1.212l-.322-.637a1.165 1.165 0 0 1 0-1.054l.322-.637c.277-.55.729-.963 1.258-1.212zm15.613 6.619-3.03-6.001a4.07 4.07 0 0 0-2.662-2.112l-.033-.008a3.756 3.756 0 0 0-.147-.034l-.065-.014a4.325 4.325 0 0 0-.122-.022l-.087-.013a4.743 4.743 0 0 0-.206-.025l-.096-.008a4.904 4.904 0 0 0-.108-.006l-.09-.003A5.22 5.22 0 0 0 19.822 9l-.088.001-.114.004-.086.005a3.89 3.89 0 0 0-.118.01l-.08.009-.124.016-.069.01-.138.026-.05.01a3.763 3.763 0 0 0-.161.037l-.021.005a4.067 4.067 0 0 0-2.668 2.113l-.106.21-.106-.21a3.998 3.998 0 0 0-1.528-1.633 4.045 4.045 0 0 0-.22-.125l-.075-.037-.09-.045a4.436 4.436 0 0 0-.19-.084l-.006-.003a3.882 3.882 0 0 0-.34-.122l-.08-.024-.095-.027c-.037-.01-.073-.019-.11-.027l-.07-.016a4.464 4.464 0 0 0-.13-.027l-.057-.01a3.363 3.363 0 0 0-.141-.023l-.059-.007a3.926 3.926 0 0 0-.137-.016l-.077-.005a3.84 3.84 0 0 0-.227-.011l-.085-.002a3.59 3.59 0 0 0-.147.003l-.047.001a4.299 4.299 0 0 0-.176.012l-.019.001a3.745 3.745 0 0 0-.188.022h-.008a4.06 4.06 0 0 0-.539.111l-.065.018-.105.032a3.124 3.124 0 0 0-.316.114 4.507 4.507 0 0 0-.206.09l-.099.05-.07.034a4.024 4.024 0 0 0-.65.424 3.739 3.739 0 0 0-.362.324c-.078.079-.153.161-.224.247a3.953 3.953 0 0 0-.507.762l-3.03 6.001c-1 1.981-.146 4.38 1.905 5.345a4.23 4.23 0 0 0 1.807.405 4.23 4.23 0 0 0 3.039-1.278 4.135 4.135 0 0 0 1.688 1.06 4.232 4.232 0 0 0 2.146.143 4.24 4.24 0 0 0 1.015-.33 4.04 4.04 0 0 0 2.009-2.068l.115.228c.183.362.415.685.686.966a4.227 4.227 0 0 0 3.04 1.279c.608 0 1.225-.13 1.807-.405 2.051-.966 2.906-3.364 1.905-5.345z" fill="#FFF"/>
    </g>
</svg>
