<svg width="42" height="42" viewBox="0 0 42 42" xmlns="http://www.w3.org/2000/svg">
    <g fill="none" fill-rule="evenodd">
        <path d="M0 0h42v42H0z"/>
        <path d="M35.238 39.001H20.764a3.763 3.763 0 0 1-3.763-3.763V20.765A3.763 3.763 0 0 1 20.764 17h14.474a3.763 3.763 0 0 1 3.763 3.764v14.473a3.763 3.763 0 0 1-3.763 3.763" stroke="#646464"/>
        <path d="M28.677 7.533a5.74 5.74 0 0 1 5.74 5.74M13.273 34.417a5.74 5.74 0 0 1-5.74-5.74" stroke="#646464" stroke-width="2" stroke-linecap="round" stroke-linejoin="round"/>
        <path fill="#646464" d="M27.798 33.172h-7.706V22.78h7.706v1.35h-6.27v3.043h5.688v1.365h-5.687v3.27h6.27zM35.86 33.172h-1.45v-4.194c0-.691-.129-1.19-.384-1.493-.266-.293-.673-.44-1.223-.44-.891 0-1.626.436-2.204 1.308v4.82h-1.45v-7.38h1.45v.783c.72-.598 1.488-.896 2.303-.896 1.972 0 2.957 1.1 2.957 3.298v4.194z"/>
        <path d="M21.237 25H6.763A3.763 3.763 0 0 1 3 21.237V6.763A3.763 3.763 0 0 1 6.763 3h14.474A3.763 3.763 0 0 1 25 6.763v14.474A3.763 3.763 0 0 1 21.237 25" stroke="#FFF" fill="#646464"/>
        <path d="M14.664 15.169h3.554v-4.123h-3.554v4.123zm-4.933 0h3.497v-4.123H9.731v4.123zM8.28 9.78h4.947V7.449h1.436V9.78h5.004v6.653h-5.004v4.067h-1.436v-4.067H8.28V9.781z" fill="#FFF"/>
    </g>
</svg>
