<svg width="183" height="176" viewBox="0 0 183 176" xmlns="http://www.w3.org/2000/svg" xmlns:xlink="http://www.w3.org/1999/xlink">
    <defs>
        <linearGradient x1="50%" y1="3.752%" x2="100%" y2="96.248%" id="18pxszhsjb">
            <stop stop-color="#86B7F7" offset="0%"/>
            <stop stop-color="#5A65F2" offset="100%"/>
        </linearGradient>
        <linearGradient x1="25.533%" y1="26.855%" x2="100%" y2="97.298%" id="yrqlc0nlof">
            <stop stop-color="#BBDCFC" offset="0%"/>
            <stop stop-color="#86B7F7" offset="100%"/>
        </linearGradient>
        <linearGradient x1="50%" y1="0%" x2="100%" y2="100%" id="ldg3ur9w5g">
            <stop stop-color="#86B7F7" offset="0%"/>
            <stop stop-color="#5A65F2" offset="100%"/>
        </linearGradient>
        <rect id="3wluy1n8sa" x="0" y="0" width="183" height="176" rx="9"/>
        <path id="3hhn51cktd" d="M0 0h72v72H0z"/>
    </defs>
    <g fill="none" fill-rule="evenodd">
        <mask id="lmad5jgtyc" fill="#fff">
            <use xlink:href="#3wluy1n8sa"/>
        </mask>
        <use fill="url(#18pxszhsjb)" xlink:href="#3wluy1n8sa"/>
        <g mask="url(#lmad5jgtyc)">
            <g transform="translate(111 104)">
                <mask id="s0puq5ydoe" fill="#fff">
                    <use xlink:href="#3hhn51cktd"/>
                </mask>
                <g fill-rule="nonzero" mask="url(#s0puq5ydoe)">
                    <path d="M70.287 27.772a15.019 15.019 0 0 1-1.48-2.95 16.95 16.95 0 0 1-.599-3.306 15.064 15.064 0 0 0-2.254-7.68 14.618 14.618 0 0 0-6.589-4.55 15.31 15.31 0 0 1-2.96-1.528 16.107 16.107 0 0 1-2.29-2.346A15.133 15.133 0 0 0 47.74.435a14.635 14.635 0 0 0-7.716.249 14.808 14.808 0 0 1-6.835 0 14.636 14.636 0 0 0-7.962-.25 15.134 15.134 0 0 0-6.342 4.978 16.103 16.103 0 0 1-2.325 2.346 15.31 15.31 0 0 1-2.96 1.529 14.617 14.617 0 0 0-6.623 4.55 15.066 15.066 0 0 0-2.184 7.679 16.95 16.95 0 0 1-.6 3.306 15.015 15.015 0 0 1-1.48 2.88A15.375 15.375 0 0 0 0 35.485a15.374 15.374 0 0 0 2.713 7.715 15.015 15.015 0 0 1 1.48 2.879c.289 1.105.466 2.236.528 3.377a15.064 15.064 0 0 0 2.255 7.679 14.618 14.618 0 0 0 6.588 4.55c1.039.4 2.03.913 2.96 1.529.852.7 1.632 1.485 2.325 2.346a15.133 15.133 0 0 0 6.377 4.977c.992.31 2.026.466 3.065.462a20.967 20.967 0 0 0 4.792-.711 14.808 14.808 0 0 1 6.834 0c2.549.798 5.264.884 7.857.249a15.134 15.134 0 0 0 6.342-4.977 16.103 16.103 0 0 1 2.325-2.346 15.31 15.31 0 0 1 2.96-1.529 14.618 14.618 0 0 0 6.588-4.55 15.065 15.065 0 0 0 2.22-7.679c.061-1.14.239-2.272.528-3.377a15.015 15.015 0 0 1 1.48-2.88A15.372 15.372 0 0 0 73 35.487a15.374 15.374 0 0 0-2.713-7.714z" fill="url(#yrqlc0nlof)" transform="translate(3 5)"/>
                    <path d="M24.516 49A3.495 3.495 0 0 1 21 45.502a3.5 3.5 0 0 1 1.034-2.484l20.974-20.99a3.508 3.508 0 0 1 4.964 0 3.514 3.514 0 0 1 0 4.968l-20.974 20.99A3.495 3.495 0 0 1 24.516 49zm1.748-27.986a5.245 5.245 0 0 0-5.244 5.248 5.245 5.245 0 0 0 5.244 5.247 5.245 5.245 0 0 0 5.243-5.247 5.245 5.245 0 0 0-5.243-5.248zm17.478 17.491a5.245 5.245 0 0 0-5.243 5.248A5.245 5.245 0 0 0 43.742 49a5.245 5.245 0 0 0 5.244-5.247 5.245 5.245 0 0 0-5.244-5.248z" fill="url(#ldg3ur9w5g)" transform="translate(3 5)"/>
                </g>
            </g>
        </g>
    </g>
</svg>
