<svg width="183" height="176" viewBox="0 0 183 176" xmlns="http://www.w3.org/2000/svg" xmlns:xlink="http://www.w3.org/1999/xlink">
    <defs>
        <linearGradient x1="50%" y1="3.752%" x2="100%" y2="96.248%" id="ax8732brab">
            <stop stop-color="#DFB1FA" offset="0%"/>
            <stop stop-color="#A841FF" offset="100%"/>
        </linearGradient>
        <linearGradient x1="25.949%" y1="21.856%" x2="100%" y2="100%" id="lv0une7old">
            <stop stop-color="#F1D9FD" offset="0%"/>
            <stop stop-color="#DFB1FA" offset="100%"/>
        </linearGradient>
        <linearGradient x1="50%" y1="28.28%" x2="100%" y2="71.72%" id="o4ftzcae3e">
            <stop stop-color="#DFB1FA" offset="0%"/>
            <stop stop-color="#A841FF" offset="100%"/>
        </linearGradient>
        <linearGradient x1="0%" y1="0%" x2="100%" y2="100%" id="5cuuq0cuwf">
            <stop stop-color="#F1D9FD" offset="0%"/>
            <stop stop-color="#DFB1FA" offset="100%"/>
        </linearGradient>
        <rect id="liacnqg38a" x="0" y="0" width="183" height="176" rx="9"/>
    </defs>
    <g fill="none" fill-rule="evenodd">
        <mask id="z5op4jmb5c" fill="#fff">
            <use xlink:href="#liacnqg38a"/>
        </mask>
        <use fill="url(#ax8732brab)" xlink:href="#liacnqg38a"/>
        <g mask="url(#z5op4jmb5c)">
            <g fill-rule="nonzero" transform="translate(114 109)">
                <circle fill="url(#lv0une7old)" cx="36.5" cy="36.5" r="36.5"/>
                <path d="M58.267 34.325C57.9 33.817 48.843 22 37 22S16.1 33.818 15.733 34.325a3.592 3.592 0 0 0 0 4.35C16.1 39.183 25.157 51 37 51s20.9-11.818 21.267-12.325a3.592 3.592 0 0 0 0-4.35z" fill="url(#o4ftzcae3e)"/>
                <path d="M36.5 44a7.5 7.5 0 1 1 0-15 7.5 7.5 0 0 1 0 15z" fill="url(#5cuuq0cuwf)"/>
            </g>
        </g>
    </g>
</svg>
