<svg width="183" height="176" viewBox="0 0 183 176" xmlns="http://www.w3.org/2000/svg" xmlns:xlink="http://www.w3.org/1999/xlink">
    <defs>
        <linearGradient x1="50%" y1="3.752%" x2="100%" y2="96.248%" id="3jx1rb92jb">
            <stop stop-color="#FA8383" offset="0%"/>
            <stop stop-color="#FF4848" offset="100%"/>
        </linearGradient>
        <linearGradient x1="-8.101%" y1="61.792%" x2="66.183%" y2="21.334%" id="dc99bvdudd">
            <stop stop-color="#FF4848" offset="0%"/>
            <stop stop-color="#FA8383" offset="100%"/>
        </linearGradient>
        <linearGradient x1="50%" y1="0%" x2="50%" y2="100%" id="escgqcp18e">
            <stop stop-color="#FDB9B9" offset="0%"/>
            <stop stop-color="#FA8383" offset="100%"/>
        </linearGradient>
        <rect id="bvrw42ykba" x="0" y="0" width="183" height="176" rx="9"/>
    </defs>
    <g fill="none" fill-rule="evenodd">
        <mask id="ukppgldb8c" fill="#fff">
            <use xlink:href="#bvrw42ykba"/>
        </mask>
        <use fill="url(#3jx1rb92jb)" xlink:href="#bvrw42ykba"/>
        <g fill-rule="nonzero" mask="url(#ukppgldb8c)">
            <path d="M36.5 91C19.97 90.902 5.545 79.897 1.259 64.117c-4.286-15.78 2.624-32.446 16.882-40.714 2.145-.958 4.675-.157 5.858 1.854a4.503 4.503 0 0 1-1.268 5.95C11.998 37.412 6.805 49.958 10.058 61.821c3.253 11.862 14.145 20.099 26.58 20.099 12.434 0 23.326-8.237 26.58-20.1 3.252-11.862-1.94-24.408-12.673-30.615a4.5 4.5 0 0 1-1.07-5.644c1.047-1.894 3.298-2.797 5.384-2.159 14.258 8.268 21.168 24.934 16.882 40.714C67.455 79.897 53.03 90.902 36.5 91z" fill="url(#dc99bvdudd)" transform="translate(115 109)"/>
            <path d="m63.869 15.456-11.457-13.8A4.575 4.575 0 0 0 48.884 0H25.972a4.575 4.575 0 0 0-3.529 1.656l-11.456 13.8a4.614 4.614 0 0 0 0 5.704l17.184 23A4.577 4.577 0 0 0 31.837 46h11.456c1.443 0 2.8-.682 3.666-1.84l17.185-23a4.614 4.614 0 0 0-.275-5.704z" fill="url(#escgqcp18e)" transform="translate(115 109)"/>
        </g>
    </g>
</svg>
