<svg width="55" height="55" viewBox="0 0 55 55" xmlns="http://www.w3.org/2000/svg">
    <g fill="none" fill-rule="evenodd">
        <rect fill="#FAFAFA" width="55" height="55" rx="27.5"/>
        <rect width="35" height="35" rx="4.268" fill="#FFACBC" transform="translate(10 10)"/>
        <path d="m23.795 26.253-1.105 2.56-2.535 1.115 2.535 1.116 1.105 2.56 1.105-2.56 2.535-1.116-2.535-1.116-1.105-2.559zm8.645-.394-.812 1.772-1.756.82 1.756.82.812 1.773.813-1.772 1.755-.82-1.756-.82-.812-1.773zM16.45 17l2.405 4.988h4.225L20.675 17h2.893l2.404 4.988h4.226L27.793 17h2.892l2.405 4.988h4.225L34.91 17h3.64c.52 0 .975.197 1.365.59.39.394.585.854.585 1.379V36.03c0 .525-.195.985-.585 1.378-.39.394-.845.591-1.365.591h-22.1c-.52 0-.975-.197-1.365-.59-.39-.394-.585-.854-.585-1.379V18.97c0-.525.195-.985.585-1.378.39-.394.845-.591 1.365-.591z" fill="#FFF" fill-rule="nonzero"/>
    </g>
</svg>
