<svg width="55" height="55" viewBox="0 0 55 55" xmlns="http://www.w3.org/2000/svg">
    <g fill="none" fill-rule="evenodd">
        <rect fill="#FAFAFA" width="55" height="55" rx="27.5"/>
        <g fill-rule="nonzero">
            <path d="m41.365 43.27-1.888-4.016-4.015-1.889 4.015-1.888 1.888-4.015 1.889 4.015 4.015 1.888-4.015 1.889-1.889 4.015zM9.885 41a2.779 2.779 0 0 1-2.039-.846A2.779 2.779 0 0 1 7 38.115v-24.23c0-.795.282-1.475.846-2.039A2.779 2.779 0 0 1 9.885 11h32.23c.795 0 1.475.282 2.039.846.564.564.846 1.244.846 2.039v14.611a9.183 9.183 0 0 0-1.796-.6 8.47 8.47 0 0 0-1.839-.204c-2.684 0-4.968.941-6.85 2.823-1.882 1.882-2.823 4.166-2.823 6.85 0 .613.068 1.226.204 1.839.136.613.336 1.211.6 1.796H9.885z" fill="#FFACBC"/>
            <path fill="#FFF" d="m26 32.55 2.023-4.527L32.55 26l-4.527-2.023L26 19.45l-2.023 4.527L19.45 26l4.527 2.023z"/>
        </g>
    </g>
</svg>
