<svg width="55" height="55" viewBox="0 0 55 55" xmlns="http://www.w3.org/2000/svg">
    <g fill="none" fill-rule="evenodd">
        <rect fill="#FAFAFA" width="55" height="55" rx="27.5"/>
        <g fill-rule="nonzero">
            <path d="M44.782 12.654A12.192 12.192 0 0 0 36.085 9c-3.269 0-6.4 1.316-8.698 3.654A12.192 12.192 0 0 0 18.69 9c-3.269 0-6.4 1.316-8.698 3.654-4.79 4.886-4.79 12.735 0 17.621l15.904 16.1a2.095 2.095 0 0 0 2.983 0l15.903-16.1c4.824-4.872 4.824-12.749 0-17.621z" fill="#FFACBC"/>
            <path d="M34.719 20.539A5.134 5.134 0 0 0 31.057 19a5.134 5.134 0 0 0-3.662 1.539A5.134 5.134 0 0 0 23.732 19a5.134 5.134 0 0 0-3.662 1.539 5.306 5.306 0 0 0 0 7.419l6.697 6.779a.882.882 0 0 0 1.256 0l6.696-6.779a5.279 5.279 0 0 0 0-7.42z" fill="#FFF"/>
        </g>
    </g>
</svg>
