<svg width="55" height="55" viewBox="0 0 55 55" xmlns="http://www.w3.org/2000/svg">
    <g fill="none" fill-rule="evenodd">
        <rect fill="#FAFAFA" width="55" height="55" rx="27.5"/>
        <path d="M27.5 47.515c-2.459-2.082-5.14-3.698-8.044-4.848a26.566 26.566 0 0 0-8.956-1.879v-19.95c3.044.09 6.02.839 8.93 2.247 2.911 1.407 5.6 3.26 8.07 5.557 2.47-2.297 5.159-4.15 8.07-5.557 2.91-1.408 5.886-2.157 8.93-2.247v19.95a26.566 26.566 0 0 0-8.956 1.88c-2.904 1.15-5.585 2.765-8.044 4.847zm.112-26.484c-1.962 0-3.62-.675-4.975-2.023-1.356-1.349-2.033-3.01-2.033-4.985 0-1.961.677-3.62 2.033-4.975 1.355-1.355 3.013-2.033 4.975-2.033 1.961 0 3.62.678 4.975 2.033 1.355 1.355 2.032 3.014 2.032 4.975 0 1.974-.677 3.636-2.032 4.985-1.356 1.348-3.014 2.023-4.975 2.023z" fill="#FFACBC" fill-rule="nonzero"/>
    </g>
</svg>
