<svg width="55" height="55" viewBox="0 0 55 55" xmlns="http://www.w3.org/2000/svg" xmlns:xlink="http://www.w3.org/1999/xlink">
    <defs>
        <path id="1csc1cf96a" d="M0 0h29v40H0z"/>
    </defs>
    <g fill="none" fill-rule="evenodd">
        <rect fill="#FAFAFA" width="55" height="55" rx="27.5"/>
        <g transform="translate(13.045 7.5)">
            <mask id="iihuzhy1bb" fill="#fff">
                <use xlink:href="#1csc1cf96a"/>
            </mask>
            <path d="M18.653 28.18a4.539 4.539 0 0 1-2.341 2.348v.381a1.815 1.815 0 0 1-1.812 1.819c-1.001 0-1.813-.815-1.813-1.819v-.381a4.552 4.552 0 0 1-2.34-5.985c1-2.3 3.672-3.352 5.965-2.348a4.551 4.551 0 0 1 2.34 5.984m6.723-13.633H9.062V9.09c0-3.013 2.435-5.454 5.438-5.454 3.003 0 5.437 2.441 5.437 5.454v.618c0 1.005.812 1.819 1.813 1.819a1.815 1.815 0 0 0 1.812-1.819v-.618c0-5.02-4.057-9.09-9.062-9.09-5.005 0-9.063 4.07-9.063 9.09v5.455H3.625A3.63 3.63 0 0 0 0 18.182v18.182A3.63 3.63 0 0 0 3.625 40h21.75A3.63 3.63 0 0 0 29 36.364V18.182a3.63 3.63 0 0 0-3.625-3.636" fill="#FFACBC" mask="url(#iihuzhy1bb)"/>
        </g>
        <path d="M25.546 38.58V39a2 2 0 0 0 3.999 0v-.42a4.999 4.999 0 1 0-3.999 0" fill="#FFF"/>
    </g>
</svg>
