<?xml version="1.0" encoding="UTF-8"?>
<svg width="55px" height="55px" viewBox="0 0 55 55" version="1.1" xmlns="http://www.w3.org/2000/svg" xmlns:xlink="http://www.w3.org/1999/xlink">
    <!-- Generator: sketchtool 64 (101010) - https://sketch.com -->
    <title>CFDBA364-E4AF-44CF-8702-4575608BE274</title>
    <desc>Created with sketchtool.</desc>
    <g id="我的" stroke="none" stroke-width="1" fill="none" fill-rule="evenodd">
        <g id="h5_e3_我的_任务中心" transform="translate(-40.000000, -1555.000000)">
            <g id="Group-17-Copy-7" transform="translate(40.000000, 1555.000000)">
                <rect id="Rectangle-Copy-15" fill="#FAFAFA" x="1.47058822e-05" y="0" width="55" height="55" rx="27.5"></rect>
                <g id="Group-11" transform="translate(10.000000, 10.000000)">
                    <path d="M22.2985385,33.7209231 L22.2985385,27.5690769 L16.1453077,27.5690769 C14.427,27.5690769 13.0299231,26.1706154 13.0299231,24.4536923 C13.0299231,22.7353846 14.427,21.3383077 16.1453077,21.3383077 L22.2985385,21.3383077 L22.2985385,15.1836923 C22.2985385,13.4667692 23.6956154,12.0683077 25.4139231,12.0683077 C27.1322308,12.0683077 28.5293077,13.4667692 28.5293077,15.1836923 L28.5293077,21.3383077 L33.7216154,21.3383077 L33.7216154,6.21692308 L33.7216154,4.07492308 C33.7216154,1.82492308 31.8980769,0 29.6466923,0 L4.07561538,0 C1.82423077,0 0.000692307692,1.82492308 0.000692307692,4.07492308 L0.000692307692,29.646 C0.000692307692,31.8973846 1.82423077,33.7209231 4.07561538,33.7209231 L17.7473077,33.7209231 L22.2985385,33.7209231 Z" id="Fill-1" fill="#FFACBC"></path>
                    <polygon id="Fill-3" fill="#FFACBC" points="28.5293077 27.5685231 28.5293077 33.7203692 28.5293077 33.7217538 33.7216154 33.7217538 33.7216154 27.5685231"></polygon>
                    <path d="M34.6829538,22.7223692 L27.1451077,22.7223692 L27.1451077,15.1845231 C27.1451077,14.2277538 26.3697231,13.4537538 25.4143385,13.4537538 C24.4575692,13.4537538 23.6835692,14.2277538 23.6835692,15.1845231 L23.6835692,22.7223692 L16.1443385,22.7223692 C15.1889538,22.7223692 14.4135692,23.4977538 14.4135692,24.4531385 C14.4135692,25.4085231 15.1889538,26.1839077 16.1443385,26.1839077 L23.6835692,26.1839077 L23.6835692,33.7203692 C23.6835692,34.6771385 24.4575692,35.4511385 25.4143385,35.4511385 C26.3697231,35.4511385 27.1451077,34.6771385 27.1451077,33.7203692 L27.1451077,26.1839077 L34.6829538,26.1839077 C35.6383385,26.1839077 36.4137231,25.4085231 36.4137231,24.4531385 C36.4137231,23.4977538 35.6383385,22.7223692 34.6829538,22.7223692" id="Fill-5" fill="#FFACBC"></path>
                    <path d="M21.9050308,10.2865846 L6.44164615,10.2865846 C5.48626154,10.2865846 4.71087692,9.5112 4.71087692,8.55581538 C4.71087692,7.60043077 5.48626154,6.82504615 6.44164615,6.82504615 L21.9050308,6.82504615 C22.8604154,6.82504615 23.6358,7.60043077 23.6358,8.55581538 C23.6358,9.5112 22.8604154,10.2865846 21.9050308,10.2865846" id="Fill-7" fill="#FFFFFF"></path>
                    <path d="M14.7845077,17.5639846 L6.4422,17.5639846 C5.48543077,17.5639846 4.71143077,16.7886 4.71143077,15.8332154 C4.71143077,14.8778308 5.48543077,14.1024462 6.4422,14.1024462 L14.7845077,14.1024462 C15.7398923,14.1024462 16.5152769,14.8778308 16.5152769,15.8332154 C16.5152769,16.7886 15.7398923,17.5639846 14.7845077,17.5639846" id="Fill-9" fill="#FFFFFF"></path>
                </g>
            </g>
        </g>
    </g>
</svg>