<?xml version="1.0" encoding="UTF-8"?>
<svg width="55px" height="55px" viewBox="0 0 55 55" version="1.1" xmlns="http://www.w3.org/2000/svg" xmlns:xlink="http://www.w3.org/1999/xlink">
    <!-- Generator: sketchtool 64 (101010) - https://sketch.com -->
    <title>3611EC2B-C969-4A79-995F-2D23944AD46A</title>
    <desc>Created with sketchtool.</desc>
    <defs>
        <polygon id="path-1" points="0.365783333 0.929491305 33.4418333 0.929491305 33.4418333 23.650176 0.365783333 23.650176"></polygon>
    </defs>
    <g id="我的" stroke="none" stroke-width="1" fill="none" fill-rule="evenodd">
        <g id="h5_e3_我的_任务中心" transform="translate(-40.000000, -1789.000000)">
            <g id="Group-17-Copy-9" transform="translate(40.000000, 1789.000000)">
                <rect id="Rectangle-Copy-15" fill="#FAFAFA" x="1.47058822e-05" y="0" width="55" height="55" rx="27.5"></rect>
                <g id="Group-8" transform="translate(9.000000, 8.000000)">
                    <path d="M0.0256867974,8.15529881 L0.38790899,20.0523106 C0.407615379,20.7157581 0.665675231,21.3275937 1.11610697,21.7780248 L16.6090821,37.2700399 C17.6516439,38.3126003 19.4252189,38.2281444 20.5719431,37.0823603 L32.1067493,25.5475702 C33.252535,24.401786 33.336991,22.6272751 32.2944291,21.5847148 L16.801454,6.09176127 C16.3519607,5.64226856 15.7401242,5.38327067 15.0757374,5.3635643 L3.17964739,5.00134262 C1.47082197,4.94879232 -0.0259251731,6.44647577 0.0256867974,8.15529881" id="Fill-1" fill="#FFACBC"></path>
                    <path d="M11.9989848,12.0254054 C13.366192,13.3926126 13.366192,15.6083964 11.9989848,16.9745946 C10.6317776,18.3418018 8.41599385,18.3418018 7.04979565,16.9745946 C5.68258844,15.6083964 5.68258844,13.3926126 7.04979565,12.0254054 C8.41599385,10.6581982 10.6317776,10.6581982 11.9989848,12.0254054" id="Fill-3" fill="#FFFFFF"></path>
                    <g id="Group-7" transform="translate(4.024390, 0.000000)">
                        <mask id="mask-2" fill="white">
                            <use xlink:href="#path-1"></use>
                        </mask>
                        <g id="Clip-6"></g>
                        <path d="M32.7073389,17.895936 L17.1145611,2.046336 C16.6621722,1.586496 16.04545,1.321536 15.3777278,1.301376 L3.40500556,0.930816 C2.00061667,0.887616 0.75395,1.906176 0.365783333,3.230976 L11.4138944,3.572736 C12.4433389,3.604416 13.4010056,4.018176 14.1093389,4.739136 L29.7021167,20.588736 C30.4926167,21.391296 30.8977833,22.478976 30.8458389,23.650176 L32.51845,21.950016 C33.6716167,20.777856 33.7566167,18.962496 32.7073389,17.895936" id="Fill-5" fill="#FFACBC" mask="url(#mask-2)"></path>
                    </g>
                </g>
            </g>
        </g>
    </g>
</svg>