<svg width="55" height="55" viewBox="0 0 55 55" xmlns="http://www.w3.org/2000/svg">
    <g fill="none" fill-rule="evenodd">
        <rect fill="#FAFAFA" width="55" height="55" rx="27.5"/>
        <g fill-rule="nonzero">
            <path d="M14.215 46c-.738 0-1.375-.27-1.911-.81s-.804-1.183-.804-1.927V19.928c0-.744.268-1.386.804-1.926s1.173-.81 1.911-.81h5.158c0-2.28.762-4.215 2.286-5.806C23.183 9.796 25.073 9 27.328 9c2.255 0 4.202.796 5.84 2.387 1.64 1.592 2.459 3.527 2.459 5.805h5.158c.738 0 1.375.27 1.911.81s.804 1.182.804 1.926v23.335c0 .744-.268 1.386-.804 1.927-.536.54-1.173.81-1.911.81h-26.57zm7.294-28.808h11.982c0-1.69-.58-3.12-1.738-4.288-1.158-1.167-2.576-1.751-4.253-1.751s-3.095.584-4.253 1.751c-1.159 1.168-1.738 2.597-1.738 4.288z" fill="#FFACBC"/>
            <path d="M27.5 29.78c2.261 0 4.211-.825 5.85-2.477 1.638-1.652 2.458-3.617 2.458-5.897h-2.136c0 1.703-.61 3.166-1.83 4.388-1.22 1.222-2.668 1.834-4.344 1.834-1.676 0-3.12-.612-4.333-1.834s-1.819-2.685-1.819-4.388H19.21c0 2.28.817 4.245 2.45 5.897 1.632 1.652 3.579 2.477 5.84 2.477z" fill="#FFF"/>
        </g>
    </g>
</svg>
