<svg width="55" height="55" viewBox="0 0 55 55" xmlns="http://www.w3.org/2000/svg">
    <g fill="none" fill-rule="evenodd">
        <rect fill="#FAFAFA" width="55" height="55" rx="27.5"/>
        <path d="M7 7h41v41H7z"/>
        <path d="M41.6 46.468H13.4a.795.795 0 0 1-.79-.71l-2.09-19.69a.793.793 0 0 1 1.213-.754l6.925 4.381a.795.795 0 0 0 1.136-.318l6.996-14.081a.793.793 0 0 1 1.421 0l6.996 14.081c.21.421.738.57 1.136.318l6.925-4.38a.793.793 0 0 1 1.213.754l-2.09 19.689a.795.795 0 0 1-.79.71M29.843 11.342a2.342 2.342 0 0 1-2.343 2.341A2.342 2.342 0 1 1 27.5 9a2.342 2.342 0 0 1 2.343 2.342M11.686 21.88a2.342 2.342 0 0 1-2.343 2.341 2.342 2.342 0 1 1 0-4.683 2.342 2.342 0 0 1 2.343 2.342M48 21.88a2.342 2.342 0 0 1-2.343 2.341 2.342 2.342 0 1 1 0-4.683A2.342 2.342 0 0 1 48 21.88" fill="#FFACBC"/>
        <path fill="#FFF" d="M30.254 32.417h-5.397l-2.625 2.74 5.272 6.627 5.271-6.592z"/>
    </g>
</svg>
