<svg width="55" height="55" viewBox="0 0 55 55" xmlns="http://www.w3.org/2000/svg">
    <g fill="none" fill-rule="evenodd">
        <rect fill="#FAFAFA" width="55" height="55" rx="27.5"/>
        <path d="M35.835 9.5h-16.67a3.84 3.84 0 0 0-3.317 1.887L7.513 25.613a3.726 3.726 0 0 0 0 3.774l8.335 14.226a3.84 3.84 0 0 0 3.317 1.887h16.67a3.84 3.84 0 0 0 3.317-1.887l8.335-14.226a3.726 3.726 0 0 0 0-3.774l-8.335-14.226A3.84 3.84 0 0 0 35.835 9.5" fill="#FFACBC"/>
        <path fill="#FFF" d="M36.21 19 27.5 33.328 18.79 19l-3.435 5.758L27.5 45l12.145-20.242z"/>
        <path fill="#FFF" d="m27.392 22-3.47-6 3.47-6 3.686 6z"/>
    </g>
</svg>
