<svg width="52" height="52" viewBox="0 0 52 52" xmlns="http://www.w3.org/2000/svg">
    <g fill="none" fill-rule="evenodd">
        <path d="M52 26c0 14.359-11.64 26-26 26S0 40.359 0 26C0 11.64 11.64 0 26 0s26 11.64 26 26" fill="#1677F0"/>
        <path d="M21.766 26.296v15.926c0 .229.185.414.414.414h5.914c.23 0 .415-.185.415-.414V26.036h4.288a.414.414 0 0 0 .412-.38l.414-4.875a.416.416 0 0 0-.415-.45H28.51v-3.459c0-.814.658-1.469 1.468-1.469h3.304c.23 0 .416-.186.416-.415v-4.876a.415.415 0 0 0-.416-.416h-5.584a5.933 5.933 0 0 0-5.931 5.934v4.7h-2.957a.414.414 0 0 0-.415.415v4.877c0 .229.184.414.415.414h2.957v.26z" fill="#FFF"/>
    </g>
</svg>
