<svg width="52" height="52" viewBox="0 0 52 52" xmlns="http://www.w3.org/2000/svg">
    <g fill="none" fill-rule="evenodd">
        <path d="M52 26c0 14.36-11.64 26-26 26S0 40.36 0 26 11.64 0 26 0s26 11.64 26 26" fill="#A8A8A8"/>
        <path d="M41.645 20.242v15.145a3.13 3.13 0 0 1-3.129 3.13H13.483a3.129 3.129 0 0 1-3.128-3.13V20.821l3.128 1.706L25.25 28.94c.23.125.489.19.751.188.275-.003.545-.079.782-.22l11.734-6.836 3.13-1.83z" fill="#FFF"/>
        <path d="m41.645 16.613-3.129 1.846L26 25.765 13.483 18.96l-3.128-1.721v-.626c0-1.729 1.4-3.13 3.128-3.13h25.033a3.13 3.13 0 0 1 3.13 3.13" fill="#FFF"/>
    </g>
</svg>
