<svg width="52" height="52" viewBox="0 0 52 52" xmlns="http://www.w3.org/2000/svg">
    <g fill="none" fill-rule="evenodd">
        <path d="M52 26c0 14.36-11.64 26-26 26S0 40.36 0 26 11.64 0 26 0s26 11.64 26 26" fill="#646464"/>
        <path d="M22.05 41.33h7.082v-1.728H22.05v1.728zM16.09 45c-.69 0-1.295-.26-1.813-.777-.518-.518-.777-1.123-.777-1.814V9.591c0-.691.26-1.296.777-1.814C14.795 7.26 15.4 7 16.091 7h19c.69 0 1.295.26 1.814.777.518.518.777 1.123.777 1.814v32.818c0 .691-.26 1.296-.777 1.814-.519.518-1.123.777-1.814.777h-19zm0-9.068h19V13.477h-19v22.455z" fill="#FFF" fill-rule="nonzero"/>
    </g>
</svg>
