<svg width="52" height="52" viewBox="0 0 52 52" xmlns="http://www.w3.org/2000/svg">
    <g fill="none" fill-rule="evenodd">
        <path d="M52 26c0 14.36-11.64 26-26 26S0 40.36 0 26 11.64 0 26 0s26 11.64 26 26" fill="#1D99EE"/>
        <path d="M20.746 40.974c12.7 0 19.644-10.52 19.644-19.643 0-.3-.006-.597-.02-.893a14.055 14.055 0 0 0 3.444-3.574 13.78 13.78 0 0 1-3.965 1.086 6.928 6.928 0 0 0 3.036-3.819 13.839 13.839 0 0 1-4.383 1.676 6.905 6.905 0 0 0-11.765 6.296 19.6 19.6 0 0 1-14.231-7.213 6.879 6.879 0 0 0-.935 3.47 6.9 6.9 0 0 0 3.072 5.747 6.856 6.856 0 0 1-3.127-.864c-.002.03-.002.058-.002.088a6.908 6.908 0 0 0 5.54 6.769 6.931 6.931 0 0 1-3.118.118 6.912 6.912 0 0 0 6.45 4.795 13.852 13.852 0 0 1-8.575 2.955c-.557 0-1.107-.031-1.648-.095a19.544 19.544 0 0 0 10.583 3.101" fill="#FFF"/>
    </g>
</svg>
