<svg width="52" height="52" viewBox="0 0 52 52" xmlns="http://www.w3.org/2000/svg">
    <g fill="none" fill-rule="evenodd">
        <circle stroke="#A8A8A8" fill="#FFF" cx="26" cy="26" r="25.5"/>
        <path d="M42.37 26.376c0-1.1-.098-2.146-.265-3.164h-15.75v6.286h9.018c-.404 2.063-1.589 3.805-3.345 4.99v4.181h5.38c3.15-2.913 4.961-7.206 4.961-12.293" fill="#4285F4"/>
        <path d="M26.355 42.725c4.516 0 8.293-1.505 11.053-4.056l-5.38-4.181c-1.505 1.004-3.415 1.617-5.673 1.617-4.362 0-8.055-2.941-9.38-6.913h-5.547v4.306c2.746 5.464 8.39 9.227 14.927 9.227" fill="#34A853"/>
        <path d="M16.976 29.192a9.7 9.7 0 0 1-.53-3.192c0-1.115.195-2.188.53-3.192v-4.306h-5.548a16.531 16.531 0 0 0 0 14.996l5.548-4.306z" fill="#FBBC05"/>
        <path d="M26.355 15.895c2.468 0 4.67.85 6.411 2.51l4.767-4.768c-2.885-2.703-6.662-4.362-11.178-4.362-6.536 0-12.181 3.763-14.927 9.227l5.547 4.306c1.325-3.972 5.018-6.913 9.38-6.913" fill="#EA4335"/>
    </g>
</svg>
