<svg width="44" height="60" viewBox="0 0 44 60" xmlns="http://www.w3.org/2000/svg" xmlns:xlink="http://www.w3.org/1999/xlink">
    <defs>
        <linearGradient x1="50%" y1="0%" x2="50%" y2="100%" id="kt6gcjvtea">
            <stop stop-color="#FFF" offset="0%"/>
            <stop stop-color="#F3F4F5" offset="100%"/>
        </linearGradient>
        <linearGradient x1="50%" y1="0%" x2="50%" y2="68.627%" id="n9wjg33qyb">
            <stop stop-color="#F3F4F5" offset="0%"/>
            <stop stop-color="#A8A8A8" offset="100%"/>
        </linearGradient>
        <linearGradient x1="50%" y1="0%" x2="50%" y2="68.101%" id="uzyft3nkuc">
            <stop stop-color="#F3F4F5" offset="0%"/>
            <stop stop-color="#A8A8A8" offset="100%"/>
        </linearGradient>
        <path id="buofq2j62d" d="M0 .132h43.068V43.2H0z"/>
    </defs>
    <g fill="none" fill-rule="evenodd">
        <path d="M36.005 35.633H7.063V3.113A2.506 2.506 0 0 1 9.57.605h23.929a2.507 2.507 0 0 1 2.506 2.506v32.52z" fill="url(#kt6gcjvtea)"/>
        <path d="M33.499 0H9.569a3.116 3.116 0 0 0-3.112 3.112V36.238H36.611V3.113A3.116 3.116 0 0 0 33.5 0zm0 .606a2.507 2.507 0 0 1 2.506 2.506v32.52H7.063V3.113A2.507 2.507 0 0 1 9.569.606H33.5z" fill="#646464"/>
        <path d="M15.79 31.907V.606H9.57a2.506 2.506 0 0 0-2.507 2.506v28.795h8.727z" fill="url(#n9wjg33qyb)"/>
        <path d="M33.499.606h-6.22v31.3h8.726V3.113A2.507 2.507 0 0 0 33.5.606" fill="url(#uzyft3nkuc)"/>
        <path d="M33.499.606H9.569a2.506 2.506 0 0 0-2.506 2.506v1.054A2.506 2.506 0 0 1 9.57 1.66h23.929a2.507 2.507 0 0 1 2.506 2.506V3.112A2.507 2.507 0 0 0 33.5.606" fill-opacity=".3" fill="#F2F2F2"/>
        <path d="M42.463 37.708c0 11.558-9.37 20.928-20.929 20.928-11.558 0-20.928-9.37-20.928-20.928 0-11.559 9.37-20.929 20.928-20.929 11.559 0 20.929 9.37 20.929 20.929" fill="#D5D5D5"/>
        <path d="M21.534 57.92C10.096 57.92.807 48.742.614 37.35c-.001.12-.008.238-.008.358 0 11.558 9.37 20.928 20.928 20.928 11.559 0 20.929-9.37 20.929-20.928 0-.12-.007-.239-.01-.358-.191 11.392-9.48 20.57-20.919 20.57" fill-opacity=".3" fill="#1A1A1A"/>
        <path d="M21.534 17.43c11.45 0 20.746 9.196 20.92 20.603.002-.108.009-.216.009-.325 0-11.559-9.37-20.929-20.929-20.929C9.976 16.78.606 26.15.606 37.708c0 .109.006.217.008.325.175-11.407 9.47-20.603 20.92-20.603" fill-opacity=".3" fill="#F2F2F2"/>
        <g transform="translate(0 16.042)">
            <mask id="zf5s11atqe" fill="#fff">
                <use xlink:href="#buofq2j62d"/>
            </mask>
            <path d="M21.534.132c-5.752 0-11.16 2.24-15.227 6.307A21.392 21.392 0 0 0 0 21.666c0 5.752 2.24 11.16 6.307 15.227A21.393 21.393 0 0 0 21.534 43.2c5.752 0 11.16-2.24 15.227-6.307a21.393 21.393 0 0 0 6.307-15.227c0-5.752-2.24-11.16-6.307-15.227A21.393 21.393 0 0 0 21.534.132m0 .606c11.559 0 20.929 9.37 20.929 20.928 0 11.558-9.37 20.928-20.929 20.928-11.558 0-20.928-9.37-20.928-20.928C.606 10.107 9.976.738 21.534.738" fill="#646464" mask="url(#zf5s11atqe)"/>
        </g>
        <path d="M38.686 37.708c0 9.473-7.68 17.152-17.152 17.152-9.473 0-17.152-7.68-17.152-17.152 0-9.473 7.68-17.152 17.152-17.152 9.473 0 17.152 7.679 17.152 17.152" fill="#A8A8A8"/>
        <path d="M21.534 20.556c-9.473 0-17.152 7.679-17.152 17.152s7.68 17.152 17.152 17.152c9.473 0 17.152-7.68 17.152-17.152 0-9.473-7.68-17.152-17.152-17.152m0 .672c9.087 0 16.48 7.393 16.48 16.48s-7.393 16.48-16.48 16.48-16.48-7.393-16.48-16.48 7.393-16.48 16.48-16.48" fill="#646464"/>
        <path d="M36.23 37.708c0 8.117-6.58 14.696-14.696 14.696-8.117 0-14.697-6.58-14.697-14.696 0-8.117 6.58-14.697 14.697-14.697 8.117 0 14.697 6.58 14.697 14.697" fill="#D5D5D5"/>
        <path d="M21.534 23.011c-8.117 0-14.697 6.58-14.697 14.697 0 8.117 6.58 14.696 14.697 14.696 8.117 0 14.697-6.58 14.697-14.696 0-8.117-6.58-14.697-14.697-14.697m0 .505c7.826 0 14.192 6.366 14.192 14.192 0 7.825-6.366 14.192-14.192 14.192-7.825 0-14.192-6.367-14.192-14.192 0-7.826 6.367-14.192 14.192-14.192" fill-opacity=".5" fill="#F2F2F2"/>
        <path d="M19.012 49.852a.634.634 0 0 1-.634-.634v-1.64a.634.634 0 1 1 1.268 0v1.64c0 .35-.284.634-.634.634M21.534 49.852a.634.634 0 0 1-.634-.634v-1.64a.634.634 0 1 1 1.268 0v1.64c0 .35-.284.634-.634.634M24.056 49.852a.634.634 0 0 1-.634-.634v-1.64a.634.634 0 1 1 1.268 0v1.64c0 .35-.284.634-.634.634M12.939 43.898c.479.84-.675 1.658-1.274.898a12.68 12.68 0 0 1-.057-.073c-1.325-1.676-2.144-3.73-2.445-5.86-.306-2.128.054-4.446 1.125-6.313.505-.948 1.2-1.795 1.965-2.497.764-.683 1.59-1.324 2.506-1.778-.635.806-1.223 1.587-1.754 2.424-.545.806-.965 1.64-1.287 2.51-.649 1.752-.804 3.56-.555 5.383a15.059 15.059 0 0 0 1.748 5.257l.028.049M14.262 46.098a.673.673 0 1 1-1.345 0 .673.673 0 0 1 1.345 0M15.868 47.443a.673.673 0 1 1-1.345 0 .673.673 0 0 1 1.345 0M30.13 43.898c-.48.84.674 1.658 1.273.898l.057-.073c1.326-1.676 2.145-3.73 2.445-5.86.306-2.128-.053-4.446-1.124-6.313-.506-.948-1.202-1.795-1.966-2.497-.764-.683-1.59-1.324-2.506-1.778.635.806 1.223 1.587 1.755 2.424.544.806.964 1.64 1.287 2.51.648 1.752.803 3.56.555 5.383a15.059 15.059 0 0 1-1.749 5.257l-.028.049M28.806 46.098a.673.673 0 1 0 1.345 0 .673.673 0 0 0-1.345 0M27.2 47.443a.673.673 0 1 0 1.346 0 .673.673 0 0 0-1.346 0" fill="#A8A8A8"/>
        <path d="M21.168 44.244c1.927 0 3.434-.6 4.521-1.802 1.088-1.2 1.631-3.094 1.631-5.678 0-1.758-.258-3.173-.776-4.243-.518-1.071-1.21-1.853-2.075-2.344-.866-.492-2.015-.738-3.448-.738-1.19 0-2.18.2-2.968.601-.788.4-1.407.991-1.856 1.773a5.118 5.118 0 0 0-.674 2.597c0 1.393.442 2.546 1.324 3.457.882.912 1.964 1.367 3.247 1.367.657 0 1.237-.114 1.738-.341.501-.228.99-.586 1.465-1.075-.13 1.537-.326 2.543-.586 3.018-.358.644-.856.967-1.494.967-.358 0-.661-.114-.908-.342-.248-.228-.424-.619-.528-1.172l-3.955.498c.235.762.57 1.397 1.006 1.904.436.508.983.894 1.64 1.158.658.263 1.557.395 2.696.395zm.03-7.47c-.541 0-.992-.212-1.353-.635-.362-.424-.542-1.035-.542-1.836 0-.795.174-1.39.522-1.787a1.673 1.673 0 0 1 1.314-.596c.56 0 1.035.22 1.425.66.391.439.586 1.046.586 1.82 0 .762-.185 1.348-.556 1.758-.371.41-.837.615-1.397.615z" fill="#646464" fill-rule="nonzero"/>
    </g>
</svg>
