<svg width="52" height="72" viewBox="0 0 52 72" xmlns="http://www.w3.org/2000/svg" xmlns:xlink="http://www.w3.org/1999/xlink">
    <defs>
        <linearGradient x1="50%" y1="0%" x2="50%" y2="100%" id="lfo7myy0qa">
            <stop stop-color="#FFC87F" offset="0%"/>
            <stop stop-color="#B1603C" offset="100%"/>
        </linearGradient>
        <linearGradient x1="50%" y1="0%" x2="50%" y2="68.627%" id="e8vbz40epb">
            <stop stop-color="#81519B" offset="0%"/>
            <stop stop-color="#5C3B72" offset="100%"/>
        </linearGradient>
        <linearGradient x1="50%" y1="0%" x2="50%" y2="68.101%" id="4h6js4ufvc">
            <stop stop-color="#81519B" offset="0%"/>
            <stop stop-color="#5C3B72" offset="100%"/>
        </linearGradient>
        <linearGradient x1="50%" y1="0%" x2="50%" y2="99.862%" id="pvnodrt3fd">
            <stop stop-color="#B1603C" offset="0%"/>
            <stop stop-color="#FFC87F" offset="41.272%"/>
            <stop stop-color="#AE5D23" offset="100%"/>
        </linearGradient>
        <linearGradient x1="50%" y1="0%" x2="50%" y2="100%" id="83cx9cbm2f">
            <stop stop-color="#6C4300" offset="0%"/>
            <stop stop-color="#3A2000" offset="100%"/>
        </linearGradient>
        <linearGradient x1="50%" y1="0%" x2="50%" y2="99.862%" id="ym0q3igs1h">
            <stop stop-color="#B1603C" offset="0%"/>
            <stop stop-color="#FFC87F" offset="41.272%"/>
            <stop stop-color="#AE5D23" offset="100%"/>
        </linearGradient>
        <path id="cpthlsp80e" d="M0 .158h51.682V51.84H0z"/>
    </defs>
    <g fill="none" fill-rule="evenodd">
        <path d="M43.206 42.76H8.476V3.734A3.008 3.008 0 0 1 11.483.727H40.2a3.008 3.008 0 0 1 3.007 3.008v39.024z" fill="url(#lfo7myy0qa)"/>
        <path d="M40.199 0H11.483A3.739 3.739 0 0 0 7.75 3.735v39.751h36.184V3.735A3.739 3.739 0 0 0 40.2 0zm0 .727a3.008 3.008 0 0 1 3.007 3.008v39.024H8.476V3.735A3.008 3.008 0 0 1 11.482.727H40.2z" fill="#3A2000"/>
        <path d="M18.948 38.288V.727h-7.465a3.008 3.008 0 0 0-3.007 3.008v34.553h10.472z" fill="url(#e8vbz40epb)"/>
        <path d="M40.199.727h-7.465v37.561h10.472V3.735A3.008 3.008 0 0 0 40.2.727" fill="url(#4h6js4ufvc)"/>
        <path d="M40.199.727H11.483a3.008 3.008 0 0 0-3.007 3.008v1.264a3.008 3.008 0 0 1 3.007-3.008H40.2A3.008 3.008 0 0 1 43.206 5V3.735A3.008 3.008 0 0 0 40.2.727" fill-opacity=".3" fill="#F2F2F2"/>
        <path d="M50.955 45.25c0 13.87-11.244 25.114-25.114 25.114C11.97 70.364.727 59.119.727 45.249S11.97 20.135 25.84 20.135c13.87 0 25.114 11.244 25.114 25.114" fill="url(#pvnodrt3fd)"/>
        <path d="M25.841 69.504C12.115 69.504.968 58.491.738 44.82c-.003.143-.011.285-.011.43 0 13.87 11.244 25.113 25.114 25.113 13.87 0 25.114-11.244 25.114-25.114 0-.144-.008-.286-.01-.43-.231 13.672-11.378 24.685-25.104 24.685" fill-opacity=".3" fill="#1A1A1A"/>
        <path d="M25.841 20.916c13.74 0 24.895 11.035 25.104 24.724.002-.13.01-.26.01-.39 0-13.87-11.244-25.115-25.114-25.115C11.971 20.135.727 31.38.727 45.25c0 .131.008.26.01.39.21-13.688 11.365-24.723 25.104-24.723" fill-opacity=".3" fill="#F2F2F2"/>
        <g transform="translate(0 19.25)">
            <mask id="1gy5h8vcog" fill="#fff">
                <use xlink:href="#cpthlsp80e"/>
            </mask>
            <path d="M25.841.158c-6.902 0-13.392 2.688-18.272 7.569C2.688 12.607 0 19.097 0 25.999c0 6.902 2.688 13.392 7.569 18.272 4.88 4.881 11.37 7.57 18.272 7.57 6.902 0 13.392-2.689 18.272-7.57 4.881-4.88 7.569-11.37 7.569-18.272 0-6.902-2.688-13.392-7.569-18.272-4.88-4.88-11.37-7.569-18.272-7.569m0 .727c13.87 0 25.114 11.244 25.114 25.114 0 13.87-11.244 25.114-25.114 25.114C11.971 51.113.727 39.87.727 26 .727 12.129 11.97.885 25.84.885" fill="url(#83cx9cbm2f)" mask="url(#1gy5h8vcog)"/>
        </g>
        <path d="M46.423 45.25c0 11.367-9.215 20.582-20.582 20.582S5.259 56.617 5.259 45.249c0-11.367 9.215-20.582 20.582-20.582s20.582 9.215 20.582 20.582" fill="#3A2000"/>
        <path d="M25.841 24.667c-11.367 0-20.582 9.215-20.582 20.582 0 11.368 9.215 20.583 20.582 20.583s20.582-9.215 20.582-20.583c0-11.367-9.215-20.582-20.582-20.582m0 .807c10.904 0 19.775 8.871 19.775 19.775 0 10.904-8.871 19.776-19.775 19.776-10.904 0-19.775-8.872-19.775-19.776s8.87-19.775 19.775-19.775" fill-opacity=".6" fill="#1A1A1A"/>
        <path d="M43.477 45.25c0 9.74-7.896 17.635-17.636 17.635-9.74 0-17.636-7.895-17.636-17.636 0-9.74 7.896-17.636 17.636-17.636 9.74 0 17.636 7.896 17.636 17.636" fill="url(#ym0q3igs1h)"/>
        <path d="M25.84 27.613c-9.739 0-17.635 7.896-17.635 17.636 0 9.74 7.896 17.636 17.636 17.636 9.74 0 17.636-7.895 17.636-17.636 0-9.74-7.896-17.636-17.636-17.636m0 .606c9.39 0 17.03 7.64 17.03 17.03 0 9.391-7.64 17.03-17.03 17.03S8.81 54.64 8.81 45.25c0-9.39 7.64-17.03 17.03-17.03" fill-opacity=".5" fill="#F2F2F2"/>
        <path d="M22.815 59.822a.76.76 0 0 1-.76-.76v-1.968a.76.76 0 1 1 1.52 0v1.967c0 .42-.34.76-.76.76M25.841 59.822a.76.76 0 0 1-.76-.76v-1.968a.76.76 0 1 1 1.52 0v1.967c0 .42-.34.76-.76.76M28.867 59.822a.76.76 0 0 1-.76-.76v-1.968a.76.76 0 1 1 1.52 0v1.967c0 .42-.34.76-.76.76M15.527 52.677c.574 1.01-.81 1.99-1.529 1.078a15.216 15.216 0 0 1-.068-.088c-1.59-2.011-2.574-4.475-2.934-7.03-.368-2.555.064-5.337 1.35-7.577.605-1.138 1.44-2.154 2.358-2.996.916-.82 1.907-1.589 3.007-2.134-.762.967-1.468 1.904-2.105 2.909a14.097 14.097 0 0 0-1.545 3.013c-.778 2.101-.964 4.271-.666 6.458a18.07 18.07 0 0 0 2.098 6.308l.034.06M17.115 55.317a.807.807 0 1 1-1.615 0 .807.807 0 0 1 1.615 0M19.041 56.932a.807.807 0 1 1-1.614 0 .807.807 0 0 1 1.614 0M36.155 52.677c-.575 1.01.81 1.99 1.528 1.078l.069-.088c1.59-2.011 2.574-4.475 2.934-7.03.367-2.555-.064-5.337-1.35-7.577-.606-1.138-1.44-2.154-2.358-2.996-.916-.82-1.907-1.589-3.007-2.134.762.967 1.467 1.904 2.105 2.909a14.097 14.097 0 0 1 1.545 3.013c.778 2.101.964 4.271.666 6.458a18.07 18.07 0 0 1-2.098 6.308l-.034.06M34.567 55.317a.807.807 0 1 0 1.615 0 .807.807 0 0 0-1.615 0M32.64 56.932a.807.807 0 1 0 1.615 0 .807.807 0 0 0-1.614 0" fill="#3A2000"/>
        <path d="M25.905 52.693c1.602 0 2.895-.248 3.88-.744.984-.496 1.738-1.203 2.261-2.121.524-.918.785-1.877.785-2.877 0-.797-.158-1.483-.474-2.057a3.716 3.716 0 0 0-1.33-1.389c-.352-.218-.86-.41-1.524-.574.82-.453 1.434-.98 1.84-1.582.406-.601.61-1.273.61-2.015 0-1.266-.5-2.317-1.5-3.153-1-.836-2.622-1.254-4.864-1.254-1.953 0-3.463.383-4.53 1.149-1.066.765-1.786 1.867-2.161 3.304l4.511.81c.125-.852.364-1.448.715-1.788.352-.34.809-.51 1.371-.51.547 0 .977.156 1.29.469.312.312.468.73.468 1.254 0 .547-.209 1.02-.627 1.418-.418.398-.94.597-1.564.597a4.56 4.56 0 0 1-.621-.058l-.246 3.41c.656-.187 1.171-.281 1.546-.281.704 0 1.26.219 1.67.656.41.438.616 1.055.616 1.852 0 .78-.213 1.406-.64 1.875a2.07 2.07 0 0 1-1.599.703c-.61 0-1.111-.186-1.506-.557-.394-.371-.685-1.037-.873-1.998l-4.77.633c.313 1.07.76 1.959 1.343 2.666.582.707 1.324 1.244 2.226 1.611.903.367 2.135.551 3.697.551z" fill="#3A2000" fill-rule="nonzero"/>
    </g>
</svg>
