<?xml version="1.0" encoding="UTF-8"?>
<svg width="44px" height="60px" viewBox="0 0 44 60" version="1.1" xmlns="http://www.w3.org/2000/svg" xmlns:xlink="http://www.w3.org/1999/xlink">
    <!-- Generator: sketchtool 64 (101010) - https://sketch.com -->
    <title>C849E7A0-2FD9-488C-8405-18CD32825229</title>
    <desc>Created with sketchtool.</desc>
    <defs>
        <linearGradient x1="50%" y1="0%" x2="50%" y2="100%" id="linearGradient-1">
            <stop stop-color="#FFFFFF" offset="0%"></stop>
            <stop stop-color="#F3F4F5" offset="100%"></stop>
        </linearGradient>
        <linearGradient x1="50%" y1="0%" x2="50%" y2="68.6266446%" id="linearGradient-2">
            <stop stop-color="#F3F4F5" offset="0%"></stop>
            <stop stop-color="#A8A8A8" offset="100%"></stop>
        </linearGradient>
        <linearGradient x1="50%" y1="0%" x2="50%" y2="68.1010272%" id="linearGradient-3">
            <stop stop-color="#F3F4F5" offset="0%"></stop>
            <stop stop-color="#A8A8A8" offset="100%"></stop>
        </linearGradient>
        <polygon id="path-4" points="4.8e-05 0.13176 43.06816 0.13176 43.06816 43.2 4.8e-05 43.2"></polygon>
    </defs>
    <g id="首頁" stroke="none" stroke-width="1" fill="none" fill-rule="evenodd">
        <g id="PC_a9遊戲頁面" transform="translate(-586.000000, -2748.000000)">
            <g id="Group-17-Copy" transform="translate(586.000000, 2748.000000)">
                <g id="Group-39">
                    <g id="Group-46-Copy-3">
                        <path d="M36.00536,35.632704 L7.06296,35.632704 L7.06296,3.112384 C7.06296,1.728064 8.18504,0.605824 9.56952,0.605824 L33.4988,0.605824 C34.88312,0.605824 36.00536,1.728064 36.00536,3.112384 L36.00536,35.632704 Z" id="Fill-1" fill="url(#linearGradient-1)"></path>
                        <path d="M33.498816,6.4e-05 L9.569376,6.4e-05 C7.853376,6.4e-05 6.457216,1.396224 6.457216,3.112384 L6.457216,35.632704 L6.457216,36.238464 L7.062816,36.238464 L36.005376,36.238464 L36.611136,36.238464 L36.611136,35.632704 L36.611136,3.112384 C36.611136,1.396224 35.214976,6.4e-05 33.498816,6.4e-05 L33.498816,6.4e-05 Z M33.498816,0.605824 C34.883136,0.605824 36.005376,1.728064 36.005376,3.112384 L36.005376,35.632704 L7.062816,35.632704 L7.062816,3.112384 C7.062816,1.728064 8.185056,0.605824 9.569376,0.605824 L33.498816,0.605824 Z" id="Fill-3" fill="#646464"></path>
                        <path d="M15.79,31.906688 L15.79,0.605728 L9.56952,0.605728 C8.18504,0.605728 7.06296,1.727968 7.06296,3.112288 L7.06296,31.906688 L15.79,31.906688 Z" id="Fill-5" fill="url(#linearGradient-2)"></path>
                        <path d="M33.4988,0.605744 L27.27816,0.605744 L27.27816,31.906704 L36.00536,31.906704 L36.00536,3.112304 C36.00536,1.727984 34.88312,0.605744 33.4988,0.605744" id="Fill-7" fill="url(#linearGradient-3)"></path>
                        <path d="M33.4988,0.605744 L9.56952,0.605744 C8.18504,0.605744 7.06296,1.727984 7.06296,3.112304 L7.06296,4.166064 C7.06296,2.781744 8.18504,1.659504 9.56952,1.659504 L33.4988,1.659504 C34.88312,1.659504 36.00536,2.781744 36.00536,4.166064 L36.00536,3.112304 C36.00536,1.727984 34.88312,0.605744 33.4988,0.605744" id="Fill-9" fill-opacity="0.3" fill="#F2F2F2"></path>
                        <path d="M42.462528,37.707792 C42.462528,49.266192 33.092608,58.636272 21.534048,58.636272 C9.975648,58.636272 0.605728,49.266192 0.605728,37.707792 C0.605728,26.149392 9.975648,16.779312 21.534048,16.779312 C33.092608,16.779312 42.462528,26.149392 42.462528,37.707792" id="Fill-11" fill="#D5D5D5"></path>
                        <path d="M21.534128,57.920144 C10.095728,57.920144 0.806608,48.742224 0.614768,37.349744 C0.612688,37.469264 0.605648,37.587664 0.605648,37.707824 C0.605648,49.266224 9.975728,58.636144 21.534128,58.636144 C33.092528,58.636144 42.462608,49.266224 42.462608,37.707824 C42.462608,37.587664 42.455568,37.469264 42.453488,37.349744 C42.261648,48.742224 32.972528,57.920144 21.534128,57.920144" id="Fill-13" fill-opacity="0.3" fill="#1A1A1A"></path>
                        <path d="M21.534128,17.430352 C32.983408,17.430352 42.279728,26.625552 42.454288,38.033232 C42.456048,37.924592 42.462608,37.816912 42.462608,37.707792 C42.462608,26.149392 33.092528,16.779312 21.534128,16.779312 C9.975728,16.779312 0.605648,26.149392 0.605648,37.707792 C0.605648,37.816912 0.612208,37.924592 0.613968,38.033232 C0.788528,26.625552 10.084848,17.430352 21.534128,17.430352" id="Fill-15" fill-opacity="0.3" fill="#F2F2F2"></path>
                        <g id="Group-19" transform="translate(0.000000, 16.041920)">
                            <mask id="mask-5" fill="white">
                                <use xlink:href="#path-4"></use>
                            </mask>
                            <g id="Clip-18"></g>
                            <path d="M21.534128,0.13176 C15.782128,0.13176 10.374448,2.37176 6.307248,6.43896 C2.239888,10.50616 4.8e-05,15.91384 4.8e-05,21.66584 C4.8e-05,27.41784 2.239888,32.82552 6.307248,36.89288 C10.374448,40.96008 15.782128,43.20008 21.534128,43.20008 C27.286128,43.20008 32.693808,40.96008 36.761008,36.89288 C40.828368,32.82552 43.068208,27.41784 43.068208,21.66584 C43.068208,15.91384 40.828368,10.50616 36.761008,6.43896 C32.693808,2.37176 27.286128,0.13176 21.534128,0.13176 M21.534128,0.73752 C33.092528,0.73752 42.462608,10.10744 42.462608,21.66584 C42.462608,33.2244 33.092528,42.59432 21.534128,42.59432 C9.975728,42.59432 0.605648,33.2244 0.605648,21.66584 C0.605648,10.10744 9.975728,0.73752 21.534128,0.73752" id="Fill-17" fill="#646464" mask="url(#mask-5)"></path>
                        </g>
                        <path d="M38.68608,37.707792 C38.68608,47.180592 31.00688,54.859792 21.53408,54.859792 C12.06128,54.859792 4.38224,47.180592 4.38224,37.707792 C4.38224,28.234992 12.06128,20.555792 21.53408,20.555792 C31.00688,20.555792 38.68608,28.234992 38.68608,37.707792" id="Fill-20" fill="#A8A8A8"></path>
                        <path d="M21.534128,20.555824 C12.061328,20.555824 4.382128,28.235024 4.382128,37.707824 C4.382128,47.180624 12.061328,54.859824 21.534128,54.859824 C31.006928,54.859824 38.686128,47.180624 38.686128,37.707824 C38.686128,28.235024 31.006928,20.555824 21.534128,20.555824 M21.534128,21.228464 C30.620848,21.228464 38.013488,28.621104 38.013488,37.707824 C38.013488,46.794544 30.620848,54.187184 21.534128,54.187184 C12.447408,54.187184 5.054768,46.794544 5.054768,37.707824 C5.054768,28.621104 12.447408,21.228464 21.534128,21.228464" id="Fill-22" fill="#646464"></path>
                        <path d="M36.230768,37.707792 C36.230768,45.824592 29.650928,52.404432 21.534128,52.404432 C13.417328,52.404432 6.837488,45.824592 6.837488,37.707792 C6.837488,29.591152 13.417328,23.011152 21.534128,23.011152 C29.650928,23.011152 36.230768,29.591152 36.230768,37.707792" id="Fill-24" fill="#D5D5D5"></path>
                        <path d="M21.534112,23.011152 C13.417472,23.011152 6.837472,29.590992 6.837472,37.707792 C6.837472,45.824592 13.417472,52.404432 21.534112,52.404432 C29.650912,52.404432 36.230752,45.824592 36.230752,37.707792 C36.230752,29.590992 29.650912,23.011152 21.534112,23.011152 M21.534112,23.515632 C29.359712,23.515632 35.726272,29.882192 35.726272,37.707792 C35.726272,45.533392 29.359712,51.899952 21.534112,51.899952 C13.708512,51.899952 7.341952,45.533392 7.341952,37.707792 C7.341952,29.882192 13.708512,23.515632 21.534112,23.515632" id="Fill-26" fill-opacity="0.5" fill="#F2F2F2"></path>
                        <path d="M19.012384,49.851616 L19.012384,49.851616 C18.662304,49.851616 18.378464,49.567776 18.378464,49.217696 L18.378464,47.578016 C18.378464,47.227776 18.662304,46.943936 19.012384,46.943936 C19.362464,46.943936 19.646304,47.227776 19.646304,47.578016 L19.646304,49.217696 C19.646304,49.567776 19.362464,49.851616 19.012384,49.851616" id="Fill-28" fill="#A8A8A8"></path>
                        <path d="M21.534128,49.851616 L21.534128,49.851616 C21.184048,49.851616 20.900208,49.567776 20.900208,49.217696 L20.900208,47.578016 C20.900208,47.227776 21.184048,46.943936 21.534128,46.943936 C21.884208,46.943936 22.168048,47.227776 22.168048,47.578016 L22.168048,49.217696 C22.168048,49.567776 21.884208,49.851616 21.534128,49.851616" id="Fill-30" fill="#A8A8A8"></path>
                        <path d="M24.055856,49.851616 L24.055856,49.851616 C23.705776,49.851616 23.421936,49.567776 23.421936,49.217696 L23.421936,47.578016 C23.421936,47.227776 23.705776,46.943936 24.055856,46.943936 C24.405936,46.943936 24.689776,47.227776 24.689776,47.578016 L24.689776,49.217696 C24.689776,49.567776 24.405936,49.851616 24.055856,49.851616" id="Fill-32" fill="#A8A8A8"></path>
                        <path d="M12.938784,43.897792 C13.417824,44.738592 12.263904,45.556032 11.665344,44.795712 C11.646304,44.771552 11.627264,44.747232 11.608384,44.722912 C10.282624,43.046592 9.463584,40.993152 9.163424,38.863392 C8.857024,36.734752 9.216704,34.416512 10.287584,32.549952 C10.792864,31.601792 11.488864,30.754912 12.253184,30.053152 C13.016864,29.370272 13.842784,28.729312 14.759104,28.275232 C14.124224,29.080992 13.536224,29.861792 13.004704,30.698752 C12.460224,31.504992 12.040384,32.338752 11.717504,33.209632 C11.069184,34.960992 10.914144,36.769472 11.162624,38.592032 C11.416064,40.415872 11.997344,42.210912 12.910944,43.848672 C12.920224,43.864992 12.929504,43.881472 12.938784,43.897792" id="Fill-34" fill="#A8A8A8"></path>
                        <path d="M14.262096,46.097728 C14.262096,46.469248 13.960976,46.770368 13.589456,46.770368 C13.217936,46.770368 12.916816,46.469248 12.916816,46.097728 C12.916816,45.726208 13.217936,45.425088 13.589456,45.425088 C13.960976,45.425088 14.262096,45.726208 14.262096,46.097728" id="Fill-36" fill="#A8A8A8"></path>
                        <path d="M15.867808,47.443056 C15.867808,47.814576 15.566688,48.115696 15.195168,48.115696 C14.823648,48.115696 14.522528,47.814576 14.522528,47.443056 C14.522528,47.071536 14.823648,46.770416 15.195168,46.770416 C15.566688,46.770416 15.867808,47.071536 15.867808,47.443056" id="Fill-38" fill="#A8A8A8"></path>
                        <path d="M30.129456,43.897792 C29.650416,44.738592 30.804336,45.556032 31.402896,44.795712 C31.421936,44.771552 31.440976,44.747232 31.459856,44.722912 C32.785616,43.046592 33.604656,40.993152 33.904816,38.863392 C34.211216,36.734752 33.851536,34.416512 32.780656,32.549952 C32.275376,31.601792 31.579376,30.754912 30.815216,30.053152 C30.051376,29.370272 29.225456,28.729312 28.309136,28.275232 C28.944016,29.080992 29.532016,29.861792 30.063536,30.698752 C30.608016,31.504992 31.027856,32.338752 31.350736,33.209632 C31.999056,34.960992 32.154096,36.769472 31.905616,38.592032 C31.652176,40.415872 31.070896,42.210912 30.157296,43.848672 C30.148016,43.864992 30.138736,43.881472 30.129456,43.897792" id="Fill-40" fill="#A8A8A8"></path>
                        <path d="M28.806144,46.097728 C28.806144,46.469248 29.107264,46.770368 29.478784,46.770368 C29.850304,46.770368 30.151424,46.469248 30.151424,46.097728 C30.151424,45.726208 29.850304,45.425088 29.478784,45.425088 C29.107264,45.425088 28.806144,45.726208 28.806144,46.097728" id="Fill-42" fill="#A8A8A8"></path>
                        <path d="M27.200432,47.443056 C27.200432,47.814576 27.501552,48.115696 27.873072,48.115696 C28.244592,48.115696 28.545712,47.814576 28.545712,47.443056 C28.545712,47.071536 28.244592,46.770416 27.873072,46.770416 C27.501552,46.770416 27.200432,47.071536 27.200432,47.443056" id="Fill-44" fill="#A8A8A8"></path>
                    </g>
                    <path d="M21.5097656,44.2441406 C22.8248698,44.2441406 23.9039714,44.0195312 24.7470703,43.5703125 C25.5901693,43.1210938 26.2412109,42.4700521 26.7001953,41.6171875 C27.1591797,40.7643229 27.3886719,39.875651 27.3886719,38.9511719 C27.3886719,37.6360677 26.9427083,36.5455729 26.0507812,35.6796875 C25.1588542,34.8138021 23.9967448,34.3808594 22.5644531,34.3808594 C22.141276,34.3808594 21.7132161,34.4329427 21.2802734,34.5371094 C20.8473307,34.641276 20.4095052,34.797526 19.9667969,35.0058594 L19.9667969,35.0058594 L20.3085938,32.8574219 L26.7050781,32.8574219 L26.7050781,29.6835938 L17.2617188,29.6835938 L16.0019531,37.3789062 L19.390625,37.8671875 C19.7096354,37.5091146 20.0026042,37.2617188 20.2695312,37.125 C20.6276042,36.9361979 20.9986979,36.8417969 21.3828125,36.8417969 C21.9882812,36.8417969 22.4733073,37.0403646 22.8378906,37.4375 C23.202474,37.8346354 23.3847656,38.4596354 23.3847656,39.3125 C23.3847656,40.1458333 23.2041016,40.7724609 22.8427734,41.1923828 C22.4814453,41.6123047 22.0240885,41.8222656 21.4707031,41.8222656 C20.9759115,41.8222656 20.5494792,41.6546224 20.1914062,41.3193359 C19.8333333,40.9840495 19.6054688,40.4941406 19.5078125,39.8496094 L19.5078125,39.8496094 L15.484375,40.2890625 C15.6796875,40.9596354 15.9238281,41.5195312 16.2167969,41.96875 C16.5097656,42.4179688 16.8922526,42.819987 17.3642578,43.1748047 C17.836263,43.5296224 18.4091797,43.7965495 19.0830078,43.9755859 C19.7568359,44.1546224 20.5657552,44.2441406 21.5097656,44.2441406 Z" id="5" fill="#646464" fill-rule="nonzero"></path>
                </g>
            </g>
        </g>
    </g>
</svg>