<svg width="60" height="83" viewBox="0 0 60 83" xmlns="http://www.w3.org/2000/svg" xmlns:xlink="http://www.w3.org/1999/xlink">
    <defs>
        <linearGradient x1="50%" y1="0%" x2="50%" y2="100%" id="patdj9gk6a">
            <stop stop-color="#FFF57F" offset="0%"/>
            <stop stop-color="#DE9700" offset="100%"/>
        </linearGradient>
        <linearGradient x1="50%" y1="0%" x2="50%" y2="68.627%" id="5papc2lsqb">
            <stop stop-color="#CE4343" offset="0%"/>
            <stop stop-color="#AD2E3C" offset="100%"/>
        </linearGradient>
        <linearGradient x1="50%" y1="0%" x2="50%" y2="68.627%" id="bo77di1n2c">
            <stop stop-color="#CE4343" offset="0%"/>
            <stop stop-color="#AD2E3C" offset="100%"/>
        </linearGradient>
        <linearGradient x1="50%" y1="0%" x2="50%" y2="100%" id="fo7vy9477d">
            <stop stop-color="#DE9700" offset="0%"/>
            <stop stop-color="#FFF57F" offset="41.272%"/>
            <stop stop-color="#BE6D00" offset="100%"/>
        </linearGradient>
        <linearGradient x1="50%" y1="0%" x2="50%" y2="100%" id="a9qlimy28f">
            <stop stop-color="#6C4300" offset="0%"/>
            <stop stop-color="#3A2000" offset="100%"/>
        </linearGradient>
        <linearGradient x1="50%" y1="0%" x2="50%" y2="100%" id="bjz247h1qh">
            <stop stop-color="#DE9700" offset="0%"/>
            <stop stop-color="#FFF57F" offset="41.272%"/>
            <stop stop-color="#BE6D00" offset="100%"/>
        </linearGradient>
        <path id="f0ay1n26xe" d="M0 .182h59.434v59.434H0z"/>
    </defs>
    <g fill="none" fill-rule="evenodd">
        <path d="M49.687 49.173H9.747V4.295c0-1.91 1.548-3.459 3.459-3.459h33.022a3.46 3.46 0 0 1 3.46 3.46v44.877z" fill="url(#patdj9gk6a)"/>
        <path d="M46.228 0H13.206A4.3 4.3 0 0 0 8.91 4.295V50.01H50.523V4.295A4.3 4.3 0 0 0 46.228 0zm0 .836a3.46 3.46 0 0 1 3.46 3.46v44.877H9.746V4.295A3.46 3.46 0 0 1 13.206.836h33.022z" fill="#3A2000"/>
        <path d="M21.79 44.031V.836h-8.584a3.459 3.459 0 0 0-3.46 3.459v39.736H21.79z" fill="url(#5papc2lsqb)"/>
        <path d="M46.228.836h-8.584V44.03h12.043V4.295a3.46 3.46 0 0 0-3.459-3.46" fill="url(#bo77di1n2c)"/>
        <path d="M46.228.836H13.206a3.459 3.459 0 0 0-3.46 3.459v1.454c0-1.91 1.55-3.459 3.46-3.459h33.022a3.46 3.46 0 0 1 3.46 3.46V4.294a3.46 3.46 0 0 0-3.46-3.46" fill-opacity=".3" fill="#F2F2F2"/>
        <path d="M58.598 52.037c0 15.95-12.93 28.881-28.881 28.881-15.95 0-28.881-12.93-28.881-28.881 0-15.95 12.93-28.882 28.881-28.882 15.95 0 28.881 12.931 28.881 28.882" fill="url(#fo7vy9477d)"/>
        <path d="M29.717 79.93C13.932 79.93 1.113 67.264.848 51.543c-.002.165-.012.328-.012.494 0 15.95 12.93 28.88 28.881 28.88 15.95 0 28.881-12.93 28.881-28.88 0-.166-.01-.33-.012-.494C58.32 67.264 45.502 79.93 29.717 79.93" fill-opacity=".3" fill="#1A1A1A"/>
        <path d="M29.717 24.054c15.8 0 28.629 12.69 28.87 28.432.002-.15.011-.299.011-.45 0-15.95-12.93-28.88-28.88-28.88-15.951 0-28.882 12.93-28.882 28.88 0 .151.009.3.011.45.241-15.743 13.07-28.432 28.87-28.432" fill-opacity=".3" fill="#F2F2F2"/>
        <g transform="translate(0 22.138)">
            <mask id="h6w9btf2yg" fill="#fff">
                <use xlink:href="#f0ay1n26xe"/>
            </mask>
            <path d="M29.717.182c-7.938 0-15.4 3.091-21.013 8.704C3.091 14.499 0 21.96 0 29.899c0 7.938 3.091 15.4 8.704 21.013 5.613 5.613 13.075 8.704 21.013 8.704 7.938 0 15.4-3.091 21.013-8.704 5.613-5.613 8.704-13.075 8.704-21.013 0-7.938-3.09-15.4-8.704-21.013C45.117 3.273 37.655.182 29.717.182m0 .836c15.95 0 28.881 12.93 28.881 28.88 0 15.952-12.93 28.882-28.88 28.882C13.766 58.78.835 45.85.835 29.9c0-15.95 12.93-28.881 28.881-28.881" fill="url(#a9qlimy28f)" mask="url(#h6w9btf2yg)"/>
        </g>
        <path d="M53.387 52.037c0 13.072-10.598 23.67-23.67 23.67-13.072 0-23.67-10.598-23.67-23.67 0-13.073 10.598-23.67 23.67-23.67 13.072 0 23.67 10.597 23.67 23.67" fill="#3A2000"/>
        <path d="M29.717 28.367c-13.072 0-23.67 10.597-23.67 23.67 0 13.072 10.598 23.67 23.67 23.67 13.073 0 23.67-10.598 23.67-23.67 0-13.073-10.597-23.67-23.67-23.67m0 .928c12.54 0 22.742 10.202 22.742 22.742 0 12.54-10.202 22.741-22.742 22.741-12.54 0-22.741-10.202-22.741-22.741 0-12.54 10.201-22.742 22.741-22.742" fill-opacity=".6" fill="#1A1A1A"/>
        <path d="M29.717 72.318c-11.201 0-20.281-9.08-20.281-20.281 0-11.201 9.08-20.282 20.281-20.282 11.201 0 20.281 9.08 20.281 20.282 0 11.2-9.08 20.281-20.28 20.281z" fill="url(#bjz247h1qh)"/>
        <path d="M29.717 31.755c-11.2 0-20.281 9.08-20.281 20.282 0 11.2 9.08 20.281 20.281 20.281 11.201 0 20.281-9.08 20.281-20.281 0-11.201-9.08-20.282-20.28-20.282m0 .697c10.798 0 19.584 8.785 19.584 19.585s-8.786 19.585-19.585 19.585c-10.8 0-19.585-8.786-19.585-19.585 0-10.8 8.786-19.585 19.585-19.585" fill-opacity=".5" fill="#F2F2F2"/>
        <path d="M26.237 68.795a.875.875 0 0 1-.875-.875v-2.262a.875.875 0 1 1 1.75 0v2.262a.875.875 0 0 1-.875.875M29.717 68.795a.875.875 0 0 1-.875-.875v-2.262a.875.875 0 1 1 1.75 0v2.262a.875.875 0 0 1-.875.875M33.197 68.795a.875.875 0 0 1-.875-.875v-2.262a.875.875 0 1 1 1.75 0v2.262a.875.875 0 0 1-.875.875M17.856 60.579c.66 1.16-.932 2.288-1.758 1.24a17.499 17.499 0 0 1-.078-.101c-1.83-2.314-2.96-5.147-3.374-8.087-.423-2.937.073-6.136 1.55-8.712.698-1.309 1.659-2.477 2.713-3.446 1.054-.942 2.194-1.827 3.459-2.453-.877 1.112-1.688 2.19-2.422 3.344a16.212 16.212 0 0 0-1.776 3.465c-.895 2.417-1.108 4.913-.766 7.428a20.781 20.781 0 0 0 2.413 7.254l.039.068M19.682 63.615a.928.928 0 1 1-1.857 0 .928.928 0 0 1 1.857 0M21.898 65.471a.928.928 0 1 1-1.857 0 .928.928 0 0 1 1.857 0M41.579 60.579c-.661 1.16.931 2.288 1.757 1.24l.079-.101c1.83-2.314 2.96-5.147 3.374-8.087.422-2.937-.074-6.136-1.552-8.712-.697-1.309-1.657-2.477-2.712-3.446-1.054-.942-2.194-1.827-3.458-2.453.876 1.112 1.687 2.19 2.42 3.344a16.212 16.212 0 0 1 1.777 3.465c.895 2.417 1.109 4.913.766 7.428a20.781 20.781 0 0 1-2.413 7.254l-.038.068M39.752 63.615a.928.928 0 1 0 1.857 0 .928.928 0 0 0-1.857 0M37.537 65.471a.928.928 0 1 0 1.856 0 .928.928 0 0 0-1.856 0" fill="#3A2000"/>
        <path d="M33.346 60.36V40.266h-4.541a8.852 8.852 0 0 1-2.426 3.127c-1.033.845-2.484 1.568-4.353 2.17v4.5c1.267-.385 2.32-.79 3.16-1.212.84-.422 1.71-.975 2.608-1.658V60.36h5.552z" fill="#3A2000" fill-rule="nonzero"/>
    </g>
</svg>
