<svg width="110" height="162" xmlns="http://www.w3.org/2000/svg" xmlns:xlink="http://www.w3.org/1999/xlink">
    <defs>
        <linearGradient x1="47.219%" y1="54.731%" x2="47.219%" y2="-49.461%" id="c">
            <stop stop-color="#FFD600" offset="0%"/>
            <stop stop-color="#FFAC00" offset="100%"/>
        </linearGradient>
        <linearGradient x1="0%" y1="12.267%" x2="122.718%" y2="12.267%" id="d">
            <stop stop-color="#FFED00" offset="0%"/>
            <stop stop-color="#FFD300" offset="39.332%"/>
            <stop stop-color="#FFA700" offset="100%"/>
        </linearGradient>
        <linearGradient x1="100%" y1="78.928%" x2="10.023%" y2="78.928%" id="e">
            <stop stop-color="#FFF5AB" offset="0%"/>
            <stop stop-color="#FEE873" offset="100%"/>
        </linearGradient>
        <linearGradient x1="82.387%" y1="70.235%" x2="17.864%" y2="30.874%" id="f">
            <stop stop-color="#FFF5AB" offset="0%"/>
            <stop stop-color="#FFE24A" offset="100%"/>
        </linearGradient>
        <linearGradient x1="50%" y1="-4.236%" x2="50%" y2="73.459%" id="g">
            <stop stop-color="#FFF000" offset="0%"/>
            <stop stop-color="#FFC100" offset="100%"/>
        </linearGradient>
        <linearGradient x1="0%" y1="50%" x2="100%" y2="50%" id="h">
            <stop stop-color="#FFF000" offset="0%"/>
            <stop stop-color="#FFF8BE" offset="29.71%"/>
            <stop stop-color="#FFC100" offset="100%"/>
        </linearGradient>
        <linearGradient x1="50%" y1="0%" x2="50%" y2="100%" id="k">
            <stop stop-color="#C238A4" offset="0%"/>
            <stop stop-color="#8F1A6B" offset="100%"/>
        </linearGradient>
        <path id="a" d="M.327.528h7.938v16.667H.327z"/>
        <path id="l" d="M.799.7h7.578v10.416H.8z"/>
        <path d="M6.586 17.195c2.439-1.513 3.791-3.845 4.646-6.141l1.655-.143-1.53 6.16h2.563l1.53-6.16h1.905l.623-2.474h-1.905l.57-2.278h1.495l.605-2.439-1.317.125c.659-.801 1.424-1.762 2.154-2.67L17.035 0c-.57 1.121-1.531 2.563-2.314 3.596l-2.653.124 1.407-.41c-.054-.818-.41-2.064-.766-2.972l-2.278.623c.285.801.48 1.834.534 2.617l-2.012.142-.605 2.439h1.691l-.57 2.278H7.228l-.623 2.474 2.154-.142c-.623 1.638-1.78 3.418-3.614 4.468.552.498 1.14 1.335 1.442 1.958zm-3.56-.641c.64-.48.89-1.14 1.175-2.296l.961-3.827 1.477-.392.214-2.314-1.086.267.534-2.136h1.3l.587-2.367h-1.3l.82-3.24H5.214l-.818 3.24H2.723l-.587 2.367h1.673l-.8 2.706c-.766.16-1.478.32-2.083.427l.07 2.51 1.514-.392-.712 2.848a.67.67 0 0 1-.641.445c-.107 0-.712.018-1.157-.142.267.712.231 1.815.25 2.474 1.138.142 1.957.16 2.776-.178zM13.51 8.437h-1.53l.569-2.278h1.53l-.569 2.278zm12.3 8.384c.961-.445 1.335-1.032 1.691-2.474l.605-2.457h6.889l.64-2.527h-6.888l.41-1.656h5.802l.623-2.474H29.78l.606-1.976c1.958-.231 3.844-.516 5.589-.907L34.372.125c-3.186.747-8.064 1.246-12.336 1.281.232.57.25 1.602.267 2.243 1.656.107 3.471.036 5.323-.125l-.57 1.71h-5.66l-.623 2.473h5.678l-.41 1.656h-6.924l-.64 2.527H25.4l-.517 2.119c-.089.356-.445.623-.979.623h-.188c-.524-.003-1.795-.022-2.749-.16.339.658.517 1.797.606 2.51 1.726.16 3.079.16 4.236-.161zm23.994.25c1.424 0 2.012-.89 2.635-3.009-.445-.516-.908-1.157-1.21-1.905-.268 1.318-.73 2.332-1.122 2.332-.872.018-.303-3.061.73-6.995l-11.16-.036a23.638 23.638 0 0 0 2.42-2.403l-.48 1.62h10.359l.516-2.083-10.11.125.328-.392a4.38 4.38 0 0 0 .152-.195l11.339-.125.534-2.154-10.288.143.605-.98L42.578.09c-1.371 2.439-3.525 4.824-5.518 6.123.623.427 1.584 1.175 2.047 1.709.017 0 .16-.107.302-.231l-.552 1.869 8.883-.143c-.873 4.201-.89 7.654 2.064 7.654zM3.275 38.115c.641-.48.89-1.122 1.175-2.279l1.05-3.684 1.798-.48.16-2.51-1.424.338.499-1.994h1.602l.623-2.51H7.156l.818-3.24H5.518l-.819 3.24H2.812l-.623 2.51h1.887l-.747 2.545c-.873.196-1.656.356-2.314.48l.053 2.689 1.691-.427-.676 2.74a.67.67 0 0 1-.641.446H1.36c-.207-.004-.699-.022-1.075-.143.249.712.231 1.798.267 2.457 1.121.142 1.94.142 2.723-.178zm12.834.178.64-2.546-1.672.143c1.299-3.756 2.99-9.132 4.29-13.617L9.95 22.13l-.57 2.314 2.51-.142a93.673 93.673 0 0 1-1.335 3.934l-2.136.142-.623 2.457 1.87-.143c-.66 1.745-1.336 3.436-1.923 4.913l-2.296.142-.641 2.546h11.303zm-3.026-9.772c.48-1.335.961-2.653 1.406-3.934l1.727-.285a139.181 139.181 0 0 1-1.21 3.934l-1.923.285zm-2.777 7.369c.57-1.46 1.21-3.15 1.87-4.913l2.064-.285a183.806 183.806 0 0 1-1.709 4.913l-2.225.285zm21.787 2.759c.463-.677 1.674-1.87 2.332-2.368-3.026-1.37-4.396-3.88-4.752-7.102l6.14-.142.66-2.688-6.854.142c.534-1.566.926-3.132 1.317-4.61l-2.776-.285c-.392 1.478-.766 3.044-1.282 4.61l-6.355.143-.658 2.688 5.892-.143c-1.442 2.902-3.845 5.66-8.064 7.334.73.623 1.246 1.513 1.584 2.278 3.845-1.602 6.248-4.005 8.046-6.888.57 3.008 1.976 5.464 4.77 7.03zm8.26-.018 1.708-6.55c.32.605.57 1.228.748 1.726l1.994-1.94c-.339-.392-1.371-1.798-1.94-2.439a23.272 23.272 0 0 0 2.972-3.72l-1.175-1.121-.445.089h-1.014l1.192-.534c-.178-.712-.64-1.745-1.139-2.492l-2.136.908c.338.587.623 1.335.801 1.993l-3.133.125-.587 2.314 3.987-.125c-1.549 1.762-3.702 3.4-5.607 4.165.25.606.338 2.012.374 2.813.8-.303 1.637-.783 2.51-1.424l-1.638 6.212h2.528zm8.722-.463c2.064 0 2.848-1.103 3.773-4.29-.623-.302-1.53-.765-1.993-1.37-.641 2.563-1.086 3.346-1.71 3.346h-1.663c-.462-.007-.397-.084-.152-1.05l3.204-12.852h-2.58l-3.134 12.55c-.658 2.67-.178 3.666 2.065 3.666h2.19z" id="o"/>
        <filter x="-2.7%" y="-7.2%" width="105.5%" height="114.4%" filterUnits="objectBoundingBox" id="j">
            <feOffset dx="-6" dy="-6" in="SourceAlpha" result="shadowOffsetInner1"/>
            <feComposite in="shadowOffsetInner1" in2="SourceAlpha" operator="arithmetic" k2="-1" k3="1" result="shadowInnerInner1"/>
            <feColorMatrix values="0 0 0 0 0 0 0 0 0 0 0 0 0 0 0 0 0 0 0.247464694 0" in="shadowInnerInner1"/>
        </filter>
        <filter x="-14%" y="-15.5%" width="130.2%" height="141.1%" filterUnits="objectBoundingBox" id="n">
            <feMorphology radius="1.854" operator="dilate" in="SourceAlpha" result="shadowSpreadOuter1"/>
            <feOffset dx="1" dy="2" in="shadowSpreadOuter1" result="shadowOffsetOuter1"/>
            <feGaussianBlur stdDeviation="1.5" in="shadowOffsetOuter1" result="shadowBlurOuter1"/>
            <feComposite in="shadowBlurOuter1" in2="SourceAlpha" operator="out" result="shadowBlurOuter1"/>
            <feColorMatrix values="0 0 0 0 0.855064282 0 0 0 0 0.111221467 0 0 0 0 0.626189569 0 0 0 1 0" in="shadowBlurOuter1"/>
        </filter>
        <rect id="i" x="0" y="0" width="110" height="41.667" rx="20.833"/>
    </defs>
    <g fill="none" fill-rule="evenodd">
        <g transform="translate(77.5 5)">
            <mask id="b" fill="#fff">
                <use xlink:href="#a"/>
            </mask>
            <path d="m1.494.528 6.77 3.298s-1.91 7.119-1.214 11.806l-3.646 1.563s-5.382-3.82-1.91-16.667" fill="#F97E50" mask="url(#b)"/>
        </g>
        <path d="M54.467 3c6.01 0 10.882 4.798 10.882 10.716l-.004.255h7.263c1.56 0 2.826 1.246 2.826 2.783v3.285a2.76 2.76 0 0 1-1.06 2.171c18.25 7.66 31.043 25.488 31.043 46.258 0 20.233-12.141 37.674-29.64 45.644h1.257l4.513 5.555h-54.16l4.514-5.556 1.072.001c-17.499-7.97-29.64-25.41-29.64-45.644 0-20.815 12.85-38.676 31.163-46.308a2.763 2.763 0 0 1-.994-2.121v-3.285c0-1.537 1.264-2.782 2.824-2.782h7.262a10.379 10.379 0 0 1-.003-.256C43.585 7.798 48.457 3 54.467 3z" stroke="#8F1A6B" stroke-width="5"/>
        <path d="M0 11.83C0 5.297 5.296 0 11.83 0s11.83 5.297 11.83 11.83c0 6.534-5.296 11.83-11.83 11.83S0 18.364 0 11.83z" fill="url(#c)" transform="rotate(132 11.669 36.816)"/>
        <path d="M23.66 11.83c0 6.534-5.296 11.83-11.83 11.83C5.297 23.66 0 18.364 0 11.83h23.66z" fill="url(#d)" transform="rotate(132 11.669 36.816)"/>
        <path d="M23.915 44.576a11.807 11.807 0 0 1 10.419 3.265l2.367-2.63a11.835 11.835 0 0 0-12.786-.635z" fill="#FEF3A5"/>
        <path d="M20.785 48.842a11.18 11.18 0 0 0 4.104 9.487l-2.241 2.49a11.206 11.206 0 0 1-1.863-11.977z" fill="#FF8600"/>
        <path d="M22.624 61.989c4.603 4.145 11.695 3.773 15.84-.83 4.144-4.604 3.773-11.695-.83-15.84l-15.01 16.67z" fill="#FFF"/>
        <path d="M21.66 11.83c0-5.429-4.4-9.83-9.83-9.83C6.402 2 2 6.401 2 11.83h19.66z" fill="url(#e)" transform="rotate(132 11.669 36.816)"/>
        <path d="M36.24 57.295a2.34 2.34 0 1 1 3.132-3.478 2.34 2.34 0 0 1-3.132 3.478z" fill="#FFF"/>
        <path d="M0 11.83C0 5.297 5.296 0 11.83 0s11.83 5.297 11.83 11.83c0 6.534-5.296 11.83-11.83 11.83S0 18.364 0 11.83z" fill="url(#c)" transform="rotate(-116 60.35 14.557)"/>
        <path d="M23.66 11.83c0 6.534-5.296 11.83-11.83 11.83C5.297 23.66 0 18.364 0 11.83h23.66z" fill="url(#d)" transform="rotate(-116 60.35 14.557)"/>
        <path d="M89.913 57.002a11.807 11.807 0 0 1-6.93 8.437l1.552 3.18a11.835 11.835 0 0 0 5.378-11.617z" fill="#FEF3A5"/>
        <path d="M87.131 52.5a11.18 11.18 0 0 0-10.334.253l-1.469-3.01A11.206 11.206 0 0 1 87.131 52.5z" fill="#FF8600"/>
        <path d="M74.253 49.281c-5.568 2.716-7.88 9.43-5.164 14.997 2.715 5.568 9.43 7.88 14.997 5.165L74.253 49.28z" fill="#FFF"/>
        <path d="M21.66 11.83c0-5.429-4.4-9.83-9.83-9.83C6.402 2 2 6.401 2 11.83h19.66z" fill="url(#e)" transform="rotate(-116 60.35 14.557)"/>
        <path d="M73.504 63.664a2.34 2.34 0 1 1 2.05 4.207 2.34 2.34 0 0 1-2.05-4.207z" fill="#FFF"/>
        <path d="M0 11.83C0 5.297 5.296 0 11.83 0s11.83 5.297 11.83 11.83c0 6.534-5.296 11.83-11.83 11.83S0 18.364 0 11.83z" fill="url(#c)" transform="rotate(57 -16.89 85.721)"/>
        <path d="M23.66 11.83c0 6.534-5.296 11.83-11.83 11.83C5.297 23.66 0 18.364 0 11.83h23.66z" fill="url(#d)" transform="rotate(57 -16.89 85.721)"/>
        <path d="M50.346 73.216a11.807 11.807 0 0 1 5.85-9.218l-1.927-2.967a11.835 11.835 0 0 0-3.923 12.185z" fill="#FEF3A5"/>
        <path d="M53.655 77.345a11.18 11.18 0 0 0 10.227-1.51l1.825 2.81a11.206 11.206 0 0 1-12.052-1.3z" fill="#FF8600"/>
        <path d="M66.83 78.97c5.196-3.373 6.672-10.32 3.298-15.514-3.373-5.195-10.32-6.672-15.514-3.298L66.83 78.971z" fill="#FFF"/>
        <path d="M21.66 11.83c0-5.429-4.4-9.83-9.83-9.83C6.402 2 2 6.401 2 11.83h19.66z" fill="url(#e)" transform="rotate(57 -16.89 85.721)"/>
        <path d="M65.821 64.604a2.34 2.34 0 1 1-2.549-3.926 2.34 2.34 0 0 1 2.55 3.926z" fill="#FFF"/>
        <path d="M0 11.83C0 5.297 5.296 0 11.83 0s11.83 5.297 11.83 11.83c0 6.534-5.296 11.83-11.83 11.83S0 18.364 0 11.83z" fill="url(#c)" transform="rotate(-2 2002.633 -1128.057)"/>
        <path d="M23.66 11.83c0 6.534-5.296 11.83-11.83 11.83C5.297 23.66 0 18.364 0 11.83h23.66z" fill="url(#d)" transform="rotate(-2 2002.633 -1128.057)"/>
        <path d="M50.61 91.39a11.807 11.807 0 0 1-4.888-9.763l-3.536.124a11.835 11.835 0 0 0 8.425 9.638z" fill="#FEF3A5"/>
        <path d="M55.854 90.678a11.18 11.18 0 0 0 3.973-9.543l3.348-.117a11.206 11.206 0 0 1-7.321 9.66z" fill="#FF8600"/>
        <path d="M64.033 80.222c-.216-6.19-5.41-11.033-11.6-10.817-6.19.216-11.034 5.41-10.817 11.6l22.417-.783z" fill="#FFF"/>
        <path d="M21.66 11.83c0-5.429-4.4-9.83-9.83-9.83C6.402 2 2 6.401 2 11.83h19.66z" fill="url(#e)" transform="rotate(-2 2002.633 -1128.057)"/>
        <path d="M51.199 73.688a2.34 2.34 0 1 1-4.678.163 2.34 2.34 0 0 1 4.678-.163z" fill="#FFF"/>
        <g>
            <path d="M0 11.83C0 5.297 5.296 0 11.83 0s11.83 5.297 11.83 11.83c0 6.534-5.296 11.83-11.83 11.83S0 18.364 0 11.83z" fill="url(#c)" transform="rotate(-22 206.109 -149.797)"/>
            <path d="M23.66 11.83c0 6.534-5.296 11.83-11.83 11.83C5.297 23.66 0 18.364 0 11.83h23.66z" fill="url(#d)" transform="rotate(-22 206.109 -149.797)"/>
            <path d="M88.129 83.722a11.807 11.807 0 0 1-7.933-7.501l-3.28 1.325a11.835 11.835 0 0 0 11.213 6.176z" fill="#FEF3A5"/>
            <path d="M92.812 81.26a11.18 11.18 0 0 0 .47-10.326l3.106-1.255a11.206 11.206 0 0 1-3.576 11.582z" fill="#FF8600"/>
            <path d="M96.923 68.638c-2.32-5.744-8.858-8.518-14.6-6.198-5.744 2.32-8.52 8.857-6.199 14.6l20.799-8.402z" fill="#FFF"/>
            <path d="M21.66 11.83c0-5.429-4.4-9.83-9.83-9.83C6.402 2 2 6.401 2 11.83h19.66z" fill="url(#e)" transform="rotate(-22 206.109 -149.797)"/>
            <path d="M82.627 66.887a2.34 2.34 0 1 1-4.34 1.753 2.34 2.34 0 0 1 4.34-1.753z" fill="#FFF"/>
        </g>
        <g>
            <path d="M0 11.83C0 5.297 5.296 0 11.83 0s11.83 5.297 11.83 11.83c0 6.534-5.296 11.83-11.83 11.83S0 18.364 0 11.83z" fill="url(#c)" transform="rotate(-2 2514.882 -1383.803)"/>
            <path d="M23.66 11.83c0 6.534-5.296 11.83-11.83 11.83C5.297 23.66 0 18.364 0 11.83h23.66z" fill="url(#d)" transform="rotate(-2 2514.882 -1383.803)"/>
            <path d="M59.848 109.11a11.807 11.807 0 0 1-4.889-9.761l-3.535.123a11.835 11.835 0 0 0 8.424 9.639z" fill="#FEF3A5"/>
            <path d="M65.091 108.4a11.18 11.18 0 0 0 3.974-9.544l3.347-.117a11.206 11.206 0 0 1-7.32 9.66z" fill="#FF8600"/>
            <path d="M73.27 97.944c-.215-6.191-5.41-11.034-11.6-10.817-6.19.216-11.033 5.409-10.817 11.6l22.418-.783z" fill="#FFF"/>
            <path d="M21.66 11.83c0-5.429-4.4-9.83-9.83-9.83C6.402 2 2 6.401 2 11.83h19.66z" fill="url(#e)" transform="rotate(-2 2514.882 -1383.803)"/>
            <path d="M60.436 91.41a2.34 2.34 0 1 1-4.678.162 2.34 2.34 0 0 1 4.678-.162z" fill="#FFF"/>
        </g>
        <g>
            <path d="M0 11.83C0 5.297 5.296 0 11.83 0s11.83 5.297 11.83 11.83c0 6.534-5.296 11.83-11.83 11.83S0 18.364 0 11.83z" fill="url(#c)" transform="rotate(37 -75.696 151.054)"/>
            <path d="M23.66 11.83c0 6.534-5.296 11.83-11.83 11.83C5.297 23.66 0 18.364 0 11.83h23.66z" fill="url(#d)" transform="rotate(37 -75.696 151.054)"/>
            <path d="M69.49 99.52a11.807 11.807 0 0 1 2.345-10.663l-2.826-2.13a11.835 11.835 0 0 0 .482 12.793z" fill="#FEF3A5"/>
            <path d="M74.013 102.267a11.18 11.18 0 0 0 9.094-4.916l2.675 2.016a11.206 11.206 0 0 1-11.77 2.9z" fill="#FF8600"/>
            <path d="M86.95 99.29c3.728-4.948 2.739-11.98-2.208-15.708-4.947-3.728-11.979-2.74-15.707 2.207l17.915 13.5z" fill="#FFF"/>
            <path d="M21.66 11.83c0-5.429-4.4-9.83-9.83-9.83C6.402 2 2 6.401 2 11.83h19.66z" fill="url(#e)" transform="rotate(37 -75.696 151.054)"/>
            <path d="M81.087 86.134a2.34 2.34 0 1 1-3.737-2.817 2.34 2.34 0 0 1 3.737 2.817z" fill="#FFF"/>
        </g>
        <g>
            <path d="M0 11.83C0 5.297 5.296 0 11.83 0s11.83 5.297 11.83 11.83c0 6.534-5.296 11.83-11.83 11.83S0 18.364 0 11.83z" fill="url(#c)" transform="rotate(25 -109.166 185.304)"/>
            <path d="M23.66 11.83c0 6.534-5.296 11.83-11.83 11.83C5.297 23.66 0 18.364 0 11.83h23.66z" fill="url(#d)" transform="rotate(25 -109.166 185.304)"/>
            <path d="M66.942 87.814a11.807 11.807 0 0 1 .076-10.917l-3.206-1.495a11.835 11.835 0 0 0 3.13 12.412z" fill="#FEF3A5"/>
            <path d="M71.937 89.561a11.18 11.18 0 0 0 7.873-6.699l3.036 1.416a11.206 11.206 0 0 1-10.91 5.283z" fill="#FF8600"/>
            <path d="M83.972 83.959c2.618-5.615.188-12.287-5.425-14.905-5.614-2.618-12.287-.19-14.905 5.425l20.33 9.48z" fill="#FFF"/>
            <path d="M21.66 11.83c0-5.429-4.4-9.83-9.83-9.83C6.402 2 2 6.401 2 11.83h19.66z" fill="url(#e)" transform="rotate(25 -109.166 185.304)"/>
            <path d="M75.502 72.31a2.34 2.34 0 1 1-4.241-1.979 2.34 2.34 0 0 1 4.241 1.979z" fill="#FFF"/>
        </g>
        <g>
            <path d="M0 11.83C0 5.297 5.296 0 11.83 0s11.83 5.297 11.83 11.83c0 6.534-5.296 11.83-11.83 11.83S0 18.364 0 11.83z" fill="url(#c)" transform="rotate(-24 153.535 23.573)"/>
            <path d="M23.66 11.83c0 6.534-5.296 11.83-11.83 11.83C5.297 23.66 0 18.364 0 11.83h23.66z" fill="url(#d)" transform="rotate(-24 153.535 23.573)"/>
            <path d="M21.29 81.302a11.807 11.807 0 0 1-8.19-7.22l-3.233 1.44a11.835 11.835 0 0 0 11.422 5.78z" fill="#FEF3A5"/>
            <path d="M25.884 78.679a11.18 11.18 0 0 0 .11-10.337l3.06-1.363a11.206 11.206 0 0 1-3.17 11.7z" fill="#FF8600"/>
            <path d="M29.551 65.92c-2.52-5.659-9.15-8.203-14.807-5.684-5.66 2.52-8.205 9.149-5.685 14.808l20.492-9.124z" fill="#FFF"/>
            <path d="M21.66 11.83c0-5.429-4.4-9.83-9.83-9.83C6.402 2 2 6.401 2 11.83h19.66z" fill="url(#e)" transform="rotate(-24 153.535 23.573)"/>
            <path d="M15.203 64.67a2.34 2.34 0 1 1-4.276 1.903 2.34 2.34 0 0 1 4.276-1.903z" fill="#FFF"/>
        </g>
        <g>
            <path d="M0 11.83C0 5.297 5.296 0 11.83 0s11.83 5.297 11.83 11.83c0 6.534-5.296 11.83-11.83 11.83S0 18.364 0 11.83z" fill="url(#c)" transform="rotate(22 -198.907 133.97)"/>
            <path d="M23.66 11.83c0 6.534-5.296 11.83-11.83 11.83C5.297 23.66 0 18.364 0 11.83h23.66z" fill="url(#d)" transform="rotate(22 -198.907 133.97)"/>
            <path d="M35.835 108.611a11.807 11.807 0 0 1-.496-10.907l-3.28-1.325a11.835 11.835 0 0 0 3.776 12.232z" fill="#FEF3A5"/>
            <path d="M40.913 110.094a11.18 11.18 0 0 0 7.512-7.102l3.106 1.255a11.206 11.206 0 0 1-10.618 5.847z" fill="#FF8600"/>
            <path d="M52.639 103.87c2.32-5.744-.455-12.28-6.198-14.601-5.743-2.32-12.28.454-14.6 6.197l20.798 8.403z" fill="#FFF"/>
            <path d="M21.66 11.83c0-5.429-4.4-9.83-9.83-9.83C6.402 2 2 6.401 2 11.83h19.66z" fill="url(#e)" transform="rotate(22 -198.907 133.97)"/>
            <path d="M43.571 92.68a2.34 2.34 0 1 1-4.34-1.754 2.34 2.34 0 0 1 4.34 1.753z" fill="#FFF"/>
        </g>
        <g>
            <path d="M0 11.83C0 5.297 5.296 0 11.83 0s11.83 5.297 11.83 11.83c0 6.534-5.296 11.83-11.83 11.83S0 18.364 0 11.83z" fill="url(#c)" transform="rotate(-32 155.556 17.338)"/>
            <path d="M23.66 11.83c0 6.534-5.296 11.83-11.83 11.83C5.297 23.66 0 18.364 0 11.83h23.66z" fill="url(#d)" transform="rotate(-32 155.556 17.338)"/>
            <path d="M34.221 99.268a11.807 11.807 0 0 1-9.115-6.01l-3 1.876a11.835 11.835 0 0 0 12.115 4.134z" fill="#FEF3A5"/>
            <path d="M38.407 96.031a11.18 11.18 0 0 0-1.331-10.251l2.84-1.775a11.206 11.206 0 0 1-1.51 12.026z" fill="#FF8600"/>
            <path d="M40.263 82.886c-3.283-5.253-10.202-6.85-15.455-3.568-5.253 3.283-6.851 10.202-3.568 15.455l19.023-11.887z" fill="#FFF"/>
            <path d="M21.66 11.83c0-5.429-4.4-9.83-9.83-9.83C6.402 2 2 6.401 2 11.83h19.66z" fill="url(#e)" transform="rotate(-32 155.556 17.338)"/>
            <path d="M25.88 83.645a2.34 2.34 0 1 1-3.97 2.48 2.34 2.34 0 0 1 3.97-2.48z" fill="#FFF"/>
        </g>
        <g>
            <path d="M0 11.83C0 5.297 5.296 0 11.83 0s11.83 5.297 11.83 11.83c0 6.534-5.296 11.83-11.83 11.83S0 18.364 0 11.83z" fill="url(#c)" transform="translate(26.574 58.42)"/>
            <path d="M23.66 11.83c0 6.534-5.296 11.83-11.83 11.83C5.297 23.66 0 18.364 0 11.83h23.66z" fill="url(#d)" transform="translate(26.574 58.42)"/>
            <path d="M35.815 80.942a11.807 11.807 0 0 1-4.545-9.927h-3.538a11.835 11.835 0 0 0 8.083 9.927z" fill="#FEF3A5"/>
            <path d="M41.08 80.415a11.18 11.18 0 0 0 4.304-9.4h3.35a11.206 11.206 0 0 1-7.654 9.4z" fill="#FF8600"/>
            <path d="M49.62 70.25c0-6.194-5.022-11.215-11.216-11.215-6.195 0-11.216 5.021-11.216 11.216H49.62z" fill="#FFF"/>
            <path d="M21.66 11.83c0-5.429-4.4-9.83-9.83-9.83C6.402 2 2 6.401 2 11.83h19.66z" fill="url(#e)" transform="translate(26.574 58.42)"/>
            <path d="M37.02 63.272a2.34 2.34 0 1 1-4.68 0 2.34 2.34 0 0 1 4.68 0z" fill="#FFF"/>
        </g>
        <g>
            <path d="M0 11.83C0 5.297 5.296 0 11.83 0s11.83 5.297 11.83 11.83c0 6.534-5.296 11.83-11.83 11.83S0 18.364 0 11.83z" fill="url(#c)" transform="rotate(25 -45.36 150.723)"/>
            <path d="M23.66 11.83c0 6.534-5.296 11.83-11.83 11.83C5.297 23.66 0 18.364 0 11.83h23.66z" fill="url(#d)" transform="rotate(25 -45.36 150.723)"/>
            <path d="M58.306 57.61a11.807 11.807 0 0 1 .076-10.918l-3.206-1.495a11.835 11.835 0 0 0 3.13 12.412z" fill="#FEF3A5"/>
            <path d="M63.3 59.356a11.18 11.18 0 0 0 7.874-6.7l3.036 1.416a11.206 11.206 0 0 1-10.91 5.284z" fill="#FF8600"/>
            <path d="M75.336 53.753c2.618-5.614.188-12.287-5.425-14.904-5.615-2.618-12.287-.19-14.905 5.424l20.33 9.48z" fill="#FFF"/>
            <path d="M21.66 11.83c0-5.429-4.4-9.83-9.83-9.83C6.402 2 2 6.401 2 11.83h19.66z" fill="url(#e)" transform="rotate(25 -45.36 150.723)"/>
            <path d="M66.866 42.104a2.34 2.34 0 1 1-4.242-1.978 2.34 2.34 0 0 1 4.242 1.978z" fill="#FFF"/>
        </g>
        <path d="M101.414 65.468c0 27.76-22.503 50.262-50.262 50.262-27.76 0-50.263-22.503-50.263-50.262 0-27.76 22.503-50.263 50.263-50.263 27.76 0 50.262 22.504 50.262 50.263z" fill-opacity=".3" fill="url(#f)" transform="translate(3.333 3)"/>
        <path d="M87.824 40.296c3.695 7.012 5.793 15.027 5.793 23.542 0 27.345-21.62 49.546-48.408 49.859a44.065 44.065 0 0 0 11.224 1.446c24.305 0 44.008-19.702 44.008-44.007 0-12.013-4.815-22.9-12.617-30.84z" fill-opacity=".5" fill="#FFC400"/>
        <path d="M20.176 99.91c-3.695-7.012-5.793-15.027-5.793-23.542 0-27.345 21.62-49.546 48.408-49.858a44.07 44.07 0 0 0-11.224-1.447c-24.305 0-44.008 19.703-44.008 44.007 0 12.013 4.815 22.9 12.617 30.84z" fill-opacity=".69" fill="#FFF"/>
        <path fill="#EB4200" d="M76.798 114.111H32.353l-4.444 5.556h53.333z"/>
        <path d="M61.959 10.716c0 5.918-4.798 5.919-10.716 5.919-5.919 0-10.716-.001-10.716-5.919C40.527 4.798 45.324 0 51.243 0c5.918 0 10.716 4.798 10.716 10.716" fill="url(#g)" transform="translate(3.333 3)"/>
        <path d="M56.92 4.032a10.695 10.695 0 0 1 4.118 8.991h3.205a10.72 10.72 0 0 0-7.323-8.991" fill="#EB4200"/>
        <path d="M52.152 4.509a10.128 10.128 0 0 0-3.899 8.514h-3.035a10.152 10.152 0 0 1 6.934-8.514" fill="#FEF3A5"/>
        <path d="M69.107 19.82H33.378a2.781 2.781 0 0 1-2.781-2.781v-3.285a2.781 2.781 0 0 1 2.781-2.782h35.729a2.782 2.782 0 0 1 2.782 2.782v3.285a2.782 2.782 0 0 1-2.782 2.782" fill="url(#h)" transform="translate(3.333 3)"/>
        <path d="M71.819 21.99H34.73c.505.512 1.206.83 1.982.83H72.44a2.782 2.782 0 0 0 2.781-2.781v-1.452a3.403 3.403 0 0 1-3.402 3.403" fill="#F86D00"/>
        <path d="M71.819 14.802H34.73a2.772 2.772 0 0 1 1.98-.83h35.73a2.781 2.781 0 0 1 2.78 2.782v1.451a3.403 3.403 0 0 0-3.402-3.403" fill="#FEF3A5"/>
        <g>
            <g transform="translate(0 119.667)">
                <use fill="#FFABD6" xlink:href="#i"/>
                <use fill="#000" filter="url(#j)" xlink:href="#i"/>
                <rect stroke="#8F1A6B" stroke-width="3.333" stroke-linejoin="square" x="1.667" y="1.667" width="106.667" height="38.333" rx="19.167"/>
            </g>
            <g transform="translate(14.167 131.333)" fill="url(#k)" fill-rule="nonzero">
                <path d="M3.024 16.542c.648-.486.9-1.134 1.188-2.304l1.062-3.726 1.818-.486.162-2.538-1.44.342.504-2.016h1.62l.63-2.538h-1.62L7.776 0H5.292l-.828 3.276H2.556l-.63 2.538h1.908l-.756 2.574c-.882.198-1.674.36-2.34.486l.054 2.718 1.71-.432-.684 2.772a.678.678 0 0 1-.648.45h-.083C.877 14.378.38 14.36 0 14.237c.252.72.234 1.818.27 2.484 1.134.144 1.962.144 2.754-.18zm12.978.18.648-2.574-1.692.144c1.314-3.798 3.024-9.234 4.338-13.77L9.774.378l-.576 2.34 2.538-.144a94.725 94.725 0 0 1-1.35 3.978l-2.16.144-.63 2.484 1.89-.144c-.666 1.764-1.35 3.474-1.944 4.968l-2.322.144-.648 2.574h11.43zm-3.06-9.882c.486-1.35.972-2.682 1.422-3.978l1.746-.288a140.745 140.745 0 0 1-1.224 3.978l-1.944.288zm-2.808 7.452a380.722 380.722 0 0 0 1.89-4.968l2.088-.288a185.87 185.87 0 0 1-1.728 4.968l-2.25.288zm10.89 2.25c.648-.486.9-1.134 1.188-2.304l1.062-3.726 1.818-.486.162-2.538-1.44.342.504-2.016h1.62l.63-2.538h-1.62L25.776 0h-2.484l-.828 3.276h-1.908l-.63 2.538h1.908l-.756 2.574c-.882.198-1.674.36-2.34.486l.054 2.718 1.71-.432-.684 2.772a.678.678 0 0 1-.648.45h-.083c-.21-.003-.706-.022-1.087-.144.252.72.234 1.818.27 2.484 1.134.144 1.962.144 2.754-.18zm12.978.18.648-2.574-1.692.144c1.314-3.798 3.024-9.234 4.338-13.77L27.774.378l-.576 2.34 2.538-.144a94.725 94.725 0 0 1-1.35 3.978l-2.16.144-.63 2.484 1.89-.144c-.666 1.764-1.35 3.474-1.944 4.968l-2.322.144-.648 2.574h11.43zm-3.06-9.882c.486-1.35.972-2.682 1.422-3.978l1.746-.288a140.745 140.745 0 0 1-1.224 3.978l-1.944.288zm-2.808 7.452a380.722 380.722 0 0 0 1.89-4.968l2.088-.288a185.87 185.87 0 0 1-1.728 4.968l-2.25.288zm16.272 2.358c.846-.468 1.17-1.134 1.494-2.484l1.17-4.698h5.94l.684-2.628h-5.958l.702-2.844H45.72l-.702 2.844-3.438.144c.486-1.062.99-2.25 1.53-3.42 3.78-.234 7.902-.486 11.304-1.116L53.442 0c-3.402.63-8.208.99-12.51.918-.396 2.16-1.404 4.536-1.674 5.022-.342.81-.774 1.278-1.026 1.278.216.72.324 1.872.432 2.466.144-.054 1.404-.216 2.394-.216h3.294l-1.08 4.356c-.072.288-.36.504-.81.504h-.112c-.362-.002-1.315-.017-2.03-.144.324.72.378 1.89.432 2.628 1.44.162 2.61.18 3.654-.162zm-6.93-.63c1.332-1.116 3.294-3.096 4.716-4.806l-2.394-1.116c-1.152 1.476-2.916 3.186-4.23 4.14.594.468 1.476 1.206 1.908 1.782zm12.294-.162 2.61-.846c-.324-1.296-1.278-3.222-1.962-4.626l-2.376.684c.702 1.494 1.494 3.528 1.728 4.788zm10.836-.234c1.746 0 3.528-.63 4.68-1.53l1.494-6.372h-4.968l-.666 2.628h2.124l-.612 2.07a3.022 3.022 0 0 1-1.53.432c-2.358 0-3.078-1.404-2.448-3.906.684-2.772 2.646-4.464 4.752-4.464.99 0 1.584.342 2.07.936l2.052-1.836c-.738-.918-1.944-1.854-4.032-1.854-3.456 0-6.948 2.412-8.028 6.714-1.152 4.698 1.26 7.182 5.112 7.182zm12.69 0c3.528 0 6.498-2.484 7.56-6.714 1.134-4.536-.81-7.182-4.59-7.182-3.528 0-6.48 2.34-7.542 6.57-1.116 4.554.792 7.326 4.572 7.326zm.198-2.772c-1.638 0-2.232-1.494-1.62-3.942.684-2.754 2.304-4.428 4.194-4.428 1.638 0 2.268 1.386 1.656 3.816-.684 2.772-2.34 4.554-4.23 4.554z" stroke="#FFF" stroke-width="3.75"/>
                <path d="M3.024 16.542c.648-.486.9-1.134 1.188-2.304l1.062-3.726 1.818-.486.162-2.538-1.44.342.504-2.016h1.62l.63-2.538h-1.62L7.776 0H5.292l-.828 3.276H2.556l-.63 2.538h1.908l-.756 2.574c-.882.198-1.674.36-2.34.486l.054 2.718 1.71-.432-.684 2.772a.678.678 0 0 1-.648.45h-.083C.877 14.378.38 14.36 0 14.237c.252.72.234 1.818.27 2.484 1.134.144 1.962.144 2.754-.18zm12.978.18.648-2.574-1.692.144c1.314-3.798 3.024-9.234 4.338-13.77L9.774.378l-.576 2.34 2.538-.144a94.725 94.725 0 0 1-1.35 3.978l-2.16.144-.63 2.484 1.89-.144c-.666 1.764-1.35 3.474-1.944 4.968l-2.322.144-.648 2.574h11.43zm-3.06-9.882c.486-1.35.972-2.682 1.422-3.978l1.746-.288a140.745 140.745 0 0 1-1.224 3.978l-1.944.288zm-2.808 7.452a380.722 380.722 0 0 0 1.89-4.968l2.088-.288a185.87 185.87 0 0 1-1.728 4.968l-2.25.288zm10.89 2.25c.648-.486.9-1.134 1.188-2.304l1.062-3.726 1.818-.486.162-2.538-1.44.342.504-2.016h1.62l.63-2.538h-1.62L25.776 0h-2.484l-.828 3.276h-1.908l-.63 2.538h1.908l-.756 2.574c-.882.198-1.674.36-2.34.486l.054 2.718 1.71-.432-.684 2.772a.678.678 0 0 1-.648.45h-.083c-.21-.003-.706-.022-1.087-.144.252.72.234 1.818.27 2.484 1.134.144 1.962.144 2.754-.18zm12.978.18.648-2.574-1.692.144c1.314-3.798 3.024-9.234 4.338-13.77L27.774.378l-.576 2.34 2.538-.144a94.725 94.725 0 0 1-1.35 3.978l-2.16.144-.63 2.484 1.89-.144c-.666 1.764-1.35 3.474-1.944 4.968l-2.322.144-.648 2.574h11.43zm-3.06-9.882c.486-1.35.972-2.682 1.422-3.978l1.746-.288a140.745 140.745 0 0 1-1.224 3.978l-1.944.288zm-2.808 7.452a380.722 380.722 0 0 0 1.89-4.968l2.088-.288a185.87 185.87 0 0 1-1.728 4.968l-2.25.288zm16.272 2.358c.846-.468 1.17-1.134 1.494-2.484l1.17-4.698h5.94l.684-2.628h-5.958l.702-2.844H45.72l-.702 2.844-3.438.144c.486-1.062.99-2.25 1.53-3.42 3.78-.234 7.902-.486 11.304-1.116L53.442 0c-3.402.63-8.208.99-12.51.918-.396 2.16-1.404 4.536-1.674 5.022-.342.81-.774 1.278-1.026 1.278.216.72.324 1.872.432 2.466.144-.054 1.404-.216 2.394-.216h3.294l-1.08 4.356c-.072.288-.36.504-.81.504h-.112c-.362-.002-1.315-.017-2.03-.144.324.72.378 1.89.432 2.628 1.44.162 2.61.18 3.654-.162zm-6.93-.63c1.332-1.116 3.294-3.096 4.716-4.806l-2.394-1.116c-1.152 1.476-2.916 3.186-4.23 4.14.594.468 1.476 1.206 1.908 1.782zm12.294-.162 2.61-.846c-.324-1.296-1.278-3.222-1.962-4.626l-2.376.684c.702 1.494 1.494 3.528 1.728 4.788zm10.836-.234c1.746 0 3.528-.63 4.68-1.53l1.494-6.372h-4.968l-.666 2.628h2.124l-.612 2.07a3.022 3.022 0 0 1-1.53.432c-2.358 0-3.078-1.404-2.448-3.906.684-2.772 2.646-4.464 4.752-4.464.99 0 1.584.342 2.07.936l2.052-1.836c-.738-.918-1.944-1.854-4.032-1.854-3.456 0-6.948 2.412-8.028 6.714-1.152 4.698 1.26 7.182 5.112 7.182zm12.69 0c3.528 0 6.498-2.484 7.56-6.714 1.134-4.536-.81-7.182-4.59-7.182-3.528 0-6.48 2.34-7.542 6.57-1.116 4.554.792 7.326 4.572 7.326zm.198-2.772c-1.638 0-2.232-1.494-1.62-3.942.684-2.754 2.304-4.428 4.194-4.428 1.638 0 2.268 1.386 1.656 3.816-.684 2.772-2.34 4.554-4.23 4.554z"/>
            </g>
        </g>
        <path d="m96.856 23.833 4.155 3.217s-7.774 5.898-7.64 10.322c.134 4.423 3.083 3.753 7.64 3.753 4.558 0 7.775-.403 8.31 1.608.537 2.011.403 3.084-.804 4.021-1.205.939-4.422 2.815-5.093 5.899 0 0-.402-5.228 1.743-7.507 0 0-7.644 1.34-11.798-2.95-4.153-4.288-3.35-11.661 3.487-18.363" fill="#01FECD"/>
        <path d="m6.275 101.333 6.378 3.872s-3.645 5.468-2.05 10.935H4.908s-4.328-2.734 1.367-14.807" fill="#FDEE53"/>
        <path d="M12.5 30.768s0 7.518 6.834 7.518l2.733-3.76s-3.189.573-3.189-5.693L12.5 30.768z" fill="#F68BCE"/>
        <g transform="translate(35 53)">
            <mask id="m" fill="#fff">
                <use xlink:href="#l"/>
            </mask>
            <path d="M.799 1.568 3.75.7s6.944 3.125 3.82 10.416L1.667 9.901S3.75 5.214.799 1.568" fill="#FB87CF" mask="url(#m)"/>
        </g>
        <path d="m105.033 90.5-6.179 2.775v7.117l1.565.734c2.58-1.583 4.494-4.753 4.614-10.626" fill="#5B94FF"/>
        <path d="m91.91 94.664-6.077 5.729s8.904 4.221 14.586.733l-1.565-.733s-4.861-1.041-6.944-5.729" fill="#5B94FF"/>
        <g fill-rule="nonzero">
            <g transform="translate(27.5 54.667)">
                <use fill="#000" filter="url(#n)" xlink:href="#o"/>
                <use stroke="#FFF" stroke-width="3.708" fill="#8F1A6B" xlink:href="#o"/>
            </g>
            <path d="M34.086 71.861c2.439-1.513 3.791-3.844 4.646-6.14l1.655-.143-1.53 6.159h2.563l1.53-6.159h1.905l.623-2.474h-1.905l.57-2.279h1.495l.605-2.438-1.317.124c.659-.8 1.424-1.762 2.154-2.67l-2.545-1.174c-.57 1.121-1.531 2.563-2.314 3.595l-2.653.125 1.407-.41c-.054-.818-.41-2.064-.766-2.972l-2.278.623c.285.8.48 1.833.534 2.616l-2.012.143-.605 2.438h1.691l-.57 2.279h-2.242l-.623 2.474 2.154-.142c-.623 1.637-1.78 3.417-3.614 4.467.552.499 1.14 1.335 1.442 1.958zm-3.56-.64c.64-.48.89-1.14 1.175-2.297l.961-3.827 1.477-.391.214-2.314-1.086.267.534-2.136h1.3l.587-2.368h-1.3l.82-3.24h-2.493l-.818 3.24h-1.674l-.587 2.368h1.673l-.8 2.705c-.766.16-1.478.32-2.083.428l.07 2.51 1.514-.392-.712 2.848a.67.67 0 0 1-.641.445c-.107 0-.712.018-1.157-.143.267.712.231 1.816.25 2.475 1.138.142 1.957.16 2.776-.178zm10.484-8.117h-1.53l.569-2.279h1.53l-.569 2.279zm12.3 8.384c.961-.445 1.335-1.033 1.691-2.475l.605-2.456h6.889l.64-2.528h-6.888l.41-1.655h5.802l.623-2.474H57.28l.606-1.976c1.958-.231 3.844-.516 5.589-.908l-1.602-2.225c-3.186.748-8.064 1.246-12.336 1.282.232.57.25 1.602.267 2.243 1.656.106 3.471.035 5.323-.125l-.57 1.709h-5.66l-.623 2.474h5.678l-.41 1.655h-6.924l-.64 2.528H52.9l-.517 2.118c-.089.356-.445.623-.979.623h-.188c-.524-.003-1.795-.022-2.749-.16.339.659.517 1.798.606 2.51 1.726.16 3.079.16 4.236-.16zm23.994.249c1.424 0 2.012-.89 2.635-3.008-.445-.517-.908-1.157-1.21-1.905-.268 1.317-.73 2.332-1.122 2.332-.872.018-.303-3.062.73-6.996l-11.16-.035a23.638 23.638 0 0 0 2.42-2.403l-.48 1.62h10.359l.516-2.083-10.11.125.328-.392a4.38 4.38 0 0 0 .152-.196l11.339-.124.534-2.154-10.288.142.605-.979-2.474-.925c-1.371 2.438-3.525 4.823-5.518 6.123.623.427 1.584 1.175 2.047 1.709.017 0 .16-.107.302-.232l-.552 1.87 8.883-.143c-.873 4.2-.89 7.654 2.064 7.654zM30.775 92.782c.641-.48.89-1.121 1.175-2.278L33 86.819l1.798-.48.16-2.51-1.424.338.499-1.993h1.602l.623-2.51h-1.602l.818-3.24h-2.456l-.819 3.24h-1.887l-.623 2.51h1.887l-.747 2.545c-.873.196-1.656.356-2.314.48l.053 2.688 1.691-.427-.676 2.741a.67.67 0 0 1-.641.445h-.082c-.207-.003-.699-.022-1.075-.142.249.712.231 1.798.267 2.456 1.121.143 1.94.143 2.723-.178zm12.834.178.64-2.545-1.672.142c1.299-3.755 2.99-9.131 4.29-13.617l-9.417-.142-.57 2.314 2.51-.142a93.673 93.673 0 0 1-1.335 3.933l-2.136.143-.623 2.456 1.87-.142c-.66 1.744-1.336 3.435-1.923 4.913l-2.296.142-.641 2.545h11.303zm-3.026-9.772c.48-1.335.961-2.652 1.406-3.934l1.727-.284a139.181 139.181 0 0 1-1.21 3.933l-1.923.285zm-2.777 7.37c.57-1.46 1.21-3.151 1.87-4.913l2.064-.285a183.806 183.806 0 0 1-1.709 4.913l-2.225.284zm21.787 2.758c.463-.676 1.674-1.869 2.332-2.367-3.026-1.37-4.396-3.88-4.752-7.102l6.14-.143.66-2.687-6.854.142c.534-1.566.926-3.133 1.317-4.61l-2.776-.285c-.392 1.477-.766 3.044-1.282 4.61l-6.355.143-.658 2.687 5.892-.142c-1.442 2.901-3.845 5.66-8.064 7.334.73.623 1.246 1.513 1.584 2.278 3.845-1.602 6.248-4.005 8.046-6.889.57 3.009 1.976 5.465 4.77 7.031zm8.26-.017 1.708-6.55c.32.604.57 1.227.748 1.726l1.994-1.94c-.339-.392-1.371-1.798-1.94-2.439a23.272 23.272 0 0 0 2.972-3.72l-1.175-1.122-.445.09h-1.014l1.192-.535c-.178-.712-.64-1.744-1.139-2.492l-2.136.908c.338.588.623 1.335.801 1.994l-3.133.124-.587 2.314 3.987-.124c-1.549 1.762-3.702 3.4-5.607 4.165.25.605.338 2.011.374 2.812.8-.302 1.637-.783 2.51-1.424L65.325 93.3h2.528zm8.722-.463c2.064 0 2.848-1.104 3.773-4.29-.623-.303-1.53-.765-1.993-1.37-.641 2.563-1.086 3.346-1.71 3.346h-1.663c-.462-.007-.397-.084-.152-1.05l3.204-12.852h-2.58L72.32 89.169c-.658 2.67-.178 3.667 2.065 3.667h2.19z" fill="#8F1A6B"/>
        </g>
    </g>
</svg>
