<svg width="41" height="41" viewBox="0 0 41 41" xmlns="http://www.w3.org/2000/svg">
    <g fill="none" fill-rule="evenodd">
        <path d="M0 0h41v41H0z"/>
        <rect transform="rotate(180 19 19)" width="35" height="35" rx="4.27" fill="#FFBD2B"/>
        <g transform="translate(9.563 11.75)" fill="#FFF">
            <rect x="9.844" width="2.188" height="7.656" rx="1.031"/>
            <path d="M2.04 17.5c-.678 0-1.208-.216-1.59-.647-.384-.432-.522-1.029-.415-1.79l1.283-8.506c.142-.897.583-1.668 1.322-2.31.74-.644 1.581-.966 2.526-.966h11.57c.944 0 1.786.322 2.525.965.74.643 1.18 1.414 1.323 2.31l1.256 8.506c.107.762-.031 1.359-.414 1.79-.383.432-.913.648-1.59.648-.41 0-.757-.063-1.042-.19a2.53 2.53 0 0 1-.722-.47l-2.779-2.64H6.582l-2.78 2.64a2.53 2.53 0 0 1-.72.47c-.286.127-.633.19-1.043.19zm14.776-6.094c.285 0 .535-.101.749-.304a.952.952 0 0 0 .32-.711.952.952 0 0 0-.32-.711 1.052 1.052 0 0 0-.749-.305c-.285 0-.534.102-.748.305a.952.952 0 0 0-.32.71c0 .271.106.508.32.712.214.203.463.304.748.304zm-2.271-3.3c.285 0 .534-.102.748-.305a.952.952 0 0 0 .32-.711.952.952 0 0 0-.32-.711 1.052 1.052 0 0 0-.748-.305c-.285 0-.534.102-.748.305a.952.952 0 0 0-.32.71c0 .272.106.509.32.712.214.203.463.304.748.304zm-8.417 3.173h1.336V9.375h2.004v-1.27H7.464V6.201H6.128v1.904H4.123v1.27h2.005v1.904z" fill-rule="nonzero"/>
        </g>
    </g>
</svg>
