<?xml version="1.0" encoding="UTF-8"?>
<svg width="41px" height="41px" viewBox="0 0 41 41" version="1.1" xmlns="http://www.w3.org/2000/svg" xmlns:xlink="http://www.w3.org/1999/xlink">
    <!-- Generator: sketchtool 64 (101010) - https://sketch.com -->
    <title>F169D421-EFBE-42FD-BF34-29014258D636</title>
    <desc>Created with sketchtool.</desc>
    <g id="新首頁" stroke="none" stroke-width="1" fill="none" fill-rule="evenodd">
        <g id="PC_新首頁" transform="translate(-240.000000, -1731.000000)">
            <g id="Group-32-Copy-2" transform="translate(240.000000, 1731.000000)">
                <g id="Group-9">
                    <rect id="Rectangle" x="0" y="0" width="41" height="41"></rect>
                    <g id="Group-6" transform="translate(3.000000, 3.000000)" fill="#BC79F4">
                        <path d="M30.7317073,0 C33.0890203,-4.33031365e-16 35,1.91097973 35,4.26829268 L35,30.7317073 L34.999,30.772 L35,24.7560976 L5.97560976,24.7560976 C3.6182968,24.7560976 1.70731707,26.6670773 1.70731707,29.0243902 C1.70731707,31.3817032 3.6182968,33.2926829 5.97560976,33.2926829 L5.97560976,33.2926829 L34.1466583,33.2926773 C33.3679458,34.3294033 32.1281397,35 30.7317073,35 L4.26829268,35 C1.91097973,35 2.88687577e-16,33.0890203 0,30.7317073 L0,4.26829268 C-2.88687577e-16,1.91097973 1.91097973,4.33031365e-16 4.26829268,0 L30.7317073,0 Z" id="Combined-Shape"></path>
                        <path d="M30.7317073,0 C33.0890203,-4.33031365e-16 35,1.91097973 35,4.26829268 L35,30.7317073 L34.999,30.772 L35,24.7560976 L5.97560976,24.7560976 C3.6182968,24.7560976 1.70731707,26.6670773 1.70731707,29.0243902 C1.70731707,31.3817032 3.6182968,33.2926829 5.97560976,33.2926829 L5.97560976,33.2926829 L34.1466583,33.2926773 C33.3679458,34.3294033 32.1281397,35 30.7317073,35 L4.26829268,35 C1.91097973,35 2.88687577e-16,33.0890203 0,30.7317073 L0,4.26829268 C-2.88687577e-16,1.91097973 1.91097973,4.33031365e-16 4.26829268,0 L30.7317073,0 Z" id="Combined-Shape" transform="translate(17.500000, 17.500000) scale(1, -1) translate(-17.500000, -17.500000) "></path>
                    </g>
                    <g id="Group-37" transform="translate(7.000000, 11.000000)" fill="#FFFFFF">
                        <g id="Group-34">
                            <rect id="Rectangle" x="6" y="0" width="21" height="3" rx="1.5"></rect>
                            <rect id="Rectangle" x="0" y="0" width="5" height="3" rx="1.5"></rect>
                        </g>
                        <g id="Group-34-Copy" transform="translate(0.000000, 8.000000)">
                            <rect id="Rectangle" x="6" y="0" width="21" height="3" rx="1.5"></rect>
                            <rect id="Rectangle" x="0" y="0" width="5" height="3" rx="1.5"></rect>
                        </g>
                        <g id="Group-34-Copy-2" transform="translate(0.000000, 16.000000)">
                            <rect id="Rectangle" x="6" y="0" width="21" height="3" rx="1.5"></rect>
                            <rect id="Rectangle" x="0" y="0" width="5" height="3" rx="1.5"></rect>
                        </g>
                    </g>
                </g>
            </g>
        </g>
    </g>
</svg>