<svg width="41" height="41" viewBox="0 0 41 41" xmlns="http://www.w3.org/2000/svg" xmlns:xlink="http://www.w3.org/1999/xlink">
    <defs>
        <path id="a" d="M.248.01h9.707v22.437H.248z"/>
        <path id="c" d="M0 .513h6.337v10.71H0z"/>
        <path id="e" d="M.297.471H7.46v14.494H.297z"/>
    </defs>
    <g fill="none" fill-rule="evenodd">
        <path d="M0 0h41v41H0z"/>
        <path d="M33.732 3A4.268 4.268 0 0 1 38 7.268v26.464l-.001.04.001-6.016H8.976a4.268 4.268 0 1 0 0 8.537h28.17A4.262 4.262 0 0 1 33.733 38H7.268A4.268 4.268 0 0 1 3 33.732V7.268A4.268 4.268 0 0 1 7.268 3h26.464z" fill="#F24C7C"/>
        <path d="M37.596 28.61a5.103 5.103 0 0 0-1.303 3.414c0 1.312.493 2.51 1.304 3.415H8.976a3.415 3.415 0 0 1 0-6.83z" fill="#F24C7C"/>
        <path d="M22.414 12.75s2.16 3.398 1.115 6.919l-1.775 3.534-2.193 2.84-2.088-2.228s-1.323-1.879 0-4.732c1.322-2.854 4.941-6.333 4.941-6.333" fill="#FFF"/>
        <g transform="translate(15.278 4.468)">
            <mask id="b" fill="#fff">
                <use xlink:href="#a"/>
            </mask>
            <path d="M5.958.01C6.662 4.7.095 7.28.25 14.16c.157 6.88 4.3 8.287 4.3 8.287 1.251-5.16 4.535-3.83 5.317-10.32C10.65 5.639 5.957.01 5.957.01m.7 3.352c1.138 2.097 2.377 5.26 1.972 8.617-.378 3.136-1.336 4.119-2.446 5.256-.795.815-1.67 1.714-2.327 3.305-.984-.89-2.276-2.748-2.359-6.407-.073-3.21 1.529-5.383 3.077-7.483.775-1.05 1.563-2.12 2.083-3.288" fill="#FFF" mask="url(#b)"/>
        </g>
        <g transform="translate(11.537 15.692)">
            <mask id="d" fill="#fff">
                <use xlink:href="#c"/>
            </mask>
            <path d="M3.054.513S.55 9.035 6.337 11.224c0 0-4.847-.156-6.098-3.987C-1.012 3.405 3.054.513 3.054.513" fill="#FFF" mask="url(#d)"/>
        </g>
        <g transform="translate(21.513 11.95)">
            <mask id="f" fill="#fff">
                <use xlink:href="#e"/>
            </mask>
            <path d="M5.024.471S8.17 4.733 7.312 9.61C6.454 14.486.447 14.965.447 14.965s-.868-1.528 1.569-4.197C4.452 8.098 5.5 5.428 5.024.471" fill="#FFF" mask="url(#f)"/>
        </g>
    </g>
</svg>
