<svg width="41" height="41" viewBox="0 0 41 41" xmlns="http://www.w3.org/2000/svg">
    <g fill="none" fill-rule="evenodd">
        <path d="M0 0h41v41H0z"/>
        <rect width="35" height="35" rx="4.268" transform="translate(3 3)" fill="#F4AC79"/>
        <g stroke="#FFF" stroke-linecap="round" stroke-linejoin="round" stroke-width="2">
            <path d="M32.684 20.67s-7.446 1.291-13.89-6.892c0 0 7.53-3.525 13.89 6.893zM23.361 21.117c.058.429.089.87.089 1.318 0 4.152-2.595 7.622-6.057 8.463"/>
            <path d="M15.604 9.59s2.734.182 3.204 4.187M18.794 13.778h-3.19v.01c-4.164.1-7.513 3.93-7.513 8.646 0 4.781 3.438 8.657 7.68 8.657 1.106 0 2.155-.27 3.105-.745.952.475 2.001.745 3.107.745 4.242 0 7.68-3.876 7.68-8.657a9.79 9.79 0 0 0-.177-1.86"/>
        </g>
    </g>
</svg>
