<?xml version="1.0" encoding="UTF-8"?>
<svg width="41px" height="41px" viewBox="0 0 41 41" version="1.1" xmlns="http://www.w3.org/2000/svg" xmlns:xlink="http://www.w3.org/1999/xlink">
    <!-- Generator: sketchtool 64 (101010) - https://sketch.com -->
    <title>CB161ED1-2B55-4F82-82B6-FBED585766E0</title>
    <desc>Created with sketchtool.</desc>
    <defs>
        <linearGradient x1="50%" y1="0%" x2="100%" y2="100%" id="linearGradient-1">
            <stop stop-color="#86B7F7" offset="0%"></stop>
            <stop stop-color="#5A65F2" offset="100%"></stop>
        </linearGradient>
    </defs>
    <g id="新首頁" stroke="none" stroke-width="1" fill="none" fill-rule="evenodd">
        <g id="PC_新首頁" transform="translate(-240.000000, -2597.000000)">
            <g id="Group-9" transform="translate(240.000000, 2597.000000)">
                <rect id="Rectangle" x="0" y="0" width="41" height="41"></rect>
                <g id="Group-6" transform="translate(3.000000, 3.000000)" fill="url(#linearGradient-1)">
                    <rect id="Combined-Shape" x="0" y="0" width="35" height="35" rx="4.26829268"></rect>
                </g>
                <path d="M19.3342451,30.3531194 L14.8723753,32.7059303 C13.034597,33.6748697 10.8867126,32.1091309 11.237201,30.0566301 L12.0898021,25.0743867 C12.2292356,24.2590411 11.9595119,23.4276483 11.3690151,22.8499526 L7.75898451,19.3211183 C6.27245651,17.8677093 7.09305654,15.3353237 9.1479853,15.0357777 L14.1363496,14.3090732 C14.9523781,14.1898662 15.6579265,13.6755947 16.0228916,12.9343714 L18.2538265,8.40068283 C19.1727156,6.53310572 21.8280463,6.53310572 22.7469355,8.40068283 L24.9778704,12.9343714 C25.3428355,13.6755947 26.0476219,14.1898662 26.8636504,14.3090732 L31.8520147,15.0357777 C33.9069435,15.3353237 34.7275435,17.8677093 33.2410155,19.3211183 L29.6309849,22.8499526 C29.0404881,23.4276483 28.7715264,24.2590411 28.9109598,25.0743867 L29.762799,30.0566301 C30.1140494,32.1091309 27.965403,33.6748697 26.1276247,32.7059303 L21.6657549,30.3531194 C20.9358247,29.9679889 20.0641753,29.9679889 19.3342451,30.3531194" id="Fill-1" fill="#FFFFFF"></path>
            </g>
        </g>
    </g>
</svg>