<svg width="41" height="41" viewBox="0 0 41 41" xmlns="http://www.w3.org/2000/svg">
    <g fill="none" fill-rule="evenodd">
        <path d="M0 0h41v41H0z"/>
        <rect width="35" height="35" rx="4.268" transform="translate(3 3)" fill="#F47979"/>
        <path d="m16.795 19.253-1.105 2.56-2.535 1.115 2.535 1.116 1.105 2.56 1.105-2.56 2.535-1.116-2.535-1.116-1.105-2.559zm8.645-.394-.813 1.772-1.755.82 1.756.82.812 1.773.813-1.772 1.755-.82-1.755-.82-.813-1.773zM9.45 10l2.405 4.988h4.225L13.675 10h2.892l2.405 4.988h4.226L20.793 10h2.892l2.405 4.988h4.225L27.91 10h3.64c.52 0 .975.197 1.365.59.39.394.585.854.585 1.379V29.03c0 .525-.195.985-.585 1.378-.39.394-.845.591-1.365.591H9.45c-.52 0-.975-.197-1.365-.59-.39-.394-.585-.854-.585-1.379V11.97c0-.525.195-.985.585-1.378.39-.394.845-.591 1.365-.591z" fill="#FFF" fill-rule="nonzero"/>
    </g>
</svg>
