<svg width="32" height="32" viewBox="0 0 32 32" xmlns="http://www.w3.org/2000/svg" xmlns:xlink="http://www.w3.org/1999/xlink">
    <defs>
        <path id="mj1cnow8ca" d="M0 .774h31.226V32H0z"/>
        <path id="85my2eqqgc" d="M.682.168h26.544V29H.682z"/>
        <path id="78ftqmqs4e" d="M.001.774h25.925v28.75H.001z"/>
    </defs>
    <g fill="none" fill-rule="evenodd">
        <g transform="translate(0 -.5)">
            <mask id="n3rygon9ib" fill="#fff">
                <use xlink:href="#mj1cnow8ca"/>
            </mask>
            <path d="M31.226 16.387C31.226 25.01 24.236 32 15.613 32S0 25.01 0 16.387C0 7.764 6.99.774 15.613.774c8.623 0 15.613 6.99 15.613 15.613" fill="#FD0" mask="url(#n3rygon9ib)"/>
        </g>
        <g transform="translate(4 2.5)">
            <mask id="7d3v8xbxvd" fill="#fff">
                <use xlink:href="#85my2eqqgc"/>
            </mask>
            <path d="M19.894.168a15.558 15.558 0 0 1 4.683 11.14c0 8.622-6.99 15.613-15.614 15.613a15.52 15.52 0 0 1-8.28-2.395A15.553 15.553 0 0 0 11.612 29c8.623 0 15.613-6.99 15.613-15.614 0-5.576-2.934-10.457-7.332-13.218" fill="#FAC500" mask="url(#7d3v8xbxvd)"/>
        </g>
        <g transform="translate(0 -.5)">
            <mask id="zsofhr4rpf" fill="#fff">
                <use xlink:href="#78ftqmqs4e"/>
            </mask>
            <path d="M1.897 17.823C1.897 9.2 8.887 2.21 17.51 2.21c3.103 0 5.986.916 8.416 2.475C23.174 2.259 19.571.774 15.613.774 6.991.774.001 7.764.001 16.386c0 5.522 2.872 10.362 7.197 13.138-3.244-2.861-5.3-7.036-5.3-11.701" fill="#FFF1A1" mask="url(#zsofhr4rpf)"/>
        </g>
        <path d="M21.704 9.97a1.172 1.172 0 0 0 1.266-1.044 1.162 1.162 0 0 0-1.044-1.266C11.554 6.662 8.8 9.622 8.519 9.963c-.405.497-.345 1.243.15 1.65.22.178.483.267.744.267.327 0 .649-.14.875-.416.016-.015 1.012-1.002 4.168-1.459v1.772h-.89a4.736 4.736 0 0 0-4.737 4.736v3.083a1.16 1.16 0 0 0 2.32 0v-3.082a2.417 2.417 0 0 1 2.418-2.417h.889v9.061a1.16 1.16 0 0 0 2.32 0v-9.06h.934a2.375 2.375 0 0 1 2.373 2.37l.023 1.926c0 .023-.018.041-.042.043a1.159 1.159 0 0 0-1.102 1.346c.105.675.818 1.05 1.494.947a2.3 2.3 0 0 0 1.947-2.27v-1.946a4.737 4.737 0 0 0-4.738-4.737h-.89V9.803c1.368-.054 2.986-.02 4.929.167" fill="#FFF"/>
    </g>
</svg>
