<svg width="32" height="32" viewBox="0 0 32 32" xmlns="http://www.w3.org/2000/svg">
    <g fill="none" fill-rule="evenodd">
        <path d="M0 0h32v32H0z"/>
        <path d="M11.479 6.594a1.573 1.573 0 0 1-.334-.529L9.963 2.992c-.439-1.138.255-2.437 1.3-2.437h9.485c1.046 0 1.74 1.3 1.301 2.437l-1.184 3.073a1.544 1.544 0 0 1-.321.516" stroke="#FAC500" fill="#FFF1A1"/>
        <path d="M19.063 31.177h-6.115c-6.882 0-12.193-5.46-11.293-11.61l.385-2.626c.924-6.314 6.899-11.035 13.965-11.035 7.068 0 13.041 4.721 13.966 11.035l.385 2.626c.9 6.15-4.411 11.61-11.293 11.61z" stroke="#FAC500" fill="#FD0" stroke-linecap="round" stroke-linejoin="round"/>
        <path d="M20.256 19.679h-3.18v-1.642h3.18a1.072 1.072 0 0 0 0-2.142H18.17l2.225-2.916a1.071 1.071 0 0 0-1.702-1.3l-2.686 3.52-2.685-3.52a1.073 1.073 0 0 0-1.503-.201 1.07 1.07 0 0 0-.2 1.501l2.224 2.916h-2.087a1.07 1.07 0 1 0 0 2.142h3.18v1.642h-3.18a1.071 1.071 0 1 0 0 2.143h3.18v2.931a1.071 1.071 0 1 0 2.142 0v-2.931h3.18a1.072 1.072 0 0 0 0-2.143" fill="#FFF"/>
    </g>
</svg>
