<svg width="32" height="32" viewBox="0 0 32 32" xmlns="http://www.w3.org/2000/svg" xmlns:xlink="http://www.w3.org/1999/xlink">
    <defs>
        <path id="wdmn2swg9a" d="M.922.123h21.212v28.34H.922z"/>
        <path id="5u1chz2u2c" d="M0 .041H17.32v26.388H0z"/>
    </defs>
    <g fill="none" fill-rule="evenodd">
        <path d="m14.798 29.14 4.806-3.102a.017.017 0 0 0-.01-.03l-4.8-.197a.017.017 0 0 0-.013.005l-.58.53c-.002.002-.005.005-.005.008l-.416 1.651c-.002.005 0 .011.004.014l.992 1.117c.007.006.014.008.022.003" fill="#150035"/>
        <path d="m14.304 27.884.567.637 3.246-2.095-3.153-.128-.338.308-.322 1.278zm.404 1.89-1.448-1.622.054-.257.45-1.786.098-.102.748-.686.22.012 5.137.21.196.694-.305.207-5.15 3.33z" fill="#150035"/>
        <path d="m22.889 7.117-9.854-5.68c-.854-.491-1.63-.554-2.208-.264L5.929 4.188c-.024.016-.035.041-.023.066.218.457 2.25 4.71 2.435 5.495.08.33.716 3.582 1.454 7.369v1.91c0 1.064.387-2.867 1.006-1.83l.006.017c.766 3.95 1.418 7.322 1.435 7.41l.003.008 1.757-.653.485-.01c.023-.013.033-.04.024-.064l-.376-1.07c-.002-.002-.002-.005-.003-.008a12.755 12.755 0 0 1-.208-1.654l6.468 7.193c.016.02.045.024.068.01l4.722-2.918c.025-.014.05-.03.074-.046.556-.35.9-1.06.9-2.063V12.775c0-2.074-1.47-4.62-3.267-5.658" fill="#FFB000"/>
        <g transform="translate(4.5 .401)">
            <mask id="nik3wrut8b" fill="#fff">
                <use xlink:href="#wdmn2swg9a"/>
            </mask>
            <path d="m8.873 19.441 7.137 7.94 4.42-2.732.311.372-.245-.413c.44-.276.681-.865.681-1.66V12.375c0-1.895-1.386-4.295-3.028-5.242l-9.854-5.68c-.677-.39-1.3-.478-1.754-.253L2.005 3.996c.594 1.246 2.132 4.512 2.304 5.242.067.285.533 2.654 1.39 7.046a.605.605 0 0 1 .292-.133c.165-.026.475-.012.72.402l.065.163 1.33 6.87 1.26-.468-.204-.6a13.054 13.054 0 0 1-.216-1.72l-.073-1.357zm7.058 9.022a.539.539 0 0 1-.396-.175l-5.454-6.07.021.118.361 1.009a.532.532 0 0 1-.234.637l-.108.064-.528.01-2.133.793-.206-.625-1.23-6.351c-.057.24-.106.47-.132.596-.1.483-.184.864-.63.82-.446-.048-.446-.51-.446-.662v-1.854c-1.108-5.698-1.396-7.124-1.44-7.316-.123-.52-1.332-3.162-2.401-5.397a.527.527 0 0 1 .202-.68L6.075.364c.79-.397 1.735-.298 2.7.258l9.853 5.68c1.934 1.116 3.506 3.84 3.506 6.072v10.575c0 1.135-.399 2.013-1.124 2.468-.041.028-.07.046-.1.061l-4.699 2.906a.536.536 0 0 1-.28.08z" fill="#150035" mask="url(#nik3wrut8b)"/>
        </g>
        <path d="M22.874 7.117 13.78 1.864 6.717 6.297l10.086 5.087 3.16.5 4.859-2.888c-.544-.786-1.218-1.458-1.948-1.879" fill="#FFF"/>
        <path d="m16.951 10.923 2.914.461 4.256-2.528c-.457-.57-.965-1.022-1.487-1.324l-8.845-5.108-6.098 3.827 9.26 4.672zm3.106 1.46-3.47-.572L5.744 6.342l8.026-5.036 9.344 5.396c.763.442 1.49 1.14 2.101 2.02l.294.424-5.452 3.238zM21.605 16.536l-.495-.822 4.86-2.929.496.82zM21.466 22.715l-.495-.821 4.861-2.929.495.82z" fill="#150035"/>
        <path d="m8.219 4.413 9.88 5.694c1.79 1.033 3.241 3.545 3.241 5.611v10.606c0 2.066-1.45 2.904-3.24 1.871l-1.71-.987c-.308-.179-.572-.081-.633.233-.184.941-.858 2.654-3.293 1.653-.472-.195-.85-.934-.712-1.38a7.63 7.63 0 0 0 .348-2.238c.003-.41-.293-.915-.65-1.121L8.22 22.5c-1.79-1.033-3.24-3.545-3.24-5.612V6.283c0-2.065 1.45-2.903 3.24-1.87" fill="#FFB000"/>
        <g transform="translate(4.5 3.449)">
            <mask id="ig2h3jtejd" fill="#fff">
                <use xlink:href="#5u1chz2u2c"/>
            </mask>
            <path d="M2.274 1c-.226 0-.43.05-.606.152-.458.263-.71.862-.71 1.682V13.44c0 1.91 1.346 4.242 3 5.197l3.23 1.853c.512.296.895.957.892 1.54a8.253 8.253 0 0 1-.37 2.378c-.062.197.18.689.437.794.759.312 1.362.352 1.793.12.552-.297.768-1.019.848-1.423.057-.297.225-.522.473-.635.264-.12.572-.092.869.079l1.71.987c.71.412 1.354.491 1.812.227.457-.263.708-.86.708-1.682V12.27c0-1.909-1.345-4.24-3-5.196L3.48 1.38c-.436-.252-.848-.38-1.206-.38M9.3 26.43c-.458 0-.966-.115-1.517-.34-.703-.29-1.201-1.282-.988-1.967a7.204 7.204 0 0 0 .326-2.097c.002-.235-.2-.584-.41-.704L3.48 19.466C1.53 18.34 0 15.693 0 13.44V2.834C0 1.656.423.764 1.19.323 1.956-.12 2.939-.04 3.958.55l9.882 5.693c1.95 1.127 3.479 3.774 3.479 6.026v10.606c0 1.178-.423 2.07-1.189 2.513-.766.442-1.75.361-2.77-.227l-1.658-.957c-.156.687-.506 1.53-1.308 1.961a2.277 2.277 0 0 1-1.094.264" fill="#150035" mask="url(#ig2h3jtejd)"/>
        </g>
        <path fill="#150035" d="m26.156 21.659-4.799 2.954v2.115l-.309 1.285 4.207-2.6.825-1.04.138-1.197z"/>
        <path d="M18.463 19.482c0 3.477-2.441 4.887-5.454 3.148-3.01-1.739-5.454-5.967-5.454-9.445 0-3.479 2.443-4.888 5.454-3.15 3.013 1.74 5.454 5.97 5.454 9.447" fill="#FFB000"/>
        <path d="M13.01 10.452c-2.809-1.622-5.095-.302-5.095 2.94 0 3.243 2.286 7.202 5.094 8.823 2.809 1.622 5.095.302 5.095-2.94 0-3.243-2.286-7.202-5.095-8.823m0 12.594c-3.204-1.85-5.813-6.368-5.813-10.07 0-3.7 2.609-5.206 5.813-3.355 3.205 1.85 5.814 6.368 5.814 10.068 0 3.701-2.609 5.207-5.814 3.357" fill="#FFF"/>
        <path d="M13.851 18.154a.744.744 0 0 0-.133-.398 3.844 3.844 0 0 0-.399-.5v1.123c.355.136.532.06.532-.225m-1.571-3.647c0 .133.04.265.119.396.08.133.209.294.385.486v-1.06c-.336-.137-.504-.076-.504.178m2.747 4.258c0 .478-.149.775-.45.893-.3.117-.718.048-1.258-.205v.925l-.535-.309v-.907a7.552 7.552 0 0 1-1.673-1.354v-1.19c.227.26.5.531.82.815.318.283.603.506.853.669v-1.399l-.262-.268c-.515-.534-.88-.998-1.095-1.399a2.525 2.525 0 0 1-.323-1.207c0-.436.147-.71.443-.82.296-.11.709-.044 1.237.201v-.69l.535.31v.671a7.867 7.867 0 0 1 1.618 1.35l-.367.843a7.612 7.612 0 0 0-1.25-1.073v1.33c.508.519.87.924 1.084 1.214.215.29.372.562.473.818.1.258.15.518.15.782" fill="#FFF"/>
        <path d="M0 0h32v32H0z"/>
    </g>
</svg>
