<svg xmlns="http://www.w3.org/2000/svg" width="54" height="54" viewBox="0 0 54 54">
    <defs>
        <linearGradient id="988lhqzpqa" x1="136.593%" x2="40.703%" y1="121.245%" y2="50%">
            <stop offset="0%" stop-color="#FA719A"/>
            <stop offset="51.661%" stop-color="#FA97AB"/>
            <stop offset="100%" stop-color="#FBC6C0"/>
        </linearGradient>
    </defs>
    <g fill="none" fill-rule="evenodd">
        <g>
            <g>
                <path d="M0 0H54V54H0z" transform="translate(-40 -426) translate(40 426)"/>
                <g>
                    <path fill="url(#988lhqzpqa)" stroke="#000" stroke-width="2" d="M41.64 21.149c0 11.316-9.174 20.49-20.49 20.49C9.831 41.64.655 32.466.655 21.15.656 9.831 9.832.657 21.149.657 32.466.657 41.64 9.83 41.64 21.149z" transform="translate(-40 -426) translate(40 426) translate(6 6)"/>
                    <path stroke="#000" stroke-width="1.313" d="M32.017 3.798c3.789 3.718 6.146 8.89 6.146 14.621 0 11.318-9.175 20.492-20.493 20.492-3.998 0-7.716-1.164-10.869-3.143" transform="translate(-40 -426) translate(40 426) translate(6 6)"/>
                    <path stroke="#000" stroke-width="1.313" d="M6.801 35.768c-2.994-3.558-3.655-7.721-3.655-12.735 0-11.317 9.174-20.492 20.492-20.492 3.054 0 5.778.055 8.379 1.258" transform="translate(-40 -426) translate(40 426) translate(6 6)"/>
                    <path fill="#000" d="M29.142 13.383c.822.072 1.58-.532 1.662-1.37.08-.838-.533-1.58-1.37-1.662-13.614-1.31-17.229 2.575-17.597 3.023-.532.652-.453 1.631.198 2.164.289.235.632.352.975.352.43 0 .852-.184 1.15-.546.02-.02 1.327-1.315 5.469-1.915v2.326h-1.168c-3.434 0-6.217 2.782-6.217 6.216v4.046c0 .84.683 1.523 1.522 1.523.841 0 1.524-.683 1.524-1.523v-4.045c0-1.752 1.42-3.172 3.172-3.172h1.167v11.892c0 .84.681 1.523 1.522 1.523.842 0 1.523-.683 1.523-1.523V18.8H23.9c1.717 0 3.114 1.396 3.114 3.112l.03 2.527c0 .03-.023.054-.055.057-.893.03-1.593.836-1.446 1.766.138.886 1.074 1.379 1.962 1.243 1.445-.223 2.554-1.472 2.554-2.979v-2.554c0-3.434-2.783-6.217-6.218-6.217h-1.167v-2.591c1.795-.071 3.918-.027 6.468.219" transform="translate(-40 -426) translate(40 426) translate(6 6)"/>
                </g>
            </g>
        </g>
    </g>
</svg>
