<svg width="32" height="32" viewBox="0 0 32 32" xmlns="http://www.w3.org/2000/svg">
    <g fill="none" fill-rule="evenodd">
        <path d="M16.001.5c-4.28 0-8.156 1.735-10.96 4.54A15.452 15.452 0 0 0 .5 16a15.45 15.45 0 0 0 4.54 10.96 15.453 15.453 0 0 0 10.961 4.54 15.45 15.45 0 0 0 10.96-4.54A15.451 15.451 0 0 0 31.5 16c0-4.28-1.735-8.155-4.54-10.96A15.45 15.45 0 0 0 16.001.5z" stroke="#FD0"/>
        <path d="M24.394 2.894a15.558 15.558 0 0 1 4.683 11.14c0 8.623-6.991 15.613-15.614 15.613a15.52 15.52 0 0 1-8.281-2.395" stroke="#FD0"/>
        <path d="M5.182 27.252C2.9 24.542 2.397 21.37 2.397 17.55c0-8.623 6.99-15.613 15.613-15.613 2.327 0 4.402.042 6.384.958" stroke="#FD0"/>
        <path d="M22.203 10.197a1.171 1.171 0 0 0 1.266-1.044 1.16 1.16 0 0 0-1.044-1.267C12.053 6.888 9.3 9.848 9.018 10.19c-.405.497-.345 1.242.151 1.649.22.178.482.268.743.268.327 0 .65-.14.876-.416.015-.016 1.011-1.003 4.167-1.46v1.773h-.89a4.736 4.736 0 0 0-4.737 4.736v3.083a1.161 1.161 0 0 0 2.321 0V16.74a2.417 2.417 0 0 1 2.417-2.418h.89v9.061a1.16 1.16 0 0 0 2.32 0v-9.06h.933a2.375 2.375 0 0 1 2.373 2.37l.023 1.927c0 .023-.018.04-.042.043a1.159 1.159 0 0 0-1.102 1.345c.105.675.818 1.05 1.495.947a2.3 2.3 0 0 0 1.946-2.27v-1.945a4.737 4.737 0 0 0-4.738-4.737h-.889V10.03c1.368-.054 2.985-.02 4.928.167" fill="#FD0"/>
    </g>
</svg>
