<svg xmlns="http://www.w3.org/2000/svg" width="32" height="32" viewBox="0 0 32 32">
    <g fill="none" fill-rule="evenodd">
        <g>
            <g>
                <g>
                    <path d="M0 0H32V32H0z" transform="translate(-279 -843) translate(0 164) translate(279 679)"/>
                    <path fill="#FA719A" d="M29.555 4.474c-3.26-3.299-8.545-3.299-11.806 0L16 6.244l-1.748-1.77c-3.26-3.299-8.546-3.299-11.806 0-3.26 3.298-3.26 8.645 0 11.943l1.96 1.983c.005.007.002.018.01.024l11.35 11.483c.065.066.15.095.235.093.085.002.17-.027.235-.093l11.35-11.483c.007-.006.005-.017.01-.024l1.96-1.983c3.26-3.298 3.26-8.645 0-11.943" transform="translate(-279 -843) translate(0 164) translate(279 679)"/>
                </g>
            </g>
        </g>
    </g>
</svg>
