<svg width="42" height="42" viewBox="0 0 42 42" xmlns="http://www.w3.org/2000/svg">
    <g fill="none" fill-rule="evenodd">
        <path d="M0 0h42v42H0z"/>
        <g stroke="#FFF" stroke-linecap="round" stroke-linejoin="round" stroke-width="2">
            <path d="M6.9 22.362v9.223a4.581 4.581 0 0 0 4.582 4.581h18.446a4.58 4.58 0 0 0 4.581-4.581v-9.223H6.9z" fill-opacity=".3" fill="#FFF"/>
            <path d="M9.45 13.636h22.511"/>
            <path d="M24.22 5.4H17.19a4.308 4.308 0 0 0-4.308 4.308v3.927H28.53V9.708A4.31 4.31 0 0 0 24.22 5.4z" fill-opacity=".3" fill="#FFF"/>
            <path d="m15.685 25.37 5.02 4.118 7.824-9.197"/>
            <path d="M28.371 8.557h1.557a4.582 4.582 0 0 1 4.582 4.581v18.446a4.581 4.581 0 0 1-4.582 4.582H11.482A4.581 4.581 0 0 1 6.9 31.584V13.138a4.582 4.582 0 0 1 4.582-4.581h1.556"/>
        </g>
    </g>
</svg>
