<svg width="38" height="39" viewBox="0 0 38 39" xmlns="http://www.w3.org/2000/svg" xmlns:xlink="http://www.w3.org/1999/xlink">
    <defs>
        <path id="a" d="M0 .929h37.471v37.47H0z"/>
        <path id="c" d="M.819.201H32.67v34.598H.82z"/>
        <path id="e" d="M.001.929h31.11v34.5H.001z"/>
    </defs>
    <g fill="none" fill-rule="evenodd">
        <g>
            <mask id="b" fill="#fff">
                <use xlink:href="#a"/>
            </mask>
            <path d="M37.471 19.665c0 10.346-8.388 18.734-18.735 18.734-10.348 0-18.737-8.388-18.737-18.734C-.001 9.317 8.389.929 18.736.929c10.347 0 18.735 8.388 18.735 18.736" fill="#FD0" mask="url(#b)"/>
        </g>
        <g transform="translate(4.8 3.6)">
            <mask id="d" fill="#fff">
                <use xlink:href="#c"/>
            </mask>
            <path d="M23.873.201c3.464 3.4 5.62 8.129 5.62 13.368 0 10.348-8.39 18.736-18.737 18.736A18.624 18.624 0 0 1 .819 29.43a18.664 18.664 0 0 0 13.117 5.368c10.347 0 18.735-8.388 18.735-18.735 0-6.693-3.52-12.549-8.798-15.863" fill="#FAC500" mask="url(#d)"/>
        </g>
        <g>
            <mask id="f" fill="#fff">
                <use xlink:href="#e"/>
            </mask>
            <path d="M2.277 21.387c0-10.347 8.388-18.735 18.735-18.735 3.724 0 7.183 1.099 10.1 2.97C27.808 2.71 23.484.929 18.735.929 8.389.929 0 9.317 0 19.663c0 6.626 3.447 12.434 8.637 15.766-3.893-3.434-6.361-8.444-6.361-14.042" fill="#FFF1A1" mask="url(#f)"/>
        </g>
        <path d="M26.045 12.564a1.406 1.406 0 0 0 1.519-1.253 1.395 1.395 0 0 0-1.253-1.519c-12.446-1.197-15.751 2.355-16.088 2.764-.486.596-.414 1.491.18 1.979.265.214.58.321.892.321.393 0 .78-.168 1.05-.499.02-.018 1.215-1.202 5.002-1.75v2.126h-1.068a5.684 5.684 0 0 0-5.684 5.683v3.7a1.393 1.393 0 0 0 2.784 0v-3.699a2.9 2.9 0 0 1 2.901-2.9h1.067V28.39a1.392 1.392 0 0 0 2.784 0V17.517h1.12a2.85 2.85 0 0 1 2.848 2.845l.028 2.311c0 .028-.022.05-.05.052a1.39 1.39 0 0 0-1.323 1.615c.126.81.982 1.26 1.793 1.136a2.76 2.76 0 0 0 2.336-2.724v-2.335a5.685 5.685 0 0 0-5.685-5.684H20.13v-2.37c1.64-.064 3.582-.023 5.914.201" fill="#FFF"/>
    </g>
</svg>
