<svg width="32" height="32" viewBox="0 0 32 32" xmlns="http://www.w3.org/2000/svg">
    <g fill="none" fill-rule="evenodd">
        <path d="M0 0h32v32H0z"/>
        <path d="M28.438 1.533H3.862a3.329 3.329 0 0 0-3.329 3.33v16.165a3.33 3.33 0 0 0 3.33 3.33h6.254l5.537 5.596a.7.7 0 0 0 .992 0l5.537-5.595h6.255a3.33 3.33 0 0 0 3.33-3.33V4.862c0-1.84-1.49-3.33-3.33-3.33z" stroke="#39B3FD" stroke-linecap="round" stroke-linejoin="round"/>
        <path d="M9.558 12.946a1.626 1.626 0 1 1-3.253 0 1.626 1.626 0 0 1 3.253 0M17.777 12.946a1.626 1.626 0 1 1-3.252 0 1.626 1.626 0 0 1 3.252 0M25.997 12.946a1.627 1.627 0 1 1-3.254-.001 1.627 1.627 0 0 1 3.254 0" fill="#39B3FD"/>
    </g>
</svg>
