<svg xmlns="http://www.w3.org/2000/svg" width="32" height="32" viewBox="0 0 32 32">
    <g fill="none" fill-rule="evenodd">
        <g>
            <g>
                <path d="M0 0H32V32H0z" transform="translate(-25 -326) translate(25 326)"/>
                <g stroke="#646464" stroke-linecap="round" stroke-linejoin="round">
                    <path d="M28.474 27.333H3.484c-1.62 0-2.933-1.312-2.933-2.931V3.484C.551 1.864 1.864.55 3.483.55h24.991c1.619 0 2.93 1.313 2.93 2.933v20.918c0 1.619-1.311 2.93-2.93 2.93z" transform="translate(-25 -326) translate(25 326) translate(0 2)"/>
                    <path d="M31.405 13.824c-2.09-1.282-4.54-2.036-7.171-2.036-6.368 0-11.708 4.336-13.27 10.21-1.483-2.365-4.107-3.944-7.106-3.944-1.174 0-2.291.243-3.306.678M11.78 8.863c0 1.616-1.31 2.925-2.925 2.925-1.615 0-2.926-1.309-2.926-2.925 0-1.617 1.31-2.925 2.926-2.925 1.615 0 2.925 1.308 2.925 2.925z" transform="translate(-25 -326) translate(25 326) translate(0 2)"/>
                </g>
            </g>
        </g>
    </g>
</svg>
