<svg width="36" height="36" viewBox="0 0 36 36" xmlns="http://www.w3.org/2000/svg" xmlns:xlink="http://www.w3.org/1999/xlink">
    <defs>
        <path id="atwlfytt6a" d="M.014.158H29.23v6.285H.014z"/>
    </defs>
    <g fill="none" fill-rule="evenodd">
        <path d="M0 0h36v36H0z"/>
        <g transform="translate(4.235 5.5)">
            <mask id="e40gepzvub" fill="#fff">
                <use xlink:href="#atwlfytt6a"/>
            </mask>
            <path d="M1.83 6.443h25.585a1.816 1.816 0 0 0 1.816-1.817V1.975A1.816 1.816 0 0 0 27.415.158H1.83A1.816 1.816 0 0 0 .014 1.975v2.651c0 1.003.813 1.817 1.816 1.817" fill="#FFF" mask="url(#e40gepzvub)"/>
        </g>
        <path d="M1.816 20.373h17.601a9.815 9.815 0 0 1 7.041-6.284H1.816A1.816 1.816 0 0 0 0 15.905v2.652c0 1.003.813 1.816 1.816 1.816M18.923 22.52H1.816A1.816 1.816 0 0 0 0 24.336v2.652c0 1.003.813 1.816 1.816 1.816h18.515a9.75 9.75 0 0 1-1.408-6.284M32.668 24.55h-2.889a.134.134 0 0 0-.134.134v2.888a1.05 1.05 0 0 1-1.152 1.045c-.546-.052-.947-.542-.947-1.09v-2.843a.134.134 0 0 0-.134-.135h-2.888a1.05 1.05 0 0 1-1.045-1.152c.052-.546.541-.947 1.09-.947h2.843c.074 0 .134-.06.134-.134v-2.888a1.05 1.05 0 0 1 1.153-1.045c.545.052.946.542.946 1.09v2.843c0 .074.06.134.134.134h2.844c.548 0 1.038.401 1.09.947a1.05 1.05 0 0 1-1.045 1.152M28.596 16.5a7 7 0 1 0 0 14 7 7 0 0 0 0-14" fill="#FFF"/>
    </g>
</svg>
