<svg width="52" height="52" viewBox="0 0 52 52" xmlns="http://www.w3.org/2000/svg">
    <g fill="none" fill-rule="evenodd">
        <path d="M52 26c0 14.36-11.64 26-26 26S0 40.36 0 26 11.64 0 26 0s26 11.64 26 26" fill="#000"/>
        <path d="m19.06 36.435.094.085c.288.206.496.496.772.717a5.028 5.028 0 0 0 2.919 1.128c2.613.161 4.89-1.805 5.184-4.388.014-.127.01-.253.01-.38V10.264c0-.525 0-.525.522-.525l3.546.001c.11 0 .227-.02.327.05a.121.121 0 0 0 .022.015c.056.059.073.134.09.21.452 2.096 1.556 3.769 3.286 5.032.108.079.199.177.302.261l.226.192c.28.159.477.414.719.615a8.178 8.178 0 0 0 3.242 1.657c.106.028.227.026.304.127a.066.066 0 0 0 .02.016c.07.075.059.17.059.26 0 1.372.002 2.743 0 4.114 0 .314-.043.33-.36.33a13.2 13.2 0 0 1-2.967-.357 14.22 14.22 0 0 1-4.664-2.01c-.075-.05-.154-.155-.234-.118-.102.046-.048.176-.048.269-.003 3.86.014 7.72-.008 11.581-.015 2.7-.874 5.114-2.64 7.17-1.878 2.185-4.262 3.453-7.124 3.803-2.205.27-4.298-.13-6.284-1.111a5.732 5.732 0 0 1-.916-.56l-.272-.241c-.684-.565-1.16-1.297-1.605-2.047a10.61 10.61 0 0 1-1.346-3.73 10.58 10.58 0 0 1-.145-2.289c.135-2.472.966-4.678 2.56-6.584 1.338-1.6 3.007-2.717 4.975-3.389.821-.28 1.669-.455 2.537-.515.16-.012.32-.05.483-.04.076.005.156-.003.221.05a.093.093 0 0 0 .024.017c.046.078.034.164.034.247.002 1.392.001 2.783.001 4.175 0 .049-.001.098-.004.147-.006.14-.077.186-.21.149a5.285 5.285 0 0 0-1.164-.18 4.433 4.433 0 0 0-1.782.266c-1.912.706-3.073 2.075-3.316 4.094-.239 1.988.546 3.58 2.2 4.725.139.096.281.186.41.294" fill="#FFF"/>
        <path d="M15.459 41.286c.074-.02.115.038.167.07a11.03 11.03 0 0 0 4.024 1.485c.723.116 1.453.165 2.185.127 2.447-.127 4.637-.94 6.53-2.505 1.824-1.506 3.035-3.41 3.64-5.695.192-.721.298-1.456.336-2.203.022-.429.02-.858.02-1.286V19.992c.097-.027.14.045.193.081a14.13 14.13 0 0 0 4.259 1.982c.84.232 1.695.386 2.565.462.365.032.73.028 1.095.054.16.012.162.006.164-.161.002-.176 0-.352 0-.528v-3.735c0-.077.006-.154.008-.232.328.037.65.108.98.133.204.015.408.034.612.028.1-.003.143.032.132.134-.005.041-.001.084-.001.126V23.843c-.004.157-.004.16-.17.16a13.078 13.078 0 0 1-1.683-.112 14.201 14.201 0 0 1-6.22-2.382c-.057-.039-.115-.074-.202-.13v.252c0 3.932.003 7.864-.001 11.795-.002 2.096-.545 4.043-1.663 5.819-1.35 2.145-3.224 3.653-5.606 4.52a10.671 10.671 0 0 1-4.478.613c-2.593-.191-4.836-1.181-6.744-2.938-.051-.048-.095-.103-.142-.154" fill="#EC1655"/>
        <path d="M32.435 9.79c-.077.003-.154.01-.231.01h-3.8c-.294 0-.294 0-.294.285 0 7.737-.001 15.474.002 23.211 0 .538-.04 1.068-.208 1.58-.595 1.811-1.809 3.005-3.665 3.428-1.992.455-3.683-.153-5.029-1.696-.023-.026-.037-.059-.056-.088.385.153.769.307 1.178.388 1.298.257 2.521.059 3.647-.636 1.301-.802 2.07-1.976 2.338-3.476a4.83 4.83 0 0 0 .06-.861c-.002-7.752-.002-15.503 0-23.255 0-.361-.051-.316.309-.316 1.787-.002 3.575 0 5.362 0 .042 0 .084-.002.127 0 .183.002.186.002.185.187-.002.415-.007.83.075 1.238" fill="#0CBAC6"/>
        <path d="M22.867 22.502c-1.092.036-2.16.21-3.198.554-1.5.499-2.833 1.28-3.996 2.352a10.867 10.867 0 0 0-3.505 7.274 10.82 10.82 0 0 0 .77 4.882 10.878 10.878 0 0 0 2.202 3.413c.018.02.031.045.047.068-.216-.093-.39-.25-.57-.393-1.773-1.406-3.023-3.178-3.71-5.337a10.84 10.84 0 0 1-.461-2.308c-.053-.57-.06-1.139-.023-1.706.086-1.308.395-2.565.936-3.762a10.867 10.867 0 0 1 2.314-3.32 10.864 10.864 0 0 1 3.968-2.496c.944-.34 1.915-.545 2.917-.619a11.347 11.347 0 0 1 2.167.049c.097.011.154.031.152.147-.007.4-.007.801-.01 1.202" fill="#0CBAC6"/>
        <path d="M19.06 36.435a4.156 4.156 0 0 1-1.165-.818c-.868-.835-1.384-1.853-1.518-3.05a4.996 4.996 0 0 1 3.5-5.348 5.018 5.018 0 0 1 2.823-.043c.052.015.104.037.163.022.03-.076.015-.154.015-.23.002-1.406.001-2.813.002-4.22 0-.076.007-.153.011-.23.543-.037 1.081.012 1.62.072.085.01.107.049.105.122-.002.043 0 .085 0 .127v5.59c0 .069.018.14-.027.214-.245-.046-.486-.12-.736-.155-1.44-.201-2.738.135-3.878 1.033a4.813 4.813 0 0 0-1.826 3.084c-.22 1.332.056 2.569.823 3.688.031.047.06.095.089.142M36.134 15.308a7.009 7.009 0 0 1-1.453-1.174 8.226 8.226 0 0 1-2.224-4.287c-.003-.013-.001-.028-.001-.042.505-.029 1.01-.003 1.517-.013.09-.002.129.034.12.124-.003.035 0 .07 0 .105-.026 1.417.395 2.712 1.085 3.93.247.436.542.838.864 1.22.035.042.086.076.092.137" fill="#EC1655"/>
        <path d="M40.625 17.899a8.224 8.224 0 0 1-3.808-1.936c-.161-.144-.328-.285-.456-.463.053-.005.092.028.134.052a8.346 8.346 0 0 0 2.8.99c.386.065.777.107 1.17.103.165-.002.17.005.169.161 0 .364-.006.728-.009 1.093" fill="#0CBAC6"/>
    </g>
</svg>
