<svg width="52" height="52" viewBox="0 0 52 52" xmlns="http://www.w3.org/2000/svg">
    <g fill="none" fill-rule="evenodd">
        <path d="M52 26c0 14.36-11.64 26-26 26S0 40.36 0 26 11.64 0 26 0s26 11.64 26 26" fill="#33CE33"/>
        <path d="M27.08 18.785a1.938 1.938 0 1 1-3.876 0 1.938 1.938 0 0 1 3.876 0m-8.623 0a1.938 1.938 0 1 1-3.876 0 1.938 1.938 0 0 1 3.876 0m14.911 1.868c.321 0 .64.014.955.036-.912-5.546-6.485-9.813-13.228-9.813-7.38 0-13.36 5.111-13.36 11.416 0 3.416 1.758 6.48 4.542 8.572-.124.228-.144.491-.144.491l-.2 2.781c-.092 1.277.987.589.987.589l2.412-1.541c.23-.146.36-.291.423-.428a15.27 15.27 0 0 0 6.478.907 8.666 8.666 0 0 1-.55-3.028c0-5.514 5.231-9.982 11.685-9.982m4.999 7.08a1.543 1.543 0 1 1-3.087-.003 1.543 1.543 0 0 1 3.087.003m-6.865 0a1.543 1.543 0 1 1-3.086-.002 1.543 1.543 0 0 1 3.086.002m12.763 2.902c0-5.143-4.878-9.312-10.897-9.312-6.02 0-10.899 4.17-10.899 9.312 0 5.141 4.88 9.31 10.899 9.31 1.441 0 2.817-.243 4.076-.676.052.042.111.085.179.128l2.413 1.541s1.078.688.986-.587l-.2-2.782s-.004-.053-.019-.131c2.13-1.7 3.462-4.118 3.462-6.803" fill="#FFF"/>
    </g>
</svg>
