<svg width="52" height="52" viewBox="0 0 52 52" xmlns="http://www.w3.org/2000/svg">
    <g fill="none" fill-rule="evenodd">
        <path d="M52 26c0 14.36-11.64 26-26 26S0 40.36 0 26 11.64 0 26 0s26 11.64 26 26" fill="#00B900"/>
        <path d="M43.634 24.655c0-7.928-7.948-14.379-17.718-14.379s-17.719 6.45-17.719 14.38c0 7.107 6.304 13.06 14.818 14.185.577.125 1.363.38 1.561.874.179.448.117 1.15.058 1.602l-.253 1.517c-.077.448-.356 1.752 1.535.955 1.89-.796 10.204-6.008 13.921-10.287 2.567-2.816 3.797-5.673 3.797-8.847" fill="#FFF"/>
        <path d="M22.315 20.824h-1.243a.345.345 0 0 0-.345.345v7.72c0 .19.155.344.345.344h1.243c.191 0 .346-.154.346-.344v-7.72a.345.345 0 0 0-.346-.345M30.87 20.824h-1.243a.345.345 0 0 0-.345.345v4.586l-3.538-4.778a.339.339 0 0 0-.029-.037l-.02-.021-.007-.006a.178.178 0 0 0-.019-.015c-.002-.003-.006-.005-.009-.007l-.017-.013a.224.224 0 0 0-.04-.022l-.02-.008-.011-.004-.02-.006-.013-.004-.02-.004-.014-.002-.018-.002-.018-.002H24.214a.345.345 0 0 0-.345.345v7.72c0 .19.155.344.345.344h1.243a.345.345 0 0 0 .345-.344v-4.585l3.543 4.784a.333.333 0 0 0 .138.114l.017.007.01.004.024.007.005.001a.335.335 0 0 0 .088.012h1.243c.19 0 .345-.154.345-.344v-7.72a.345.345 0 0 0-.345-.345M19.32 27.3h-3.377V21.17a.345.345 0 0 0-.345-.345h-1.243a.345.345 0 0 0-.346.345v7.72c0 .093.037.177.097.238l.005.006.005.004c.062.06.146.097.238.097h4.966c.19 0 .344-.155.344-.346v-1.243a.345.345 0 0 0-.344-.345M37.733 22.757c.19 0 .345-.154.345-.345V21.17a.345.345 0 0 0-.345-.346h-4.965a.342.342 0 0 0-.24.097c0 .002-.002.003-.004.004l-.005.006a.343.343 0 0 0-.096.238v7.72c0 .092.037.176.097.238l.004.005.006.005c.062.06.145.097.238.097h4.965c.19 0 .345-.155.345-.345v-1.243a.345.345 0 0 0-.345-.345h-3.377v-1.306h3.377c.19 0 .345-.154.345-.345v-1.243a.345.345 0 0 0-.345-.345h-3.377v-1.305h3.377z" fill="#00B900"/>
    </g>
</svg>
