<svg width="52" height="52" viewBox="0 0 52 52" xmlns="http://www.w3.org/2000/svg">
    <g fill="none" fill-rule="evenodd">
        <path d="M52 26C52 11.64 40.36 0 26 0S0 11.64 0 26s11.64 26 26 26 26-11.64 26-26" fill="#E7831E"/>
        <path d="M21.45 38.64c1.14-.148 2.292-.224 3.413-.456 2.582-.532 4.926-1.576 6.725-3.579 1.475-1.642 2.1-3.53 1.244-5.674-.652-1.633-1.951-2.683-3.492-3.426-3.02-1.456-6.192-1.628-9.427-.961-2.599.535-4.955 1.58-6.774 3.592-1.26 1.395-1.924 3.011-1.488 4.915.388 1.697 1.513 2.865 2.95 3.748 2.095 1.287 4.414 1.735 6.85 1.84m1.372 1.982c-3.265-.03-6.72-.692-9.914-2.431-1.495-.815-2.81-1.855-3.78-3.28-1.403-2.063-1.517-4.287-.777-6.6.724-2.262 2.023-4.192 3.566-5.966 2.065-2.373 4.397-4.436 7.268-5.781.982-.46 2.064-.73 3.121-1.004.434-.112.932-.063 1.387.007 1.273.197 2.111 1.092 2.146 2.381.02.739-.15 1.482-.225 2.224-.026.253-.02.51-.03.764.274-.02.56.004.818-.068 1.184-.33 2.35-.737 3.544-1.02a5.763 5.763 0 0 1 2.824.03c1.617.428 2.379 1.623 2.056 3.285-.085.44-.243.865-.366 1.297-.184.648-.132.712.484.96.646.26 1.314.503 1.904.864 2.63 1.61 3.278 4.244 1.77 6.945-1.196 2.14-2.988 3.649-5.088 4.82-3.22 1.797-6.711 2.526-10.708 2.573M44.099 20.925c-.166.913-.301 1.834-.506 2.738-.198.876-.919 1.314-1.712 1.112-.751-.19-1.162-.935-.948-1.772.25-.977.375-1.95.252-2.966-.454-3.738-4.072-6.45-7.8-5.822-.213.036-.43.069-.645.07a1.36 1.36 0 0 1-1.372-1.202c-.084-.687.36-1.371 1.046-1.498 3.714-.684 6.884.326 9.342 3.215 1.623 1.908 2.215 3.749 2.343 6.125" fill="#FFF"/>
        <path d="M39.146 20.913c-.084.455-.13.922-.26 1.364-.203.68-.805 1.016-1.424.853-.62-.164-.994-.749-.85-1.43.203-.965.085-1.82-.699-2.497a2.137 2.137 0 0 0-1.516-.534c-.2.007-.4.02-.6.021-.66.004-1.158-.398-1.233-.99-.082-.639.285-1.173.945-1.324 1.01-.23 1.991-.098 2.923.335 1.63.757 2.657 2.39 2.714 4.202M23.466 30.955c-.013-.355-.289-.512-.654-.521-.43-.011-.817.391-.79.794.026.386.27.552.63.561.436.012.82-.358.814-.834m-3.392.328c-1.196-.006-2.24.944-2.237 2.035.003.897.744 1.574 1.72 1.57 1.164-.006 2.195-.951 2.206-2.024.01-.917-.694-1.576-1.689-1.58m1.944-4.194c1.731.048 3.233.527 4.345 1.873 1.19 1.443 1.272 3.434.24 5.14-1.622 2.682-5.424 3.768-8.217 2.349-2.662-1.353-3.339-4.618-1.428-6.912 1.326-1.593 3.048-2.368 5.06-2.45" fill="#FFF"/>
    </g>
</svg>
