<svg width="52" height="52" viewBox="0 0 52 52" xmlns="http://www.w3.org/2000/svg">
    <g fill="none" fill-rule="evenodd">
        <path d="M52 26C52 11.64 40.36 0 26 0S0 11.64 0 26s11.64 26 26 26 26-11.64 26-26" fill="#5CBCDF"/>
        <path d="m17.6 27.9 3.084 8.539s.386.798.799.798c.413 0 6.555-6.39 6.555-6.39l6.83-13.192-17.158 8.042-.11 2.204z" fill="#C1DAEA"/>
        <path d="m21.69 30.09-.592 6.294s-.249 1.928 1.68 0a53.478 53.478 0 0 1 3.773-3.416L21.69 30.09z" fill="#9CC6D9"/>
        <path d="m17.655 28.205-6.344-2.067s-.758-.308-.514-1.005c.05-.145.151-.267.454-.478 1.406-.98 26.023-9.828 26.023-9.828s.695-.234 1.106-.078c.187.071.307.151.408.445.037.107.058.334.056.56-.002.163-.023.314-.037.55-.15 2.42-4.636 20.474-4.636 20.474s-.269 1.057-1.23 1.093c-.35.013-.777-.058-1.286-.496-1.887-1.623-8.41-6.007-9.852-6.972a.275.275 0 0 1-.118-.194c-.02-.101.09-.227.09-.227s11.36-10.097 11.661-11.157c.024-.082-.064-.122-.183-.087-.755.278-13.833 8.536-15.276 9.448-.085.053-.322.02-.322.02" fill="#FFF"/>
    </g>
</svg>
