<svg width="52" height="52" viewBox="0 0 52 52" xmlns="http://www.w3.org/2000/svg">
    <g fill="none" fill-rule="evenodd">
        <path d="M52 26C52 11.64 40.36 0 26 0S0 11.64 0 26c0 12.977 9.508 23.734 21.937 25.684V33.516h-6.601V26h6.601v-5.728c0-6.516 3.882-10.116 9.821-10.116 2.845 0 5.82.508 5.82.508v6.399H34.3c-3.23 0-4.237 2.004-4.237 4.06V26h7.21l-1.152 7.516h-6.058v18.168C42.493 49.734 52 38.977 52 26" fill="#1677F0"/>
        <path d="M36.12 33.516 37.275 26h-7.211v-4.877c0-2.056 1.007-4.06 4.237-4.06h3.278v-6.399s-2.975-.508-5.82-.508c-5.939 0-9.82 3.6-9.82 10.116V26h-6.602v7.516h6.601v18.168a26.207 26.207 0 0 0 8.126 0V33.516h6.058z" fill="#FFF"/>
    </g>
</svg>
