<svg width="52" height="52" viewBox="0 0 52 52" xmlns="http://www.w3.org/2000/svg">
    <g fill="none" fill-rule="evenodd">
        <path d="M52 26c0 14.36-11.64 26-26 26S0 40.36 0 26 11.64 0 26 0s26 11.64 26 26" fill="#33B7FF"/>
        <path d="M23.83 16.995c.104.225.246.414.517.434.28.022.439-.166.543-.384.262-.544.255-1.092-.06-1.613-.231-.377-.611-.394-.874-.053-.208.271-.262.59-.255.924.005.237.025.472.128.692M28.065 16.804c.177.034.199-.137.233-.264.066-.241.102-.558.403-.562.277-.004.289.31.323.515.028.162.124.334.304.309.226-.031.2-1.181-.383-1.38-.536-.202-1.065.317-1.05 1.047.002.13.003.303.17.335" fill="#FFF"/>
        <path d="M38.182 22.722c-.24 1.323-1.003 2.288-2.104 2.973-2.356 1.466-4.856 2.605-7.607 3.11-1.597.293-3.192.281-4.803.074-1.92-.245-3.743-.796-5.494-1.585-1.461-.658-2.85-1.448-3.86-2.75-.738-.95-.838-1.944-.16-2.829.207 1.265.914 2.177 1.902 2.912-.375-.642-.756-1.28-1.122-1.926-.39-.689-.356-1.442-.32-2.193.043-.004.085-.018.093-.008 1.341 1.99 3.257 3.2 5.471 3.98 2.8.987 5.7 1.294 8.632.964 2.981-.337 5.657-1.483 7.908-3.523.143-.13.297-.247.409-.341-.514 2.133-2.037 3.493-3.878 4.591 2.53-.914 3.841-2.917 4.724-5.303.264.4.335 1.164.209 1.854m-16.096 9.544c-.017.465-.244.745-.768.772-.748.04-1.492.065-2.226-.099-1.03-.23-1.395-.733-1.425-1.902-.03-1.099.232-2.156.43-3.224.032-.171.097-.166.238-.105.653.28 1.293.597 1.984.777.21.054.177.197.183.346.026.687.115 1.365.347 2.016.038.107.094.208.177.395l-.01-.83-.03-1.025c.02-.19-.09-.538.216-.59a.659.659 0 0 1 .767.59c.09.951.152 1.913.117 2.88m-3.023-10.492c1.012-.696 2.151-1.1 3.335-1.356 2.603-.567 5.212-.637 7.812.029 1.056.27 2.078.635 2.997 1.234.57.372.562.51-.008.86-.61.374-1.243.682-2.041.68.288-.32.651-.498.874-.985-3.878 2.668-7.675 2.883-11.49.12l.545.877c-.74-.185-1.401-.361-2.005-.687-.477-.259-.47-.461-.019-.772m3.14-7.814c.706-.912 1.738-.916 2.438-.005.53.69.69 1.493.704 2.41-.026.812-.198 1.648-.808 2.324-.702.78-1.642.74-2.295-.078-.943-1.179-.961-3.458-.038-4.651m5.426.259c.74-1.21 1.996-1.237 2.735-.028.64 1.047.657 2.359.33 3.515-.158.559-.388 1.06-.942 1.345-.755.385-1.45.233-1.958-.448-.518-.696-.704-1.492-.674-2.369-.02-.705.126-1.39.51-2.015m13.145 13.72a19.274 19.274 0 0 0-2.268-4.147c-.1-.138-.202-.246-.11-.473.447-1.105.3-2.176-.27-3.204-.256-.463-.56-.903-.59-1.462-.043-.806-.248-1.58-.457-2.355-.731-2.705-2.187-4.866-4.694-6.223-1.421-.77-2.95-1.209-4.56-1.386a15.447 15.447 0 0 0-4.93.235c-2.702.573-4.688 2.165-6.227 4.373-1.01 1.451-1.73 3.03-1.945 4.816-.042.344.085.723-.138 1.039a2.19 2.19 0 0 0-.358.9c-.083.48-.193.936-.44 1.372-.299.529-.38 1.136-.257 1.73.053.255-.001.389-.179.521a11.288 11.288 0 0 0-2.64 2.82c-1.035 1.555-1.648 3.24-1.747 5.105-.04.75.05 1.482.314 2.191.128.343.297.504.702.387.34-.099.632-.253.89-.48.54-.473.979-1.023 1.27-1.684.033-.077.024-.195.147-.188.112.005.123.103.142.193.174.808.55 1.533.952 2.242.43.757 1.046 1.366 1.69 1.937.224.199.543.292.669.63a3.933 3.933 0 0 0-1.3.205c-.695.24-1.312.595-1.473 1.396-.153.766-.206 1.523.494 2.09.277.223.584.402.915.543 1.166.497 2.405.659 3.65.74 1.538.098 3.083.135 4.591-.284a8.646 8.646 0 0 0 2.442-1.133c.072-.048.119-.155.222-.125.602.174 1.238-.007 1.849.23.98.382 1.992.674 3.037.843 1.551.25 3.107.367 4.672.167 1.06-.134 2.1-.368 3.028-.931 1.195-.725 1.23-1.984.11-2.798a10.861 10.861 0 0 0-1.753-1.027c-.159-.075-.334-.127-.46-.301 1.237-1.136 1.861-2.642 2.483-4.18.356.658.7 1.282 1.16 1.83.487.584.912.57 1.39-.014a2.21 2.21 0 0 0 .419-.779c.55-1.845.25-3.627-.442-5.36" fill="#FFF"/>
    </g>
</svg>
