<svg xmlns="http://www.w3.org/2000/svg" width="42" height="42" viewBox="0 0 42 42">
    <g fill="none" fill-rule="evenodd">
        <g>
            <g>
                <path d="M0 0H42V42H0z" transform="translate(-578 -28) translate(578 28)"/>
                <path fill="#fde17b" stroke="#fde17b" stroke-width="2" d="M21 30.47l-6.661 2.997c-.641.289-1.395.003-1.683-.638-.09-.2-.127-.42-.107-.64l.672-7.241h0l-4.812-5.494c-.463-.529-.41-1.333.12-1.796.159-.14.35-.237.557-.284l7.106-1.605h0l3.712-6.28c.358-.604 1.139-.805 1.744-.447.184.109.338.263.448.448l3.712 6.28h0l7.106 1.604c.685.155 1.116.836.96 1.522-.046.207-.144.399-.283.558l-4.812 5.494h0l.672 7.241c.065.7-.45 1.32-1.15 1.385-.219.02-.44-.016-.64-.107L21 30.47h0z" transform="translate(-578 -28) translate(578 28)"/>
            </g>
        </g>
    </g>
</svg>
