<svg width="38" height="39" viewBox="0 0 38 39" xmlns="http://www.w3.org/2000/svg" xmlns:xlink="http://www.w3.org/1999/xlink">
    <defs>
        <path id="a" d="M0 .929h37.471v37.47H0z"/>
        <path id="c" d="M.819.201H32.67v34.598H.82z"/>
        <path id="e" d="M.001.929h31.11v34.5H.001z"/>
    </defs>
    <g fill="none" fill-rule="evenodd">
        <g>
            <mask id="b" fill="#fff">
                <use xlink:href="#a"/>
            </mask>
            <path d="M37.471 19.665c0 10.346-8.388 18.734-18.735 18.734-10.348 0-18.737-8.388-18.737-18.734C-.001 9.317 8.389.929 18.736.929c10.347 0 18.735 8.388 18.735 18.736" fill="#FA719A" mask="url(#b)"/>
        </g>
        <g transform="translate(4.8 3.6)">
            <mask id="d" fill="#fff">
                <use xlink:href="#c"/>
            </mask>
            <path d="M23.873.201c3.464 3.4 5.62 8.129 5.62 13.368 0 10.348-8.39 18.736-18.737 18.736A18.624 18.624 0 0 1 .819 29.43a18.664 18.664 0 0 0 13.117 5.368c10.347 0 18.735-8.388 18.735-18.735 0-6.693-3.52-12.549-8.798-15.863" fill="#F24C7C" mask="url(#d)"/>
        </g>
        <g>
            <mask id="f" fill="#fff">
                <use xlink:href="#e"/>
            </mask>
            <path d="M2.277 21.387c0-10.347 8.388-18.735 18.735-18.735 3.724 0 7.183 1.099 10.1 2.97C27.808 2.71 23.484.929 18.735.929 8.389.929 0 9.317 0 19.663c0 6.626 3.447 12.434 8.637 15.766-3.893-3.434-6.361-8.444-6.361-14.042" fill="#FBC6C0" mask="url(#f)"/>
        </g>
        <path stroke="#FFF" stroke-width="3" stroke-linecap="round" stroke-linejoin="round" d="M10.5 18.76 17.041 28 28.5 12"/>
    </g>
</svg>
