<svg width="32" height="32" viewBox="0 0 32 32" xmlns="http://www.w3.org/2000/svg">
    <g fill="none" fill-rule="evenodd">
        <path d="M0 0h32v32H0z"/>
        <path d="M29.555 4.474a8.28 8.28 0 0 0-11.806 0L16 6.244l-1.748-1.77a8.28 8.28 0 0 0-11.806 0c-3.26 3.298-3.26 8.645 0 11.943l1.96 1.983c.005.007.002.018.01.024l11.35 11.483c.065.066.15.095.235.093a.315.315 0 0 0 .235-.093l11.35-11.483c.007-.006.005-.017.01-.024l1.96-1.983c3.26-3.298 3.26-8.645 0-11.943" stroke="#FA719A"/>
    </g>
</svg>
