<svg width="12" height="12" viewBox="0 0 12 12" xmlns="http://www.w3.org/2000/svg">
    <g transform="translate(.5 .5)" fill-rule="nonzero" fill="none">
        <circle stroke="#FFF" stroke-width=".563" cx="5.344" cy="5.344" r="5.063"/>
        <path d="M5.344 3.206c1.726 0 3.046 1.742 3.1 1.817a.534.534 0 0 1 0 .641c-.054.075-1.374 1.817-3.1 1.817s-3.046-1.742-3.1-1.817a.534.534 0 0 1 0-.64c.054-.076 1.374-1.818 3.1-1.818zm0 1.336a.802.802 0 1 0 0 1.603.802.802 0 0 0 0-1.603z" fill="#FFF"/>
    </g>
</svg>
