<svg width="42" height="42" viewBox="0 0 42 42" xmlns="http://www.w3.org/2000/svg">
    <g fill="none" fill-rule="evenodd">
        <path d="M0 0h42v42H0z"/>
        <g transform="translate(3 3)">
            <path d="M10 8v28H4a4 4 0 0 1-4-4V8h10zm18 0-3.14-6.3a2 2 0 0 0-2.6-.92L6 8" fill="#F24C7C" fill-rule="nonzero"/>
            <rect fill="#FDE17B" fill-rule="nonzero" x="26" y="16" width="10" height="8" rx="2"/>
            <path d="M6 8 22.26.78a2 2 0 0 1 2.6.92L28 8m6 10v-8a2 2 0 0 0-2-2H2a2 2 0 0 0-2 2v24a2 2 0 0 0 2 2h30a2 2 0 0 0 2-2v-8m2-2v-4a2 2 0 0 0-2-2h-6a2 2 0 0 0-2 2v4a2 2 0 0 0 2 2h6a2 2 0 0 0 2-2z" stroke="#000" stroke-width="4" stroke-linecap="round" stroke-linejoin="round"/>
        </g>
    </g>
</svg>
