<svg width="41" height="41" viewBox="0 0 41 41" xmlns="http://www.w3.org/2000/svg">
    <g fill="none" fill-rule="evenodd">
        <path d="M0 0h41v41H0z"/>
        <path d="M38.686 26.291c0 6.632-5.377 12.008-12.008 12.008-6.632 0-12.007-5.376-12.007-12.008 0-6.631 5.375-12.006 12.007-12.006 6.631 0 12.008 5.375 12.008 12.006z" fill-opacity=".3" fill="#EBC0FB"/>
        <g stroke="#F24C7C" stroke-linecap="round" stroke-linejoin="round">
            <path d="M35.729 20.5c0 8.41-6.82 15.229-15.23 15.229S5.271 28.91 5.271 20.5c0-8.41 6.817-15.229 15.228-15.229 8.41 0 15.23 6.818 15.23 15.229z" stroke-width="2.343"/>
            <path d="M12.886 11.714c.363-.424.755-.816 1.171-1.171M10.055 24.6a12.615 12.615 0 0 1-.684-4.11c0-2.352.642-4.553 1.758-6.433" stroke-width="1.757"/>
            <path stroke-width="2.343" d="M19.329 9.957v12.34l8.2 5.232"/>
        </g>
    </g>
</svg>
