<svg width="58" height="75" viewBox="0 0 58 75" xmlns="http://www.w3.org/2000/svg">
    <g fill="none" fill-rule="evenodd">
        <path d="M25.8 18.892C22.779 22.907 7.09-2.764 2.065 8.465c-2.4 5.362 10.188 16.038 9.416 20.239" stroke="#FFF" stroke-width="1.522" stroke-linecap="round" stroke-linejoin="round"/>
        <path fill="#39B3FD" d="m53.76 59.276-17.6-43.66-30.97 5.398.578 2.063-.578-2.063-1.697 3.306L0 23.929l3.641 50.48 16.572.223z"/>
        <path d="M11.857 69.071c-.428-1.85-.81-3.708-1.217-5.562l-1.143-5.576c-.76-3.717-1.467-7.444-2.173-11.172-.689-3.73-1.377-7.462-2.01-11.203l-.947-5.612c-.29-1.876-.605-3.747-.874-5.626.428 1.85.81 3.708 1.218 5.562l1.143 5.575c.76 3.717 1.467 7.445 2.172 11.173.688 3.73 1.376 7.462 2.009 11.203l.947 5.612c.291 1.876.605 3.747.875 5.626M3.641 74.409a21.433 21.433 0 0 1 1.903-1.567 38.032 38.032 0 0 1 4.107-2.67c.713-.401 1.44-.78 2.206-1.1-.604.568-1.246 1.078-1.902 1.567a38.042 38.042 0 0 1-4.108 2.668c-.714.4-1.441.781-2.206 1.102M20.213 74.632c-.778-.34-1.518-.74-2.243-1.16a39.976 39.976 0 0 1-4.178-2.779 22.223 22.223 0 0 1-1.935-1.622c.778.34 1.518.739 2.243 1.159a39.669 39.669 0 0 1 4.177 2.781c.668.507 1.321 1.034 1.936 1.621M5.19 21.014c.704 2.213 1.363 4.437 2.046 6.655l1.973 6.676c1.315 4.45 2.575 8.916 3.836 13.382 1.244 4.47 2.487 8.94 3.677 13.427l1.782 6.729c.568 2.25 1.16 4.493 1.709 6.749-.704-2.212-1.364-4.437-2.046-6.655l-1.974-6.675c-1.314-4.451-2.575-8.917-3.835-13.383-1.243-4.47-2.486-8.94-3.675-13.427L6.9 27.763c-.57-2.25-1.162-4.493-1.71-6.749M14.619 26.515a.867.867 0 1 1-.398-1.688.867.867 0 0 1 .398 1.688m-.588-2.493a1.695 1.695 0 1 0 .777 3.298 1.695 1.695 0 0 0-.777-3.298M31.721 23.547a.867.867 0 1 1-.398-1.687.867.867 0 0 1 .398 1.687m-.588-2.493a1.695 1.695 0 1 0 .778 3.3 1.695 1.695 0 0 0-.778-3.3" fill="#324183"/>
        <path d="M14.42 25.671c4.965.766-1.716-28.567 9.72-24.034 5.46 2.166 3.898 18.597 7.382 21.067" stroke="#FFF" stroke-width="1.522" stroke-linecap="round" stroke-linejoin="round"/>
        <path d="m47.273 60.88-.962-.104c-1.58-.17-3.15-.502-4.663-.989a254.561 254.561 0 0 0-3.33-1.041c-3.765-1.156-4.248-1.304-4.248-2.56 0-.46.18-.894.506-1.22.327-.327.76-.507 1.22-.507l3.39.525a.093.093 0 0 0 .08-.158l-8.984-8.984a1.729 1.729 0 0 1 1.221-2.948c.461.001.895.181 1.22.507l3.951 3.95a.093.093 0 1 0 .132-.13 1.73 1.73 0 0 1 0-2.443c.326-.327.76-.506 1.22-.505.463 0 .897.18 1.222.505l1.195 1.195a.093.093 0 1 0 .131-.131 1.728 1.728 0 0 1 0-2.441c.325-.326.759-.506 1.22-.506.46 0 .894.178 1.221.505l1.011 1.011a.093.093 0 1 0 .132-.131 1.729 1.729 0 0 1-.002-2.441 1.71 1.71 0 0 1 1.221-.506c.463 0 .896.18 1.222.506l2.559 2.559c1.71 1.71 3.15 3.66 4.28 5.795l1.566 2.956-7.731 7.73z" fill="#FFF"/>
        <path d="M30.216 43.333a1.82 1.82 0 0 0 0 2.574l8.985 8.985-3.405-.526c-.502 0-.957.205-1.285.534a1.814 1.814 0 0 0-.534 1.285c0 1.646.863 1.512 7.643 3.691 1.522.49 3.091.822 4.681.993l1.006.108 7.811-7.811-1.597-3.016a24.328 24.328 0 0 0-4.298-5.818l-2.559-2.559a1.815 1.815 0 0 0-1.286-.532 1.819 1.819 0 0 0-1.286 3.105l-1.01-1.011a1.804 1.804 0 0 0-1.288-.533 1.819 1.819 0 0 0-1.285 3.105l-1.195-1.195a1.816 1.816 0 0 0-1.287-.532 1.82 1.82 0 0 0-1.287 3.106l-3.951-3.951a1.822 1.822 0 0 0-2.573-.002m.131.132a1.63 1.63 0 0 1 2.31.001l3.951 3.952a.186.186 0 0 0 .264-.263 1.636 1.636 0 0 1 1.155-2.79c.437 0 .847.17 1.155.479l1.195 1.195a.186.186 0 1 0 .263-.263 1.634 1.634 0 0 1 1.155-2.788c.435-.001.845.169 1.155.478l1.01 1.011a.186.186 0 0 0 .264-.263 1.635 1.635 0 0 1-.002-2.31c.31-.309.72-.479 1.156-.477.437 0 .847.17 1.155.477l2.559 2.56a24.122 24.122 0 0 1 4.265 5.773l1.533 2.895-7.651 7.65-.918-.098c-1.574-.17-3.137-.5-4.644-.985-1.324-.425-2.438-.767-3.333-1.042-3.827-1.175-4.181-1.317-4.181-2.472 0-.435.17-.845.479-1.154.306-.305.71-.475 1.14-.479l3.39.524a.186.186 0 0 0 .16-.316l-8.985-8.984a1.636 1.636 0 0 1 0-2.311" fill="#324183"/>
        <path d="M30.216 43.333a1.82 1.82 0 0 0 0 2.574l8.985 8.985-3.405-.526c-.502 0-.957.205-1.285.534a1.814 1.814 0 0 0-.534 1.285c0 1.646.863 1.512 7.643 3.691 1.522.49 3.091.822 4.681.993l1.006.108 7.811-7.811-1.597-3.016a24.328 24.328 0 0 0-4.298-5.818l-2.559-2.559a1.815 1.815 0 0 0-1.286-.532 1.819 1.819 0 0 0-1.286 3.105l-1.01-1.011a1.804 1.804 0 0 0-1.288-.533 1.819 1.819 0 0 0-1.285 3.105l-1.195-1.195a1.816 1.816 0 0 0-1.287-.532 1.82 1.82 0 0 0-1.287 3.106l-3.951-3.951a1.822 1.822 0 0 0-2.573-.002zm.131.132a1.63 1.63 0 0 1 2.31.001l3.951 3.952a.186.186 0 0 0 .264-.263 1.636 1.636 0 0 1 1.155-2.79c.437 0 .847.17 1.155.479l1.195 1.195a.186.186 0 1 0 .263-.263 1.634 1.634 0 0 1 1.155-2.788c.435-.001.845.169 1.155.478l1.01 1.011a.186.186 0 0 0 .264-.263 1.635 1.635 0 0 1-.002-2.31c.31-.309.72-.479 1.156-.477.437 0 .847.17 1.155.477l2.559 2.56a24.122 24.122 0 0 1 4.265 5.773l1.533 2.895-7.651 7.65-.918-.098c-1.574-.17-3.137-.5-4.644-.985-1.324-.425-2.438-.767-3.333-1.042-3.827-1.175-4.181-1.317-4.181-2.472 0-.435.17-.845.479-1.154.306-.305.71-.475 1.14-.479l3.39.524a.186.186 0 0 0 .16-.316l-8.985-8.984a1.636 1.636 0 0 1 0-2.311h0z" stroke="#39B3FD" stroke-width=".6" stroke-linecap="round" stroke-linejoin="round"/>
        <path d="M50.532 62.871a.848.848 0 0 1-1.199 0l-2.026-2.026 7.68-7.68 2.026 2.027c.33.33.33.868 0 1.198l-6.481 6.481z" fill="#FFF"/>
        <path d="m54.987 53.034-7.811 7.811 2.091 2.092a.94.94 0 0 0 1.33 0l6.481-6.481a.94.94 0 0 0 0-1.33l-2.091-2.092zm0 .263 1.96 1.96a.755.755 0 0 1 0 1.067l-6.481 6.481a.755.755 0 0 1-1.067 0l-1.96-1.96 7.548-7.548z" fill="#1F3A53"/>
        <path d="m54.987 53.034-7.811 7.811 2.091 2.092a.94.94 0 0 0 1.33 0l6.481-6.481a.94.94 0 0 0 0-1.33l-2.091-2.092zm0 .263 1.96 1.96a.755.755 0 0 1 0 1.067l-6.481 6.481a.755.755 0 0 1-1.067 0l-1.96-1.96 7.548-7.548h0z" stroke="#39B3FD" stroke-width=".6" stroke-linecap="round" stroke-linejoin="round"/>
        <path d="M40.028 50.572a.186.186 0 0 1-.262 0l-3.143-3.142.263-.262 3.142 3.142a.186.186 0 0 1 0 .262" fill="#1F3A53"/>
        <path d="M40.028 50.572h0a.186.186 0 0 1-.262 0l-3.143-3.142.263-.262 3.142 3.142a.186.186 0 0 1 0 .262z" stroke="#39B3FD" stroke-width=".6" stroke-linecap="round" stroke-linejoin="round"/>
        <path d="M42.408 47.806a.186.186 0 0 1-.263 0l-1.767-1.768.262-.262 1.768 1.768a.186.186 0 0 1 0 .262" fill="#1F3A53"/>
        <path d="M42.408 47.806h0a.186.186 0 0 1-.263 0l-1.767-1.768.262-.262 1.768 1.768a.186.186 0 0 1 0 .262z" stroke="#39B3FD" stroke-width=".6" stroke-linecap="round" stroke-linejoin="round"/>
        <path d="M45.95 46.204a.186.186 0 0 1-.262 0l-1.768-1.768.262-.262 1.768 1.767a.186.186 0 0 1 0 .263" fill="#1F3A53"/>
        <path d="M45.95 46.204h0a.186.186 0 0 1-.262 0l-1.768-1.768.262-.262 1.768 1.767a.186.186 0 0 1 0 .263z" stroke="#39B3FD" stroke-width=".6" stroke-linecap="round" stroke-linejoin="round"/>
        <path fill="#FFF" d="m28.51 41.916-5.61-2.89 2.72-2.719zM35.096 41.916l2.89-5.609 2.72 2.72zM28.51 48.502l-2.89 5.61-2.72-2.72zM31.803 40.14l-1.923-6.01h3.846zM26.734 45.21l-6.01 1.923v-3.847z"/>
    </g>
</svg>
