<svg width="41" height="41" viewBox="0 0 41 41" xmlns="http://www.w3.org/2000/svg">
    <g fill="none" fill-rule="evenodd">
        <path d="M0 0h41v41H0z"/>
        <g stroke="#BC79F4" stroke-linejoin="round" stroke-width="2.34">
            <path d="M32.079 10.748h-3.237C28.29 8.374 26.172 6.6 23.63 6.6a5.33 5.33 0 0 0-2.944.887 5.33 5.33 0 0 0-2.946-.887c-2.542 0-4.66 1.774-5.212 4.148H9.291A3.19 3.19 0 0 0 6.1 13.94v4.111a3.182 3.182 0 0 0 3.021 3.173v9.598a3.19 3.19 0 0 0 3.191 3.19h16.745a3.19 3.19 0 0 0 3.19-3.19v-9.598a3.182 3.182 0 0 0 3.022-3.173v-4.11a3.19 3.19 0 0 0-3.19-3.192z"/>
            <path d="M26.211 17.206a3.403 3.403 0 0 0-4.813 0l-.714.713-.713-.713a3.403 3.403 0 1 0-4.813 4.813l.8.8c.002.002 0 .006.003.009l4.628 4.628a.128.128 0 0 0 .095.037c.035.002.07-.01.096-.037l4.628-4.628c.003-.003.002-.007.004-.01l.8-.8a3.403 3.403 0 0 0 0-4.812z" fill-opacity=".3" fill="#EBC0FB"/>
        </g>
    </g>
</svg>
