<svg xmlns="http://www.w3.org/2000/svg" xmlns:xlink="http://www.w3.org/1999/xlink" width="76" height="76" viewBox="0 0 76 76">
    <defs>
        <linearGradient id="0fvwupxl5a" x1="50%" x2="173.022%" y1="0%" y2="150.281%">
            <stop offset="0%" stop-color="#EFD7AD"/>
            <stop offset="100%" stop-color="#F8A743"/>
        </linearGradient>
        <path id="77tt9o7b7b" d="M0 0L50.84 0 50.84 36.41 0 36.41z"/>
    </defs>
    <g fill="none" fill-rule="evenodd">
        <g>
            <g transform="translate(-86 -761) translate(86 761)">
                <circle cx="38" cy="38" r="38" fill="url(#0fvwupxl5a)"/>
                <g transform="translate(11.93 19.387)">
                    <mask id="6h6t2zip4c" fill="#fff">
                        <use xlink:href="#77tt9o7b7b"/>
                    </mask>
                    <path fill="#262222" d="M47.948 6.204c0 .546-.443.99-.99.99h-3.916c-.546 0-.989-.444-.989-.99V3.823c0-.546.443-.99.989-.99h3.917c.546 0 .989.444.989.99v2.381zm0 26.384c0 .546-.443.988-.99.988h-3.916c-.546 0-.989-.442-.989-.988v-2.383c0-.546.443-.987.989-.987h3.917c.546 0 .989.441.989.987v2.383zM38.036 6.204c0 .546-.442.99-.989.99H33.13c-.546 0-.988-.444-.988-.99V3.823c0-.546.442-.99.988-.99h3.917c.547 0 .99.444.99.99v2.381zm0 26.384c0 .546-.442.988-.989.988H33.13c-.546 0-.988-.442-.988-.988v-2.383c0-.546.442-.987.988-.987h3.917c.547 0 .99.441.99.987v2.383zm-10.12-10.495l-5.025-5.024-1.296-1.296c-.611-.612-1.415-1.017-2.278-1.081-1.342-.101-2.603.541-3.324 1.738-.163.272-.286.568-.362.876-.385 1.56.253 3.107 1.624 3.942.279.169.584.295.901.373 1.26.306 2.509-.052 3.38-.923l1.23-1.23c.385-.387 1.01-.387 1.395 0 .387.386.387 1.01 0 1.396L23.025 22c-1.02 1.022-2.384 1.662-3.827 1.7-1.865.052-3.604-.819-4.702-2.397-.432-.621-.726-1.335-.859-2.08-.374-2.09.417-4.122 2.085-5.402.75-.575 1.647-.945 2.584-1.067 1.738-.225 3.415.352 4.626 1.563l6.312 6.312c1.319 1.32 3.458 1.464 4.866.24 1.621-1.408 1.621-3.92 0-5.329-1.408-1.223-3.547-1.078-4.866.24l-1.211 1.212c-.385.385-1.01.385-1.396 0-.385-.385-.385-1.011 0-1.397l1.279-1.278c1.072-1.072 2.48-1.608 3.889-1.608 1.545 0 3.09.645 4.192 1.938 1.754 2.058 1.727 5.153-.059 7.182-2.113 2.404-5.795 2.492-8.022.264zm.208 10.495c0 .546-.442.988-.99.988h-3.916c-.545 0-.988-.442-.988-.988v-2.383c0-.546.443-.987.988-.987h3.917c.547 0 .989.441.989.987v2.383zm-9.911 0c0 .546-.443.988-.99.988h-3.915c-.547 0-.989-.442-.989-.988v-2.383c0-.546.442-.987.989-.987h3.916c.546 0 .989.441.989.987v2.383zM8.3 6.204c0 .546-.443.99-.989.99H3.396c-.547 0-.988-.444-.988-.99V3.823c0-.546.441-.99.988-.99h3.916c.546 0 .99.444.99.99v2.381zm0 26.384c0 .546-.443.988-.989.988H3.396c-.547 0-.988-.442-.988-.988v-2.383c0-.546.441-.987.988-.987h3.916c.546 0 .99.441.99.987v2.383zM12.32 3.823c0-.546.442-.99.989-.99h3.916c.546 0 .989.444.989.99v2.381c0 .546-.443.99-.99.99h-3.915c-.547 0-.989-.444-.989-.99V3.823zm9.911 0c0-.546.443-.99.988-.99h3.917c.547 0 .989.444.989.99v2.381c0 .546-.442.99-.99.99h-3.916c-.545 0-.988-.444-.988-.99V3.823zM48.966-.001H1.874C.839 0 0 .84 0 1.873v32.663C0 35.57.84 36.41 1.874 36.41h47.092c1.035 0 1.875-.84 1.875-1.874V1.873c0-1.034-.84-1.874-1.875-1.874z" mask="url(#6h6t2zip4c)"/>
                </g>
            </g>
        </g>
    </g>
</svg>
