<svg xmlns="http://www.w3.org/2000/svg" xmlns:xlink="http://www.w3.org/1999/xlink" width="76" height="76" viewBox="0 0 76 76">
    <defs>
        <linearGradient id="vi3hyljyca" x1="50%" x2="173.022%" y1="0%" y2="150.281%">
            <stop offset="0%" stop-color="#EFD7AD"/>
            <stop offset="100%" stop-color="#F8A743"/>
        </linearGradient>
        <path id="7e583npxtb" d="M0 0.147L50.307 0.147 50.307 53.365 0 53.365z"/>
    </defs>
    <g fill="none" fill-rule="evenodd">
        <g>
            <g transform="translate(-282 -761) translate(282 761)">
                <circle cx="38" cy="38" r="38" fill="url(#vi3hyljyca)"/>
                <g>
                    <path fill="#262222" d="M31.562 37.486c-4.364 4.621-11.682 1.156-11.682 1.156 6.419 8.156 11.682-1.156 11.682-1.156" transform="translate(12.427 10.439)"/>
                    <g transform="translate(12.427 10.439) translate(0 .527)">
                        <mask id="cprruko8xc" fill="#fff">
                            <use xlink:href="#7e583npxtb"/>
                        </mask>
                        <path fill="#262222" d="M24.39 8.01c-8.017.313-14.833 5.806-17.272 13.117-.304-.632-.77-1.164-1.355-1.54 1.711-9.153 9.748-16.105 19.39-16.105 9.643 0 17.68 6.952 19.39 16.104-.57.367-1.024.886-1.327 1.494C40.649 13.256 33.148 7.666 24.39 8.01m23.47 11.223C45.963 8.406 36.515.146 25.153.146c-11.361 0-20.809 8.26-22.707 19.087C1.021 19.763 0 21.123 0 22.735v8.413c0 2.068 1.678 3.746 3.746 3.746 1.467 0 2.725-.852 3.338-2.08 1.476 4.578 4.61 8.409 8.729 10.737.38.215.782-.276.495-.606-2.376-2.741-3.886-6.58-3.967-10.846 2.081-5.97 8.915-5.674 14.087-6.52 4.335-.711 5.231-4.574 5.346-7.108 3.714 2.715 6.207 7.63 6.207 13.26 0 4.412-1.527 8.393-3.979 11.214-.283.329.117.817.497.606 4.117-2.33 7.248-6.16 8.724-10.737.301.602.75 1.116 1.314 1.48-1.024 3.368-2.924 6.42-5.6 8.848-3.184 2.888-7.131 4.611-11.334 5.008-.603-1.019-1.702-1.711-2.972-1.711-1.912 0-3.463 1.551-3.463 3.464s1.55 3.462 3.463 3.462c1.331 0 2.474-.759 3.054-1.861 5.003-.427 9.707-2.46 13.491-5.89 3.299-2.99 5.595-6.788 6.74-10.982 1.397-.544 2.39-1.895 2.39-3.484v-8.413c0-1.611-1.02-2.97-2.446-3.502" mask="url(#cprruko8xc)"/>
                    </g>
                </g>
            </g>
        </g>
    </g>
</svg>
