<svg xmlns="http://www.w3.org/2000/svg" xmlns:xlink="http://www.w3.org/1999/xlink" width="76" height="76" viewBox="0 0 76 76">
    <defs>
        <linearGradient id="xb1cbwxjfa" x1="50%" x2="173.022%" y1="0%" y2="150.281%">
            <stop offset="0%" stop-color="#EFD7AD"/>
            <stop offset="100%" stop-color="#F8A743"/>
        </linearGradient>
        <path id="c3s95trgpb" d="M0 0.145L40.05 0.145 40.05 40.196 0 40.196z"/>
    </defs>
    <g fill="none" fill-rule="evenodd">
        <g>
            <g transform="translate(-478 -761) translate(478 761)">
                <circle cx="38" cy="38" r="38" fill="url(#xb1cbwxjfa)"/>
                <g>
                    <path fill="#000" d="M11.673 7.563c-1.14 0-2.278.433-3.146 1.3-1.733 1.734-1.733 4.556 0 6.29 1.736 1.735 4.556 1.735 6.291 0 1.734-1.734 1.734-4.556 0-6.29-.868-.867-2.006-1.3-3.145-1.3" transform="translate(19 18)"/>
                    <g transform="translate(19 18) translate(0 .19)">
                        <mask id="lwi1eepkqc" fill="#fff">
                            <use xlink:href="#c3s95trgpb"/>
                        </mask>
                        <path fill="#000" d="M28.782 28.928c-.222.222-.514.333-.806.333-.291 0-.583-.111-.805-.333l-7.914-7.915c-.445-.446-.445-1.167 0-1.61.444-.446 1.165-.446 1.61 0l7.915 7.914c.445.446.445 1.165 0 1.61M16.428 16.574c-1.31 1.312-3.033 1.967-4.755 1.967-1.723 0-3.445-.655-4.756-1.967-1.27-1.27-1.97-2.958-1.97-4.755 0-1.797.7-3.485 1.97-4.755 2.622-2.622 6.89-2.622 9.511 0 1.271 1.27 1.97 2.958 1.97 4.755 0 1.797-.699 3.485-1.97 4.755m22.737 3.7L20.362 1.471c-.546-.546-1.288-.86-2.095-.884L3.83.147C1.756.084-.062 1.9 0 3.975l.44 14.439c.025.805.339 1.547.885 2.093L20.127 39.31c1.266 1.266 3.42 1.164 4.81-.228l13.999-14c1.392-1.39 1.494-3.543.229-4.809" mask="url(#lwi1eepkqc)"/>
                    </g>
                </g>
            </g>
        </g>
    </g>
</svg>
