<svg xmlns="http://www.w3.org/2000/svg" xmlns:xlink="http://www.w3.org/1999/xlink" width="76" height="76" viewBox="0 0 76 76">
    <defs>
        <linearGradient id="o8lfsfpboa" x1="50%" x2="173.022%" y1="0%" y2="150.281%">
            <stop offset="0%" stop-color="#EFD7AD"/>
            <stop offset="100%" stop-color="#F8A743"/>
        </linearGradient>
        <path id="d05n1eftqb" d="M0.001 0L47.634 0 47.634 39.489 0.001 39.489z"/>
    </defs>
    <g fill="none" fill-rule="evenodd">
        <g>
            <g transform="translate(-514 -1099) translate(514 1099)">
                <circle cx="38" cy="38" r="38" fill="url(#o8lfsfpboa)"/>
                <g transform="translate(14 18)">
                    <mask id="ngvb8kdpuc" fill="#fff">
                        <use xlink:href="#d05n1eftqb"/>
                    </mask>
                    <path fill="#262222" d="M43.204 11.407l-3.452 3.365c-.186.181-.27.44-.227.696l.816 4.75c.11.643-.567 1.134-1.143.83l-4.266-2.241c-.23-.123-.505-.123-.732 0l-4.266 2.242c-.578.303-1.253-.188-1.143-.83l.815-4.751c.044-.256-.041-.515-.226-.696l-3.451-3.365c-.467-.454-.209-1.248.436-1.343l4.769-.692c.257-.036.478-.199.592-.43l2.135-4.323c.288-.584 1.122-.584 1.412 0l2.132 4.322c.113.232.336.395.593.431l4.77.692c.646.095.903.889.436 1.343m-7.77 22.367H5.675c-.656 0-1.185-.53-1.185-1.185 0-.653.53-1.184 1.185-1.184h29.76c.654 0 1.185.53 1.185 1.184 0 .654-.53 1.185-1.184 1.185M5.674 25.097h18.144c.654 0 1.184.53 1.184 1.184 0 .653-.53 1.184-1.184 1.184H5.674c-.656 0-1.185-.53-1.185-1.184 0-.654.53-1.184 1.185-1.184M44.73-.001H2.906C1.3 0 .001 1.3.001 2.903v33.68c0 1.605 1.3 2.906 2.905 2.906H44.73c1.603 0 2.905-1.301 2.905-2.905V2.903c0-1.603-1.302-2.904-2.905-2.904" mask="url(#ngvb8kdpuc)"/>
                </g>
            </g>
        </g>
    </g>
</svg>
