<svg xmlns="http://www.w3.org/2000/svg" width="41" height="38" viewBox="0 0 41 38">
    <defs>
        <linearGradient id="4wnmfxlx1a" x1="107.32%" x2="44.331%" y1="30.368%" y2="89.062%">
            <stop offset="0%" stop-color="#BC79F4"/>
            <stop offset="100%" stop-color="#BC79F4" stop-opacity="0"/>
        </linearGradient>
        <linearGradient id="evkw0i404b" x1="34.36%" x2="127.696%" y1="35.151%" y2="76.519%">
            <stop offset="0%" stop-color="#BC79F4" stop-opacity="0"/>
            <stop offset="100%" stop-color="#BC79F4"/>
        </linearGradient>
        <linearGradient id="fm5ojt6ypc" x1="68.225%" x2="-69.538%" y1="19.697%" y2="97.336%">
            <stop offset="0%" stop-color="#BC79F4" stop-opacity="0"/>
            <stop offset="100%" stop-color="#BC79F4"/>
        </linearGradient>
        <linearGradient id="xu8d480q7d" x1="122.58%" x2="24.084%" y1="-95.357%" y2="92.454%">
            <stop offset="0%" stop-color="#BC79F4"/>
            <stop offset="100%" stop-color="#BC79F4" stop-opacity="0"/>
        </linearGradient>
    </defs>
    <g fill="none" fill-rule="evenodd">
        <g>
            <g>
                <g>
                    <g>
                        <path fill="url(#4wnmfxlx1a)" d="M31.049 0L34.367 10.881 40.603 10.881z" transform="translate(-239 -219) translate(20 204) translate(219 15)"/>
                        <path fill="url(#evkw0i404b)" d="M9.952 0L34.367 10.881 31.05 0z" transform="translate(-239 -219) translate(20 204) translate(219 15)"/>
                        <path fill="url(#fm5ojt6ypc)" d="M9.952 0L0 10.748 20.301 37.153 34.367 10.881z" transform="translate(-239 -219) translate(20 204) translate(219 15)"/>
                        <path fill="url(#xu8d480q7d)" d="M34.367 10.881L20.301 37.153 40.603 10.881z" transform="translate(-239 -219) translate(20 204) translate(219 15)"/>
                    </g>
                </g>
            </g>
        </g>
    </g>
</svg>
