<svg width="55" height="56" viewBox="0 0 55 56" xmlns="http://www.w3.org/2000/svg">
    <defs>
        <linearGradient x1="50%" y1="3.57%" x2="100%" y2="96.43%" id="xhonhkcl1a">
            <stop stop-color="#FF21E1" offset="0%"/>
            <stop stop-color="#FF0DA2" offset="100%"/>
        </linearGradient>
    </defs>
    <g fill="none" fill-rule="evenodd">
        <path d="M0 0h55v55H0z"/>
        <g fill-rule="nonzero">
            <path d="M52.956 20.731a11.17 11.17 0 0 1-1.115-2.202 12.549 12.549 0 0 1-.451-2.468 11.17 11.17 0 0 0-1.699-5.732 11.016 11.016 0 0 0-4.964-3.397 11.575 11.575 0 0 1-2.23-1.14 12.076 12.076 0 0 1-1.725-1.752A11.387 11.387 0 0 0 35.968.325a11.125 11.125 0 0 0-5.814.185 11.258 11.258 0 0 1-5.15 0 11.125 11.125 0 0 0-5.998-.185 11.387 11.387 0 0 0-4.778 3.715c-.523.642-1.11 1.229-1.752 1.751-.7.46-1.448.843-2.23 1.141a11.016 11.016 0 0 0-4.99 3.397 11.17 11.17 0 0 0-1.646 5.732 12.549 12.549 0 0 1-.451 2.468 11.17 11.17 0 0 1-1.115 2.15A11.409 11.409 0 0 0 0 26.488c.145 2.07.852 4.061 2.044 5.76a11.17 11.17 0 0 1 1.115 2.149c.218.824.351 1.67.398 2.52a11.17 11.17 0 0 0 1.699 5.733 11.016 11.016 0 0 0 4.964 3.396c.782.299 1.53.682 2.23 1.141.642.523 1.229 1.11 1.751 1.752a11.387 11.387 0 0 0 4.805 3.715 7.728 7.728 0 0 0 2.31.345 15.934 15.934 0 0 0 3.61-.53 11.258 11.258 0 0 1 5.149 0c1.92.595 3.966.659 5.92.185a11.387 11.387 0 0 0 4.777-3.715c.523-.642 1.11-1.23 1.752-1.752.7-.46 1.448-.842 2.23-1.14a11.016 11.016 0 0 0 4.964-3.397 11.17 11.17 0 0 0 1.672-5.732c.047-.852.18-1.697.398-2.521a11.17 11.17 0 0 1 1.115-2.15A11.409 11.409 0 0 0 55 26.49a11.409 11.409 0 0 0-2.044-5.759z" fill="url(#xhonhkcl1a)" transform="translate(0 1)"/>
            <g fill="#FFF">
                <path d="M40.7 42.35H14.3a3.3 3.3 0 0 1-3.3-3.3V17.6a3.3 3.3 0 0 1 3.3-3.3h6.6a1.65 1.65 0 0 1 0 3.3h-6.6v21.45h26.4v-9.9a1.65 1.65 0 0 1 3.3 0v9.9a3.3 3.3 0 0 1-3.3 3.3z"/>
                <path d="m43.373 17.963-8.25-6.6a1.65 1.65 0 0 0-2.673 1.287v1.963A16.154 16.154 0 0 0 20.9 27.236a1.65 1.65 0 0 0 1.65 1.914 1.65 1.65 0 0 0 1.37-.742c1.93-2.921 6.187-3.812 8.53-4.093v1.535a1.65 1.65 0 0 0 2.673 1.287l8.25-6.6a1.65 1.65 0 0 0 0-2.574z"/>
            </g>
        </g>
    </g>
</svg>
