<svg width="152" height="152" viewBox="0 0 152 152" xmlns="http://www.w3.org/2000/svg" xmlns:xlink="http://www.w3.org/1999/xlink">
    <defs>
        <path id="a" d="M0 0h152v152H0z"/>
        <path id="c" d="M0 .074h134.118V15.5H0z"/>
        <path id="e" d="M.396.373h129.288v83.99H.397z"/>
        <path id="g" d="M.396.373h129.288v64.44H.397z"/>
        <path id="i" d="M.145.194h51.137V24H.145z"/>
        <path id="k" d="M0 .094h41.34V24.77H0z"/>
        <path id="m" d="M.408.124h7.493V14.46H.408z"/>
        <path id="o" d="M0 .929h37.471v37.47H0z"/>
        <path id="q" d="M.819.201H32.67v34.598H.82z"/>
        <path id="s" d="M.001.929h31.11v34.5H.001z"/>
    </defs>
    <g fill="none" fill-rule="evenodd">
        <mask id="b" fill="#fff">
            <use xlink:href="#a"/>
        </mask>
        <g mask="url(#b)">
            <g transform="translate(14 145.626)">
                <mask id="d" fill="#fff">
                    <use xlink:href="#c"/>
                </mask>
                <path d="M127.897 6.373S102.987 14.42 65.95 16s-71.95-5.352-71.95-5.352S23.704 1.913 60.74.333c37.036-1.58 63.617 3.9 63.617 3.9" fill="#3A1739" mask="url(#d)"/>
            </g>
            <path d="m121.467 118.38-8.235 1.065-38.808 5.025-19.02-11.41-7.268-4.991-9.7-6.66 49.295-4.23s31.5 17.013 33.736 21.2" fill="#BE3729"/>
            <path d="m74.424 124.47-4.496 20.112-3.116 13.94-16.276-9.442-2.695-1.565-6.316-3.664-10.747-6.234s3.718-19.01 7.657-36.208l11.581 7.457 6.255 4.028 2.414 1.553 15.597 10.042.142-.019z" fill="#BE3729"/>
            <path d="m113.067 153.439-14.754 1.622-6.84.75-3.185.351-12.962 1.423-8.514.936 3.117-13.94 4.495-20.11 21.821-2.827 2.955-.38 7.231-.937 15.036-1.947c-2.844 13.243-6.43 29.2-8.4 35.059" fill="#CB5443"/>
            <path fill="#F0BA23" d="m56.271 112.894 2.414 1.553-8.148 34.633-2.696-1.565-6.315-3.664 8.49-34.985zM99.2 121.263l7.23-.936-8.118 34.734-6.84.75-3.184.351 7.957-34.517z"/>
            <path fill="#F5DE2F" d="m58.685 114.447-8.149 34.633-2.695-1.564 8.43-34.622z"/>
            <path fill="#E3852C" d="m96.245 121.644 2.955-.381-7.728 34.548-3.184.35z"/>
            <path d="m75.326 157.585-8.514.937 3.116-13.94s-.918 10.66-.396 11.43c.524.77 5.794 1.573 5.794 1.573" fill="#FFF"/>
            <path d="m113.233 119.444-38.458 4.982-.493.064-9.438-5.716-9.44-5.715-6.929-4.76-.339-.231 39.037-4.45s9.33 5.206 17.548 10.268c3.216 1.981 6.262 3.94 8.51 5.556l.002.002z" fill="#E3852C"/>
            <path fill="#BE3729" d="m87.73 97.18-.557 6.436-39.037 4.453-9.7-6.66z"/>
            <path d="M113.232 119.445 86.01 122.97l1.163-19.354s18.069 10.085 26.058 15.827l.001.002z" fill="#E3852C"/>
            <g transform="translate(18.5 40.127)">
                <mask id="f" fill="#fff">
                    <use xlink:href="#e"/>
                </mask>
                <path d="M126.556 56.327a11.26 11.26 0 0 1-6.798 3.702c.832 1.661.356 4.523-.967 5.827-1.324 1.306-3.223 1.88-5.078 1.994-2.535.153-5.231-.56-6.981-2.402-.24 2.757-3.593 4.236-6.05 5.506-4.468 2.305-9.396 2.78-14.462 2.806-6.91.035-14.075-.766-20.677 1.1-3.866 1.093-7.772 3.47-8.925 7.317-.21.7-.318 1.41-.344 2.122l-.493.064-9.438-5.715c-.851-1.977-2.166-3.79-3.782-5.172-3.503-3.001-8.008-4.427-12.586-5.303a77.33 77.33 0 0 0-3.141-.525c-5.606-.83-11.396-1.346-16.481-3.845-4.963-2.44-9.114-7.036-9.856-12.515-.743-5.48 2.673-11.553 8.065-12.77-4.48-2.054-5.914-7.905-5.063-12.76 1.265-7.232 6.565-13.623 13.439-16.206 6.873-2.585 15.07-1.267 20.788 3.341C41.29 7.85 47.442 3.12 53.366 1.37 59.285-.38 65.918.153 71.323 3.143c2.523 1.393 4.856 3.433 5.764 6.167C81.68 4.08 89.914 3.343 96.814 4.24c4 .52 8.025 1.57 11.343 3.866 6.876 4.758 9.286 14.95 5.27 22.285 3.942-.919 7.823.718 10.808 3.449 2.988 2.73 4.733 6.653 5.276 10.663.564 4.151-.201 8.667-2.955 11.824" fill="#FFF8D6" mask="url(#f)"/>
            </g>
            <g transform="translate(18.5 40.127)">
                <mask id="h" fill="#fff">
                    <use xlink:href="#g"/>
                </mask>
                <path d="M126.556 56.327a11.267 11.267 0 0 1-5.543 3.443l.004-.005c2.485-3.175 3.158-7.733 2.629-11.928-.51-4.054-2.11-8.023-4.832-10.795-2.722-2.77-6.25-4.44-9.821-3.53 3.611-7.392 1.38-17.696-4.88-22.532-3.02-2.334-6.676-3.413-10.308-3.955-6.265-.936-13.731-.227-17.874 5.034-.836-2.765-2.962-4.835-5.256-6.253-4.918-3.044-10.937-3.613-16.303-1.872-5.366 1.744-10.926 6.494-14.136 11.572-5.208-4.68-12.65-6.047-18.876-3.466-6.224 2.578-11.005 9.011-12.12 16.31-.75 4.899.575 10.815 4.649 12.91-4.887 1.207-7.958 7.325-7.26 12.864.54 4.292 2.937 8.057 6.089 10.689a25.34 25.34 0 0 1-2.365-1.01C5.39 61.363 1.239 56.767.497 51.288c-.743-5.48 2.673-11.553 8.065-12.77-4.48-2.054-5.914-7.905-5.063-12.76 1.265-7.232 6.565-13.623 13.439-16.206 6.873-2.585 15.07-1.267 20.788 3.341C41.29 7.85 47.442 3.12 53.366 1.37 59.285-.38 65.918.153 71.323 3.143c2.523 1.393 4.856 3.433 5.764 6.167C81.68 4.08 89.914 3.343 96.814 4.24c4 .52 8.025 1.57 11.343 3.866 6.876 4.758 9.286 14.95 5.27 22.285 3.942-.919 7.823.718 10.808 3.449 2.988 2.73 4.733 6.653 5.276 10.663.564 4.151-.201 8.667-2.955 11.824" fill="#FFF" mask="url(#h)"/>
            </g>
            <g>
                <g transform="translate(12.5 54.376)">
                    <mask id="j" fill="#fff">
                        <use xlink:href="#i"/>
                    </mask>
                    <path d="m41.774.194 8.295 15.94a.179.179 0 0 1 .004.007l1.21 2.325-.097.106-18.4 2.361-2.846.367-7.38.947L8.899 24C5.462 17.316 2.27 10.856.145 6.027l13.41-1.879 7.355-1.03 2.67-.375 2.256-.316h.004L41.774.194z" fill="#BE3729" mask="url(#j)"/>
                </g>
                <path d="M95.848 37.885 85.6 49.058l-4.93 5.373-2.014 2.195L63.782 72.84l-1.21-2.325s0-.004-.003-.008L54.274 54.57 69.25 38.255l.002-.001 1.915-2.087h.002l5.072-5.528 9.904-10.79s4.45 8.145 9.703 18.036" fill="#CB5443"/>
                <path d="M12.645 60.402s27.68-28.065 30.3-29.729c2.618-1.664 43.2-10.823 43.2-10.823l-31.87 34.72-41.63 5.832z" fill="#FF6356"/>
                <path fill="#F0BA23" d="m63.122 25.214-8.414 9.927-4.757 5.613-.002.001-.897 1.06-.002.001-12.97 15.302 9.207 18.19-2.847.367-7.38.947-9.004-18.099 13.762-15.08.566-.621 5.284-5.79 8.857-9.707.055-.015z"/>
                <path fill="#F0BA23" d="m76.24 30.639.18.356.002.002L85.6 49.058l-4.93 5.373-2.014 2.195-9.113-17.804-.29-.568h-.003l-20.198 3.561-.002.001-9.232 1.627-12.483 2.2.498-.496 5.349-5.295.271-.268 12.215-2.553 9.04-1.89z"/>
                <path fill="#F5D92E" d="m26.056 58.523 10.025-1.405 27.04-31.904-8.596 2.11z"/>
                <path fill="#F5DE2F" d="m76.242 30.64-6.99 7.614-41.92 7.39 6.12-6.06zM36.08 57.118l9.207 18.19-2.847.367-9.03-18.182z"/>
                <path fill="#E3852C" d="m71.169 36.167.682 1.313 8.82 16.952-2.015 2.194-9.113-17.803-.29-.569-.003.001-20.198 3.56-.002.002-9.232 1.626-12.483 2.199 13.049-2.82 9.565-2.067.002-.001 21.216-4.586z"/>
                <path fill="#FFF" d="m71.168 36.167.678 1.322 4.576-6.494-.18-.355zM38.335 56.803l15.94-2.233 14.977-16.316.29.568-13.02 17.739s6.122 14.092 6.05 13.954c-.072-.138-8.676-12.9-8.676-12.9l-15.56-.812z"/>
                <path d="M45.095 37.967c-7.048 4.846-11.82 12.686-19.376 16.692a23.124 23.124 0 0 1-6.491 2.282c-1.2.229-2.439.362-3.642.151.46 1.133 1.358 1.92 2.423 2.518.651.365 1.324.69 2.014.972a12.458 12.458 0 0 1-2.45 4.53c4.242-.426 8.436-1.921 11.973-4.303 3.538-2.382 6.544-5.503 9.03-8.969 2.81-3.92 5.087-8.41 9.007-11.221l-2.488-2.652z" fill="#F5DE2F"/>
                <path d="M47.583 40.62c-3.92 2.809-6.196 7.3-9.007 11.22-2.486 3.467-5.49 6.587-9.028 8.969-3.538 2.382-7.732 3.877-11.976 4.303a11.9 11.9 0 0 0 1.311-1.867c3.465-.555 6.843-1.808 9.798-3.672 3.609-2.275 6.708-5.301 9.296-8.693 2.87-3.758 5.246-8.081 9.114-10.784l.492.524z" fill="#F0BA23"/>
                <path d="M48.53 36.163c7.989-3.053 17.151-2.532 24.739-6.48a23.12 23.12 0 0 0 5.562-4.05c.87-.858 1.682-1.802 2.192-2.912.671 1.02.81 2.207.698 3.424a18.116 18.116 0 0 1-.343 2.21 12.46 12.46 0 0 0 5.12.553c-2.758 3.252-6.37 5.856-10.338 7.417-3.968 1.56-8.244 2.265-12.508 2.344-4.823.089-9.813-.585-14.352 1.048l-.77-3.554z" fill="#F5DE2F"/>
                <path d="M49.3 39.717c4.54-1.633 9.528-.958 14.352-1.048 4.264-.079 8.539-.782 12.508-2.344 3.968-1.561 7.58-4.164 10.339-7.418a11.87 11.87 0 0 1-2.281.02c-2.424 2.538-5.373 4.608-8.584 5.984-3.92 1.68-8.173 2.514-12.433 2.72-4.723.23-9.631-.267-14.052 1.384l.152.702z" fill="#F0BA23"/>
                <g transform="translate(6 28.375)">
                    <mask id="l" fill="#fff">
                        <use xlink:href="#k"/>
                    </mask>
                    <path d="M13.395 15.413a6.587 6.587 0 0 1-.606-1.35 8.03 8.03 0 0 1-.195-.705c-.004-.024-.008-.036-.008-.036l-.034-.157c-.453-2.175.126-3.6 1.368-4.48 5.39-3.82 23.267 2.645 23.267 2.645s-19.004 12.098-23.792 4.083M3.819 1.172c-1.202.592-2.122 1.456-2.665 2.646A12.626 12.626 0 0 0 .082 7.687a13.12 13.12 0 0 0-.033 2.609c.165 1.937.737 3.831 1.615 5.577 3.08 6.131 9.92 10.43 16.002 8.377a29.233 29.233 0 0 0 2.614-1.038c9.435-4.24 21.06-14.267 21.06-14.267S13.452-3.585 3.82 1.172" fill="#F5DE2F" mask="url(#l)"/>
                </g>
                <path d="M47.34 37.32S35.716 47.347 26.28 51.588c-6.116-2.403-7.578-9.305-7.686-9.855C21.348 53.609 47.34 37.32 47.34 37.32" fill="#F0BA23"/>
                <path d="M19.92 37.06c-1.242.88-1.82 2.305-1.368 4.48l-12.47-5.478a12.636 12.636 0 0 1 1.072-3.868c.543-1.19 1.463-2.055 2.665-2.647l10.1 7.514zM18.789 42.439 6.049 38.67c.165 1.938.736 3.832 1.615 5.577l11.731-.46-.606-1.35z" fill="#FFEC84"/>
                <path d="M51.49 36.201s1.983-18.906 7.772-22.09c1.333-.734 2.868-.632 4.627.724l.127.1.029.022c.197.159.38.32.55.483.38.368.696.745.95 1.134C70.667 24.38 51.49 36.201 51.49 36.201m-3.959 2.696s14.094-6.085 22.027-12.725c.753-.63 1.45-1.264 2.074-1.9 4.502-4.576 3.617-12.606-.557-18.052-1.187-1.552-2.642-2.893-4.314-3.887a13.103 13.103 0 0 0-2.361-1.108 12.62 12.62 0 0 0-3.949-.723c-1.308-.032-2.487.42-3.544 1.243-8.482 6.592-9.376 37.152-9.376 37.152" fill="#F5DE2F"/>
                <path d="M47.532 38.898s14.095-6.087 22.027-12.726c.506-6.552-5.066-10.878-5.514-11.216 9.484 7.66-16.513 23.942-16.513 23.942" fill="#F0BA23"/>
                <g transform="translate(56.5 .376)">
                    <mask id="n" fill="#fff">
                        <use xlink:href="#m"/>
                    </mask>
                    <path d="M2.762 13.736c1.333-.734 2.868-.633 4.628.724L7.9.849A12.632 12.632 0 0 0 3.953.126C2.644.094 1.465.546.408 1.37l2.354 12.366z" fill="#FFEC84" mask="url(#n)"/>
                </g>
                <path d="M65.544 16.574 71.076 6.22c-1.187-1.552-2.642-2.893-4.314-3.887L64.594 15.44l.95 1.134z" fill="#FFEC84"/>
                <path d="M52.94 36.922c-.868 2.188-8.576 8.764-10.09 5.987-.735-1.349-.883-3.035-.84-4.413.047-1.463.308-2.579.308-2.579 2.377-2.722 4.309-2.985 4.309-2.985s4.152 1.043 5.76 2.502c.507.46.761.963.552 1.488" fill="#F5DE2F"/>
                <path d="M52.94 36.922c-.868 2.188-8.576 8.764-10.09 5.987-.735-1.349-.883-3.035-.84-4.413.166.32.317.654.534.919.53.65 1.318 1.124 2.171 1.144.824.02 1.6-.36 2.314-.772a22.135 22.135 0 0 0 4.904-3.854c.153-.163.307-.328.454-.499.507.46.761.963.552 1.488" fill="#F0BA23"/>
                <path d="M42.895 37.581c.237.395.692.623 1.15.677.457.053.92-.048 1.359-.187a7.918 7.918 0 0 0 2.841-1.606c.408-.36.789-.78.956-1.296.167-.517.074-1.149-.345-1.496-.748-.62-2.289-.251-3.104.037-1.252.443-3.842 2.224-2.857 3.871" fill="#FFEC84"/>
            </g>
            <g>
                <g transform="translate(65 67)">
                    <mask id="p" fill="#fff">
                        <use xlink:href="#o"/>
                    </mask>
                    <path d="M37.471 19.665c0 10.346-8.388 18.734-18.735 18.734-10.348 0-18.737-8.388-18.737-18.734C-.001 9.317 8.389.929 18.736.929c10.347 0 18.735 8.388 18.735 18.736" fill="#FD0" mask="url(#p)"/>
                </g>
                <g transform="translate(69.8 70.6)">
                    <mask id="r" fill="#fff">
                        <use xlink:href="#q"/>
                    </mask>
                    <path d="M23.873.201c3.464 3.4 5.62 8.129 5.62 13.368 0 10.348-8.39 18.736-18.737 18.736A18.624 18.624 0 0 1 .819 29.43a18.664 18.664 0 0 0 13.117 5.368c10.347 0 18.735-8.388 18.735-18.735 0-6.693-3.52-12.549-8.798-15.863" fill="#FAC500" mask="url(#r)"/>
                </g>
                <g transform="translate(65 67)">
                    <mask id="t" fill="#fff">
                        <use xlink:href="#s"/>
                    </mask>
                    <path d="M2.277 21.387c0-10.347 8.388-18.735 18.735-18.735 3.724 0 7.183 1.099 10.1 2.97C27.808 2.71 23.484.929 18.735.929 8.389.929 0 9.317 0 19.663c0 6.626 3.447 12.434 8.637 15.766-3.893-3.434-6.361-8.444-6.361-14.042" fill="#FFF1A1" mask="url(#t)"/>
                </g>
                <path d="M85.98 89.86c-.03-2.34 1.32-2.76 2.67-5.01 1.32-2.46 1.56-4.5.09-6.36-3.06-3.36-10.47-2.52-10.47 3.03 0 2.34 3.72 2.37 3.57.09-.54-4.5 5.01-4.05 4.23-.06-.84 3.54-3.75 4.29-3.75 8.31.03 2.28 3.69 2.28 3.66 0zm-1.8 7.11c1.17 0 2.13-1.02 2.13-2.25s-.96-2.22-2.13-2.19c-1.2.03-2.13.96-2.13 2.19s.93 2.25 2.13 2.25z" fill="#FFF" fill-rule="nonzero"/>
            </g>
            <path fill="#F5DE2F" d="m37.294 91-.906 13.79L24 101.058l10.523 7.659-4.44 11.656 7.566-7.034 10.274 5.949-5.213-9.571L54.334 98.9l-11.674 3.676zM112.737 92l.787 11.593L103 107.234l9.151 1.148 1.816 10.442 3.565-9.053 14.065 1.757-9.206-5.884 4.849-10.308-9.959 7.283zM119.933 44l-.215 8.286L112 54.169l6.423 1.427.593 7.537 3.136-6.192 9.872 2.187-6.146-4.793 4.132-6.998-7.559 4.508z"/>
        </g>
    </g>
</svg>
