<svg width="25" height="25" viewBox="0 0 25 25" xmlns="http://www.w3.org/2000/svg">
    <g fill="none" fill-rule="evenodd">
        <circle stroke="#EBC0FB" stroke-width="2" fill="#BC79F4" cx="12.5" cy="12.5" r="11.5"/>
        <g fill="#FFF" fill-rule="nonzero">
            <path d="m15.998 13.942-6.496-3.75a.764.764 0 0 1-.26-1.049l.778-1.347c1.288-2.232 4.078-3.034 6.23-1.791 2.152 1.242 2.852 4.06 1.564 6.291l-.778 1.347a.793.793 0 0 1-.465.367.737.737 0 0 1-.573-.068zM10.93 9.22l5.196 3 .389-.674c.859-1.488.392-3.366-1.043-4.194-1.435-.828-3.294-.294-4.153 1.194l-.39.674z"/>
            <path d="M17.647 12.585c.717.414.954 1.346.53 2.082l-1.043 1.805c-1.658 2.947-5.285 4.098-8.228 2.613l-.156-.09c-2.87-1.657-3.819-5.386-2.12-8.33l1.155-1.998c.424-.736 1.35-.996 2.068-.582zM12.21 13a1.507 1.507 0 0 0-1.81.27 1.556 1.556 0 0 0-.27 1.833l-.108.186a.76.76 0 0 0 .265 1.041.76.76 0 0 0 1.034-.29l.108-.187a1.556 1.556 0 0 0 1.453-1.15A1.507 1.507 0 0 0 12.211 13z"/>
        </g>
    </g>
</svg>
