<svg width="41" height="41" viewBox="0 0 41 41" xmlns="http://www.w3.org/2000/svg">
    <g fill="none" fill-rule="evenodd">
        <path d="M0 0h41v41H0z"/>
        <path d="M38.686 26.291c0 6.632-5.377 12.008-12.008 12.008-6.632 0-12.007-5.376-12.007-12.008 0-6.631 5.375-12.006 12.007-12.006 6.631 0 12.008 5.375 12.008 12.006z" fill-opacity=".3" fill="#39B3FD"/>
        <g stroke="#39B3FD" stroke-linecap="round" stroke-linejoin="round" stroke-width="2.34">
            <path d="M26.13 24.097c0 3.148-2.564 5.701-5.726 5.701s-5.725-2.553-5.725-5.701"/>
            <path d="M31.111 23.18c0 5.913-4.794 10.707-10.707 10.707-5.913 0-10.707-4.794-10.707-10.707 0-5.913 4.794-10.707 10.707-10.707 5.913 0 10.707 4.794 10.707 10.707z"/>
            <path d="M9.697 23.18c0-1.887.492-3.656 1.349-5.196l-.06-.003a5.625 5.625 0 1 0 .567 11.222 10.656 10.656 0 0 1-1.856-6.023zM31.111 23.18c0-1.887-.492-3.656-1.348-5.196.02 0 .04-.003.059-.003a5.625 5.625 0 1 1-.566 11.222 10.656 10.656 0 0 0 1.855-6.023z"/>
            <path d="M7.428 19.248C8.466 12.503 13.88 7.361 20.404 7.361c6.523 0 11.938 5.142 12.976 11.888"/>
        </g>
    </g>
</svg>
