<svg xmlns="http://www.w3.org/2000/svg" width="70" height="70" viewBox="0 0 70 70">
    <g fill="none" fill-rule="evenodd">
        <g>
            <g>
                <path d="M0 0H70V70H0z" transform="translate(-45 -829) translate(45 829)"/>
                <g>
                    <path fill="#EBC0FB" fill-opacity=".3" d="M50.786 56.553H26.75c-4.684 0-8.482-3.393-8.482-7.577V24.13c0-4.183 3.798-7.576 8.482-7.576h24.037c4.683 0 8.48 3.393 8.48 7.576v24.847c0 4.184-3.797 7.577-8.48 7.577z" transform="translate(-45 -829) translate(45 829) translate(8 9.5)"/>
                    <g>
                        <path stroke="#F24C7C" stroke-linecap="round" stroke-linejoin="round" stroke-width="4" d="M45.8 50.749H12.897c-3.748 0-6.782-3.038-6.782-6.782V6.782C6.114 3.035 9.148 0 12.896 0h32.905c3.744 0 6.782 3.035 6.782 6.782v37.185c0 3.744-3.038 6.782-6.782 6.782zM15.574 13.217L43.122 13.217M15.574 25.373L43.122 25.373M15.574 37.531L43.122 37.531" transform="translate(-45 -829) translate(45 829) translate(8 9.5)"/>
                        <path fill="#F24C7C" d="M5.113 14.487C2.289 14.487 0 12.197 0 9.374 0 6.548 2.289 4.26 5.113 4.26M5.113 30.487C2.289 30.487 0 28.197 0 25.374c0-2.824 2.289-5.113 5.113-5.113M5.113 46.487C2.289 46.487 0 44.197 0 41.374c0-2.824 2.289-5.112 5.113-5.112" transform="translate(-45 -829) translate(45 829) translate(8 9.5)"/>
                    </g>
                </g>
            </g>
        </g>
    </g>
</svg>
