<svg width="41" height="42" viewBox="0 0 41 42" xmlns="http://www.w3.org/2000/svg">
    <g fill="none" fill-rule="evenodd">
        <path d="M0 1h41v41H0z"/>
        <g stroke="#BC79F4" stroke-width="2.34">
            <path d="M12.344 7a6.344 6.344 0 0 1 6.344 6.344v6.344h-6.344a6.344 6.344 0 0 1 0-12.688z"/>
            <path d="M12.344 23.313h6.344v6.343a6.344 6.344 0 1 1-6.344-6.343zM28.656 7a6.344 6.344 0 1 1 0 12.688h-6.343v-6.344A6.344 6.344 0 0 1 28.655 7z" fill-opacity=".3" fill="#EBC0FB"/>
            <path d="M22.313 23.313h6.343a6.344 6.344 0 1 1-6.343 6.343v-6.343z"/>
        </g>
    </g>
</svg>
