<svg width="41" height="41" viewBox="0 0 41 41" xmlns="http://www.w3.org/2000/svg">
    <g fill="none" fill-rule="evenodd">
        <path d="M0 0h41v41H0z"/>
        <path d="M34.688 16.655c-2.75-2.71-7.21-2.71-9.961 0l-1.476 1.453-1.476-1.453c-2.75-2.71-7.21-2.71-9.96 0a6.863 6.863 0 0 0 0 9.81l1.652 1.629c.005.006.003.015.009.02l9.577 9.432a.27.27 0 0 0 .198.077.27.27 0 0 0 .199-.077l9.576-9.432c.006-.005.004-.014.009-.02l1.653-1.629a6.863 6.863 0 0 0 0-9.81z" fill-opacity=".3" fill="#F24C7C"/>
        <path d="M33.416 9.526a7.972 7.972 0 0 0-11.274 0l-1.67 1.67-1.671-1.67A7.972 7.972 0 0 0 7.527 20.8l1.87 1.872c.006.007.003.018.01.024l10.84 10.839c.062.062.143.09.224.088a.303.303 0 0 0 .225-.088l10.84-10.84c.006-.005.003-.016.009-.023l1.871-1.871a7.972 7.972 0 0 0 0-11.275z" stroke="#F24C7C" stroke-width="2.34" stroke-linecap="round" stroke-linejoin="round"/>
        <path d="M12.246 10.017A6.488 6.488 0 0 0 9.9 11.522a6.48 6.48 0 0 0-1.788 3.36" stroke="#F24C7C" stroke-width="2.34" stroke-linecap="round" stroke-linejoin="round"/>
    </g>
</svg>
