<svg width="41" height="42" viewBox="0 0 41 42" xmlns="http://www.w3.org/2000/svg">
    <g fill="none" fill-rule="evenodd">
        <path d="M0 1h41v41H0z"/>
        <path d="M24.658 31.33H22.6c-5.62 0-10.22-4.598-10.22-10.22v-2.059c0-5.62 4.6-10.22 10.22-10.22h2.06c5.62 0 10.22 4.6 10.22 10.22v2.06c0 5.62-4.6 10.22-10.22 10.22" fill-opacity=".3" fill="#EBC0FB"/>
        <path d="M26.886 8.89a7.472 7.472 0 0 0-9.184 5.226l-.586 2.136-2.136-.587a7.471 7.471 0 0 0-9.182 5.227 7.47 7.47 0 0 0 5.227 9.183l2.39.658c.008.002.01.011.02.014L27.29 34.55a.29.29 0 0 0 .223-.032.287.287 0 0 0 .143-.176l3.805-13.854c0-.009-.005-.016-.004-.025l.657-2.392a7.472 7.472 0 0 0-5.228-9.182z" stroke="#BC79F4" stroke-width="2.34"/>
        <path d="M31.517 12.612c3.231-.762 5.539-.635 6.233.567 1.486 2.574-5.014 9.11-14.518 14.597-9.503 5.487-18.413 7.848-19.9 5.273-.754-1.308.55-3.638 3.264-6.334" stroke="#BC79F4" stroke-width="2.34"/>
    </g>
</svg>
