<svg xmlns="http://www.w3.org/2000/svg" width="70" height="70" viewBox="0 0 70 70">
    <g fill="none" fill-rule="evenodd">
        <g>
            <g>
                <path d="M0 0H70V70H0z" transform="translate(-525 -973) translate(525 973)"/>
                <g>
                    <path fill="#EBC0FB" fill-opacity=".3" d="M11.648 24.586l2.885 19h22.36c2.782 0 5.149-2.02 5.57-4.757l2.185-14.243h-33z" transform="translate(-525 -973) translate(525 973) translate(9 13)"/>
                    <path stroke="#F24C7C" stroke-linecap="round" stroke-linejoin="round" stroke-width="4" d="M48.145 20.11H3.099C1.388 20.11 0 18.724 0 17.01v-4.404c0-1.71 1.388-3.097 3.099-3.097h45.046c1.71 0 3.1 1.386 3.1 3.097v4.404c0 1.714-1.39 3.1-3.1 3.1z" transform="translate(-525 -973) translate(525 973) translate(9 13)"/>
                    <path stroke="#F24C7C" stroke-linecap="round" stroke-linejoin="round" stroke-width="4" d="M37.437 43.587H13.806c-2.588 0-4.788-1.89-5.177-4.445L5.723 20.11h39.8l-2.907 19.032c-.391 2.555-2.591 4.445-5.179 4.445zM13.968 9.509C13.968 4.257 19.185 0 25.623 0c6.435 0 11.653 4.257 11.653 9.509" transform="translate(-525 -973) translate(525 973) translate(9 13)"/>
                    <path fill="#F24C7C" d="M17.375 36.856c-.65 0-1.176-.528-1.176-1.178v-7.91c0-.653.527-1.18 1.176-1.18.65 0 1.178.527 1.178 1.18v7.91c0 .65-.527 1.178-1.178 1.178M25.623 36.856c-.651 0-1.178-.528-1.178-1.178v-7.91c0-.653.527-1.18 1.178-1.18.649 0 1.176.527 1.176 1.18v7.91c0 .65-.527 1.178-1.176 1.178M33.868 36.856c-.65 0-1.178-.528-1.178-1.178v-7.91c0-.653.528-1.18 1.178-1.18.65 0 1.179.527 1.179 1.18v7.91c0 .65-.53 1.178-1.179 1.178" transform="translate(-525 -973) translate(525 973) translate(9 13)"/>
                </g>
            </g>
        </g>
    </g>
</svg>
