<svg width="41" height="41" viewBox="0 0 41 41" xmlns="http://www.w3.org/2000/svg">
    <g fill="none" fill-rule="evenodd">
        <path d="M0 0h41v41H0z"/>
        <path d="M36.617 34.557H10.825c-.803 0-1.454-.777-1.454-1.736V21.065c0-.96.651-1.736 1.454-1.736h25.792c.803 0 1.454.776 1.454 1.736V32.82c0 .959-.65 1.736-1.454 1.736z" fill-opacity=".3" fill="#EBC0FB"/>
        <path d="M28.375 13.32a8.048 8.048 0 1 1-16.096-.001 8.048 8.048 0 0 1 16.096 0zM6.443 35.655v-9.528c0-.777.63-1.406 1.407-1.406h24.954c.778 0 1.407.63 1.407 1.406v9.528" stroke="#BC79F4" stroke-width="2.343" stroke-linecap="round" stroke-linejoin="round"/>
        <path d="M19.914 18.163v-1.228c-.706-.011-1.436-.232-1.862-.535l.293-.814a3.25 3.25 0 0 0 1.752.522c.862 0 1.446-.499 1.446-1.192 0-.669-.473-1.082-1.374-1.447-1.24-.487-2.006-1.047-2.006-2.104 0-1.01.717-1.776 1.836-1.958v-1.23h.754v1.181c.73.024 1.228.219 1.58.425l-.303.803a2.937 2.937 0 0 0-1.532-.414c-.937 0-1.29.56-1.29 1.047 0 .631.45.949 1.509 1.387 1.252.51 1.885 1.142 1.885 2.224 0 .961-.669 1.862-1.922 2.069v1.264h-.766z" fill="#BC79F4"/>
    </g>
</svg>
