<svg xmlns="http://www.w3.org/2000/svg" width="70" height="70" viewBox="0 0 70 70">
    <g fill="none" fill-rule="evenodd">
        <g>
            <g>
                <path d="M0 0H70V70H0z" transform="translate(-365 -973) translate(365 973)"/>
                <path fill="#EBC0FB" fill-opacity=".3" d="M43.337 24.836c0 10.219-8.282 18.501-18.5 18.501s-18.5-8.282-18.5-18.5 8.282-18.5 18.5-18.5 18.5 8.282 18.5 18.5z" transform="translate(-365 -973) translate(365 973)"/>
                <g stroke="#F24C7C" stroke-linecap="round" stroke-linejoin="round" stroke-width="4">
                    <path d="M42.164 32.06v-6.65c0-9.993-7.677-18.589-17.657-19.06-10.656-.5-19.45 7.99-19.45 18.535v7.175c0 1.124-.67 2.126-1.69 2.597-2.148.99-3.587 3.238-3.34 5.811.289 3.025 3.022 5.234 6.06 5.234h35.046c3.037 0 5.77-2.21 6.06-5.234.246-2.573-1.193-4.822-3.34-5.811-1.02-.471-1.689-1.473-1.689-2.597z" transform="translate(-365 -973) translate(365 973) translate(11 7.5)"/>
                    <path d="M30.633 45.702c0 3.88-3.144 7.024-7.023 7.024-3.88 0-7.024-3.144-7.024-7.024M21.45.703L25.77.703" transform="translate(-365 -973) translate(365 973) translate(11 7.5)"/>
                </g>
            </g>
        </g>
    </g>
</svg>
