<svg width="42" height="42" viewBox="0 0 42 42" xmlns="http://www.w3.org/2000/svg" xmlns:xlink="http://www.w3.org/1999/xlink">
    <defs>
        <path id="ujncww3e6a" d="M.388.293h2.318V2.61H.388z"/>
    </defs>
    <g fill="none" fill-rule="evenodd">
        <path d="M0 0h42v42H0z"/>
        <path d="M21.116 6.178c-4.125 0-7.86 1.672-10.564 4.375a14.89 14.89 0 0 0-4.375 10.563 14.89 14.89 0 0 0 4.376 10.562 14.894 14.894 0 0 0 10.563 4.375 14.89 14.89 0 0 0 10.562-4.375 14.89 14.89 0 0 0 4.375-10.562c0-4.125-1.672-7.86-4.375-10.563a14.89 14.89 0 0 0-10.562-4.375z" fill="#FFF" stroke="#F24C7C" stroke-width="2"/>
        <g transform="translate(19.716 10.322)">
            <mask id="gsrmul32lb" fill="#fff">
                <use xlink:href="#ujncww3e6a"/>
            </mask>
            <path d="M2.706 1.452a1.158 1.158 0 1 1-2.317 0 1.158 1.158 0 0 1 2.317 0" fill="#F24C7C" mask="url(#gsrmul32lb)"/>
        </g>
        <path d="M12.818 17.148a1.158 1.158 0 1 1-2.317 0 1.158 1.158 0 0 1 2.317 0M32.026 17.148a1.158 1.158 0 1 1-2.317 0 1.158 1.158 0 0 1 2.317 0M21.263 27.872l-2.774-3.607 1.382-1.492h2.84l1.326 1.51-2.774 3.59zm8.28-9-3.637 2.302a.417.417 0 0 1-.596-.168l-3.674-7.395a.416.416 0 0 0-.746 0l-3.674 7.395a.417.417 0 0 1-.596.168l-3.637-2.301a.417.417 0 0 0-.638.396l1.099 10.34a.417.417 0 0 0 .415.373h14.809a.417.417 0 0 0 .414-.373l1.098-10.34a.417.417 0 0 0-.638-.396z" fill="#F24C7C"/>
    </g>
</svg>
