<svg width="43" height="42" viewBox="0 0 43 42" xmlns="http://www.w3.org/2000/svg">
    <g fill="none" fill-rule="evenodd">
        <path d="M.5 0h42v42H.5z"/>
        <path d="M21.616 6.178c-4.125 0-7.86 1.672-10.564 4.375a14.89 14.89 0 0 0-4.375 10.563 14.89 14.89 0 0 0 4.376 10.562 14.894 14.894 0 0 0 10.563 4.375 14.89 14.89 0 0 0 10.562-4.375 14.89 14.89 0 0 0 4.375-10.562c0-4.125-1.672-7.86-4.375-10.563a14.89 14.89 0 0 0-10.562-4.375z" stroke="#F24C7C" stroke-width="2" fill="#FFF"/>
        <path d="M27.833 15.076a1.196 1.196 0 0 0 1.292-1.066 1.185 1.185 0 0 0-1.066-1.293c-10.588-1.018-13.4 2.003-13.686 2.351-.413.508-.352 1.27.154 1.684.225.183.492.273.759.273.333 0 .662-.143.894-.424.015-.016 1.032-1.023 4.254-1.49v1.81h-.909a4.835 4.835 0 0 0-4.836 4.834v3.147a1.186 1.186 0 0 0 2.37 0v-3.146a2.467 2.467 0 0 1 2.467-2.467h.908v9.25a1.184 1.184 0 0 0 2.368 0v-9.25h.953a2.425 2.425 0 0 1 2.423 2.42l.023 1.966c0 .024-.018.042-.043.044-.695.023-1.239.65-1.124 1.374.107.69.835 1.072 1.526.967a2.348 2.348 0 0 0 1.986-2.318v-1.986a4.836 4.836 0 0 0-4.837-4.836h-.907v-2.015c1.396-.055 3.047-.02 5.03.17" fill="#F24C7C"/>
    </g>
</svg>
