<svg xmlns="http://www.w3.org/2000/svg" width="43" height="42" viewBox="0 0 43 42">
    <g fill="none" fill-rule="evenodd">
        <g>
            <g>
                <path d="M0 0H42V42H0z" transform="translate(-395.000000, -490.000000) translate(395.500000, 490.000000)"/>
                <g>
                    <path fill="#FFF" d="M10.622 6.684c-.141-.145-.257-.327-.338-.536L9.085 3.033C8.64 1.88 9.343.563 10.403.563h9.614c1.06 0 1.763 1.317 1.32 2.47l-1.201 3.115c-.078.204-.19.38-.326.522" transform="translate(-395.000000, -490.000000) translate(395.500000, 490.000000) translate(5.444444, 4.666667)"/>
                    <path fill="#FFF" d="M18.309 31.602H12.11c-6.976 0-12.36-5.534-11.447-11.768l.39-2.662c.937-6.4 6.993-11.185 14.156-11.185 7.164 0 13.219 4.785 14.156 11.185l.39 2.662c.913 6.234-4.471 11.768-11.447 11.768z" transform="translate(-395.000000, -490.000000) translate(395.500000, 490.000000) translate(5.444444, 4.666667)"/>
                    <path fill="#F24C7C" d="M19.519 19.947h-3.223v-1.665h3.223c.599 0 1.086-.486 1.086-1.084 0-.6-.487-1.086-1.086-1.086h-2.116l2.255-2.956c.364-.478.272-1.16-.205-1.522-.477-.363-1.158-.273-1.52.204l-2.723 3.569-2.721-3.57c-.364-.476-1.045-.566-1.523-.203-.477.363-.568 1.044-.203 1.522l2.254 2.956H10.9c-.6 0-1.085.485-1.085 1.086 0 .598.485 1.084 1.085 1.084h3.223v1.665h-3.223c-.6 0-1.085.487-1.085 1.086 0 .6.485 1.086 1.085 1.086h3.223v2.971c0 .6.487 1.086 1.086 1.086.6 0 1.086-.485 1.086-1.086V22.12h3.223c.599 0 1.086-.487 1.086-1.086 0-.6-.487-1.086-1.086-1.086" transform="translate(-395.000000, -490.000000) translate(395.500000, 490.000000) translate(5.444444, 4.666667)"/>
                </g>
            </g>
        </g>
    </g>
</svg>
