<svg width="20" height="30" viewBox="0 0 20 30" xmlns="http://www.w3.org/2000/svg" xmlns:xlink="http://www.w3.org/1999/xlink">
    <defs>
        <path id="a" d="M.256.044h5.373v1.792H.256z"/>
    </defs>
    <g fill="none" fill-rule="evenodd">
        <path d="M18 0a2 2 0 0 1 2 2v26a2 2 0 0 1-2 2H2a2 2 0 0 1-2-2V2a2 2 0 0 1 2-2h16zm-8 25a2 2 0 1 0 0 4 2 2 0 0 0 0-4zm8-23H2v22h16V2z" fill="#FFF"/>
        <path d="M3.69 14.062a5.004 5.004 0 0 0 5.004 5.004h.83a5.004 5.004 0 1 0 0-10.009h-.83a5.004 5.004 0 0 0-5.004 5.005" fill-opacity=".5" fill="#FFF"/>
        <path d="M11.312 19.066H8.694a5.004 5.004 0 0 1 0-10.009h2.618a5.005 5.005 0 0 1 0 10.01z" stroke="#FFF" stroke-width=".5"/>
        <g transform="translate(9.96 6.336)">
            <mask id="b" fill="#fff">
                <use xlink:href="#a"/>
            </mask>
            <path d="M.256 1.376S2.118-.823 5.629.43c0 0-1.74 2.38-5.373.946" fill="#FFF" mask="url(#b)"/>
        </g>
        <path stroke="#FFF" stroke-width=".5" d="M10.003 6.87v2.187M11.641 19.066a4.675 4.675 0 0 1-4.675-4.675v-2.188"/>
    </g>
</svg>
