<svg width="48" height="48" viewBox="0 0 48 48" xmlns="http://www.w3.org/2000/svg" xmlns:xlink="http://www.w3.org/1999/xlink">
    <defs>
        <path id="yfgz9macya" d="M0 0h32.297v23.13H0z"/>
    </defs>
    <g fill="none" fill-rule="evenodd">
        <circle fill-opacity=".2" fill="#FA719A" cx="24" cy="24" r="24"/>
        <g transform="translate(7.579 12.316)">
            <mask id="ihceef33nb" fill="#fff">
                <use xlink:href="#yfgz9macya"/>
            </mask>
            <path d="M30.46 3.941a.628.628 0 0 1-.628.629h-2.489a.628.628 0 0 1-.628-.629V2.43c0-.347.281-.629.628-.629h2.489c.347 0 .628.282.628.629V3.94zm0 16.761a.628.628 0 0 1-.628.628h-2.489a.628.628 0 0 1-.628-.628V19.19c0-.347.281-.628.628-.628h2.489c.347 0 .628.28.628.628v1.513zm-6.297-16.76a.628.628 0 0 1-.628.628h-2.489a.628.628 0 0 1-.627-.629V2.43c0-.347.281-.629.627-.629h2.49c.346 0 .627.282.627.629V3.94zm0 16.76a.628.628 0 0 1-.628.628h-2.489a.628.628 0 0 1-.627-.628V19.19c0-.347.281-.628.627-.628h2.49c.346 0 .627.28.627.628v1.513zm-6.429-6.667-3.192-3.192-.823-.823a2.307 2.307 0 0 0-1.447-.687 2.244 2.244 0 0 0-2.342 1.66 2.252 2.252 0 0 0 1.032 2.505 2.248 2.248 0 0 0 2.72-.35l.78-.78a.626.626 0 0 1 .887 0 .626.626 0 0 1 0 .886l-.722.722c-.648.65-1.514 1.056-2.43 1.08a3.49 3.49 0 0 1-2.988-1.523 3.354 3.354 0 0 1-.546-1.321 3.494 3.494 0 0 1 5.905-3.117l4.01 4.01c.838.838 2.197.93 3.09.153a2.24 2.24 0 0 0 0-3.386c-.893-.777-2.252-.684-3.09.153l-.77.77a.628.628 0 0 1-.886-.888l.812-.812a3.483 3.483 0 0 1 2.47-1.021c.982 0 1.964.41 2.664 1.23a3.508 3.508 0 0 1-.038 4.564 3.497 3.497 0 0 1-5.096.167zm.132 6.667c0 .347-.28.628-.628.628H14.75a.628.628 0 0 1-.628-.628V19.19c0-.347.282-.628.628-.628h2.488c.348 0 .628.28.628.628v1.513zm-6.296 0a.628.628 0 0 1-.628.628H8.454a.627.627 0 0 1-.628-.628V19.19c0-.347.28-.628.628-.628h2.488c.347 0 .628.28.628.628v1.513zM5.274 3.942a.628.628 0 0 1-.629.628H2.157a.628.628 0 0 1-.627-.629V2.43c0-.347.28-.629.627-.629h2.488c.347 0 .629.282.629.629V3.94zm0 16.76a.628.628 0 0 1-.629.628H2.157a.627.627 0 0 1-.627-.628V19.19c0-.347.28-.628.627-.628h2.488c.347 0 .629.28.629.628v1.513zM7.826 2.43c0-.347.28-.629.628-.629h2.488c.347 0 .628.282.628.629V3.94a.628.628 0 0 1-.628.629H8.454a.628.628 0 0 1-.628-.629V2.43zm6.296 0c0-.347.282-.629.628-.629h2.488c.348 0 .628.282.628.629V3.94c0 .347-.28.629-.628.629H14.75a.628.628 0 0 1-.628-.629V2.43zm16.985-2.43H1.19A1.19 1.19 0 0 0 0 1.19v20.75c0 .658.533 1.191 1.19 1.191h29.917c.657 0 1.19-.533 1.19-1.19V1.19A1.19 1.19 0 0 0 31.108 0z" fill="#F24C7C" mask="url(#ihceef33nb)"/>
        </g>
    </g>
</svg>
