<svg width="48" height="48" viewBox="0 0 48 48" xmlns="http://www.w3.org/2000/svg" xmlns:xlink="http://www.w3.org/1999/xlink">
    <defs>
        <path id="3kusq37gxa" d="M0 0h30.085v24.94H0z"/>
    </defs>
    <g fill="none" fill-rule="evenodd">
        <circle fill-opacity=".2" fill="#FA719A" cx="24" cy="24" r="24"/>
        <g transform="translate(8.842 11.368)">
            <mask id="w9ebx31osb" fill="#fff">
                <use xlink:href="#3kusq37gxa"/>
            </mask>
            <path d="m27.286 7.205-2.18 2.125a.498.498 0 0 0-.143.44l.516 3a.498.498 0 0 1-.722.524l-2.694-1.416a.488.488 0 0 0-.463 0l-2.694 1.416a.498.498 0 0 1-.722-.524l.514-3a.497.497 0 0 0-.142-.44l-2.18-2.125a.498.498 0 0 1 .275-.849l3.013-.437a.494.494 0 0 0 .373-.272l1.349-2.73a.498.498 0 0 1 .892 0l1.346 2.73c.072.147.212.25.375.272l3.012.437c.408.06.57.562.275.849M22.38 21.33H3.583a.747.747 0 1 1 0-1.496H22.38a.748.748 0 0 1 0 1.496M3.583 15.85h11.46a.748.748 0 0 1 0 1.495H3.583a.747.747 0 1 1 0-1.495M28.251 0H1.835A1.834 1.834 0 0 0 .001 1.833v21.272c0 1.014.82 1.835 1.834 1.835h26.416a1.836 1.836 0 0 0 1.834-1.835V1.833A1.835 1.835 0 0 0 28.251 0" fill="#F24C7C" mask="url(#w9ebx31osb)"/>
        </g>
    </g>
</svg>
