<svg width="48" height="48" viewBox="0 0 48 48" xmlns="http://www.w3.org/2000/svg" xmlns:xlink="http://www.w3.org/1999/xlink">
    <defs>
        <path id="o38yqoh0ca" d="M0 .093h31.959v33.808H0z"/>
    </defs>
    <g fill="none" fill-rule="evenodd">
        <circle fill-opacity=".2" fill="#FA719A" cx="24" cy="24" r="24"/>
        <path d="M27.945 30.445c-2.772 2.936-7.421.735-7.421.735 4.078 5.181 7.421-.735 7.421-.735" fill="#F24C7C"/>
        <g transform="translate(7.895 6.966)">
            <mask id="ho87m19w7b" fill="#fff">
                <use xlink:href="#o38yqoh0ca"/>
            </mask>
            <path d="M15.494 5.088c-5.093.2-9.422 3.689-10.972 8.334a2.39 2.39 0 0 0-.86-.98c1.086-5.814 6.192-10.23 12.317-10.23 6.126 0 11.231 4.416 12.318 10.23-.362.234-.65.563-.843.95-1.63-4.971-6.396-8.522-11.96-8.304m14.91 7.13C29.2 5.34 23.197.093 15.98.093 8.761.093 2.76 5.34 1.554 12.218A2.374 2.374 0 0 0 0 14.443v5.345a2.38 2.38 0 0 0 2.38 2.379c.932 0 1.73-.541 2.12-1.321a12.097 12.097 0 0 0 5.545 6.82c.242.137.497-.174.315-.384-1.51-1.742-2.468-4.18-2.52-6.89 1.322-3.793 5.663-3.605 8.949-4.143 2.754-.451 3.323-2.905 3.396-4.515 2.36 1.725 3.943 4.847 3.943 8.423 0 2.804-.97 5.332-2.527 7.125-.18.209.074.52.315.385a12.102 12.102 0 0 0 5.542-6.821c.192.382.477.709.835.94a12.45 12.45 0 0 1-3.558 5.62 12.403 12.403 0 0 1-7.2 3.182 2.194 2.194 0 0 0-4.088 1.114 2.2 2.2 0 0 0 2.2 2.2c.846 0 1.572-.483 1.94-1.183a14.548 14.548 0 0 0 8.571-3.742 14.548 14.548 0 0 0 4.281-6.976 2.376 2.376 0 0 0 1.52-2.213v-5.345a2.375 2.375 0 0 0-1.555-2.225" fill="#F24C7C" mask="url(#ho87m19w7b)"/>
        </g>
    </g>
</svg>
