<svg width="48" height="48" viewBox="0 0 48 48" xmlns="http://www.w3.org/2000/svg">
    <g fill="none" fill-rule="evenodd">
        <circle fill-opacity=".2" fill="#FA719A" cx="24" cy="24" r="24"/>
        <g fill="#F24C7C">
            <path d="M19.466 25.276a.375.375 0 0 1-.375-.376v-2.235c0-.207.168-.375.375-.375h3.123a9.116 9.116 0 0 1-.754 2.986h-2.369zm9.109-2.61V24.9a.374.374 0 0 1-.375.376h-3.95c.31-.879.505-1.866.536-2.986H28.2c.208 0 .375.168.375.375zm-1.854 7.997a.483.483 0 0 1-.485-.485v-3.955h3.325c.594 0 1.075-.48 1.075-1.074v-2.732c0-.595-.48-1.075-1.075-1.075h-1.539c1.01-1.122 1.41-2.125 1.56-2.759a.568.568 0 0 0-.557-.696H20.9c.25-.504.438-1.023.49-1.51h-2.3s-.332 2.106-3.07 4.352h2.844s1.02-1.069 1.767-2.351h6.06a.49.49 0 0 1 .483.596c-.238.95-.942 1.935-1.28 2.368h-7.791c-.593 0-1.073.48-1.073 1.075v2.732c0 .593.48 1.074 1.073 1.074h3.22c-.88 1.42-2.359 2.787-4.882 3.352v2.142s5.193-1.03 7.39-5.441v4.219c0 .559.453 1.01 1.012 1.01h6.27v-.842h-4.393z"/>
            <path d="M23.692 41.216c-.76 0-1.52-.193-2.212-.578L9.92 34.213a4.558 4.558 0 0 1-2.34-3.98V17.614c0-1.651.896-3.177 2.34-3.98L21.48 7.21a4.53 4.53 0 0 1 4.424 0l9.73 5.408a.982.982 0 1 1-.956 1.718L24.95 8.926a2.573 2.573 0 0 0-2.515 0l-11.559 6.426a2.59 2.59 0 0 0-1.33 2.262v12.619c0 .938.51 1.806 1.33 2.262l11.56 6.426a2.57 2.57 0 0 0 2.515 0l11.559-6.426a2.591 2.591 0 0 0 1.331-2.262V19.729a.982.982 0 1 1 1.965 0v10.504a4.558 4.558 0 0 1-2.34 3.98l-11.56 6.425a4.554 4.554 0 0 1-2.213.578"/>
        </g>
    </g>
</svg>
