<svg width="33" height="33" viewBox="0 0 33 33" xmlns="http://www.w3.org/2000/svg">
    <g stroke="#A8A8A8" stroke-width="2" fill="none" fill-rule="evenodd">
        <path d="M16.5 1C12.22 1 8.345 2.735 5.54 5.54A15.451 15.451 0 0 0 1 16.5c0 4.28 1.735 8.155 4.54 10.96A15.452 15.452 0 0 0 16.5 32c4.28 0 8.155-1.735 10.96-4.54A15.451 15.451 0 0 0 32 16.5c0-4.28-1.735-8.155-4.54-10.96A15.451 15.451 0 0 0 16.5 1z"/>
        <path d="M9 7c.62-.363 1.29-.698 2-1M5.778 21A12.183 12.183 0 0 1 5 16.71c0-2.453.73-4.748 2-6.71M16 6v13.346L25 25" stroke-linecap="round" stroke-linejoin="round"/>
    </g>
</svg>
