<svg width="33" height="33" viewBox="0 0 33 33" xmlns="http://www.w3.org/2000/svg">
    <g fill="none" fill-rule="evenodd">
        <rect stroke="#A8A8A8" stroke-width="2" x="1" y="1" width="31" height="31" rx="4.829"/>
        <path d="M7.96 7.65c-.482.003-.847.176-1.104.432-.264.264-.435.637-.435 1.114v.933c0 .495.18.852.448 1.102.25.233.603.39 1.077.396l5.323.421-7.182 1.223c.184.966.433 1.007.433 1.233l-.025 7.934c0 .49.175.854.442 1.111.256.248.62.414 1.107.414h2.726c.491 0 .856-.163 1.112-.41.253-.244.428-.592.436-1.08l.454-6.448.81.165v8.044c0 .486.176.852.442 1.108.256.248.621.414 1.107.414h3.222c.485 0 .85-.166 1.107-.414.261-.252.435-.61.44-1.084l.445-8.228.768.158-.164 4.642-.808 3.157h4.308c.708 0 1.329-.264 1.775-.688.458-.435.74-1.043.74-1.743v-8.08c0-.487-.176-.852-.442-1.108-.25-.242-.604-.407-1.073-.414l-5.247-.605 5.2-.129c.48-.002.845-.175 1.102-.431.299-.299.478-.738.425-1.31L25.67 7.6c-.458-.07-1.257-.123-2.653-.145-2.5-.04-6.99.012-15.056.195z" stroke="#FA719A" stroke-width="1.61"/>
    </g>
</svg>
