<svg width="33" height="33" viewBox="0 0 33 33" xmlns="http://www.w3.org/2000/svg" xmlns:xlink="http://www.w3.org/1999/xlink">
    <defs>
        <path id="uet8ef186a" d="M0 .33h32.621v22.357H.001z"/>
        <path id="u7gi6q95gc" d="M.001.102H29.57v12.512H0z"/>
    </defs>
    <g fill="none" fill-rule="evenodd">
        <circle cx="16.5" cy="16.5" r="16.5"/>
        <g transform="translate(0 8.647)">
            <mask id="3lausdg45b" fill="#fff">
                <use xlink:href="#uet8ef186a"/>
            </mask>
            <path d="M27.548.33H5.073A5.073 5.073 0 0 0 0 5.401v12.212a5.073 5.073 0 0 0 5.073 5.073h22.475a5.073 5.073 0 0 0 5.073-5.073V5.402A5.073 5.073 0 0 0 27.548.33zm0 2.75a2.326 2.326 0 0 1 2.323 2.322v12.212a2.326 2.326 0 0 1-2.323 2.323H5.073a2.326 2.326 0 0 1-2.323-2.323V5.402A2.326 2.326 0 0 1 5.073 3.08h22.475z" fill="#A8A8A8" mask="url(#3lausdg45b)"/>
        </g>
        <path d="M16.31 18.918H1.946a1.376 1.376 0 0 1 0-2.75h14.366a1.376 1.376 0 0 1 0 2.75M10.473 24.144H1.946a1.375 1.375 0 0 1 0-2.75h8.527a1.376 1.376 0 0 1 0 2.75" fill="#A8A8A8"/>
        <g transform="translate(0 1.085)">
            <mask id="6gcpm3ywed" fill="#fff">
                <use xlink:href="#u7gi6q95gc"/>
            </mask>
            <path d="M5.073 7.892h4.605l12.345-4.875a2.312 2.312 0 0 1 3.014 1.308l1.41 3.567h1.101c.719 0 1.401.15 2.02.42l-1.973-4.998A5.075 5.075 0 0 0 21.013.458L3.212 7.488a5.075 5.075 0 0 0-3.195 5.126 5.07 5.07 0 0 1 5.056-4.722" fill="#A8A8A8" mask="url(#6gcpm3ywed)"/>
        </g>
        <path d="M27.53 21.252h-3.062V19.67h3.061a1.032 1.032 0 0 0 0-2.062H25.52l2.141-2.808a1.03 1.03 0 1 0-1.639-1.251l-2.586 3.39-2.586-3.39a1.032 1.032 0 0 0-1.64 1.251l2.143 2.808h-2.01a1.032 1.032 0 0 0 0 2.062h3.062v1.582h-3.062a1.032 1.032 0 0 0 0 2.062h3.062v2.823a1.031 1.031 0 1 0 2.063 0v-2.823h3.061a1.032 1.032 0 0 0 0-2.062" fill="#FA719A"/>
    </g>
</svg>
