<svg width="41" height="41" viewBox="0 0 41 41" xmlns="http://www.w3.org/2000/svg">
    <defs>
        <linearGradient x1="100%" y1="100%" x2="50%" y2="0%" id="nqx90vdmva">
            <stop stop-color="#FA719A" offset="0%"/>
            <stop stop-color="#FA97AB" offset="51.661%"/>
            <stop stop-color="#FBC6C0" offset="100%"/>
        </linearGradient>
    </defs>
    <g fill="none" fill-rule="evenodd">
        <rect fill="url(#nqx90vdmva)" width="41" height="41" rx="6"/>
        <path d="M9.89 9.505c-.6.003-1.052.218-1.372.537-.328.327-.54.79-.54 1.384v1.158c0 .615.223 1.06.556 1.37.31.29.75.485 1.338.491l6.614.524-8.924 1.52c.23 1.2.539 1.25.539 1.53l-.031 9.86c0 .606.218 1.06.548 1.379.319.307.772.514 1.376.514h3.386c.611 0 1.064-.202 1.382-.509.314-.303.533-.735.542-1.343l.564-8.01 1.007.204v9.995c0 .604.218 1.058.549 1.377.318.307.771.514 1.375.514h4.003c.603 0 1.057-.207 1.375-.514.325-.314.54-.758.548-1.347l.552-10.223.954.196-.204 5.767-1.004 3.923h5.353c.88 0 1.65-.328 2.205-.855a2.949 2.949 0 0 0 .919-2.165v-10.04c0-.604-.218-1.057-.548-1.376-.311-.3-.75-.505-1.333-.514l-6.52-.752 6.46-.16c.598-.003 1.05-.217 1.37-.536.339-.338.554-.82.54-1.441l-.189-1.856a2.052 2.052 0 0 0-.447-.375c-.168-.098-.445-.213-.941-.29-.57-.087-1.562-.153-3.296-.18-3.106-.05-8.685.015-18.706.243z" stroke="#FFF" stroke-width="2"/>
    </g>
</svg>
